<svg width="108" height="64" viewBox="0 0 108 64" fill="none" xmlns="http://www.w3.org/2000/svg">
<rect x="0.5" y="0.5" width="107" height="63" rx="4.5" stroke="#9747FF" stroke-dasharray="10 5"/>
<path d="M82.47 23.6057L77.1302 28.9455C76.8188 29.2568 76.598 29.6469 76.4912 30.0741L76.0771 31.7303C75.8971 32.4505 76.5495 33.1029 77.2697 32.9229L78.9259 32.5088C79.3531 32.402 79.7432 32.1812 80.0545 31.8698L85.3943 26.53C86.2019 25.7225 86.2019 24.4132 85.3943 23.6057C84.5868 22.7981 83.2775 22.7981 82.47 23.6057ZM76.4904 28.3058L79.9872 24.8089H69.0355L68.8962 24.8136C67.837 24.8852 67 25.7671 67 26.8445V36.3457L67.0047 36.4851C67.0763 37.5443 67.9582 38.3813 69.0355 38.3813L72.8796 38.381V40.6409L71.2973 40.6413L71.2052 40.6475C70.874 40.6925 70.6187 40.9763 70.6187 41.3198C70.6187 41.6946 70.9225 41.9984 71.2973 41.9984H80.7965L80.8885 41.9922C81.2197 41.9472 81.475 41.6634 81.475 41.3198C81.475 40.9451 81.1712 40.6413 80.7965 40.6413L79.2124 40.6409V38.381L83.0571 38.3813L83.1965 38.3766C84.2557 38.305 85.0927 37.4231 85.0927 36.3457V28.111L80.6942 32.5095C80.2669 32.9368 79.7315 33.2399 79.1453 33.3865L77.4891 33.8006C76.1062 34.1463 74.8537 32.8937 75.1994 31.5109L75.6134 29.8546C75.76 29.2684 76.0631 28.7331 76.4904 28.3058ZM77.8544 38.381L77.8553 40.6413H74.2366L74.2357 38.381H77.8544Z" fill="#262627"/>
</svg>
