<svg width="24" height="24" viewBox="0 0 24 24" fill="none" xmlns="http://www.w3.org/2000/svg">
<path d="M8.50199 20C8.35513 20.0004 8.2114 19.9576 8.08869 19.8769C7.96599 19.7962 7.86973 19.6812 7.81191 19.5462C7.75409 19.4112 7.73726 19.2622 7.76352 19.1177C7.78978 18.9732 7.85797 18.8396 7.9596 18.7336L14.4556 12.0094L7.95956 5.2662C7.89112 5.1955 7.83738 5.11193 7.80144 5.02034C7.7655 4.92874 7.74807 4.83093 7.75017 4.73256C7.75226 4.63419 7.77384 4.5372 7.81364 4.44722C7.85345 4.35724 7.9107 4.27604 7.98208 4.20832C8.12611 4.07081 8.31875 3.99597 8.51784 4.00017C8.71692 4.00437 8.90623 4.08727 9.04434 4.23073L16.0406 11.4922C16.1749 11.6312 16.2499 11.8169 16.2499 12.0102C16.2499 12.2034 16.1749 12.3892 16.0406 12.5282L9.04434 19.7702C8.97407 19.843 8.88981 19.9009 8.79661 19.9404C8.70342 19.9799 8.6032 20.0002 8.50199 20Z" fill="#262627"/>
</svg>
