<svg width="24" height="24" viewBox="0 0 24 24" fill="none" xmlns="http://www.w3.org/2000/svg">
<path d="M12 2C10.0222 2 8.08879 2.58649 6.4443 3.6853C4.79981 4.78412 3.51809 6.3459 2.76121 8.17317C2.00433 10.0004 1.8063 12.0111 2.19215 13.9509C2.578 15.8907 3.53041 17.6725 4.92894 19.0711C6.32746 20.4696 8.10929 21.422 10.0491 21.8079C11.9889 22.1937 13.9996 21.9957 15.8268 21.2388C17.6541 20.4819 19.2159 19.2002 20.3147 17.5557C21.4135 15.9112 22 13.9778 22 12C22.0001 10.6868 21.7414 9.38639 21.2389 8.17311C20.7364 6.95983 19.9998 5.85742 19.0712 4.92883C18.1426 4.00023 17.0402 3.26364 15.8269 2.76111C14.6136 2.25858 13.3132 1.99995 12 2ZM16.3722 9.96973H20.2446C20.5851 11.3018 20.5851 12.6982 20.2446 14.0303H16.3722C16.431 13.3789 16.462 12.7002 16.462 12C16.462 11.2998 16.431 10.6211 16.3722 9.96973ZM19.7224 8.46973H16.1747C15.9524 6.83912 15.3855 5.2745 14.5118 3.87989C15.6535 4.23707 16.7073 4.83025 17.605 5.62096C18.5026 6.41167 19.224 7.38225 19.7224 8.46973ZM11.9611 20.25C10.9295 20.25 9.81165 18.3721 9.27918 15.5303H14.6439C14.1115 18.3721 12.9934 20.25 11.9611 20.25ZM9.06556 14.0303C8.92623 12.6803 8.92623 11.3197 9.06556 9.96973H14.8576C14.9265 10.6443 14.9613 11.3219 14.9621 12C14.9614 12.6781 14.9265 13.3557 14.8576 14.0303H9.06556ZM11.9611 3.75C12.9933 3.75 14.1113 5.627 14.6439 8.46973H9.27918C9.81165 5.62696 10.9296 3.75 11.9611 3.75ZM9.38453 3.916C8.52741 5.30313 7.97009 6.85429 7.74842 8.46973H4.27759C4.76876 7.39953 5.47601 6.44251 6.35489 5.65884C7.23376 4.87517 8.26526 4.28178 9.38453 3.916ZM7.55091 14.0303H3.75538C3.41488 12.6982 3.41488 11.3018 3.75538 9.96973H7.55091C7.49207 10.6211 7.46106 11.2998 7.46106 12C7.46106 12.7002 7.49207 13.3789 7.55091 14.0303ZM4.27759 15.5303H7.74842C7.97001 17.1457 8.52729 18.6969 9.38442 20.084C8.26518 19.7182 7.2337 19.1248 6.35484 18.3411C5.47599 17.5575 4.76875 16.6005 4.27759 15.5303ZM14.512 20.1201C15.3856 18.7255 15.9524 17.1609 16.1747 15.5303H19.7224C19.2241 16.6178 18.5027 17.5883 17.6051 18.379C16.7074 19.1697 15.6536 19.7629 14.512 20.1201Z" fill="#262627"/>
</svg>
