<svg width="24" height="24" viewBox="0 0 24 24" fill="none" xmlns="http://www.w3.org/2000/svg">
<path d="M12 1.99979C10.0222 1.99979 8.08879 2.58628 6.4443 3.68509C4.79981 4.7839 3.51809 6.34569 2.76121 8.17295C2.00433 10.0002 1.8063 12.0109 2.19215 13.9507C2.578 15.8905 3.53041 17.6723 4.92894 19.0709C6.32746 20.4694 8.10929 21.4218 10.0491 21.8076C11.9889 22.1935 13.9996 21.9955 15.8268 21.2386C17.6541 20.4817 19.2159 19.2 20.3147 17.5555C21.4135 15.911 22 13.9776 22 11.9998C21.9999 9.34764 20.9463 6.80415 19.071 4.9288C17.1956 3.05345 14.6521 1.99986 12 1.99979ZM15.5303 9.53006L9.53028 15.5301C9.38965 15.6707 9.1989 15.7497 9.00001 15.7497C8.80111 15.7497 8.61037 15.6707 8.46972 15.5301C8.32908 15.3894 8.25007 15.1987 8.25007 14.9998C8.25006 14.8009 8.32907 14.6102 8.4697 14.4695L14.4697 8.46952C14.6104 8.32933 14.801 8.25071 14.9997 8.25091C15.1983 8.2511 15.3888 8.33009 15.5292 8.47055C15.6697 8.61101 15.7487 8.80145 15.7489 9.00009C15.7491 9.19872 15.6705 9.38932 15.5303 9.53006Z" fill="#98332F"/>
</svg>
