<svg width="24" height="24" viewBox="0 0 24 24" fill="none" xmlns="http://www.w3.org/2000/svg">
<path fill-rule="evenodd" clip-rule="evenodd" d="M2.1307 19.5026L11.2049 3.50643C11.2924 3.35213 11.4193 3.22392 11.5725 3.13494C11.7256 3.04595 11.8996 2.99939 12.0766 3.00001C12.2536 3.00062 12.4272 3.0484 12.5798 3.13845C12.7323 3.2285 12.8583 3.35759 12.9447 3.5125L21.8727 19.5087C21.9578 19.6611 22.0017 19.8333 22 20.008C21.9982 20.1828 21.951 20.354 21.8629 20.5048C21.7747 20.6555 21.6489 20.7806 21.4977 20.8674C21.3465 20.9543 21.1753 21 21.0011 21H2.9989C2.82409 21 2.65234 20.954 2.50081 20.8666C2.34928 20.7791 2.22328 20.6533 2.1354 20.5018C2.04752 20.3502 2.00084 20.1781 2.00001 20.0028C1.99919 19.8275 2.04425 19.655 2.1307 19.5026ZM11.4597 14.468C11.6001 14.6089 11.7907 14.6881 11.9894 14.6881C12.188 14.6881 12.3786 14.6089 12.519 14.468C12.6595 14.3271 12.7385 14.136 12.7385 13.9367V8.68344C12.7385 8.48415 12.6596 8.29302 12.5191 8.15209C12.3786 8.01117 12.188 7.932 11.9894 7.932C11.7907 7.932 11.6001 8.01117 11.4596 8.15209C11.3191 8.29302 11.2402 8.48415 11.2402 8.68344V13.9367C11.2402 14.136 11.3192 14.3271 11.4597 14.468ZM12.9025 17.0204C12.9025 17.5265 12.4935 17.9367 11.989 17.9367C11.4845 17.9367 11.0755 17.5265 11.0755 17.0204C11.0755 16.5144 11.4845 16.1042 11.989 16.1042C12.4935 16.1042 12.9025 16.5144 12.9025 17.0204Z" fill="#7E6030"/>
</svg>
