<svg width="24" height="24" viewBox="0 0 24 24" fill="none" xmlns="http://www.w3.org/2000/svg">
<path d="M20.7816 19.7273L15.8926 14.8381C17.0663 13.3942 17.6407 11.5549 17.4972 9.69972C17.3538 7.84459 16.5035 6.11535 15.1219 4.86905C13.7402 3.62276 11.9328 2.95455 10.0727 3.0024C8.21264 3.05026 6.44195 3.81051 5.12624 5.12621C3.81053 6.4419 3.05026 8.21256 3.0024 10.0726C2.95455 11.9327 3.62276 13.7401 4.86908 15.1217C6.1154 16.5033 7.84465 17.3536 9.69981 17.497C11.555 17.6405 13.3944 17.0661 14.8383 15.8925L19.7272 20.7816C19.7965 20.8509 19.8787 20.9058 19.9691 20.9432C20.0596 20.9807 20.1565 21 20.2544 21C20.3523 21 20.4493 20.9807 20.5398 20.9432C20.6302 20.9058 20.7124 20.8509 20.7816 20.7816C20.8509 20.7124 20.9058 20.6302 20.9432 20.5398C20.9807 20.4493 21 20.3524 21 20.2544C21 20.1565 20.9807 20.0596 20.9432 19.9691C20.9058 19.8787 20.8509 19.7965 20.7816 19.7273ZM4.51883 10.2722C4.51903 9.13419 4.85667 8.02178 5.48908 7.07564C6.12148 6.1295 7.02024 5.39212 8.07171 4.95675C9.12318 4.52138 10.2801 4.40757 11.3963 4.6297C12.5124 4.85184 13.5377 5.39995 14.3423 6.20473C15.147 7.0095 15.6949 8.0348 15.9169 9.15098C16.1388 10.2671 16.0248 11.4241 15.5892 12.4755C15.1537 13.5268 14.4161 14.4255 13.4699 15.0577C12.5236 15.6899 11.4111 16.0274 10.2731 16.0274C8.74728 16.0258 7.28442 15.4189 6.2056 14.3399C5.12678 13.261 4.52014 11.798 4.51883 10.2722Z" fill="#262627"/>
</svg>
