<svg width="20" height="20" viewBox="0 0 20 20" fill="none" xmlns="http://www.w3.org/2000/svg">
<path d="M6.4493 1.5316L6.174 2.87197C5.95938 3.91693 4.81326 4.54078 3.74605 4.19354L2.3741 3.74714C2.12472 4.0671 1.91132 4.41323 1.73937 4.78022L2.83668 5.67816C3.68931 6.37588 3.68931 7.62363 2.83668 8.32135L1.7392 9.21943C1.91111 9.5864 2.12447 9.93251 2.3738 10.2525L3.74605 9.80597C4.81325 9.45873 5.95938 10.0826 6.174 11.1275L6.4494 12.4684C6.86555 12.5104 7.30137 12.5101 7.71733 12.4675L7.99255 11.1275C8.20718 10.0826 9.3533 9.45873 10.4205 9.80597L11.786 10.2503C12.0357 9.92946 12.2493 9.5824 12.4212 9.21441L11.3299 8.32135C10.4772 7.62363 10.4772 6.37588 11.3299 5.67816L12.4211 4.78524C12.2491 4.41723 12.0355 4.07015 11.7857 3.74935L10.4205 4.19354C9.3533 4.54078 8.20718 3.91693 7.99255 2.87198L7.71744 1.53249C7.30141 1.48987 6.86552 1.48956 6.4493 1.5316ZM5.61905 0.135421C6.09174 0.0465128 6.58003 0 7.07904 0C7.58153 0 8.07314 0.0471646 8.54891 0.137289C8.86526 0.197214 9.11188 0.431356 9.17322 0.730014L9.55459 2.58682C9.58525 2.73609 9.74898 2.82522 9.90144 2.77561L11.7943 2.15971C12.0992 2.06053 12.4373 2.14465 12.6506 2.3727C13.296 3.06285 13.7998 3.87455 14.1183 4.76741C14.2211 5.05553 14.1293 5.37364 13.8858 5.57289L12.3728 6.81096C12.251 6.91063 12.251 7.08888 12.3728 7.18855L13.8859 8.42673C14.1294 8.62597 14.2212 8.94406 14.1185 9.23216C13.8 10.125 13.2963 10.9367 12.651 11.6269C12.4377 11.855 12.0995 11.9391 11.7947 11.8399L9.90144 11.2239C9.74898 11.1743 9.58525 11.2634 9.55459 11.4127L9.17312 13.27C9.11177 13.5687 8.86515 13.8028 8.5488 13.8627C8.07306 13.9528 7.58149 14 7.07904 14C6.58007 14 6.09182 13.9535 5.61917 13.8646C5.30234 13.805 5.0552 13.5707 4.99378 13.2717L4.61197 11.4127C4.58131 11.2634 4.41758 11.1743 4.26512 11.2239L2.36537 11.842C2.06064 11.9412 1.72256 11.8572 1.50929 11.6293C0.864398 10.9401 0.360673 10.1297 0.0417519 9.23819C-0.0613666 8.94993 0.030415 8.63151 0.274094 8.43211L1.79375 7.18856C1.91555 7.08888 1.91555 6.91063 1.79375 6.81096L0.27423 5.56752C0.0305361 5.3681 -0.0612406 5.04965 0.0419034 4.76139C0.360898 3.86988 0.864704 3.05944 1.50968 2.37033C1.72296 2.14246 2.06101 2.05845 2.36572 2.1576L4.26512 2.77561C4.41757 2.82522 4.58131 2.73609 4.61197 2.58681L4.99368 0.728347C5.0551 0.429324 5.30223 0.195012 5.61905 0.135421ZM12.3194 12.6339C12.1162 12.5678 11.8885 12.6223 11.7587 12.7838C11.5211 13.0793 11.3213 13.4034 11.1661 13.7495C11.0824 13.9362 11.1461 14.1495 11.3085 14.2824L12.3767 15.1565C12.5982 15.3378 12.5982 15.6618 12.3767 15.8431L11.3084 16.7173C11.146 16.8502 11.0822 17.0635 11.1659 17.2502C11.3211 17.5963 11.5208 17.9203 11.7584 18.2158C11.8883 18.3773 12.116 18.4319 12.3192 18.3658L13.6553 17.931C13.9325 17.8408 14.2302 18.0028 14.2859 18.2742L14.5547 19.583C14.5956 19.7822 14.76 19.941 14.9736 19.9658C15.1672 19.9884 15.3644 20 15.5646 20C15.7647 20 15.9619 19.9884 16.1555 19.9658C16.3691 19.941 16.5334 19.7822 16.5744 19.583L16.8432 18.2742C16.8989 18.0028 17.1966 17.8408 17.4738 17.931L18.8099 18.3658C19.0131 18.4319 19.2408 18.3773 19.3707 18.2158C19.6083 17.9203 19.808 17.5963 19.9632 17.2502C20.0469 17.0635 19.9831 16.8502 19.8207 16.7174L18.7524 15.8431C18.5309 15.6618 18.5309 15.3378 18.7524 15.1565L19.8206 14.2824C19.983 14.1495 20.0467 13.9362 19.963 13.7495C19.8079 13.4033 19.6081 13.0793 19.3704 12.7838C19.2406 12.6223 19.0129 12.5678 18.8097 12.6339L17.4738 13.0686C17.1966 13.1588 16.8989 12.9968 16.8432 12.7254L16.5744 11.417C16.5335 11.2178 16.3692 11.059 16.1556 11.0342C15.9619 11.0116 15.7647 11 15.5646 11C15.3644 11 15.1672 11.0116 14.9735 11.0342C14.7599 11.059 14.5956 11.2178 14.5547 11.417L14.2859 12.7254C14.2302 12.9968 13.9325 13.1588 13.6553 13.0686L12.3194 12.6339ZM15.5643 16.7506C14.8317 16.7506 14.2378 16.1907 14.2378 15.5C14.2378 14.8094 14.8317 14.2495 15.5643 14.2495C16.2969 14.2495 16.8908 14.8094 16.8908 15.5C16.8908 16.1907 16.2969 16.7506 15.5643 16.7506ZM6.01827 6.99993C6.01827 6.44771 6.49313 6 7.07897 6C7.66481 6 8.13967 6.44771 8.13967 6.99993C8.13967 7.55215 7.66481 7.99986 7.07897 7.99986C6.49313 7.99986 6.01827 7.55215 6.01827 6.99993ZM7.07897 4.5C5.61448 4.5 4.42722 5.61923 4.42722 6.99993C4.42722 8.38063 5.61448 9.49986 7.07897 9.49986C8.54346 9.49986 9.73072 8.38063 9.73072 6.99993C9.73072 5.61923 8.54346 4.5 7.07897 4.5Z" fill="#262627"/>
</svg>
