<svg width="20" height="18" viewBox="0 0 20 18" fill="none" xmlns="http://www.w3.org/2000/svg">
<path d="M4.78033 1.78033C5.07322 1.48744 5.07322 1.01256 4.78033 0.71967C4.48744 0.426777 4.01256 0.426777 3.71967 0.71967L1.75 2.68934L1.28033 2.21967C0.987437 1.92678 0.512563 1.92678 0.21967 2.21967C-0.0732233 2.51256 -0.0732233 2.98744 0.21967 3.28033L1.21967 4.28033C1.51256 4.57322 1.98744 4.57322 2.28033 4.28033L4.78033 1.78033ZM19.25 15.0068H7.75L7.64823 15.0137C7.28215 15.0634 7 15.3772 7 15.7568C7 16.1711 7.33579 16.5068 7.75 16.5068H19.25L19.3518 16.5C19.7178 16.4503 20 16.1365 20 15.7568C20 15.3426 19.6642 15.0068 19.25 15.0068ZM19.25 8.5H7.75L7.64823 8.50685C7.28215 8.55651 7 8.8703 7 9.25C7 9.66421 7.33579 10 7.75 10H19.25L19.3518 9.99315C19.7178 9.94349 20 9.6297 20 9.25C20 8.83579 19.6642 8.5 19.25 8.5ZM19.25 2H7.75L7.64823 2.00685C7.28215 2.05651 7 2.3703 7 2.75C7 3.16421 7.33579 3.5 7.75 3.5H19.25L19.3518 3.49315C19.7178 3.44349 20 3.1297 20 2.75C20 2.33579 19.6642 2 19.25 2ZM4.78033 14.7803C5.07322 14.4874 5.07322 14.0126 4.78033 13.7197C4.48744 13.4268 4.01256 13.4268 3.71967 13.7197L1.75 15.6893L1.28033 15.2197C0.987437 14.9268 0.512563 14.9268 0.21967 15.2197C-0.0732233 15.5126 -0.0732233 15.9874 0.21967 16.2803L1.21967 17.2803C1.51256 17.5732 1.98744 17.5732 2.28033 17.2803L4.78033 14.7803ZM4.78033 7.21967C5.07322 7.51256 5.07322 7.98744 4.78033 8.28033L2.28033 10.7803C1.98744 11.0732 1.51256 11.0732 1.21967 10.7803L0.21967 9.78033C-0.0732233 9.48744 -0.0732233 9.01256 0.21967 8.71967C0.512563 8.42678 0.987437 8.42678 1.28033 8.71967L1.75 9.18934L3.71967 7.21967C4.01256 6.92678 4.48744 6.92678 4.78033 7.21967Z" fill="#262627"/>
</svg>
