<svg width="19" height="18" viewBox="0 0 19 18" fill="none" xmlns="http://www.w3.org/2000/svg">
<path d="M12.5 10.75C12.5 10.3358 12.8358 10 13.25 10H15.25C15.6642 10 16 10.3358 16 10.75C16 11.1642 15.6642 11.5 15.25 11.5H13.25C12.8358 11.5 12.5 11.1642 12.5 10.75ZM0 2H0.0137322C0.138093 0.875013 1.09186 0 2.25 0H13.75C14.9926 0 16 1.00736 16 2.25V3.08697C17.4333 3.42555 18.5 4.71321 18.5 6.25V14.75C18.5 16.5449 17.0449 18 15.25 18H3.25C1.45508 18 0 16.5449 0 14.75V2ZM15.25 4.5H1.5V14.75C1.5 15.7165 2.2835 16.5 3.25 16.5H15.25C16.2165 16.5 17 15.7165 17 14.75V6.25C17 5.2835 16.2165 4.5 15.25 4.5ZM14.5 3V2.25C14.5 1.83579 14.1642 1.5 13.75 1.5H2.25C1.83579 1.5 1.5 1.83579 1.5 2.25C1.5 2.66421 1.83579 3 2.25 3H14.5Z" fill="#262627"/>
</svg>
