<svg width="19" height="20" viewBox="0 0 19 20" fill="none" xmlns="http://www.w3.org/2000/svg">
<path d="M11.3136 4.56538L11.1775 4.69092L0.698141 15.1785C-0.187878 16.0652 -0.187384 17.5022 0.699242 18.3883C1.58585 19.2743 3.02284 19.2738 3.90895 18.3871L14.3879 7.90034C15.2654 7.02128 15.2651 5.59738 14.3868 4.71848L14.2304 4.5715C13.3931 3.85388 12.1533 3.85191 11.3136 4.56538ZM10.466 7.526L11.554 8.614L2.84792 17.3268C2.54743 17.6275 2.06019 17.6277 1.75956 17.3273C1.45889 17.0268 1.45872 16.5394 1.75919 16.2388L10.466 7.526ZM14.8518 12.0068L14.75 12C14.3703 12 14.0565 12.2822 14.0068 12.6482L14 12.75V13.5H13.25C12.8703 13.5 12.5565 13.7822 12.5068 14.1482L12.5 14.25C12.5 14.6297 12.7822 14.9435 13.1482 14.9932L13.25 15H14V15.75C14 16.1297 14.2822 16.4435 14.6482 16.4932L14.75 16.5C15.1297 16.5 15.4435 16.2178 15.4932 15.8518L15.5 15.75V15H16.25C16.6297 15 16.9435 14.7178 16.9932 14.3518L17 14.25C17 13.8703 16.7178 13.5565 16.3518 13.5068L16.25 13.5H15.5V12.75C15.5 12.3703 15.2178 12.0565 14.8518 12.0068L14.75 12L14.8518 12.0068ZM13.2987 5.75163L13.326 5.77899C13.619 6.07214 13.6191 6.54731 13.3266 6.84034L12.615 7.553L11.526 6.464L12.2556 5.73467C12.5496 5.45867 13.0115 5.46427 13.2987 5.75163ZM4.85177 2.00685L4.75 2C4.3703 2 4.05651 2.28215 4.00685 2.64823L4 2.75V3.5H3.25C2.8703 3.5 2.55651 3.78215 2.50685 4.14823L2.5 4.25C2.5 4.6297 2.78215 4.94349 3.14823 4.99315L3.25 5H4V5.75C4 6.1297 4.28215 6.44349 4.64823 6.49315L4.75 6.5C5.1297 6.5 5.44349 6.21785 5.49315 5.85177L5.5 5.75V5H6.25C6.6297 5 6.94349 4.71785 6.99315 4.35177L7 4.25C7 3.8703 6.71785 3.55651 6.35177 3.50685L6.25 3.5H5.5V2.75C5.5 2.3703 5.21785 2.05651 4.85177 2.00685L4.75 2L4.85177 2.00685ZM16.8518 0.00684667L16.75 0C16.3703 0 16.0565 0.282154 16.0068 0.648229L16 0.75V1.5H15.25C14.8703 1.5 14.5565 1.78215 14.5068 2.14823L14.5 2.25C14.5 2.6297 14.7822 2.94349 15.1482 2.99315L15.25 3H16V3.75C16 4.1297 16.2822 4.44349 16.6482 4.49315L16.75 4.5C17.1297 4.5 17.4435 4.21785 17.4932 3.85177L17.5 3.75V3H18.25C18.6297 3 18.9435 2.71785 18.9932 2.35177L19 2.25C19 1.8703 18.7178 1.55651 18.3518 1.50685L18.25 1.5H17.5V0.75C17.5 0.370304 17.2178 0.0565091 16.8518 0.00684667L16.75 0L16.8518 0.00684667Z" fill="#262627"/>
</svg>
