<svg width="18" height="18" viewBox="0 0 18 18" fill="none" xmlns="http://www.w3.org/2000/svg">
<path d="M15.6884 0C14.4106 0 13.3748 1.00695 13.3748 2.24908V15.7509C13.3748 16.9931 14.4106 18 15.6884 18C16.9661 18 18.002 16.9931 18.002 15.7509V2.24908C18.002 1.00695 16.9661 0 15.6884 0ZM9.00195 4C7.7242 4 6.68837 5.00695 6.68837 6.24908V15.7509C6.68837 16.9931 7.7242 18 9.00195 18C10.2797 18 11.3155 16.9931 11.3155 15.7509V6.24908C11.3155 5.00695 10.2797 4 9.00195 4ZM2.31554 8C1.03778 8 0.00195312 9.00695 0.00195312 10.2491V15.7509C0.00195312 16.9931 1.03778 18 2.31554 18C3.5933 18 4.62912 16.9931 4.62912 15.7509V10.2491C4.62912 9.00695 3.5933 8 2.31554 8ZM15.6884 1.5C16.1139 1.5 16.4589 1.83538 16.4589 2.24908V15.7509C16.4589 16.1646 16.1139 16.5 15.6884 16.5C15.2628 16.5 14.9178 16.1646 14.9178 15.7509V2.24908C14.9178 1.83538 15.2628 1.5 15.6884 1.5ZM9.00195 5.5C9.42753 5.5 9.77252 5.83537 9.77252 6.24908V15.7509C9.77252 16.1646 9.42753 16.5 9.00195 16.5C8.57638 16.5 8.23139 16.1646 8.23139 15.7509V6.24908C8.23139 5.83537 8.57638 5.5 9.00195 5.5ZM2.31554 9.5C2.74111 9.5 3.0861 9.83537 3.0861 10.2491V15.7509C3.0861 16.1646 2.74111 16.5 2.31554 16.5C1.88997 16.5 1.54497 16.1646 1.54497 15.7509V10.2491C1.54497 9.83537 1.88997 9.5 2.31554 9.5Z" fill="#262627"/>
</svg>
