<svg width="19" height="14" viewBox="0 0 19 14" fill="none" xmlns="http://www.w3.org/2000/svg">
<path d="M1.5 0.75C1.5 0.335786 1.16421 0 0.75 0C0.335786 0 0 0.335786 0 0.75V13.25C0 13.6642 0.335786 14 0.75 14C1.16421 14 1.5 13.6642 1.5 13.25V7.5H8V13.25C8 13.6642 8.33579 14 8.75 14C9.16421 14 9.5 13.6642 9.5 13.25V0.75C9.5 0.335786 9.16421 0 8.75 0C8.33579 0 8 0.335786 8 0.75V6H1.5V0.75ZM12.421 2.83541C12.651 2.37538 13.3337 1.5 15.0002 1.5C15.8427 1.5 16.4598 1.76087 16.8602 2.13901C17.2579 2.51463 17.5002 3.06011 17.5002 3.75C17.5002 5.71272 16.2006 6.81787 14.5429 8.09303C14.473 8.14679 14.4022 8.20101 14.3306 8.25577C12.8246 9.4086 11.0002 10.8052 11.0002 13.25C11.0002 13.4489 11.0792 13.6397 11.2198 13.7803C11.3605 13.921 11.5513 14 11.7502 14H18.2502C18.6644 14 19.0002 13.6642 19.0002 13.25C19.0002 12.8358 18.6644 12.5 18.2502 12.5H12.5904C12.9057 11.2478 14.0181 10.3892 15.4574 9.28197C17.0497 8.05713 19.0002 6.53728 19.0002 3.75C19.0002 2.68989 18.6174 1.73537 17.8901 1.04849C17.1655 0.364129 16.1577 0 15.0002 0C12.6667 0 11.516 1.29128 11.0793 2.16459C10.8941 2.53507 11.0443 2.98558 11.4148 3.17082C11.7852 3.35606 12.2357 3.20589 12.421 2.83541Z" fill="#262627"/>
</svg>
