<svg width="19" height="19" viewBox="0 0 19 19" fill="none" xmlns="http://www.w3.org/2000/svg">
<path d="M10.75 7.25C11.1642 7.25 11.5 7.58579 11.5 8C11.5 8.41421 11.1642 8.75 10.75 8.75H5.25C4.83578 8.75 4.5 8.41421 4.5 8C4.5 7.58579 4.83578 7.25 5.25 7.25H10.75ZM15.25 8C15.25 3.99594 12.0041 0.75 8 0.75C3.99593 0.75 0.75 3.99594 0.75 8C0.75 12.0041 3.99593 15.25 8 15.25C9.73187 15.25 11.3219 14.6427 12.5688 13.6295L17.4697 18.5303L17.5538 18.6029C17.8474 18.8208 18.2641 18.7966 18.5303 18.5303C18.8232 18.2374 18.8232 17.7626 18.5303 17.4697L13.6295 12.5688C14.6427 11.3219 15.25 9.73187 15.25 8ZM2.25 8C2.25 4.82436 4.82436 2.25 8 2.25C11.1756 2.25 13.75 4.82436 13.75 8C13.75 11.1756 11.1756 13.75 8 13.75C4.82436 13.75 2.25 11.1756 2.25 8Z" fill="#262627"/>
</svg>
