<svg width="21" height="18" viewBox="0 0 21 18" fill="none" xmlns="http://www.w3.org/2000/svg">
<path d="M3.75 0C2.23122 0 1 1.23122 1 2.75V7.25716C1.44631 6.88857 1.95177 6.58904 2.5 6.37494V2.75C2.5 2.05964 3.05964 1.5 3.75 1.5H18.25C18.9404 1.5 19.5 2.05964 19.5 2.75V13.25C19.5 13.9404 18.9404 14.5 18.25 14.5H9.97487L11.4749 16H18.25C19.7688 16 21 14.7688 21 13.25V2.75C21 1.23122 19.7688 0 18.25 0H3.75ZM7.66308 7C8.23554 7.40313 8.72762 7.91272 9.11053 8.5H16.25C16.6642 8.5 17 8.16421 17 7.75C17 7.33579 16.6642 7 16.25 7H7.66308ZM14.25 11.5H10C10 10.98 9.92783 10.4768 9.79297 10H14.25C14.6642 10 15 10.3358 15 10.75C15 11.1642 14.6642 11.5 14.25 11.5ZM5.75 4C5.33579 4 5 4.33579 5 4.75C5 5.16421 5.33579 5.5 5.75 5.5H12.25C12.6642 5.5 13 5.16421 13 4.75C13 4.33579 12.6642 4 12.25 4H5.75ZM4.5 16C5.47187 16 6.37179 15.6919 7.1074 15.1681L9.71967 17.7803C10.0126 18.0732 10.4874 18.0732 10.7803 17.7803C11.0732 17.4874 11.0732 17.0126 10.7803 16.7197L8.16806 14.1074C8.69191 13.3718 9 12.4719 9 11.5C9 9.01472 6.98528 7 4.5 7C2.01472 7 0 9.01472 0 11.5C0 13.9853 2.01472 16 4.5 16ZM4.5 14.5C2.84315 14.5 1.5 13.1569 1.5 11.5C1.5 9.84315 2.84315 8.5 4.5 8.5C6.15685 8.5 7.5 9.84315 7.5 11.5C7.5 13.1569 6.15685 14.5 4.5 14.5Z" fill="#262627"/>
</svg>
