<svg width="20" height="20" viewBox="0 0 20 20" fill="none" xmlns="http://www.w3.org/2000/svg">
<path d="M10 0C8.02219 0 6.08879 0.58649 4.4443 1.6853C2.79981 2.78412 1.51809 4.34591 0.761209 6.17317C0.00433284 8.00043 -0.193701 10.0111 0.192152 11.9509C0.578004 13.8907 1.53041 15.6725 2.92894 17.0711C4.32746 18.4696 6.10929 19.422 8.0491 19.8079C9.98891 20.1937 11.9996 19.9957 13.8268 19.2388C15.6541 18.4819 17.2159 17.2002 18.3147 15.5557C19.4135 13.9112 20 11.9778 20 10C19.9999 7.34786 18.9463 4.80436 17.071 2.92901C15.1956 1.05366 12.6521 7.1605e-05 10 0ZM10 18.5C8.31886 18.5 6.67548 18.0015 5.27766 17.0675C3.87984 16.1335 2.79037 14.806 2.14703 13.2528C1.50368 11.6996 1.33536 9.99057 1.66333 8.34173C1.9913 6.69289 2.80085 5.17834 3.9896 3.98959C5.17834 2.80085 6.6929 1.9913 8.34174 1.66333C9.99058 1.33535 11.6996 1.50368 13.2528 2.14702C14.806 2.79037 16.1335 3.87983 17.0675 5.27765C18.0015 6.67547 18.5 8.31886 18.5 10C18.4974 12.2535 17.601 14.414 16.0075 16.0075C14.414 17.601 12.2535 18.4974 10 18.5Z" fill="#262627"/>
<path d="M9.96919 8.23731C9.7703 8.23736 9.57956 8.3164 9.43892 8.45704C9.29828 8.59768 9.21925 8.78841 9.21919 8.98731V14.2305C9.21919 14.4294 9.29821 14.6201 9.43886 14.7608C9.57952 14.9015 9.77028 14.9805 9.96919 14.9805C10.1681 14.9805 10.3589 14.9015 10.4995 14.7608C10.6402 14.6201 10.7192 14.4294 10.7192 14.2305V8.98731C10.7191 8.78841 10.6401 8.59768 10.4995 8.45704C10.3588 8.3164 10.1681 8.23736 9.96919 8.23731Z" fill="#262627"/>
<path d="M9.969 4.99512C9.7881 4.99512 9.61127 5.04877 9.46086 5.14928C9.31045 5.2498 9.19323 5.39266 9.12402 5.5598C9.05482 5.72694 9.03674 5.91085 9.07206 6.08827C9.10739 6.26569 9.19454 6.42865 9.32249 6.55653C9.45044 6.68441 9.61345 6.77147 9.79089 6.80671C9.96832 6.84194 10.1522 6.82376 10.3193 6.75446C10.4864 6.68517 10.6292 6.56787 10.7297 6.41741C10.8301 6.26695 10.8837 6.09008 10.8836 5.90918C10.8835 5.78911 10.8599 5.67022 10.8139 5.5593C10.7679 5.44838 10.7005 5.3476 10.6156 5.26272C10.5307 5.17784 10.4299 5.11052 10.3189 5.06461C10.208 5.01869 10.0891 4.99508 9.969 4.99512Z" fill="#262627"/>
</svg>
