<svg width="18" height="20" viewBox="0 0 18 20" fill="none" xmlns="http://www.w3.org/2000/svg">
<path d="M13.7568 7.30287C14.0621 7.02298 14.0828 6.54855 13.8029 6.24321C13.523 5.93787 13.0485 5.91724 12.7432 6.19714L7.27256 11.2119L5.28033 9.21968C4.98744 8.92678 4.51256 8.92678 4.21967 9.21968C3.92678 9.51257 3.92678 9.98744 4.21967 10.2803L6.71967 12.7803C7.0036 13.0643 7.46079 13.0742 7.75679 12.8029L13.7568 7.30287ZM17.25 3C14.5866 3 11.992 2.05652 9.45 0.15C9.18333 -0.05 8.81667 -0.05 8.55 0.15C6.00797 2.05652 3.41341 3 0.75 3C0.335786 3 0 3.33579 0 3.75V9C0 14.0012 2.95756 17.6757 8.72511 19.9478C8.90176 20.0174 9.09824 20.0174 9.27489 19.9478C15.0424 17.6757 18 14.0012 18 9V3.75C18 3.33579 17.6642 3 17.25 3ZM1.5 4.47793C4.07735 4.32585 6.58084 3.38829 9 1.67782C11.4192 3.38829 13.9227 4.32585 16.5 4.47793V9C16.5 13.2556 14.0466 16.3789 9 18.4419C3.95337 16.3789 1.5 13.2556 1.5 9V4.47793Z" fill="#262627"/>
</svg>
