<svg width="20" height="14" viewBox="0 0 20 14" fill="none" xmlns="http://www.w3.org/2000/svg">
<path d="M1.5 0.75C1.5 0.335786 1.16421 0 0.75 0C0.335786 0 0 0.335786 0 0.75V13.25C0 13.6642 0.335786 14 0.75 14C1.16421 14 1.5 13.6642 1.5 13.25V7.5H8V13.25C8 13.6642 8.33579 14 8.75 14C9.16421 14 9.5 13.6642 9.5 13.25V0.75C9.5 0.335786 9.16421 0 8.75 0C8.33579 0 8 0.335786 8 0.75V6H1.5V0.75ZM13.4208 2.83541C13.6508 2.37538 14.3335 1.5 16 1.5C16.8425 1.5 17.4597 1.76087 17.86 2.13901C18.2577 2.51463 18.5 3.06011 18.5 3.75C18.5 4.35582 18.339 4.77636 18.1165 5.08242C17.8883 5.3963 17.5608 5.63648 17.1629 5.81693C16.3474 6.18664 15.3615 6.25 14.7805 6.25C14.3663 6.25 14.0305 6.58579 14.0305 7C14.0305 7.41421 14.3663 7.75 14.7805 7.75C15.3615 7.75 16.3474 7.81336 17.1629 8.18307C17.5608 8.36352 17.8883 8.6037 18.1165 8.91758C18.339 9.22364 18.5 9.64418 18.5 10.25C18.5 11.3358 17.5858 12.5 16 12.5C14.2732 12.5 13.6519 11.7404 13.4473 11.2239C13.2948 10.8387 12.859 10.6502 12.4739 10.8027C12.0887 10.9552 11.9002 11.391 12.0527 11.7761C12.5081 12.9262 13.7268 14 16 14C18.4142 14 20 12.1642 20 10.25C20 9.35582 19.7547 8.62011 19.3298 8.03554C19.0001 7.58214 18.5828 7.24735 18.1439 7C18.5828 6.75265 19.0001 6.41786 19.3298 5.96446C19.7547 5.37989 20 4.64418 20 3.75C20 2.68989 19.6173 1.73537 18.89 1.04849C18.1653 0.364129 17.1575 0 16 0C13.6665 0 12.5158 1.29128 12.0792 2.16459C11.8939 2.53507 12.0441 2.98558 12.4146 3.17082C12.7851 3.35606 13.2356 3.20589 13.4208 2.83541Z" fill="#262627"/>
</svg>
