<svg width="19" height="18" viewBox="0 0 19 18" fill="none" xmlns="http://www.w3.org/2000/svg">
<path d="M15.7358 1.5C15.1935 1.5 14.75 1.99503 14.75 2.52273C14.75 2.93694 14.4142 3.27273 14 3.27273C13.5858 3.27273 13.25 2.93694 13.25 2.52273C13.25 1.27769 14.2582 0 15.7358 0C16.591 0 17.4204 0.399992 17.8865 1.11661C18.3753 1.86797 18.3858 2.84107 17.8289 3.789C17.5445 4.27315 17.1557 4.63637 16.7837 4.93019C16.5972 5.07753 16.4054 5.21448 16.2269 5.34071L16.1493 5.3955C15.996 5.50364 15.8541 5.60378 15.7166 5.70723C15.3606 5.97516 15.0984 6.21821 14.9377 6.5H17.4506C17.8648 6.5 18.2006 6.83579 18.2006 7.25C18.2006 7.66421 17.8648 8 17.4506 8H14.0164L14.0082 7.99996L14 8C13.5858 8 13.25 7.66421 13.25 7.25C13.25 5.85365 14.0711 5.06828 14.8147 4.50868C14.9721 4.39023 15.1351 4.27527 15.2873 4.16787L15.3611 4.11579C15.5385 3.99042 15.7016 3.87346 15.854 3.75305C16.16 3.51135 16.3861 3.28367 16.5356 3.02918C16.8466 2.49984 16.765 2.1434 16.6292 1.93452C16.4707 1.69092 16.1429 1.5 15.7358 1.5ZM12.26 2.71092C12.3199 3.27162 12.6447 3.75312 13.1068 4.02791L7.9879 9.99992L13.5696 16.5119C13.8392 16.8264 13.8028 17.2999 13.4883 17.5695C13.1738 17.839 12.7003 17.8026 12.4307 17.4881L7.00009 11.1524L1.56946 17.4881C1.29989 17.8026 0.826414 17.839 0.51192 17.5695C0.197426 17.2999 0.161005 16.8264 0.430571 16.5119L6.01228 9.99992L0.430731 3.48811C0.161163 3.17361 0.197584 2.70014 0.512079 2.43057C0.826573 2.161 1.30005 2.19743 1.56961 2.51192L7.00009 8.84748L12.26 2.71092Z" fill="#262627"/>
</svg>
