<svg width="20" height="20" viewBox="0 0 20 20" fill="none" xmlns="http://www.w3.org/2000/svg">
<path d="M10 9.68175e-09C8.02219 9.68175e-09 6.08879 0.58649 4.4443 1.6853C2.79981 2.78412 1.51809 4.3459 0.761209 6.17317C0.00433284 8.00043 -0.193701 10.0111 0.192152 11.9509C0.578004 13.8907 1.53041 15.6725 2.92894 17.0711C4.32746 18.4696 6.10929 19.422 8.0491 19.8079C9.98891 20.1937 11.9996 19.9957 13.8268 19.2388C15.6541 18.4819 17.2159 17.2002 18.3147 15.5557C19.4135 13.9112 20 11.9778 20 10C20.0001 8.68676 19.7414 7.38638 19.2389 6.1731C18.7364 4.95982 17.9998 3.8574 17.0712 2.9288C16.1426 2.00021 15.0402 1.26361 13.8269 0.761087C12.6136 0.25856 11.3132 -5.77765e-05 10 9.68175e-09ZM10 18.5C8.31886 18.5 6.67548 18.0015 5.27766 17.0675C3.87984 16.1335 2.79037 14.806 2.14703 13.2528C1.50368 11.6996 1.33536 9.99057 1.66333 8.34173C1.9913 6.69289 2.80085 5.17834 3.9896 3.98959C5.17834 2.80085 6.6929 1.9913 8.34174 1.66333C9.99058 1.33535 11.6996 1.50368 13.2528 2.14702C14.806 2.79037 16.1335 3.87984 17.0675 5.27765C18.0015 6.67547 18.5 8.31886 18.5 10C18.4974 12.2535 17.601 14.414 16.0075 16.0075C14.414 17.601 12.2535 18.4974 10 18.5Z" fill="#262627"/>
<path d="M9.99992 11.7705C10.1988 11.7705 10.3896 11.6914 10.5302 11.5508C10.6708 11.4101 10.7499 11.2194 10.7499 11.0205V5.77735C10.7499 5.57844 10.6709 5.38767 10.5303 5.24702C10.3896 5.10637 10.1988 5.02735 9.99992 5.02735C9.80101 5.02735 9.61025 5.10637 9.46959 5.24702C9.32894 5.38767 9.24992 5.57844 9.24992 5.77735V11.0205C9.24998 11.2194 9.32901 11.4101 9.46965 11.5508C9.61029 11.6914 9.80103 11.7705 9.99992 11.7705Z" fill="#262627"/>
<path d="M9.99992 13.1836C9.81906 13.1836 9.64226 13.2372 9.49187 13.3377C9.34149 13.4382 9.22427 13.581 9.15503 13.7481C9.0858 13.9151 9.06766 14.099 9.10291 14.2764C9.13817 14.4538 9.22522 14.6168 9.35308 14.7447C9.48094 14.8726 9.64385 14.9597 9.82123 14.9951C9.9986 15.0304 10.1825 15.0124 10.3496 14.9432C10.5167 14.8741 10.6596 14.7569 10.7601 14.6066C10.8607 14.4562 10.9144 14.2795 10.9145 14.0986C10.9145 13.856 10.8181 13.6233 10.6466 13.4518C10.4751 13.2802 10.2425 13.1837 9.99992 13.1836Z" fill="#262627"/>
</svg>
