<svg width="18" height="14" viewBox="0 0 18 14" fill="none" xmlns="http://www.w3.org/2000/svg">
<path d="M0.75 0C0.335787 0 5.96046e-08 0.335786 5.96046e-08 0.75C5.96046e-08 1.16421 0.335787 1.5 0.75 1.5H17.25C17.6642 1.5 18 1.16421 18 0.75C18 0.335786 17.6642 0 17.25 0H0.75ZM5.75 4C5.33579 4 5 4.33579 5 4.75C5 5.16421 5.33579 5.5 5.75 5.5H17.25C17.6642 5.5 18 5.16421 18 4.75C18 4.33579 17.6642 4 17.25 4H5.75ZM5 8.75C5 8.33579 5.33579 8 5.75 8H17.25C17.6642 8 18 8.33579 18 8.75C18 9.16421 17.6642 9.5 17.25 9.5H5.75C5.33579 9.5 5 9.16421 5 8.75ZM0.75 12C0.335787 12 5.96046e-08 12.3358 5.96046e-08 12.75C5.96046e-08 13.1642 0.335787 13.5 0.75 13.5H17.25C17.6642 13.5 18 13.1642 18 12.75C18 12.3358 17.6642 12 17.25 12H0.75ZM0.21967 6.03033C-0.0732233 5.73744 -0.0732233 5.26256 0.21967 4.96967C0.512563 4.67678 0.987437 4.67678 1.28033 4.96967L2.78033 6.46967C3.07322 6.76256 3.07322 7.23744 2.78033 7.53033L1.28033 9.03033C0.987437 9.32322 0.512563 9.32322 0.21967 9.03033C-0.0732233 8.73744 -0.0732233 8.26256 0.21967 7.96967L1.18934 7L0.21967 6.03033Z" fill="#262627"/>
</svg>
