<svg width="20" height="18" viewBox="0 0 20 18" fill="none" xmlns="http://www.w3.org/2000/svg">
<path d="M0 3.25C0 1.45507 1.45507 0 3.25 0H16.75C18.5449 0 20 1.45507 20 3.25V14.75C20 16.5449 18.5449 18 16.75 18H3.25C1.45507 18 0 16.5449 0 14.75V3.25ZM3.25 1.5C2.2835 1.5 1.5 2.2835 1.5 3.25V14.75C1.5 15.7165 2.2835 16.5 3.25 16.5H16.75C17.7165 16.5 18.5 15.7165 18.5 14.75V3.25C18.5 2.2835 17.7165 1.5 16.75 1.5H3.25ZM7 6.2507V11.7501C7 12.5107 7.81546 12.9929 8.48191 12.6263L13.4815 9.87662C14.1723 9.4967 14.1723 8.50411 13.4815 8.12418L8.48191 5.37448C7.81546 5.00794 7 5.4901 7 6.2507Z" fill="#262627"/>
</svg>
