<svg width="18" height="18" viewBox="0 0 18 18" fill="none" xmlns="http://www.w3.org/2000/svg">
<path d="M0 3.25C0 1.45507 1.45507 0 3.25 0H14.75C16.5449 0 18 1.45507 18 3.25V14.75C18 16.5449 16.5449 18 14.75 18H3.25C1.45507 18 0 16.5449 0 14.75V3.25ZM3.25 1.5C2.2835 1.5 1.5 2.2835 1.5 3.25V5.5H5.5V1.5H3.25ZM1.5 7V11H5.5L5.5 7H1.5ZM7 7L7 11H11L11 7H7ZM12.5 7L12.5 11H16.5V7H12.5ZM11 12.5H7V16.5H11V12.5ZM12.5 16.5H14.75C15.7165 16.5 16.5 15.7165 16.5 14.75V12.5H12.5V16.5ZM12.5 5.5H16.5V3.25C16.5 2.2835 15.7165 1.5 14.75 1.5H12.5V5.5ZM11 1.5H7V5.5H11V1.5ZM1.5 12.5V14.75C1.5 15.7165 2.2835 16.5 3.25 16.5H5.5V12.5H1.5Z" fill="#262627"/>
</svg>
