<svg width="18" height="20" viewBox="0 0 18 20" fill="none" xmlns="http://www.w3.org/2000/svg">
<path d="M14.5 4.5C14.5 5.19036 13.9404 5.75 13.25 5.75C12.5596 5.75 12 5.19036 12 4.5C12 3.80964 12.5596 3.25 13.25 3.25C13.9404 3.25 14.5 3.80964 14.5 4.5ZM7.50762 0.898168C8.1121 0.32164 8.91536 0 9.7507 0H15.2496C16.7684 0 17.9996 1.23122 17.9996 2.75V7.70264C17.9996 8.57368 17.65 9.40826 17.0291 10.0192L10.0837 16.8535C9.20455 17.7186 7.79272 17.7146 6.91845 16.8445L0.661836 10.6177C-0.235207 9.72488 -0.21971 8.26816 0.696126 7.39468L7.50762 0.898168ZM9.7507 1.5C9.3009 1.5 8.86838 1.67319 8.54289 1.98363L1.73139 8.48014C1.42611 8.7713 1.42095 9.25687 1.71996 9.55446L7.97658 15.7813C8.268 16.0713 8.73861 16.0727 9.03168 15.7843L15.9771 8.95001C16.3114 8.62105 16.4996 8.17166 16.4996 7.70264V2.75C16.4996 2.05964 15.94 1.5 15.2496 1.5H9.7507ZM17.7309 10.732L16.2558 12.1834C16.216 12.2377 16.1713 12.2894 16.1217 12.3381L10.7883 17.5665C10.5787 17.772 10.3482 17.9434 10.1037 18.0807C8.86609 18.7802 7.26866 18.6035 6.21341 17.5532L4.28204 15.6311L1.87078 13.2451C1.83207 13.2068 1.79639 13.1666 1.76374 13.1248L0.134946 11.5037C-0.17626 12.4607 0.0508565 13.5545 0.815725 14.3113L5.17213 18.6221C7.01684 20.4475 9.98513 20.4544 11.8384 18.6377L17.1717 13.4093C17.9449 12.6514 18.1728 11.5543 17.8628 10.5962C17.82 10.6423 17.776 10.6876 17.7309 10.732Z" fill="#262627"/>
</svg>
