<svg width="22" height="22" viewBox="0 0 22 22" fill="none" xmlns="http://www.w3.org/2000/svg">
<path d="M13.5301 2.59101C13.2372 2.29811 12.7623 2.29811 12.4694 2.59101L2.59076 12.4697C2.29787 12.7626 2.29787 13.2375 2.59076 13.5303L3.65898 14.5986C4.0562 14.3765 4.51416 14.2501 4.99959 14.2501C6.51837 14.2501 7.74959 15.4813 7.74959 17.0001C7.74959 17.4855 7.62318 17.9435 7.4011 18.3407L8.46944 19.409C8.76234 19.7019 9.23721 19.7019 9.5301 19.409L19.4088 9.53035C19.7017 9.23745 19.7017 8.76258 19.4088 8.46969L18.3405 7.40141C17.9432 7.6236 17.4851 7.75008 16.9996 7.75008C15.4808 7.75008 14.2496 6.51886 14.2496 5.00008C14.2496 4.51452 14.3761 4.05645 14.5983 3.65916L13.5301 2.59101ZM11.4088 1.53035C12.2875 0.651668 13.7121 0.651668 14.5908 1.53035L15.7622 2.70183C16.273 3.21258 16.1815 3.92955 15.9239 4.36271C15.8133 4.54875 15.7496 4.76583 15.7496 5.00008C15.7496 5.69043 16.3092 6.25008 16.9996 6.25008C17.2338 6.25008 17.4509 6.18635 17.6369 6.07574C18.0701 5.81819 18.7871 5.72667 19.2978 6.23742L20.4694 7.40903C21.3481 8.28771 21.3481 9.71233 20.4694 10.591L10.5908 20.4697C9.71209 21.3484 8.28746 21.3484 7.40878 20.4697L6.23712 19.298C5.72643 18.7873 5.81786 18.0705 6.07533 17.6373C6.18589 17.4513 6.24959 17.2343 6.24959 17.0001C6.24959 16.3097 5.68994 15.7501 4.99959 15.7501C4.7654 15.7501 4.54837 15.8138 4.36237 15.9243C3.92921 16.1818 3.21233 16.2732 2.70164 15.7625L1.5301 14.591C0.651422 13.7123 0.651425 12.2877 1.5301 11.409L11.4088 1.53035Z" fill="#262627"/>
</svg>
