<svg width="21" height="18" viewBox="0 0 21 18" fill="none" xmlns="http://www.w3.org/2000/svg">
<path d="M13.2495 10C14.216 10 14.9995 10.7835 14.9995 11.75V16.25C14.9995 17.2165 14.216 18 13.2495 18H1.74951C0.783008 18 -0.000493884 17.2165 -0.000493884 16.25V11.75C-0.000493884 10.7835 0.783008 10 1.74951 10H13.2495ZM18.9998 11.8989L18.9995 17.25C18.9995 17.6642 18.6637 18 18.2495 18C17.8698 18 17.556 17.7178 17.5064 17.3518L17.4995 17.25L17.4991 11.9117C17.7314 11.9694 17.9744 12 18.2245 12C18.4926 12 18.7525 11.9648 18.9998 11.8989ZM13.2495 11.5H1.74951C1.61143 11.5 1.49951 11.6119 1.49951 11.75V16.25C1.49951 16.3881 1.61143 16.5 1.74951 16.5H13.2495C13.3876 16.5 13.4995 16.3881 13.4995 16.25V11.75C13.4995 11.6119 13.3876 11.5 13.2495 11.5ZM18.2493 7.09193C19.3031 7.09193 20.1574 7.9462 20.1574 9C20.1574 10.0538 19.3031 10.9081 18.2493 10.9081C17.1955 10.9081 16.3412 10.0538 16.3412 9C16.3412 7.9462 17.1955 7.09193 18.2493 7.09193ZM13.2451 0C14.2116 0 14.9951 0.783502 14.9951 1.75V6.25C14.9951 7.2165 14.2116 8 13.2451 8H1.74512C0.778619 8 -0.00488281 7.2165 -0.00488281 6.25V1.75C-0.00488281 0.831827 0.702227 0.0788077 1.60159 0.0058012L1.74512 0H13.2451ZM13.2451 1.5H1.74512L1.68779 1.5066C1.57735 1.53251 1.49512 1.63165 1.49512 1.75V6.25C1.49512 6.38807 1.60705 6.5 1.74512 6.5H13.2451C13.3832 6.5 13.4951 6.38807 13.4951 6.25V1.75C13.4951 1.61193 13.3832 1.5 13.2451 1.5ZM18.2495 0C18.6292 0 18.943 0.282154 18.9927 0.648229L18.9995 0.75L18.9998 6.10113C18.7525 6.03516 18.4926 6 18.2245 6C17.9744 6 17.7314 6.03061 17.4991 6.08829L17.4995 0.75C17.4995 0.335786 17.8353 0 18.2495 0Z" fill="#262627"/>
</svg>
