<svg width="15" height="16" viewBox="0 0 15 16" fill="none" xmlns="http://www.w3.org/2000/svg">
<path d="M5.75084 0H14.2544C14.6683 0 15.0039 0.335649 15.0039 0.749692C15.0039 1.12923 14.7219 1.4429 14.3561 1.49254L14.2544 1.49938L11.0569 1.499L6.03691 14.5H10.2497C10.6291 14.5 10.9427 14.7823 10.9923 15.1483L10.9992 15.25C10.9992 15.6295 10.7172 15.9435 10.3514 15.9932L10.2497 16H0.750371C0.336417 16 0.00390625 15.664 0.00390625 15.25C0.00390625 14.8705 0.283308 14.5565 0.648725 14.5068L0.750371 14.5H4.43491L4.45616 14.4349L9.44991 1.499L5.75084 1.49938C5.37138 1.49938 5.05739 1.21735 5.00769 0.85142L5.00084 0.749692C5.00084 0.370152 5.28321 0.0564856 5.64912 0.00684357L5.75084 0H14.2544H5.75084Z" fill="#262627"/>
</svg>
