<svg width="18" height="14" viewBox="0 0 18 14" fill="none" xmlns="http://www.w3.org/2000/svg">
<path d="M17.5901 0.0813205C17.5256 0.0484856 17.4558 0.0246911 17.3823 0.0116052C17.2923 -0.00462376 17.2022 -0.00387096 17.1157 0.0119543C16.9906 0.0345719 16.8763 0.0882364 16.781 0.164683C16.6645 0.258153 16.5765 0.38568 16.5321 0.532161C15.8427 2.58308 14.4747 3.94054 13.3642 4.60684C13.0091 4.81995 12.8939 5.28065 13.107 5.63583C13.3201 5.99102 13.7808 6.10619 14.136 5.89308C14.9101 5.42859 15.7594 4.71314 16.5 3.74713V13.25C16.5 13.6642 16.8358 14 17.25 14C17.6642 14 18 13.6642 18 13.25V0.771564C18.0042 0.627391 17.9664 0.486893 17.8944 0.36605C17.8235 0.246945 17.7195 0.146935 17.5901 0.0813205ZM1.5 0.749969C1.5 0.335756 1.16421 -3.05166e-05 0.75 -3.05166e-05C0.335786 -3.05166e-05 0 0.335756 0 0.749969V13.25C0 13.6642 0.335786 14 0.75 14C1.16421 14 1.5 13.6642 1.5 13.25V7.49997H8V13.25C8 13.6642 8.33579 14 8.75 14C9.16421 14 9.5 13.6642 9.5 13.25V0.749969C9.5 0.335756 9.16421 -3.05166e-05 8.75 -3.05166e-05C8.33579 -3.05166e-05 8 0.335756 8 0.749969V5.99997H1.5V0.749969Z" fill="#262627"/>
</svg>
