<svg width="17" height="20" viewBox="0 0 17 20" fill="none" xmlns="http://www.w3.org/2000/svg">
<path d="M14.75 12.5005C15.9926 12.5005 17 13.5079 17 14.7505V17.7504C17 18.993 15.9926 20.0004 14.75 20.0004H2.25C1.00736 20.0004 0 18.993 0 17.7504V14.7505C0 13.5079 1.00736 12.5005 2.25 12.5005H14.75ZM4.05252 9.96943L7.80613 0.474274C8.04152 -0.121165 8.84864 -0.155854 9.15084 0.36975L9.20132 0.474867L12.9477 9.97535C13.0997 10.3607 12.9105 10.7962 12.5251 10.9482C12.1719 11.0875 11.7765 10.9401 11.596 10.6178L11.5523 10.5256L10.556 8H6.443L5.44748 10.5209C5.30789 10.874 4.93013 11.0621 4.57143 10.9737L4.47427 10.9426C4.12117 10.803 3.93308 10.4253 4.02147 10.0666L4.05252 9.96943L7.80613 0.474274L4.05252 9.96943ZM8.50274 2.79226L7.036 6.5H9.964L8.50274 2.79226Z" fill="#262627"/>
</svg>
