<svg width="20" height="20" viewBox="0 0 20 20" fill="none" xmlns="http://www.w3.org/2000/svg">
<path d="M13.0198 7.23971L8.389 12.6769L6.39938 10.4165C6.33563 10.3441 6.25825 10.285 6.17166 10.2426C6.08508 10.2001 5.99097 10.1751 5.89473 10.1691C5.79848 10.163 5.70198 10.1759 5.61074 10.2071C5.51949 10.2383 5.43528 10.2872 5.36292 10.351C5.29057 10.4147 5.23147 10.4921 5.18902 10.5787C5.14657 10.6653 5.12158 10.7594 5.1155 10.8556C5.10941 10.9519 5.12234 11.0484 5.15355 11.1396C5.18476 11.2308 5.23363 11.3151 5.29738 11.3874L7.8476 14.2839C7.91632 14.3624 8.00104 14.4253 8.09607 14.4684C8.19111 14.5115 8.29426 14.5337 8.3986 14.5336H8.40434C8.50974 14.5325 8.61369 14.5089 8.70921 14.4644C8.80474 14.4198 8.88963 14.3554 8.95819 14.2753L14.139 8.19244C14.2648 8.04396 14.3266 7.85164 14.3107 7.65768C14.2949 7.46372 14.2028 7.28395 14.0546 7.15781C13.9065 7.03166 13.7143 6.96944 13.5203 6.98479C13.3263 7.00015 13.1463 7.09183 13.0198 7.23971Z" fill="#262627"/>
<path d="M10 0C8.02219 0 6.08879 0.58649 4.4443 1.6853C2.79981 2.78412 1.51809 4.3459 0.761209 6.17317C0.00433284 8.00043 -0.193701 10.0111 0.192152 11.9509C0.578004 13.8907 1.53041 15.6725 2.92894 17.0711C4.32746 18.4696 6.10929 19.422 8.0491 19.8079C9.98891 20.1937 11.9996 19.9957 13.8268 19.2388C15.6541 18.4819 17.2159 17.2002 18.3147 15.5557C19.4135 13.9112 20 11.9778 20 10C19.9999 7.34786 18.9463 4.80436 17.071 2.92901C15.1956 1.05366 12.6521 7.1605e-05 10 0ZM10 18.5C8.31886 18.5 6.67548 18.0015 5.27766 17.0675C3.87984 16.1335 2.79037 14.806 2.14703 13.2528C1.50368 11.6996 1.33536 9.99057 1.66333 8.34173C1.9913 6.69289 2.80085 5.17834 3.9896 3.98959C5.17834 2.80085 6.6929 1.9913 8.34174 1.66333C9.99058 1.33535 11.6996 1.50368 13.2528 2.14702C14.806 2.79037 16.1335 3.87984 17.0675 5.27765C18.0015 6.67547 18.5 8.31886 18.5 10C18.4974 12.2535 17.601 14.414 16.0075 16.0075C14.414 17.601 12.2535 18.4974 10 18.5Z" fill="#262627"/>
</svg>
