<svg width="14" height="12" viewBox="0 0 14 12" fill="none" xmlns="http://www.w3.org/2000/svg">
<path d="M2.5 0C3.82549 0 4.91004 1.03154 4.99468 2.33562L4.99965 2.54235C4.99006 6.09671 3.75946 9.15551 1.29529 11.7649C1.0109 12.0661 0.536223 12.0797 0.235067 11.7953C-0.0660888 11.5109 -0.0796793 11.0362 0.204711 10.7351C1.84531 8.99775 2.86496 7.0611 3.28231 4.87605C3.03549 4.95629 2.77285 5 2.5 5C1.11929 5 0 3.88071 0 2.5C0 1.11929 1.11929 0 2.5 0ZM11.5 0C12.8255 0 13.91 1.03154 13.9947 2.33562L13.9997 2.54235C13.9901 6.10287 12.7625 9.15604 10.2949 11.7653C10.0103 12.0663 9.53563 12.0795 9.23468 11.7949C8.93372 11.5103 8.92047 11.0356 9.20508 10.7347C10.8483 8.99705 11.8669 7.06307 12.2832 4.87624C12.0355 4.95629 11.7729 5 11.5 5C10.1193 5 9 3.88071 9 2.5C9 1.11929 10.1193 0 11.5 0ZM2.5 1.5C1.94772 1.5 1.5 1.94772 1.5 2.5C1.5 3.05228 1.94772 3.5 2.5 3.5C3.01284 3.5 3.43551 3.11396 3.49327 2.61662L3.50003 2.49283C3.49563 1.94335 3.04959 1.5 2.5 1.5ZM11.5 1.5C10.9477 1.5 10.5 1.94772 10.5 2.5C10.5 3.05228 10.9477 3.5 11.5 3.5C12.0128 3.5 12.4355 3.11396 12.4933 2.61662L12.5 2.49283C12.4956 1.94335 12.0496 1.5 11.5 1.5Z" fill="#262627"/>
</svg>
