<svg width="20" height="20" viewBox="0 0 20 20" fill="none" xmlns="http://www.w3.org/2000/svg">
<path d="M10 0C4.47715 0 0 4.47715 0 10C0 15.5228 4.47715 20 10 20C15.5228 20 20 15.5228 20 10C20 4.47715 15.5228 0 10 0ZM6.24434 2.37259L9.252 4.1721V6.36588L6.46062 8.39394L4.41688 7.68704L3.83031 4.15319C4.51967 3.426 5.33622 2.82059 6.24434 2.37259ZM1.62136 11.4394L3.94849 9.11223L5.98712 9.81736L7.06985 13.1497L6.10089 14.725L2.80714 14.5312C2.22302 13.6059 1.8125 12.56 1.62136 11.4394ZM8.5299 18.3733L7.34569 15.5643L8.30943 13.9974H11.6806L12.5926 15.5783L11.553 18.3585C11.0495 18.4514 10.5304 18.5 10 18.5C9.49864 18.5 9.00742 18.4566 8.5299 18.3733ZM16.892 14.9761L13.8675 14.7865L12.9302 13.1618L14.0169 9.81737L16.0296 9.12127L18.3416 11.6417C18.1016 12.8681 17.5979 14 16.892 14.9761ZM16.172 4.15558L15.5831 7.68852L13.5434 8.39395L10.752 6.36588V4.17168L13.7543 2.37191C14.6639 2.82047 15.4818 3.42696 16.172 4.15558Z" fill="#262627"/>
</svg>
