<svg width="18" height="18" viewBox="0 0 18 18" fill="none" xmlns="http://www.w3.org/2000/svg">
<path d="M17.7816 16.7273L12.8926 11.8381C14.0663 10.3942 14.6407 8.55485 14.4972 6.69972C14.3538 4.84459 13.5035 3.11535 12.1219 1.86905C10.7402 0.622755 8.9328 -0.0454495 7.07272 0.00240364C5.21264 0.0502568 3.44195 0.810514 2.12624 2.12621C0.810525 3.4419 0.0502575 5.21256 0.00240368 7.07262C-0.0454502 8.93267 0.622764 10.7401 1.86908 12.1217C3.1154 13.5033 4.84465 14.3536 6.69981 14.497C8.55497 14.6405 10.3944 14.0661 11.8383 12.8925L16.7272 17.7816C16.7965 17.8509 16.8787 17.9058 16.9691 17.9432C17.0596 17.9807 17.1565 18 17.2544 18C17.3523 18 17.4493 17.9807 17.5398 17.9432C17.6302 17.9058 17.7124 17.8509 17.7816 17.7816C17.8509 17.7124 17.9058 17.6302 17.9432 17.5398C17.9807 17.4493 18 17.3524 18 17.2544C18 17.1565 17.9807 17.0596 17.9432 16.9691C17.9058 16.8787 17.8509 16.7965 17.7816 16.7273ZM1.51883 7.27222C1.51903 6.13419 1.85667 5.02178 2.48908 4.07564C3.12148 3.1295 4.02024 2.39212 5.07171 1.95675C6.12318 1.52138 7.28014 1.40757 8.39629 1.6297C9.51244 1.85184 10.5377 2.39995 11.3423 3.20473C12.147 4.0095 12.6949 5.0348 12.9169 6.15098C13.1388 7.26715 13.0248 8.42407 12.5892 9.47545C12.1537 10.5268 11.4161 11.4255 10.4699 12.0577C9.52362 12.6899 8.41113 13.0274 7.27309 13.0274C5.74728 13.0258 4.28442 12.4189 3.2056 11.3399C2.12678 10.261 1.52014 8.79801 1.51883 7.27222Z" fill="#262627"/>
</svg>
