<svg width="20" height="20" viewBox="0 0 20 20" fill="none" xmlns="http://www.w3.org/2000/svg">
<path d="M10.0127 0.25C10.7466 0.25846 11.4777 0.343262 12.1942 0.503038C12.5069 0.572785 12.7408 0.833511 12.7763 1.15196L12.9465 2.67881C13.0235 3.37986 13.6155 3.91084 14.3211 3.91158C14.5108 3.91188 14.6984 3.87238 14.8737 3.79483L16.2743 3.17956C16.5656 3.05159 16.906 3.12136 17.1234 3.35362C18.1356 4.43464 18.8894 5.73115 19.3282 7.14558C19.4228 7.45058 19.3139 7.78203 19.0568 7.9715L17.8154 8.88659C17.4612 9.14679 17.2521 9.56001 17.2521 9.99946C17.2521 10.4389 17.4612 10.8521 17.8161 11.1129L19.0587 12.0283C19.3158 12.2177 19.4248 12.5492 19.3302 12.8543C18.8916 14.2685 18.1382 15.5649 17.1266 16.6461C16.9093 16.8783 16.5693 16.9483 16.278 16.8206L14.8716 16.2045C14.4693 16.0284 14.0072 16.0542 13.627 16.274C13.2468 16.4937 12.9938 16.8812 12.9454 17.3177L12.7764 18.8444C12.7415 19.1592 12.5126 19.4182 12.2045 19.4915C10.7561 19.8361 9.24697 19.8361 7.79852 19.4915C7.49039 19.4182 7.26153 19.1592 7.22667 18.8444L7.05785 17.32C7.00826 16.8843 6.75483 16.498 6.37491 16.279C5.995 16.06 5.53369 16.0343 5.13269 16.2094L3.72606 16.8256C3.43471 16.9533 3.09452 16.8833 2.87727 16.6509C1.86511 15.5685 1.11168 14.2705 0.673689 12.8548C0.57935 12.5499 0.68835 12.2186 0.945334 12.0293L2.18867 11.1133C2.54281 10.8531 2.75196 10.4399 2.75196 10.0005C2.75196 9.56101 2.54281 9.14779 2.1882 8.88725L0.94565 7.97285C0.688284 7.78345 0.579184 7.45178 0.673856 7.14658C1.11261 5.73215 1.86643 4.43564 2.87861 3.35462C3.09608 3.12236 3.43643 3.05259 3.72773 3.18056L5.12811 3.79572C5.53105 3.97256 5.99429 3.94585 6.37626 3.72269C6.75658 3.50209 7.00977 3.11422 7.05866 2.67764L7.22873 1.15196C7.26425 0.83335 7.49835 0.572541 7.81129 0.502942C8.52857 0.34342 9.26044 0.258654 10.0127 0.25ZM10.0002 6.99995C8.34333 6.99995 7.00018 8.3431 7.00018 9.99995C7.00018 11.6568 8.34333 13 10.0002 13C11.657 13 13.0002 11.6568 13.0002 9.99995C13.0002 8.3431 11.657 6.99995 10.0002 6.99995Z" fill="#262627"/>
</svg>
