<svg width="20" height="20" viewBox="0 0 20 20" fill="none" xmlns="http://www.w3.org/2000/svg">
<path d="M10 -0.000244141C8.02219 -0.000244141 6.08879 0.586246 4.4443 1.68506C2.79981 2.78387 1.51809 4.34566 0.761209 6.17292C0.00433284 8.00018 -0.193701 10.0108 0.192152 11.9507C0.578004 13.8905 1.53041 15.6723 2.92894 17.0708C4.32746 18.4693 6.10929 19.4218 8.0491 19.8076C9.98891 20.1935 11.9996 19.9954 13.8268 19.2386C15.6541 18.4817 17.2159 17.1999 18.3147 15.5555C19.4135 13.911 20 11.9776 20 9.99976C19.9999 7.34761 18.9463 4.80412 17.071 2.92877C15.1956 1.05342 12.6521 -0.000172536 10 -0.000244141ZM13.5303 7.53003L7.53028 13.53C7.38965 13.6707 7.1989 13.7497 7.00001 13.7497C6.80111 13.7497 6.61037 13.6707 6.46972 13.53C6.32908 13.3894 6.25007 13.1987 6.25007 12.9998C6.25006 12.8009 6.32907 12.6101 6.4697 12.4695L12.4697 6.46949C12.6104 6.3293 12.801 6.25068 12.9997 6.25087C13.1983 6.25107 13.3888 6.33006 13.5292 6.47052C13.6697 6.61097 13.7487 6.80142 13.7489 7.00006C13.7491 7.19869 13.6705 7.38929 13.5303 7.53003Z" fill="#98332F"/>
</svg>
