<svg width="18" height="18" viewBox="0 0 18 18" fill="none" xmlns="http://www.w3.org/2000/svg">
<path d="M3.00049 1.49988C2.17206 1.49988 1.50049 2.17145 1.50049 2.99988V14.9999C1.50049 15.8283 2.17206 16.4999 3.00049 16.4999V11.2499C3.00049 10.0072 4.00785 8.99988 5.25049 8.99988H12.7505C13.9931 8.99988 15.0005 10.0072 15.0005 11.2499V16.4999C15.8289 16.4999 16.5005 15.8283 16.5005 14.9999V5.43186C16.5005 5.03403 16.3425 4.6525 16.0611 4.3712L13.6292 1.93922C13.3479 1.65791 12.9663 1.49988 12.5685 1.49988H12.0005V3.74988C12.0005 4.99252 10.9931 5.99988 9.75049 5.99988H6.75049C5.50785 5.99988 4.50049 4.99252 4.50049 3.74988V1.49988H3.00049ZM6.00049 1.49988V3.74988C6.00049 4.16409 6.33627 4.49988 6.75049 4.49988H9.75049C10.1647 4.49988 10.5005 4.16409 10.5005 3.74988V1.49988H6.00049ZM13.5005 16.4999V11.2499C13.5005 10.8357 13.1647 10.4999 12.7505 10.4999H5.25049C4.83627 10.4999 4.50049 10.8357 4.50049 11.2499V16.4999H13.5005ZM0.000488281 2.99988C0.000488281 1.34302 1.34363 -0.00012207 3.00049 -0.00012207H12.5685C13.3642 -0.00012207 14.1272 0.315948 14.6898 0.878558L17.1218 3.31054C17.6844 3.87315 18.0005 4.63621 18.0005 5.43186V14.9999C18.0005 16.6567 16.6573 17.9999 15.0005 17.9999H3.00049C1.34363 17.9999 0.000488281 16.6567 0.000488281 14.9999V2.99988Z" fill="#262627"/>
</svg>
