<svg width="20" height="20" viewBox="0 0 20 20" fill="none" xmlns="http://www.w3.org/2000/svg">
<path d="M10 0.000366218C8.02219 0.000366218 6.08879 0.586856 4.4443 1.68567C2.79981 2.78448 1.51809 4.34627 0.761209 6.17353C0.00433284 8.00079 -0.193701 10.0115 0.192152 11.9513C0.578004 13.8911 1.53041 15.6729 2.92894 17.0714C4.32746 18.47 6.10929 19.4224 8.0491 19.8082C9.98891 20.1941 11.9996 19.996 13.8268 19.2392C15.6541 18.4823 17.2159 17.2006 18.3147 15.5561C19.4135 13.9116 20 11.9782 20 10.0004C20.0001 8.68713 19.7414 7.38675 19.2389 6.17347C18.7364 4.9602 17.9998 3.85779 17.0712 2.92919C16.1426 2.00059 15.0402 1.264 13.8269 0.761472C12.6136 0.258942 11.3132 0.000317625 10 0.000366218ZM14.139 8.19177L8.95821 14.2748C8.88972 14.355 8.80483 14.4196 8.70927 14.4642C8.6137 14.5089 8.50969 14.5325 8.40421 14.5336H8.39859C8.29422 14.5337 8.19103 14.5114 8.09598 14.4683C8.00093 14.4252 7.91623 14.3622 7.84759 14.2836L5.29733 11.3871C5.2336 11.3147 5.18474 11.2305 5.15354 11.1392C5.12235 11.048 5.10943 10.9515 5.11553 10.8553C5.12785 10.6609 5.21687 10.4794 5.36301 10.3507C5.50915 10.2219 5.70044 10.1565 5.8948 10.1689C6.08916 10.1812 6.27067 10.2702 6.39939 10.4163L8.38913 12.6761L13.0198 7.2396C13.146 7.09117 13.3261 6.99899 13.5203 6.98332C13.7145 6.96764 13.907 7.02977 14.0555 7.15604C14.2039 7.2823 14.2961 7.46235 14.3117 7.65658C14.3274 7.85081 14.2653 8.04334 14.139 8.19177Z" fill="#18714C"/>
</svg>
