<svg width="20" height="20" viewBox="0 0 20 20" fill="none" xmlns="http://www.w3.org/2000/svg">
<path d="M9.99819 -0.00219727C11.2019 -0.00219727 12.3559 0.21043 13.4248 0.600174L12.231 1.79402C11.5195 1.60088 10.7709 1.4978 9.99819 1.4978C5.30261 1.4978 1.49609 5.30432 1.49609 9.9999C1.49609 14.6955 5.30261 18.502 9.99819 18.502C14.6938 18.502 18.5003 14.6955 18.5003 9.9999C18.5003 9.22827 18.3975 8.48065 18.2049 7.76999L19.3989 6.57598C19.788 7.6441 20.0003 8.79721 20.0003 9.9999C20.0003 15.5239 15.5222 20.002 9.99819 20.002C4.47419 20.002 -0.00390625 15.5239 -0.00390625 9.9999C-0.00390625 4.4759 4.47419 -0.00219727 9.99819 -0.00219727ZM9.99817 3.99991C10.5168 3.99991 11.02 4.06571 11.5 4.18941L11.5001 5.75665C11.0304 5.59039 10.5248 5.49991 9.99817 5.49991C7.51289 5.49991 5.49817 7.51463 5.49817 9.99991C5.49817 12.4852 7.51289 14.4999 9.99817 14.4999C12.4834 14.4999 14.4982 12.4852 14.4982 9.99991C14.4982 9.47396 14.4079 8.96908 14.2421 8.49991L15.8091 8.49991C15.9325 8.97934 15.9982 9.48196 15.9982 9.99991C15.9982 13.3136 13.3119 15.9999 9.99817 15.9999C6.68446 15.9999 3.99817 13.3136 3.99817 9.99991C3.99817 6.6862 6.68446 3.99991 9.99817 3.99991ZM11.9982 9.99991C11.9982 11.1045 11.1027 11.9999 9.99817 11.9999C8.8936 11.9999 7.99817 11.1045 7.99817 9.99991C7.99817 8.89534 8.8936 7.99991 9.99817 7.99991C10.2758 7.99991 10.5402 8.05648 10.7805 8.15872L12.5001 6.43915L12.5 3.24995C12.5 3.05103 12.579 2.86026 12.7197 2.7196L15.2196 0.219538C15.4341 0.00503182 15.7567 -0.0591417 16.0369 0.0569419C16.3172 0.173026 16.4999 0.446505 16.4999 0.749855V3.49988L19.2501 3.49993C19.5535 3.49993 19.827 3.68267 19.943 3.96292C20.0591 4.24318 19.995 4.56577 19.7805 4.78026L17.2804 7.28026C17.1397 7.42091 16.949 7.49992 16.7501 7.49992L13.5607 7.49993L11.8405 9.22013C11.942 9.45975 11.9982 9.72327 11.9982 9.99991ZM16.4394 5.99992L17.4395 4.99989L15.7499 4.99986C15.3357 4.99986 14.9999 4.66407 14.9999 4.24986V2.56058L14 3.56056L14.0001 5.94096C14.0104 5.95017 14.0205 5.95971 14.0303 5.96959C14.0402 5.9795 14.0498 5.98961 14.059 5.99992L16.4394 5.99992Z" fill="#262627"/>
</svg>
