<svg width="13" height="18" viewBox="0 0 13 18" fill="none" xmlns="http://www.w3.org/2000/svg">
<path d="M12.7041 0.440787C12.8952 0.666497 13 0.95262 13 1.24832V16.7499C13 17.4403 12.4404 17.9999 11.75 17.9999C11.4542 17.9999 11.168 17.8951 10.9423 17.7039L5.97513 13.4981H2.25C1.00736 13.4981 0 12.4908 0 11.2481V6.74815C0 5.5055 1.00736 4.49815 2.25 4.49815H5.97522L10.9425 0.294172C11.4694 -0.151815 12.2582 -0.0861734 12.7041 0.440787ZM11.5 1.78742L6.52478 5.99815H2.25C1.83579 5.99815 1.5 6.33393 1.5 6.74815V11.2481C1.5 11.6624 1.83579 11.9981 2.25 11.9981H6.52487L11.5 16.2107V1.78742Z" fill="#262627"/>
</svg>
