<svg width="20" height="18" viewBox="0 0 20 18" fill="none" xmlns="http://www.w3.org/2000/svg">
<path d="M13 1.25V16.7456C13 17.8243 11.7255 18.3965 10.9194 17.6797L6.42793 13.686C6.29063 13.5639 6.11329 13.4965 5.92956 13.4965H2.25C1.00736 13.4965 0 12.4891 0 11.2465V6.74859C0 5.50595 1.00736 4.49859 2.25 4.49859H5.92961C6.11333 4.49859 6.29065 4.43116 6.42794 4.30909L10.9195 0.315826C11.7255 -0.400852 13 0.171381 13 1.25ZM16.9916 2.89733C17.3244 2.65079 17.7941 2.72077 18.0407 3.05362C19.2717 4.7157 20 6.7739 20 9.00002C20 11.2261 19.2717 13.2843 18.0407 14.9464C17.7941 15.2793 17.3244 15.3492 16.9916 15.1027C16.6587 14.8562 16.5888 14.3865 16.8353 14.0536C17.8815 12.6411 18.5 10.8939 18.5 9.00002C18.5 7.10617 17.8815 5.35896 16.8353 3.94641C16.5888 3.61356 16.6587 3.14387 16.9916 2.89733ZM15.143 5.36933C15.5072 5.17214 15.9624 5.30757 16.1596 5.67184C16.6958 6.66245 17 7.79682 17 9C17 10.2032 16.6958 11.3376 16.1596 12.3282C15.9624 12.6924 15.5072 12.8279 15.143 12.6307C14.7787 12.4335 14.6432 11.9783 14.8404 11.6141C15.2609 10.8373 15.5 9.94769 15.5 9C15.5 8.05232 15.2609 7.1627 14.8404 6.38593C14.6432 6.02167 14.7787 5.56652 15.143 5.36933Z" fill="#262627"/>
</svg>
