<svg width="18" height="22" viewBox="0 0 18 22" fill="none" xmlns="http://www.w3.org/2000/svg">
<path d="M13.4996 4.20235C13.4996 1.76041 12.3595 0.00366211 10.4932 0.00366211C9.46699 0.00366211 9.11488 0.605027 8.74696 2.00324C8.67192 2.29209 8.63497 2.43272 8.59597 2.57133C8.49503 2.93007 8.31924 3.54082 8.06895 4.40234C8.06226 4.42542 8.0524 4.44717 8.03957 4.46724L5.17281 8.95291C4.49476 10.0139 3.49429 10.8294 2.31841 11.2796L1.84513 11.4608C0.598402 11.9381 -0.125426 13.2419 0.128697 14.5525L0.533195 16.6385C0.774622 17.8836 1.71828 18.8745 2.9501 19.1764L10.5778 21.046C13.109 21.6664 15.6674 20.1314 16.3113 17.6061L17.7262 12.057C18.1697 10.3177 17.1192 8.5482 15.3799 8.10473C15.1175 8.03782 14.8478 8.00398 14.5769 8.00398H12.7536C13.2497 6.37109 13.4996 5.1113 13.4996 4.20235ZM1.60127 14.2669C1.48576 13.6712 1.81477 13.0786 2.38147 12.8616L2.85475 12.6804C4.33036 12.1154 5.58585 11.0921 6.43674 9.76067L9.3035 5.27501C9.39354 5.13412 9.46292 4.98107 9.50949 4.8205C9.76079 3.95549 9.93751 3.3415 10.0399 2.97761C10.083 2.82436 10.1239 2.66891 10.1976 2.38494C10.3875 1.66324 10.4809 1.50366 10.4932 1.50366C11.3609 1.50366 11.9996 2.48773 11.9996 4.20235C11.9996 5.08683 11.6738 6.53779 11.0158 8.51741C10.8544 9.00294 11.2158 9.50398 11.7275 9.50398H14.5769C14.7228 9.50398 14.868 9.5222 15.0093 9.55823C15.9459 9.79702 16.5115 10.7498 16.2727 11.6863L14.8578 17.2355C14.4172 18.9634 12.6668 20.0136 10.9349 19.5891L3.30718 17.7196C2.64389 17.557 2.13577 17.0234 2.00577 16.353L1.60127 14.2669Z" fill="#262627"/>
</svg>
