<svg width="18" height="18" viewBox="0 0 18 18" fill="none" xmlns="http://www.w3.org/2000/svg">
<path d="M11.9205 4.03866C11.7227 4.23639 11.5881 4.48833 11.5335 4.76261C11.4789 5.03688 11.5069 5.32118 11.6139 5.57955C11.721 5.83792 11.9022 6.05875 12.1347 6.21412C12.3672 6.36948 12.6406 6.45241 12.9202 6.45241C13.1999 6.45241 13.4733 6.36948 13.7058 6.21412C13.9383 6.05875 14.1195 5.83792 14.2265 5.57955C14.3336 5.32118 14.3616 5.03688 14.307 4.76261C14.2524 4.48833 14.1177 4.23639 13.92 4.03866C13.6548 3.77351 13.2952 3.62456 12.9202 3.62456C12.5453 3.62456 12.1856 3.77351 11.9205 4.03866Z" fill="#262627"/>
<path d="M17.9931 2.41988C17.9912 1.78077 17.7365 1.16838 17.2848 0.716317C16.833 0.264257 16.2208 0.00922814 15.5816 0.0068784L9.95291 8.3733e-06H9.95106C9.63402 -0.000828739 9.31995 0.0611092 9.02696 0.18225C8.73398 0.303391 8.46788 0.481338 8.24401 0.705828L0.706327 8.24318C0.254025 8.69638 0 9.31051 0 9.9508C0 10.5911 0.254025 11.2052 0.706327 11.6584L6.34084 17.2923C6.56508 17.5167 6.83134 17.6947 7.12441 17.8161C7.41748 17.9376 7.7316 18.0001 8.04884 18.0001C8.36607 18.0001 8.6802 17.9376 8.97326 17.8161C9.26633 17.6947 9.53259 17.5167 9.75684 17.2923L17.2925 9.75692C17.7449 9.30268 17.9993 8.68793 18 8.04684L17.9931 2.41988ZM16.2262 8.69082L8.69047 16.2262C8.60624 16.3105 8.50622 16.3774 8.39612 16.4231C8.28602 16.4687 8.168 16.4922 8.04882 16.4922C7.92963 16.4922 7.81161 16.4687 7.70151 16.4231C7.59141 16.3774 7.49139 16.3105 7.40717 16.2262L1.77266 10.5923C1.68839 10.5081 1.62154 10.4081 1.57593 10.298C1.53032 10.188 1.50685 10.07 1.50685 9.95083C1.50685 9.83168 1.53032 9.71371 1.57593 9.60363C1.62154 9.49356 1.68839 9.39356 1.77266 9.30933L9.30837 1.77394C9.47901 1.6038 9.71009 1.50816 9.95106 1.50794L15.5787 1.51481C15.8191 1.51527 16.0495 1.611 16.2194 1.78103C16.3893 1.95106 16.4848 2.18151 16.4851 2.42188L16.492 8.04888C16.4921 8.16811 16.4687 8.28619 16.4231 8.39635C16.3775 8.50651 16.3106 8.60658 16.2262 8.69082Z" fill="#262627"/>
</svg>
