<svg width="20" height="16" viewBox="0 0 20 16" fill="none" xmlns="http://www.w3.org/2000/svg">
<path d="M17.7488 -0.000488281C18.9915 -0.000488281 19.9988 1.00687 19.9988 2.24951V13.7518C19.9988 14.9944 18.9915 16.0018 17.7488 16.0018H2.25C1.00736 16.0018 0 14.9944 0 13.7518V2.24951C0 1.00687 1.00736 -0.000488281 2.25 -0.000488281H17.7488ZM17.7488 1.49951H2.25C1.83579 1.49951 1.5 1.8353 1.5 2.24951V13.7518C1.5 14.166 1.83579 14.5018 2.25 14.5018H17.7488C18.163 14.5018 18.4988 14.166 18.4988 13.7518V2.24951C18.4988 1.8353 18.163 1.49951 17.7488 1.49951ZM8.25 11.5H11.75C12.1642 11.5 12.5 11.8357 12.5 12.25C12.5 12.6296 12.2178 12.9434 11.8518 12.9931L11.75 13H8.25C7.83579 13 7.5 12.6642 7.5 12.25C7.5 11.8703 7.78215 11.5565 8.14823 11.5068L8.25 11.5H11.75H8.25Z" fill="#262627"/>
</svg>
