<svg width="20" height="14" viewBox="0 0 20 14" fill="none" xmlns="http://www.w3.org/2000/svg">
<path d="M0.75 12H13.25C13.6642 12 14 12.3358 14 12.75C14 13.1297 13.7178 13.4435 13.3518 13.4932L13.25 13.5H0.75C0.335786 13.5 0 13.1642 0 12.75C0 12.3703 0.282154 12.0565 0.648229 12.0068L0.75 12H13.25H0.75ZM0.75 8H19.25C19.6642 8 20 8.33579 20 8.75C20 9.1297 19.7178 9.44349 19.3518 9.49315L19.25 9.5H0.75C0.335786 9.5 0 9.16421 0 8.75C0 8.3703 0.282154 8.05651 0.648229 8.00685L0.75 8H19.25H0.75ZM0.75 4H19.25C19.6642 4 20 4.33579 20 4.75C20 5.1297 19.7178 5.44349 19.3518 5.49315L19.25 5.5H0.75C0.335786 5.5 0 5.16421 0 4.75C0 4.3703 0.282154 4.05651 0.648229 4.00685L0.75 4H19.25H0.75ZM0.75 0H19.25C19.6642 0 20 0.335786 20 0.75C20 1.1297 19.7178 1.44349 19.3518 1.49315L19.25 1.5H0.75C0.335786 1.5 0 1.16421 0 0.75C0 0.370304 0.282154 0.0565088 0.648229 0.00684643L0.75 0H19.25H0.75Z" fill="#262627"/>
</svg>
