<svg width="20" height="18" viewBox="0 0 20 18" fill="none" xmlns="http://www.w3.org/2000/svg">
<path d="M9.2564 5.63688V10.9362C9.2564 11.1372 9.33476 11.33 9.47423 11.4721C9.61371 11.6143 9.80288 11.6941 10.0001 11.6941C10.1974 11.6941 10.3866 11.6143 10.526 11.4721C10.6655 11.33 10.7439 11.1372 10.7439 10.9362V5.63688C10.7439 5.43588 10.6655 5.2431 10.526 5.10097C10.3866 4.95884 10.1974 4.87899 10.0001 4.87899C9.80288 4.87899 9.61371 4.95884 9.47423 5.10097C9.33476 5.2431 9.2564 5.43588 9.2564 5.63688Z" fill="#262627"/>
<path d="M9.99991 13.1221C9.82051 13.1221 9.64514 13.1762 9.49597 13.2778C9.34681 13.3794 9.23055 13.5237 9.1619 13.6926C9.09326 13.8615 9.07531 14.0474 9.11033 14.2267C9.14535 14.4059 9.23176 14.5706 9.35864 14.6999C9.48551 14.8291 9.64715 14.9171 9.82311 14.9527C9.99907 14.9883 10.1814 14.97 10.3472 14.8999C10.5129 14.8299 10.6545 14.7114 10.7541 14.5593C10.8537 14.4073 10.9068 14.2286 10.9067 14.0458C10.9067 13.9244 10.8832 13.8043 10.8376 13.6922C10.792 13.5801 10.7252 13.4783 10.641 13.3925C10.5568 13.3068 10.4569 13.2387 10.3469 13.1923C10.2369 13.1459 10.119 13.1221 9.99991 13.1221Z" fill="#262627"/>
<path d="M19.7548 15.2073L11.6464 0.927684C11.4876 0.645215 11.2583 0.410601 10.9818 0.247671C10.7052 0.0847407 10.3913 -0.000701311 10.0718 2.28193e-05H10.066C9.74778 -0.001591 9.43478 0.0824204 9.15864 0.243567C8.88249 0.404714 8.65299 0.637287 8.4933 0.917781L0.251245 15.1974C0.0884709 15.48 0.0018106 15.8013 2.80654e-05 16.129C-0.00175447 16.4566 0.0814039 16.779 0.241093 17.0634C0.400782 17.3478 0.631339 17.5842 0.909446 17.7486C1.18755 17.9131 1.50335 17.9998 1.82489 18H18.1754C18.4959 17.9997 18.8107 17.9134 19.0882 17.7498C19.3656 17.5862 19.5959 17.3511 19.756 17.0681C19.916 16.7851 20.0002 16.4642 20 16.1375C19.9998 15.8109 19.9152 15.4901 19.7548 15.2073ZM18.3119 16.2198C18.2989 16.245 18.2792 16.2659 18.255 16.2802C18.2309 16.2945 18.2033 16.3016 18.1754 16.3007H1.82489C1.7971 16.3005 1.76984 16.2929 1.74583 16.2787C1.72183 16.2644 1.70192 16.2439 1.6881 16.2194C1.67428 16.1948 1.66703 16.167 1.66707 16.1386C1.66712 16.1103 1.67445 16.0825 1.68835 16.058L9.9304 1.77834C9.9437 1.75376 9.96339 1.73339 9.98731 1.71946C10.0112 1.70554 10.0384 1.6986 10.066 1.6994C10.0938 1.69854 10.1222 1.70555 10.1463 1.71967C10.1705 1.73378 10.1902 1.75444 10.2035 1.77933L18.3119 16.0579C18.3267 16.0823 18.3344 16.1103 18.3344 16.1388C18.3344 16.1674 18.3266 16.1955 18.3119 16.2198Z" fill="#262627"/>
</svg>
