<svg width="12" height="16" viewBox="0 0 12 16" fill="none" xmlns="http://www.w3.org/2000/svg">
<path d="M0.935144 0.439629C1.21647 0.158148 1.59813 0 1.99609 0H6.37951C9.0161 0 10.9995 2.18211 10.9995 4.62541C10.9995 5.60205 10.6828 6.53673 10.1341 7.30699C11.211 8.134 11.9995 9.4274 11.9995 11.12C11.9995 14.2315 9.30104 16 7.1195 16H1.99951C1.17108 16 0.499505 15.3284 0.499505 14.5L0.496094 1.50082C0.495877 1.10285 0.653816 0.721111 0.935144 0.439629ZM3.49869 6.24994H6.37951C7.28243 6.24994 7.99951 5.49051 7.99951 4.62541C7.99951 3.76 7.28138 3 6.37951 3H3.49691L3.49869 6.24994ZM3.49951 9.24994V13H7.1195C7.99265 13 8.99951 12.2464 8.99951 11.12C8.99951 9.99014 8.02477 9.24994 7.1195 9.24994H3.49951Z" fill="#262627"/>
</svg>
