<svg width="12" height="17" viewBox="0 0 12 17" fill="none" xmlns="http://www.w3.org/2000/svg">
<path d="M0.750007 15H11.25C11.6642 15 12 15.3358 12 15.75C12 16.1297 11.7179 16.4435 11.3518 16.4932L11.25 16.5H0.750007C0.335793 16.5 6.67572e-06 16.1642 6.67572e-06 15.75C6.67572e-06 15.3703 0.282161 15.0565 0.648236 15.0068L0.750007 15H11.25H0.750007ZM11.25 0C11.6297 0 11.9435 0.282154 11.9932 0.64823L12 0.75V6.75C12 11.1437 9.93707 13.5 5.99709 13.5C2.14241 13.5 0.0861934 11.2446 0.00264549 7.03362L0 6.75V0.75C0 0.335786 0.335793 0 0.750007 0C1.1297 0 1.44349 0.282154 1.49315 0.64823L1.5 0.75V6.75074C1.49647 10.3568 2.93346 12 5.99709 12C8.98243 12 10.4251 10.4395 10.4972 7.02354L10.5 6.75V0.75C10.5 0.335786 10.8358 0 11.25 0Z" fill="#262627"/>
</svg>
