<svg width="20" height="20" viewBox="0 0 20 20" fill="none" xmlns="http://www.w3.org/2000/svg">
<path d="M7.07905 0C6.58004 0 6.09175 0.0465128 5.61906 0.135421C5.30224 0.195012 5.0551 0.429324 4.99369 0.728347L4.61197 2.58681C4.58131 2.73609 4.41758 2.82522 4.26512 2.77561L2.36572 2.1576C2.06101 2.05845 1.72296 2.14246 1.50969 2.37033C0.864705 3.05944 0.360898 3.86988 0.0419033 4.76139C-0.0612409 5.04965 0.030536 5.3681 0.27423 5.56752L1.79375 6.81096C1.91556 6.91063 1.91556 7.08888 1.79375 7.18856L0.274095 8.43211C0.0304151 8.63151 -0.0613667 8.94993 0.0417519 9.23819C0.360674 10.1297 0.864399 10.9401 1.50929 11.6293C1.72257 11.8572 2.06064 11.9412 2.36537 11.842L4.26512 11.2239C4.41758 11.1743 4.58131 11.2634 4.61197 11.4127L4.99379 13.2717C5.05521 13.5707 5.30235 13.805 5.61918 13.8646C6.09183 13.9535 6.58008 14 7.07905 14C7.5815 14 8.07308 13.9528 8.54881 13.8627C8.86516 13.8028 9.11179 13.5687 9.17313 13.27L9.55461 11.4127C9.58527 11.2634 9.749 11.1743 9.90146 11.2239L11.7947 11.8399C12.0996 11.9391 12.4378 11.855 12.651 11.6269C13.2963 10.9367 13.8001 10.125 14.1185 9.23216C14.2212 8.94406 14.1294 8.62597 13.8859 8.42673L12.3728 7.18855C12.251 7.08888 12.251 6.91063 12.3728 6.81096L13.8858 5.57289C14.1293 5.37364 14.2211 5.05553 14.1183 4.76741C13.7998 3.87455 13.296 3.06285 12.6506 2.3727C12.4374 2.14465 12.0992 2.06053 11.7944 2.15971L9.90146 2.77561C9.749 2.82522 9.58527 2.73609 9.55461 2.58682L9.17324 0.730014C9.11189 0.431356 8.86527 0.197214 8.54893 0.137289C8.07316 0.0471646 7.58154 0 7.07905 0ZM5.22379 7.00002C5.22379 6.03361 6.05482 5.25012 7.08002 5.25012C8.10522 5.25012 8.93625 6.03361 8.93625 7.00002C8.93625 7.96644 8.10522 8.74993 7.08002 8.74993C6.05482 8.74993 5.22379 7.96644 5.22379 7.00002ZM11.7587 12.7838C11.8885 12.6223 12.1162 12.5678 12.3194 12.6339L13.6553 13.0686C13.9325 13.1588 14.2302 12.9968 14.2859 12.7254L14.5546 11.417C14.5956 11.2178 14.7599 11.059 14.9735 11.0342C15.1671 11.0116 15.3644 11 15.5645 11C15.7647 11 15.9619 11.0116 16.1556 11.0342C16.3692 11.059 16.5335 11.2178 16.5744 11.417L16.8431 12.7254C16.8989 12.9968 17.1966 13.1588 17.4738 13.0686L18.8097 12.6339C19.0129 12.5678 19.2406 12.6223 19.3704 12.7838C19.6081 13.0793 19.8079 13.4033 19.963 13.7495C20.0467 13.9362 19.983 14.1495 19.8206 14.2824L18.7524 15.1565C18.5309 15.3378 18.5309 15.6618 18.7524 15.8431L19.8207 16.7174C19.9831 16.8502 20.0469 17.0635 19.9632 17.2502C19.808 17.5963 19.6083 17.9203 19.3707 18.2158C19.2408 18.3773 19.0131 18.4319 18.8099 18.3658L17.4738 17.931C17.1966 17.8408 16.8989 18.0028 16.8431 18.2742L16.5744 19.583C16.5334 19.7822 16.3691 19.941 16.1555 19.9658C15.9619 19.9884 15.7646 20 15.5645 20C15.3644 20 15.1672 19.9884 14.9736 19.9658C14.7599 19.941 14.5956 19.7822 14.5547 19.583L14.2859 18.2742C14.2302 18.0028 13.9325 17.8408 13.6553 17.931L12.3191 18.3658C12.1159 18.4319 11.8883 18.3773 11.7584 18.2158C11.5208 17.9203 11.3211 17.5963 11.1659 17.2502C11.0822 17.0635 11.146 16.8502 11.3084 16.7173L12.3767 15.8431C12.5981 15.6618 12.5981 15.3378 12.3767 15.1565L11.3085 14.2824C11.1461 14.1495 11.0824 13.9362 11.1661 13.7495C11.3212 13.4034 11.521 13.0793 11.7587 12.7838ZM16.8908 15.5C16.8908 14.8094 16.2969 14.2495 15.5643 14.2495C14.8317 14.2495 14.2378 14.8094 14.2378 15.5C14.2378 16.1907 14.8317 16.7506 15.5643 16.7506C16.2969 16.7506 16.8908 16.1907 16.8908 15.5Z" fill="#262627"/>
</svg>
