<svg width="18" height="14" viewBox="0 0 18 14" fill="none" xmlns="http://www.w3.org/2000/svg">
<path d="M17.25 0C17.6642 0 18 0.335786 18 0.75C18 1.16421 17.6642 1.5 17.25 1.5H0.75C0.335787 1.5 0 1.16421 0 0.75C0 0.335786 0.335787 0 0.75 0H17.25ZM12.25 4C12.6642 4 13 4.33579 13 4.75C13 5.16421 12.6642 5.5 12.25 5.5H0.75C0.335787 5.5 0 5.16421 0 4.75C0 4.33579 0.335787 4 0.75 4H12.25ZM13 8.75C13 8.33579 12.6642 8 12.25 8H0.75C0.335787 8 0 8.33579 0 8.75C0 9.16421 0.335787 9.5 0.75 9.5H12.25C12.6642 9.5 13 9.16421 13 8.75ZM17.25 12C17.6642 12 18 12.3358 18 12.75C18 13.1642 17.6642 13.5 17.25 13.5H0.75C0.335787 13.5 0 13.1642 0 12.75C0 12.3358 0.335787 12 0.75 12H17.25ZM17.7803 6.03033C18.0732 5.73744 18.0732 5.26256 17.7803 4.96967C17.4874 4.67678 17.0126 4.67678 16.7197 4.96967L15.2197 6.46967C14.9268 6.76256 14.9268 7.23744 15.2197 7.53033L16.7197 9.03033C17.0126 9.32322 17.4874 9.32322 17.7803 9.03033C18.0732 8.73744 18.0732 8.26256 17.7803 7.96967L16.8107 7L17.7803 6.03033Z" fill="#262627"/>
</svg>
