<svg width="20" height="20" viewBox="0 0 20 20" fill="none" xmlns="http://www.w3.org/2000/svg">
<path d="M10 0C8.02219 0 6.08879 0.58649 4.4443 1.6853C2.79981 2.78412 1.51809 4.3459 0.761209 6.17317C0.00433302 8.00043 -0.193701 10.0111 0.192152 11.9509C0.578004 13.8907 1.53041 15.6725 2.92894 17.0711C4.32746 18.4696 6.10929 19.422 8.0491 19.8079C9.98891 20.1937 11.9996 19.9957 13.8268 19.2388C15.6541 18.4819 17.2159 17.2002 18.3147 15.5557C19.4135 13.9112 20 11.9778 20 10C20 7.34785 18.9464 4.80434 17.071 2.92899C15.1957 1.05363 12.6522 4.77374e-05 10 0ZM10 18.5C8.31886 18.5 6.67548 18.0015 5.27766 17.0675C3.87984 16.1335 2.79037 14.806 2.14703 13.2528C1.50368 11.6996 1.33536 9.99057 1.66333 8.34173C1.9913 6.69289 2.80085 5.17834 3.9896 3.98959C5.17834 2.80085 6.6929 1.9913 8.34174 1.66333C9.99058 1.33535 11.6996 1.50368 13.2528 2.14702C14.806 2.79037 16.1335 3.87984 17.0675 5.27765C18.0015 6.67547 18.5 8.31886 18.5 10C18.4974 12.2535 17.601 14.414 16.0075 16.0075C14.414 17.601 12.2535 18.4974 10 18.5Z" fill="#262627"/>
<path d="M12.4699 6.46972L6.46985 12.4697C6.39999 12.5393 6.34454 12.622 6.30667 12.713C6.26881 12.8041 6.24926 12.9017 6.24917 13.0003C6.24907 13.0989 6.26842 13.1966 6.30611 13.2877C6.3438 13.3788 6.39909 13.4616 6.46881 13.5313C6.53853 13.601 6.62132 13.6563 6.71244 13.694C6.80356 13.7317 6.90121 13.751 6.99982 13.751C7.09842 13.7509 7.19604 13.7313 7.28708 13.6934C7.37813 13.6556 7.46081 13.6001 7.5304 13.5303L13.5304 7.53027C13.6706 7.38954 13.7492 7.19894 13.749 7.0003C13.7488 6.80167 13.6698 6.61122 13.5294 6.47076C13.3889 6.3303 13.1985 6.25131 12.9998 6.25111C12.8012 6.25092 12.6106 6.32954 12.4699 6.46972Z" fill="#262627"/>
</svg>
