<svg width="19" height="19" viewBox="0 0 19 19" fill="none" xmlns="http://www.w3.org/2000/svg">
<path d="M11.5 8C11.5 7.58579 11.1642 7.25 10.75 7.25H8.75V5.25C8.75 4.83579 8.41421 4.5 8 4.5C7.58578 4.5 7.25 4.83579 7.25 5.25V7.25H5.25C4.83578 7.25 4.5 7.58579 4.5 8C4.5 8.41421 4.83578 8.75 5.25 8.75H7.25V10.75C7.25 11.1642 7.58578 11.5 8 11.5C8.41421 11.5 8.75 11.1642 8.75 10.75V8.75H10.75C11.1642 8.75 11.5 8.41421 11.5 8ZM8 0.75C12.0041 0.75 15.25 3.99594 15.25 8C15.25 9.73187 14.6427 11.3219 13.6295 12.5688L18.5303 17.4697C18.8232 17.7626 18.8232 18.2374 18.5303 18.5303C18.2641 18.7966 17.8474 18.8208 17.5538 18.6029L17.4697 18.5303L12.5688 13.6295C11.3219 14.6427 9.73187 15.25 8 15.25C3.99593 15.25 0.75 12.0041 0.75 8C0.75 3.99594 3.99593 0.75 8 0.75ZM8 2.25C4.82436 2.25 2.25 4.82436 2.25 8C2.25 11.1756 4.82436 13.75 8 13.75C11.1756 13.75 13.75 11.1756 13.75 8C13.75 4.82436 11.1756 2.25 8 2.25Z" fill="#262627"/>
</svg>
