<svg width="16" height="20" viewBox="0 0 16 20" fill="none" xmlns="http://www.w3.org/2000/svg">
<path d="M4.751 18.256L4.797 18.423C4.94042 18.8801 5.22602 19.2795 5.61221 19.563C5.9984 19.8465 6.46501 19.9993 6.94409 19.9992H9.05493L9.229 19.9923C9.70628 19.9555 10.1594 19.7674 10.5223 19.4553C10.8853 19.1432 11.1392 18.7234 11.2471 18.257L11.5381 16.9992H4.46094L4.751 18.256Z" fill="#553EB7"/>
<path d="M8 0.00109865C7.0479 0.00104349 6.10512 0.188532 5.22548 0.55286C4.34584 0.917187 3.54659 1.45122 2.87335 2.12445C2.20012 2.79769 1.66609 3.59694 1.30176 4.47658C0.937434 5.35621 0.749945 6.299 0.75 7.2511C0.777829 8.36391 1.03843 9.45856 1.51501 10.4645C1.99159 11.4705 2.67359 12.3655 3.51709 13.0919C3.55239 13.1254 3.57705 13.1685 3.58801 13.2159L4.11401 15.4991H11.886L12.4141 13.2159C12.4246 13.1683 12.4493 13.1251 12.485 13.0919C13.3279 12.3651 14.0093 11.47 14.4855 10.4641C14.9617 9.45815 15.2221 8.3637 15.25 7.2511C15.2501 6.299 15.0626 5.35621 14.6983 4.47657C14.3339 3.59693 13.7999 2.79767 13.1267 2.12443C12.4534 1.45119 11.6542 0.917162 10.7745 0.552838C9.89489 0.188515 8.9521 0.00103298 8 0.00109865Z" fill="#553EB7"/>
</svg>
