<svg width="18" height="22" viewBox="0 0 18 22" fill="none" xmlns="http://www.w3.org/2000/svg">
<path d="M13.4996 16.9849C13.4996 19.4269 12.3595 21.1836 10.4932 21.1836C9.5183 21.1836 9.15177 20.6409 8.80212 19.3878L8.59597 18.6159C8.49503 18.2572 8.31924 17.6464 8.06895 16.7849C8.06226 16.7618 8.0524 16.7401 8.03957 16.72L5.17281 12.2344C4.49476 11.1734 3.49429 10.3579 2.31841 9.90769L1.84513 9.72649C0.598402 9.24916 -0.125426 7.94538 0.128697 6.63481L0.533195 4.54873C0.774622 3.30364 1.71828 2.31273 2.9501 2.01082L10.5778 0.141285C13.109 -0.479106 15.6674 1.05583 16.3113 3.58116L17.7262 9.13031C18.1697 10.8696 17.1192 12.6391 15.3799 13.0825C15.1175 13.1494 14.8478 13.1833 14.5769 13.1833H12.7536C13.2497 14.8162 13.4996 16.076 13.4996 16.9849ZM1.60127 6.92034C1.48576 7.51606 1.81477 8.10868 2.38147 8.32565L2.85475 8.50686C4.33036 9.07182 5.58585 10.0952 6.43674 11.4266L9.3035 15.9123C9.39354 16.0531 9.46292 16.2062 9.50949 16.3668L10.0614 18.287L10.2731 19.0784C10.4125 19.5664 10.4827 19.6836 10.4932 19.6836C11.3609 19.6836 11.9996 18.6995 11.9996 16.9849C11.9996 16.1004 11.6738 14.6495 11.0158 12.6698C10.8544 12.1843 11.2158 11.6833 11.7275 11.6833H14.5769C14.7228 11.6833 14.868 11.6651 15.0093 11.629C15.9459 11.3902 16.5115 10.4375 16.2727 9.50092L14.8578 3.95176C14.4172 2.2239 12.6668 1.17369 10.9349 1.59816L3.30718 3.46769C2.64389 3.63026 2.13577 4.16383 2.00577 4.83426L1.60127 6.92034Z" fill="#262627"/>
</svg>
