<svg width="19" height="17" viewBox="0 0 19 17" fill="none" xmlns="http://www.w3.org/2000/svg">
<path d="M13.4881 0.430571C13.8026 0.700137 13.839 1.17361 13.5695 1.48811L7.98786 7.99997L13.0202 13.871C12.7183 14.2808 12.4653 14.7768 12.3381 15.3802L7.00005 9.15241L1.56946 15.4881C1.29989 15.8026 0.826414 15.839 0.51192 15.5695C0.197426 15.2999 0.161005 14.8264 0.430571 14.5119L6.01225 7.99997L0.430665 1.48812C0.161097 1.17363 0.197519 0.700151 0.512013 0.430585C0.826507 0.161018 1.29998 0.19744 1.56955 0.511933L7.00005 6.84752L12.4306 0.51192C12.7001 0.197426 13.1736 0.161004 13.4881 0.430571ZM14.75 11.5227C14.75 10.995 15.1935 10.5 15.7358 10.5C16.1429 10.5 16.4707 10.6909 16.6292 10.9345C16.765 11.1434 16.8466 11.4998 16.5356 12.0292C16.3861 12.2837 16.16 12.5114 15.854 12.7531C15.7016 12.8735 15.5385 12.9904 15.3611 13.1158L15.2873 13.1679C15.1351 13.2753 14.9721 13.3902 14.8147 13.5087C14.0711 14.0683 13.25 14.8536 13.25 16.25C13.25 16.6642 13.5858 17 14 17L14.0082 17L14.0164 17H17.4506C17.8648 17 18.2006 16.6642 18.2006 16.25C18.2006 15.8358 17.8648 15.5 17.4506 15.5H14.9377C15.0984 15.2182 15.3606 14.9752 15.7166 14.7072C15.8541 14.6038 15.996 14.5036 16.1493 14.3955L16.2269 14.3407C16.4054 14.2145 16.5972 14.0775 16.7837 13.9302C17.1557 13.6364 17.5445 13.2731 17.8289 12.789C18.3858 11.8411 18.3753 10.868 17.8865 10.1166C17.4204 9.39999 16.591 9 15.7358 9C14.2582 9 13.25 10.2777 13.25 11.5227C13.25 11.9369 13.5858 12.2727 14 12.2727C14.4142 12.2727 14.75 11.9369 14.75 11.5227Z" fill="#262627"/>
</svg>
