<svg width="20" height="20" viewBox="0 0 20 20" fill="none" xmlns="http://www.w3.org/2000/svg">
<path d="M11 13.25C11 12.8358 11.3358 12.5 11.75 12.5H15.25C15.6642 12.5 16 12.8358 16 13.25C16 13.6642 15.6642 14 15.25 14H11.75C11.3358 14 11 13.6642 11 13.25ZM7.5 4.75C7.5 4.33579 7.16421 4 6.75 4C6.33579 4 6 4.33579 6 4.75V6H4.75C4.33579 6 4 6.33579 4 6.75C4 7.16421 4.33579 7.5 4.75 7.5H6V8.75C6 9.16421 6.33579 9.5 6.75 9.5C7.16421 9.5 7.5 9.16421 7.5 8.75V7.5H8.75C9.16421 7.5 9.5 7.16421 9.5 6.75C9.5 6.33579 9.16421 6 8.75 6H7.5V4.75ZM10 20C4.47715 20 0 15.5228 0 10C0 4.47715 4.47715 0 10 0C15.5228 0 20 4.47715 20 10C20 15.5228 15.5228 20 10 20ZM10 18.5C14.6944 18.5 18.5 14.6944 18.5 10C18.5 7.92281 17.7549 6.01965 16.5174 4.54319L4.54319 16.5174C6.01965 17.7549 7.92281 18.5 10 18.5ZM3.48254 15.4567L15.4567 3.48254C13.9803 2.24507 12.0772 1.5 10 1.5C5.30558 1.5 1.5 5.30558 1.5 10C1.5 12.0772 2.24507 13.9803 3.48254 15.4567Z" fill="#262627"/>
</svg>
