<svg width="16" height="20" viewBox="0 0 16 20" fill="none" xmlns="http://www.w3.org/2000/svg">
<path d="M11.1995 0C12.2578 0 13.1293 0.87524 13.2427 2.00044L14.4011 2C15.24 2 15.928 2.70711 15.9947 3.60647L16 3.75V6.75C16 8.48303 14.7606 9.89925 13.199 9.99485L13.0069 10.0007C12.3967 12.0909 10.7241 13.6615 8.6842 13.9517L8.68364 15.5H10.2858C11.8692 15.5 13.1632 16.8565 13.2505 18.5656L13.2552 18.75V19.25C13.2552 19.6297 12.9974 19.9435 12.663 19.9932L12.57 20H3.43039C3.08347 20 2.79676 19.7178 2.75138 19.3518L2.74513 19.25V18.75C2.74513 17.017 3.9845 15.6008 5.54609 15.5051L5.7146 15.5H7.31312L7.31343 13.9513C5.27474 13.6601 3.60336 12.09 2.99346 10.0007L2.96947 10C1.32948 10 0 8.54493 0 6.75V3.75C0 2.7835 0.715872 2 1.59894 2L2.75763 2.00044C2.87108 0.87524 3.74261 0 4.80091 0H11.1995ZM10.2858 17H5.7146C4.95646 17 4.32156 17.5775 4.15709 18.3525L4.13184 18.5H11.8685C11.7642 17.7018 11.1678 17.0774 10.4264 17.0067L10.2858 17ZM11.1995 1.5H4.80091C4.42245 1.5 4.11565 1.83579 4.11565 2.25V8.24849C4.11565 10.5965 5.85482 12.5 8.00019 12.5C10.1456 12.5 11.8847 10.5965 11.8847 8.24849V2.25C11.8847 1.83579 11.5779 1.5 11.1995 1.5ZM14.4011 3.5H13.2552V8.48285C13.9862 8.37033 14.5586 7.71683 14.6234 6.90415L14.6295 6.75V3.75C14.6295 3.63165 14.5543 3.53251 14.4534 3.5066L14.4011 3.5ZM2.74513 3.5H1.59894C1.47279 3.5 1.37052 3.61193 1.37052 3.75V6.75C1.37052 7.63316 1.96827 8.36353 2.74513 8.48291V3.5Z" fill="#262627"/>
</svg>
