<svg width="15" height="20" viewBox="0 0 15 20" fill="none" xmlns="http://www.w3.org/2000/svg">
<path d="M14.2498 1.50865C14.664 1.50877 15 1.17308 15 0.758864C15 0.34465 14.6644 0.00876621 14.2502 0.00864604L1.25022 0.00488284C0.836003 0.00476268 0.5 0.340452 0.5 0.754665C0.5 1.16888 0.83557 1.50476 1.24978 1.50488L14.2498 1.50865ZM7.64823 19.9969L7.75 20.0037C8.1297 20.0037 8.44349 19.7215 8.49315 19.3555L8.5 19.2537L8.499 5.5687L12.2208 9.28903C12.4871 9.55527 12.9038 9.57943 13.1974 9.36155L13.2815 9.28892C13.5477 9.02263 13.5719 8.60596 13.354 8.31237L13.2814 8.22826L8.28372 3.23165C8.01757 2.96556 7.60119 2.94125 7.3076 3.15882L7.22348 3.23134L2.22003 8.22795C1.92694 8.52065 1.92661 8.99552 2.21931 9.28861C2.48539 9.55506 2.90204 9.57955 3.1958 9.3619L3.27997 9.28934L6.999 5.5757L7 19.2537C7 19.6334 7.28215 19.9472 7.64823 19.9969Z" fill="#262627"/>
</svg>
