<svg width="24" height="24" viewBox="0 0 24 24" fill="none" xmlns="http://www.w3.org/2000/svg">
<path d="M17.4263 2.28503L20.3863 5.24529C21.2046 6.06357 21.2046 7.39026 20.3863 8.20854L17.9797 10.6148C18.9882 10.7661 19.7615 11.6362 19.7615 12.6869V17.576C19.7615 18.7332 18.8234 19.6713 17.6663 19.6713H5.09518C3.93805 19.6713 3 18.7332 3 17.576V5.004C3 3.84678 3.93805 2.90867 5.09518 2.90867H9.98395C11.0352 2.90867 11.9056 3.68297 12.0561 4.69241L14.4632 2.28503C15.2815 1.46676 16.6081 1.46676 17.4263 2.28503ZM4.39679 17.576C4.39679 17.9617 4.70947 18.2744 5.09518 18.2744L10.6814 18.2738L10.6823 11.9884L4.39679 11.9878V17.576ZM12.0782 18.2738L17.6663 18.2744C18.052 18.2744 18.3647 17.9617 18.3647 17.576V12.6869C18.3647 12.3011 18.052 11.9884 17.6663 11.9884L12.0782 11.9878V18.2738ZM9.98395 4.30556H5.09518C4.70947 4.30556 4.39679 4.61826 4.39679 5.004V10.5909H10.6823V5.004C10.6823 4.61826 10.3697 4.30556 9.98395 4.30556ZM12.0791 8.78428V10.5916L13.8856 10.5909L12.0791 8.78428ZM15.4509 3.27278L12.4909 6.23304C12.2181 6.5058 12.2181 6.94803 12.4909 7.22079L15.4509 10.181C15.7237 10.4538 16.1659 10.4538 16.4386 10.181L19.3987 7.22079C19.6714 6.94803 19.6714 6.5058 19.3987 6.23304L16.4386 3.27278C16.1659 3.00002 15.7237 3.00002 15.4509 3.27278Z" fill="#262627"/>
</svg>
