<svg width="18" height="19" viewBox="0 0 18 19" fill="none" xmlns="http://www.w3.org/2000/svg">
<path d="M14.4263 1.28503L17.3863 4.24529C18.2046 5.06357 18.2046 6.39026 17.3863 7.20854L14.9797 9.61485C15.9882 9.76614 16.7615 10.6362 16.7615 11.6869V16.576C16.7615 17.7332 15.8234 18.6713 14.6663 18.6713H2.09518C0.938046 18.6713 0 17.7332 0 16.576V4.004C0 2.84678 0.938046 1.90867 2.09518 1.90867H6.98395C8.03521 1.90867 8.90564 2.68297 9.05612 3.69241L11.4632 1.28503C12.2815 0.466756 13.6081 0.466756 14.4263 1.28503ZM1.39679 16.576C1.39679 16.9617 1.70947 17.2744 2.09518 17.2744L7.68141 17.2738L7.68234 10.9884L1.39679 10.9878V16.576ZM9.0782 17.2738L14.6663 17.2744C15.052 17.2744 15.3647 16.9617 15.3647 16.576V11.6869C15.3647 11.3011 15.052 10.9884 14.6663 10.9884L9.0782 10.9878V17.2738ZM6.98395 3.30556H2.09518C1.70947 3.30556 1.39679 3.61826 1.39679 4.004V9.59092H7.68234V4.004C7.68234 3.61826 7.36966 3.30556 6.98395 3.30556ZM9.07913 7.78428V9.59155L10.8856 9.59092L9.07913 7.78428ZM12.4509 2.27278L9.49087 5.23304C9.21813 5.5058 9.21813 5.94803 9.49087 6.22079L12.4509 9.18105C12.7237 9.45381 13.1659 9.45381 13.4386 9.18105L16.3987 6.22079C16.6714 5.94803 16.6714 5.5058 16.3987 5.23304L13.4386 2.27278C13.1659 2.00002 12.7237 2.00002 12.4509 2.27278Z" fill="#262627"/>
</svg>
