<svg width="18" height="18" viewBox="0 0 18 18" fill="none" xmlns="http://www.w3.org/2000/svg">
<path d="M7.25 8C6.83579 8 6.5 8.33579 6.5 8.75C6.5 9.16421 6.83579 9.5 7.25 9.5H10.75C11.1642 9.5 11.5 9.16421 11.5 8.75C11.5 8.33579 11.1642 8 10.75 8H7.25ZM0 2.25C0 1.00736 1.00736 0 2.25 0H15.75C16.9926 0 18 1.00736 18 2.25V3.75C18 4.5301 17.603 5.21748 17 5.62111V14.25C17 16.3211 15.3211 18 13.25 18H4.75C2.67893 18 1 16.3211 1 14.25V5.62111C0.397007 5.21748 0 4.5301 0 3.75V2.25ZM2.5 6V14.25C2.5 15.4926 3.50736 16.5 4.75 16.5H13.25C14.4926 16.5 15.5 15.4926 15.5 14.25V6H2.5ZM2.25 1.5C1.83579 1.5 1.5 1.83579 1.5 2.25V3.75C1.5 4.16421 1.83579 4.5 2.25 4.5H15.75C16.1642 4.5 16.5 4.16421 16.5 3.75V2.25C16.5 1.83579 16.1642 1.5 15.75 1.5H2.25Z" fill="#262627"/>
</svg>
