<svg width="20" height="14" viewBox="0 0 20 14" fill="none" xmlns="http://www.w3.org/2000/svg">
<path d="M11.7479 13.4983L19.3018 13.4978L19.402 13.4838L19.5008 13.4562L19.5611 13.4307C19.6403 13.3958 19.7146 13.3451 19.7798 13.2799L19.8205 13.2359L19.864 13.1795L19.9182 13.0894L19.9569 12.9991L19.976 12.935L19.9896 12.871L19.999 12.7768L19.9995 5.2444C19.9995 4.83019 19.6637 4.4944 19.2495 4.4944C18.8698 4.4944 18.556 4.77655 18.5063 5.14263L18.4995 5.2444L18.499 10.9393L10.7802 3.21903C10.5139 2.95275 10.0973 2.92854 9.80364 3.14639L9.71951 3.21901L6.74903 6.18937L1.27935 0.719692C0.98646 0.426799 0.511587 0.426799 0.218693 0.719692C-0.0475731 0.985959 -0.0717793 1.40262 0.146075 1.69623L0.218693 1.78035L6.21869 7.78035C6.48496 8.04662 6.90161 8.07083 7.19522 7.85298L7.27934 7.78036L10.2498 4.81001L17.437 11.9983H11.7479C11.3682 11.9983 11.0545 12.2804 11.0048 12.6465L10.9979 12.7483C10.9979 13.128 11.2801 13.4418 11.6462 13.4914L11.7479 13.4983Z" fill="#262627"/>
</svg>
