<svg width="24" height="24" viewBox="0 0 24 24" fill="none" xmlns="http://www.w3.org/2000/svg">
<path d="M13.7479 18.4983L21.3018 18.4978L21.402 18.4838L21.5008 18.4562L21.5611 18.4307C21.6403 18.3958 21.7146 18.3451 21.7798 18.2799L21.8205 18.2359L21.864 18.1795L21.9182 18.0894L21.9569 17.9991L21.976 17.935L21.9896 17.871L21.999 17.7768L21.9995 10.2444C21.9995 9.83019 21.6637 9.4944 21.2495 9.4944C20.8698 9.4944 20.556 9.77655 20.5063 10.1426L20.4995 10.2444L20.499 15.9393L12.7802 8.21903C12.5139 7.95275 12.0973 7.92854 11.8036 8.14639L11.7195 8.21901L8.74903 11.1894L3.27935 5.71969C2.98646 5.4268 2.51159 5.4268 2.21869 5.71969C1.95243 5.98596 1.92822 6.40262 2.14608 6.69623L2.21869 6.78035L8.21869 12.7804C8.48496 13.0466 8.90161 13.0708 9.19522 12.853L9.27934 12.7804L12.2498 9.81001L19.437 16.9983H13.7479C13.3682 16.9983 13.0545 17.2804 13.0048 17.6465L12.9979 17.7483C12.9979 18.128 13.2801 18.4418 13.6462 18.4914L13.7479 18.4983Z" fill="#262627"/>
</svg>
