<svg width="20" height="14" viewBox="0 0 20 14" fill="none" xmlns="http://www.w3.org/2000/svg">
<path d="M11.7479 0.5L19.3018 0.500517L19.402 0.514442L19.5008 0.542047L19.5611 0.567598C19.6403 0.602462 19.7146 0.65315 19.7798 0.718356L19.8205 0.7624L19.864 0.818781L19.9182 0.908904L19.9569 0.999222L19.976 1.0633L19.9896 1.1273L19.999 1.2215L19.9995 8.75389C19.9995 9.1681 19.6637 9.50389 19.2495 9.50389C18.8698 9.50389 18.556 9.22174 18.5063 8.85566L18.4995 8.75389L18.499 3.059L10.7802 10.7793C10.5139 11.0455 10.0973 11.0698 9.80364 10.8519L9.71951 10.7793L6.74903 7.80892L1.27935 13.2786C0.98646 13.5715 0.511587 13.5715 0.218693 13.2786C-0.0475731 13.0123 -0.0717793 12.5957 0.146075 12.3021L0.218693 12.2179L6.21869 6.21794C6.48496 5.95168 6.90161 5.92747 7.19522 6.14531L7.27934 6.21793L10.2498 9.18828L17.437 2H11.7479C11.3682 2 11.0545 1.71785 11.0048 1.35177L10.9979 1.25C10.9979 0.870304 11.2801 0.556509 11.6462 0.506846L11.7479 0.5Z" fill="#262627"/>
</svg>
