<svg width="20" height="16" viewBox="0 0 20 16" fill="none" xmlns="http://www.w3.org/2000/svg">
<path d="M19.7803 10.9654L15.2856 15.7554C15.0195 16.0389 14.6032 16.0649 14.3096 15.8332L14.2255 15.756L9.72063 10.966C9.42742 10.6542 9.4269 10.1482 9.71948 9.83575C9.98546 9.5517 10.4021 9.52543 10.6959 9.75724L10.7801 9.83452L14.003 13.2624L14.0023 0.799209C14.0023 0.394601 14.2845 0.060217 14.6506 0.00729615L14.7523 0C15.132 0 15.4458 0.300667 15.4955 0.690762L15.5023 0.799209L15.503 13.2646L18.7197 9.83515C18.9859 9.55141 19.4026 9.5256 19.6962 9.75774L19.7803 9.83512C20.0466 10.1188 20.0708 10.5628 19.853 10.8757L19.7803 10.9654ZM5.35091 15.9927L5.24914 16C4.86944 16 4.55565 15.6993 4.50598 15.3092L4.49914 15.2008L4.5 2.73739L1.28055 6.1699C1.01439 6.45375 0.59774 6.47973 0.304039 6.24771L0.219891 6.17037C-0.0464878 5.88675 -0.0708675 5.44276 0.146862 5.12979L0.219446 5.04012L4.71568 0.244861C4.98184 -0.0389949 5.39849 -0.0649752 5.6922 0.167043L5.77635 0.244388L10.2801 5.03964C10.5731 5.35162 10.5733 5.85766 10.2806 6.1699C10.0144 6.45375 9.59774 6.47973 9.30404 6.24771L9.21989 6.17037L6 2.74165L5.99914 15.2008C5.99914 15.6054 5.71698 15.9398 5.35091 15.9927Z" fill="#262627"/>
</svg>
