<svg width="24" height="24" viewBox="0 0 24 24" fill="none" xmlns="http://www.w3.org/2000/svg">
<path d="M14.5043 3.19769L18.5499 7.24297C18.7894 7.48242 18.8113 7.85708 18.6157 8.12134L18.5504 8.19706L14.5049 12.2514C14.2416 12.5153 13.8142 12.5158 13.5503 12.2525C13.3104 12.0131 13.2882 11.6381 13.484 11.3737L13.5493 11.2979L16.4444 8.3973L5.91816 8.39789C5.57644 8.39789 5.29402 8.14396 5.24933 7.81449L5.24316 7.72289C5.24316 7.38117 5.4971 7.09875 5.82657 7.05406L5.91816 7.04789L16.4462 7.0473L13.5498 4.15231C13.3101 3.91268 13.2883 3.53768 13.4844 3.27343L13.5498 3.19772C13.7894 2.95807 14.1644 2.93627 14.4286 3.13233L14.5043 3.19769L18.5499 7.24297L14.5043 3.19769ZM18.7504 16.1842L18.7565 16.2758C18.7565 16.6175 18.5026 16.8999 18.1731 16.9446L18.0815 16.9508L7.55512 16.95L10.4542 19.8475C10.6939 20.087 10.7158 20.462 10.5199 20.7264L10.4546 20.8021C10.215 21.0418 9.84004 21.0638 9.5757 20.8678L9.49997 20.8025L5.44997 16.7559C5.21023 16.5163 5.18829 16.1414 5.38425 15.877L5.44957 15.8013L9.49957 11.7479C9.76306 11.4842 10.1905 11.484 10.4542 11.7475C10.6939 11.987 10.7158 12.362 10.5199 12.6264L10.4546 12.7021L7.55872 15.6L18.0815 15.6008C18.4232 15.6008 18.7057 15.8547 18.7504 16.1842L18.7565 16.2758L18.7504 16.1842Z" fill="#262627"/>
</svg>
