<svg width="14" height="18" viewBox="0 0 14 18" fill="none" xmlns="http://www.w3.org/2000/svg">
<path d="M9.50435 0.197687L13.5499 4.24297C13.7894 4.48242 13.8113 4.85708 13.6157 5.12134L13.5504 5.19706L9.50488 9.25143C9.24157 9.51532 8.81418 9.51578 8.55029 9.25247C8.31039 9.01309 8.28819 8.63812 8.48398 8.37365L8.54925 8.29787L11.4444 5.3973L0.918164 5.39789C0.576438 5.39789 0.294022 5.14396 0.249326 4.81449L0.243164 4.72289C0.243164 4.38117 0.497103 4.09875 0.826571 4.05406L0.918164 4.04789L11.4462 4.0473L8.54979 1.15231C8.31014 0.912681 8.28834 0.537684 8.4844 0.273427L8.54976 0.197718C8.78939 -0.0419292 9.16438 -0.0637269 9.42864 0.132334L9.50435 0.197687L13.5499 4.24297L9.50435 0.197687ZM13.7504 13.1842L13.7565 13.2758C13.7565 13.6175 13.5026 13.8999 13.1731 13.9446L13.0815 13.9508L2.55512 13.95L5.45416 16.8475C5.6939 17.087 5.71585 17.462 5.51989 17.7264L5.45456 17.8021C5.21502 18.0418 4.84004 18.0638 4.5757 17.8678L4.49997 17.8025L0.44997 13.7559C0.21023 13.5163 0.188287 13.1414 0.384246 12.877L0.449571 12.8013L4.49957 8.7479C4.76306 8.48419 5.19045 8.48401 5.45416 8.7475C5.6939 8.98704 5.71585 9.36203 5.51989 9.62636L5.45456 9.7021L2.55872 12.6L13.0815 12.6008C13.4232 12.6008 13.7057 12.8547 13.7504 13.1842L13.7565 13.2758L13.7504 13.1842Z" fill="#262627"/>
</svg>
