<svg width="24" height="24" viewBox="0 0 24 24" fill="none" xmlns="http://www.w3.org/2000/svg">
<path d="M11.5565 2.20933L4.35329 9.12258C4.25979 9.18069 4.18023 9.25893 4.12032 9.35168C4.06041 9.44443 4.02165 9.54939 4.00681 9.65901C3.99198 9.76864 4.00144 9.88022 4.03451 9.98572C4.06759 10.0912 4.12346 10.1881 4.19812 10.2692C4.27277 10.3504 4.36436 10.4139 4.46629 10.4553C4.56823 10.4966 4.67798 10.5146 4.78768 10.5082C4.89737 10.5017 5.00428 10.4708 5.10072 10.4178C5.19717 10.3648 5.28075 10.2909 5.34548 10.2015L11.2986 4.4971V21.2507C11.2986 21.4495 11.377 21.64 11.5165 21.7805C11.6561 21.9211 11.8453 22 12.0427 22C12.2401 22 12.4293 21.9211 12.5689 21.7805C12.7084 21.64 12.7868 21.4495 12.7868 21.2507L12.7868 4.50709L18.7399 10.2015C18.8451 10.3034 18.9776 10.3719 19.1212 10.3985C19.2647 10.4251 19.4128 10.4086 19.547 10.3511C19.6813 10.2936 19.7959 10.1977 19.8764 10.0751C19.9569 9.95263 19.9999 9.80897 20 9.66205C19.9994 9.56139 19.9789 9.46185 19.9397 9.36924C19.9005 9.27662 19.8435 9.19278 19.7718 9.12258L12.5884 2.20933C12.4498 2.07502 12.2649 2 12.0725 2C11.8801 2 11.6952 2.07502 11.5565 2.20933Z" fill="#262627"/>
</svg>
