<svg width="24" height="24" viewBox="0 0 24 24" fill="none" xmlns="http://www.w3.org/2000/svg">
<path d="M12.8611 2.7495V19.5395L18.846 13.8095C18.9953 13.7182 19.1719 13.6811 19.3457 13.7046C19.5196 13.7281 19.6798 13.8106 19.799 13.9382C19.9181 14.0657 19.9889 14.2303 19.9992 14.4038C20.0095 14.5774 19.9586 14.749 19.8552 14.8895L12.5583 21.8095C12.4195 21.9325 12.2399 22.0005 12.0537 22.0005C11.8675 22.0005 11.6878 21.9325 11.5491 21.8095L4.22186 14.8895C4.08011 14.7489 4.00049 14.5583 4.00049 14.3595C4.00049 14.1608 4.08011 13.9701 4.22186 13.8295C4.36379 13.6891 4.55617 13.6102 4.75676 13.6102C4.95735 13.6102 5.14974 13.6891 5.29167 13.8295L11.3472 19.5395V2.7495C11.3472 2.55059 11.427 2.35983 11.5689 2.21918C11.7109 2.07852 11.9034 1.9995 12.1041 1.9995C12.3049 1.9995 12.4974 2.07852 12.6394 2.21918C12.7813 2.35983 12.8611 2.55059 12.8611 2.7495Z" fill="#262627"/>
</svg>
