<svg width="24" height="24" viewBox="0 0 24 24" fill="none" xmlns="http://www.w3.org/2000/svg">
<path d="M21.251 11.1394L4.46098 11.1394L10.191 5.15451C10.2823 5.00522 10.3194 4.82857 10.2959 4.65474C10.2724 4.48092 10.1899 4.32072 10.0623 4.20153C9.93477 4.08234 9.77017 4.01156 9.59664 4.0013C9.42312 3.99103 9.25145 4.04192 9.11098 4.14525L2.19098 11.4422C2.06799 11.581 2 11.7606 2 11.9468C2 12.133 2.06799 12.3127 2.19098 12.4514L9.11098 19.7786C9.25161 19.9204 9.44223 20 9.64098 20C9.83973 20 10.0304 19.9204 10.171 19.7786C10.3114 19.6367 10.3903 19.4443 10.3903 19.2437C10.3903 19.0431 10.3114 18.8507 10.171 18.7088L4.46098 12.6533L21.251 12.6533C21.4499 12.6533 21.6407 12.5735 21.7813 12.4316C21.922 12.2896 22.001 12.0971 22.001 11.8963C22.001 11.6956 21.922 11.5031 21.7813 11.3611C21.6407 11.2191 21.4499 11.1394 21.251 11.1394Z" fill="#262627"/>
</svg>
