<svg width="24" height="24" viewBox="0 0 24 24" fill="none" xmlns="http://www.w3.org/2000/svg">
<path d="M21.7803 14.9654L17.2856 19.7554C17.0195 20.0389 16.6032 20.0649 16.3096 19.8332L16.2255 19.756L11.7206 14.966C11.4274 14.6542 11.4269 14.1482 11.7195 13.8358C11.9855 13.5517 12.4021 13.5254 12.6959 13.7572L12.7801 13.8345L16.003 17.2624L16.0023 4.79921C16.0023 4.3946 16.2845 4.06022 16.6506 4.0073L16.7523 4C17.132 4 17.4458 4.30067 17.4955 4.69076L17.5023 4.79921L17.503 17.2646L20.7197 13.8352C20.9859 13.5514 21.4026 13.5256 21.6962 13.7577L21.7803 13.8351C22.0466 14.1188 22.0708 14.5628 21.853 14.8757L21.7803 14.9654ZM7.35091 19.9927L7.24914 20C6.86944 20 6.55565 19.6993 6.50598 19.3092L6.49914 19.2008L6.5 6.73739L3.28055 10.1699C3.01439 10.4538 2.59774 10.4797 2.30404 10.2477L2.21989 10.1704C1.95351 9.88675 1.92913 9.44276 2.14686 9.12979L2.21945 9.04012L6.71568 4.24486C6.98184 3.96101 7.39849 3.93502 7.6922 4.16704L7.77635 4.24439L12.2801 9.03964C12.5731 9.35162 12.5733 9.85766 12.2806 10.1699C12.0144 10.4538 11.5977 10.4797 11.304 10.2477L11.2199 10.1704L8 6.74165L7.99914 19.2008C7.99914 19.6054 7.71698 19.9398 7.35091 19.9927Z" fill="#262627"/>
</svg>
