<svg width="24" height="24" viewBox="0 0 24 24" fill="none" xmlns="http://www.w3.org/2000/svg">
<path d="M21.7907 11.5565L14.8774 4.35329C14.8193 4.25979 14.7411 4.18023 14.6483 4.12032C14.5556 4.06041 14.4506 4.02165 14.341 4.00681C14.2314 3.99198 14.1198 4.00144 14.0143 4.03451C13.9088 4.06759 13.8119 4.12346 13.7308 4.19812C13.6496 4.27277 13.5861 4.36436 13.5447 4.46629C13.5034 4.56823 13.4854 4.67798 13.4918 4.78768C13.4983 4.89737 13.5292 5.00428 13.5822 5.10072C13.6352 5.19717 13.7091 5.28075 13.7985 5.34548L19.5029 11.2986H2.74927C2.55055 11.2986 2.35997 11.377 2.21946 11.5165C2.07894 11.6561 2 11.8453 2 12.0427C2 12.2401 2.07894 12.4293 2.21946 12.5689C2.35997 12.7084 2.55055 12.7868 2.74927 12.7868H19.4929L13.7985 18.7399C13.6966 18.8451 13.6281 18.9776 13.6015 19.1212C13.5749 19.2647 13.5914 19.4128 13.6489 19.547C13.7064 19.6813 13.8023 19.7959 13.9249 19.8764C14.0474 19.9569 14.191 19.9999 14.3379 20C14.4386 19.9994 14.5381 19.9789 14.6308 19.9397C14.7234 19.9005 14.8072 19.8435 14.8774 19.7718L21.7907 12.5884C21.925 12.4498 22 12.2649 22 12.0725C22 11.8801 21.925 11.6952 21.7907 11.5565Z" fill="#262627"/>
</svg>
