<svg width="18" height="18" viewBox="0 0 18 18" fill="none" xmlns="http://www.w3.org/2000/svg">
<path d="M4.59551 12.3497C4.8884 12.0568 5.36327 12.0568 5.65617 12.3497C5.94906 12.6426 5.94906 13.1174 5.65617 13.4103L2.561 16.5042H4.75C5.1297 16.5042 5.44349 16.7864 5.49315 17.1524L5.5 17.2542C5.5 17.6684 5.16421 18.0042 4.75 18.0042H0.75C0.335786 18.0042 0 17.6684 0 17.2542V13.2542C0 12.84 0.335786 12.5042 0.75 12.5042C1.16421 12.5042 1.5 12.84 1.5 13.2542V15.4432L4.59551 12.3497ZM13.255 18.0042C12.8408 18.0042 12.505 17.6684 12.505 17.2542C12.505 16.84 12.8408 16.5042 13.255 16.5042H15.441L12.3495 13.4101C12.0833 13.1438 12.0593 12.7271 12.2772 12.4336L12.3499 12.3495C12.6429 12.0567 13.1178 12.0569 13.4105 12.3499L16.505 15.4462V13.2542C16.505 12.8745 16.7872 12.5607 17.1532 12.5111L17.255 12.5042C17.6692 12.5042 18.005 12.84 18.005 13.2542V17.2542C18.005 17.6684 17.6692 18.0042 17.255 18.0042H13.255ZM4.75 0C5.16421 0 5.5 0.335786 5.5 0.75C5.5 1.16421 5.16421 1.5 4.75 1.5H2.563L5.65554 4.59488C5.9217 4.86125 5.94574 5.27792 5.72777 5.57145L5.65512 5.65554C5.36211 5.94832 4.88724 5.94813 4.59446 5.65512L1.5 2.558V4.75C1.5 5.1297 1.21785 5.44349 0.851771 5.49315L0.75 5.5C0.335786 5.5 0 5.16421 0 4.75V0.75C0 0.335786 0.335786 0 0.75 0H4.75ZM17.255 0C17.6692 0 18.005 0.335786 18.005 0.75V4.75C18.005 5.16421 17.6692 5.5 17.255 5.5C16.8408 5.5 16.505 5.16421 16.505 4.75V2.559L13.4104 5.65522C13.1442 5.92154 12.7276 5.94583 12.4339 5.72804L12.3498 5.65544C12.0568 5.3626 12.0567 4.88773 12.3496 4.59478L15.442 1.5H13.255C12.8753 1.5 12.5615 1.21785 12.5118 0.851771L12.505 0.75C12.505 0.335786 12.8408 0 13.255 0H17.255Z" fill="#262627"/>
</svg>
