<svg width="20" height="20" viewBox="0 0 20 20" fill="none" xmlns="http://www.w3.org/2000/svg">
<path d="M20 10V11.75C20 13.8211 18.3211 15.5 16.25 15.5C14.7458 15.5 13.4485 14.6144 12.851 13.3362C12.0329 14.3552 10.84 15 9.5 15C6.99237 15 5 12.742 5 10C5 7.25802 6.99237 5 9.5 5C10.659 5 11.7079 5.48236 12.501 6.27192L12.5 5.75C12.5 5.33579 12.8358 5 13.25 5C13.6297 5 13.9435 5.28215 13.9932 5.64823L14 5.75V11.75C14 12.9926 15.0074 14 16.25 14C17.4409 14 18.4156 13.0748 18.4948 11.904L18.5 11.75V10C18.5 5.30558 14.6944 1.5 10 1.5C5.30558 1.5 1.5 5.30558 1.5 10C1.5 14.6944 5.30558 18.5 10 18.5C11.033 18.5 12.0395 18.316 12.9852 17.9612C13.373 17.8158 13.8053 18.0122 13.9508 18.4C14.0963 18.7878 13.8998 19.2202 13.512 19.3657C12.3985 19.7834 11.2136 20 10 20C4.47715 20 0 15.5228 0 10C0 4.47715 4.47715 0 10 0C15.4292 0 19.8479 4.32667 19.9962 9.7201L20 10V11.75V10ZM9.5 6.5C7.86549 6.5 6.5 8.04756 6.5 10C6.5 11.9524 7.86549 13.5 9.5 13.5C11.1345 13.5 12.5 11.9524 12.5 10C12.5 8.04756 11.1345 6.5 9.5 6.5Z" fill="#262627"/>
</svg>
