<svg width="24" height="24" viewBox="0 0 24 24" fill="none" xmlns="http://www.w3.org/2000/svg">
<path d="M6.23682 3.00042C7.20331 3.00042 7.98682 3.78392 7.98682 4.75042V19.2504C7.98682 20.2169 7.20331 21.0004 6.23682 21.0004H3.73682C2.77032 21.0004 1.98682 20.2169 1.98682 19.2504V4.75042C1.98682 3.83224 2.69393 3.07923 3.59329 3.00622L3.73682 3.00042H6.23682ZM20.2629 3.00042C21.2294 3.00042 22.0129 3.78392 22.0129 4.75042V19.2504C22.0129 20.2169 21.2294 21.0004 20.2629 21.0004H17.7629C16.7964 21.0004 16.0129 20.2169 16.0129 19.2504V4.75042C16.0129 3.78392 16.7964 3.00042 17.7629 3.00042H20.2629ZM13.2368 2.99959C14.2033 2.99959 14.9868 3.78309 14.9868 4.74959V19.2496C14.9868 20.2161 14.2033 20.9996 13.2368 20.9996H10.7368C9.77032 20.9996 8.98682 20.2161 8.98682 19.2496V4.74959C8.98682 3.78309 9.77032 2.99959 10.7368 2.99959H13.2368ZM6.23682 4.50042H3.73682L3.67949 4.50702C3.56905 4.53293 3.48682 4.63207 3.48682 4.75042V19.2504C3.48682 19.3885 3.59875 19.5004 3.73682 19.5004H6.23682C6.37489 19.5004 6.48682 19.3885 6.48682 19.2504V4.75042C6.48682 4.61235 6.37489 4.50042 6.23682 4.50042ZM20.2629 4.50042H17.7629C17.6248 4.50042 17.5129 4.61235 17.5129 4.75042V19.2504C17.5129 19.3885 17.6248 19.5004 17.7629 19.5004H20.2629C20.4009 19.5004 20.5129 19.3885 20.5129 19.2504V4.75042C20.5129 4.61235 20.4009 4.50042 20.2629 4.50042ZM13.2368 4.49959H10.7368C10.5987 4.49959 10.4868 4.61152 10.4868 4.74959V19.2496C10.4868 19.3877 10.5987 19.4996 10.7368 19.4996H13.2368C13.3749 19.4996 13.4868 19.3877 13.4868 19.2496V4.74959C13.4868 4.61152 13.3749 4.49959 13.2368 4.49959Z" fill="#262627"/>
</svg>
