<svg width="22" height="18" viewBox="0 0 22 18" fill="none" xmlns="http://www.w3.org/2000/svg">
<path d="M5.23682 0.000417709C6.20331 0.000417709 6.98682 0.783919 6.98682 1.75042V16.2504C6.98682 17.2169 6.20331 18.0004 5.23682 18.0004H2.73682C1.77032 18.0004 0.986816 17.2169 0.986816 16.2504V1.75042C0.986816 0.832244 1.69393 0.0792254 2.59329 0.00621891L2.73682 0.000417709H5.23682ZM19.2629 0.000417709C20.2294 0.000417709 21.0129 0.783919 21.0129 1.75042V16.2504C21.0129 17.2169 20.2294 18.0004 19.2629 18.0004H16.7629C15.7964 18.0004 15.0129 17.2169 15.0129 16.2504V1.75042C15.0129 0.783919 15.7964 0.000417709 16.7629 0.000417709H19.2629ZM12.2368 -0.000411987C13.2033 -0.000411987 13.9868 0.78309 13.9868 1.74959V16.2496C13.9868 17.2161 13.2033 17.9996 12.2368 17.9996H9.73682C8.77032 17.9996 7.98682 17.2161 7.98682 16.2496V1.74959C7.98682 0.78309 8.77032 -0.000411987 9.73682 -0.000411987H12.2368ZM5.23682 1.50042H2.73682L2.67949 1.50702C2.56905 1.53293 2.48682 1.63207 2.48682 1.75042V16.2504C2.48682 16.3885 2.59875 16.5004 2.73682 16.5004H5.23682C5.37489 16.5004 5.48682 16.3885 5.48682 16.2504V1.75042C5.48682 1.61235 5.37489 1.50042 5.23682 1.50042ZM19.2629 1.50042H16.7629C16.6248 1.50042 16.5129 1.61235 16.5129 1.75042V16.2504C16.5129 16.3885 16.6248 16.5004 16.7629 16.5004H19.2629C19.4009 16.5004 19.5129 16.3885 19.5129 16.2504V1.75042C19.5129 1.61235 19.4009 1.50042 19.2629 1.50042ZM12.2368 1.49959H9.73682C9.59875 1.49959 9.48682 1.61152 9.48682 1.74959V16.2496C9.48682 16.3877 9.59875 16.4996 9.73682 16.4996H12.2368C12.3749 16.4996 12.4868 16.3877 12.4868 16.2496V1.74959C12.4868 1.61152 12.3749 1.49959 12.2368 1.49959Z" fill="#262627"/>
</svg>
