<svg width="24" height="24" viewBox="0 0 24 24" fill="none" xmlns="http://www.w3.org/2000/svg">
<path d="M9.36879 18.6934H14.628C14.4159 20.0026 13.3193 21 11.9984 21C10.6775 21 9.58092 20.0026 9.36879 18.6934ZM11.9984 3C15.6804 3 18.6652 6.09995 18.6652 9.92393V13.6153L19.926 16.5327C19.9748 16.6456 20 16.768 20 16.8918C20 17.3762 19.6219 17.7688 19.1555 17.7688H4.84467C4.72575 17.7688 4.60817 17.7427 4.49962 17.6923C4.07395 17.4944 3.88336 16.9755 4.07392 16.5335L5.33163 13.6157L5.33172 9.912L5.33565 9.68128C5.45927 5.96016 8.40357 3 11.9984 3Z" fill="#262627"/>
</svg>
