<svg width="16" height="18" viewBox="0 0 16 18" fill="none" xmlns="http://www.w3.org/2000/svg">
<path d="M5.36879 15.6934H10.628C10.4159 17.0026 9.31931 18 7.99841 18C6.67751 18 5.58092 17.0026 5.36879 15.6934ZM7.99841 0C11.6804 0 14.6652 3.09995 14.6652 6.92393V10.6153L15.926 13.5327C15.9748 13.6456 16 13.768 16 13.8918C16 14.3762 15.6219 14.7688 15.1555 14.7688H0.844669C0.725747 14.7688 0.608166 14.7427 0.499625 14.6923C0.073951 14.4944 -0.116644 13.9755 0.0739185 13.5335L1.33163 10.6157L1.33172 6.912L1.33565 6.68128C1.45927 2.96016 4.40357 0 7.99841 0Z" fill="#262627"/>
</svg>
