<svg width="24" height="24" viewBox="0 0 24 24" fill="none" xmlns="http://www.w3.org/2000/svg">
<path d="M16.761 11.521C19.6544 11.521 22 13.8666 22 16.76C22 19.6534 19.6544 21.999 16.761 21.999C13.8676 21.999 11.522 19.6534 11.522 16.76C11.522 13.8666 13.8676 11.521 16.761 11.521ZM11.5432 13.4254C11.2606 13.8667 11.0325 14.3463 10.8682 14.8546L4.14322 14.8548C3.74866 14.8548 3.42881 15.1747 3.42881 15.5692V16.4335C3.42881 17.058 3.70123 17.6515 4.17481 18.0587C5.37319 19.089 7.17922 19.6186 9.61696 19.6186C10.1874 19.6186 10.7233 19.5896 11.225 19.532C11.4621 20.0084 11.761 20.4501 12.1099 20.8469C11.3457 20.981 10.5142 21.0474 9.61696 21.0474C6.86459 21.0474 4.73203 20.422 3.24333 19.1421C2.45403 18.4635 2 17.4744 2 16.4335V15.5692C2 14.3856 2.95955 13.426 4.14322 13.426L11.5432 13.4254ZM19.9132 14.6189L14.62 19.9121C15.2302 20.3274 15.9673 20.5702 16.761 20.5702C18.8653 20.5702 20.5712 18.8643 20.5712 16.76C20.5712 15.9662 20.3285 15.2291 19.9132 14.6189ZM16.761 12.9498C14.6567 12.9498 12.9509 14.6557 12.9509 16.76C12.9509 17.5538 13.1936 18.2908 13.6089 18.901L18.9021 13.6078C18.2919 13.1926 17.5548 12.9498 16.761 12.9498ZM9.61696 2C12.2473 2 14.3797 4.13234 14.3797 6.76271C14.3797 9.39308 12.2473 11.5254 9.61696 11.5254C6.98659 11.5254 4.85425 9.39308 4.85425 6.76271C4.85425 4.13234 6.98659 2 9.61696 2ZM9.61696 3.42881C7.7757 3.42881 6.28306 4.92145 6.28306 6.76271C6.28306 8.60397 7.7757 10.0966 9.61696 10.0966C11.4582 10.0966 12.9509 8.60397 12.9509 6.76271C12.9509 4.92145 11.4582 3.42881 9.61696 3.42881Z" fill="#262627"/>
</svg>
