<svg width="20" height="20" viewBox="0 0 20 20" fill="none" xmlns="http://www.w3.org/2000/svg">
<path d="M10 0C15.5228 0 20 4.47715 20 10C20 15.5228 15.5228 20 10 20C4.47715 20 0 15.5228 0 10C0 4.47715 4.47715 0 10 0ZM16.5173 4.54309L4.54309 16.5173C6.01955 17.7549 7.92276 18.5 10 18.5C14.6944 18.5 18.5 14.6944 18.5 10C18.5 7.92276 17.7549 6.01955 16.5173 4.54309ZM10 1.5C5.30558 1.5 1.5 5.30558 1.5 10C1.5 12.0772 2.24513 13.9804 3.48268 15.4569L15.4569 3.48268C13.9804 2.24513 12.0772 1.5 10 1.5Z" fill="#262627"/>
</svg>
