<svg width="24" height="24" viewBox="0 0 24 24" fill="none" xmlns="http://www.w3.org/2000/svg">
<path d="M6.19045 21.8539C5.69432 22.2109 5.00244 21.8563 5.00244 21.2451V6.24918C5.00244 4.45426 6.45752 2.99918 8.25244 2.99918H15.7508C17.5458 2.99918 19.0008 4.45426 19.0008 6.24918V21.2451C19.0008 21.8563 18.309 22.2109 17.8128 21.8539L12.0016 17.673L6.19045 21.8539ZM17.5008 6.24918C17.5008 5.28269 16.7173 4.49918 15.7508 4.49918H8.25244C7.28594 4.49918 6.50244 5.28269 6.50244 6.24918V19.7816L11.5636 16.1402C11.8253 15.952 12.178 15.952 12.4397 16.1402L17.5008 19.7816V6.24918Z" fill="#262627"/>
</svg>
