<svg width="24" height="24" viewBox="0 0 24 24" fill="none" xmlns="http://www.w3.org/2000/svg">
<path d="M10.732 3.25323C11.5452 2.91555 12.4548 2.91555 13.268 3.25323L20.0167 6.05566C20.6111 6.30248 21 6.8938 21 7.55073V16.4492C21 17.1061 20.6111 17.6975 20.0167 17.9443L13.268 20.7467C12.4548 21.0844 11.5452 21.0844 10.732 20.7467L3.98326 17.9443C3.3889 17.6975 3 17.1061 3 16.4492V7.55073C3 6.8938 3.3889 6.30248 3.98326 6.05566L10.732 3.25323ZM12.7608 4.53472C12.2729 4.33211 11.7271 4.33211 11.2392 4.53472L9.51687 5.24992L16.291 7.9483L18.6933 6.99821L12.7608 4.53472ZM14.422 8.68748L7.69325 6.00719L5.33126 6.98801L12.0012 9.64488L14.422 8.68748ZM4.35 16.4492C4.35 16.5431 4.40556 16.6275 4.49047 16.6628L11.2392 19.4652C11.2677 19.4771 11.2964 19.4882 11.3253 19.4987V10.8593L4.35 8.08082V16.4492ZM12.7608 19.4652L19.5095 16.6628C19.5944 16.6275 19.65 16.5431 19.65 16.4492V8.10214L12.6753 10.8606V19.4984C12.704 19.488 12.7325 19.477 12.7608 19.4652Z" fill="#262627"/>
</svg>
