<svg width="24" height="24" viewBox="0 0 24 24" fill="none" xmlns="http://www.w3.org/2000/svg">
<path d="M13.268 3.25421C12.4548 2.91521 11.5452 2.91521 10.732 3.25421L8.76052 4.07606L17.3935 7.52827L20.4304 6.32173C20.3081 6.2174 20.1692 6.1311 20.0167 6.06755L13.268 3.25421ZM21 7.58363L12.6748 10.8911V21C12.8763 20.9577 13.0749 20.8963 13.268 20.8158L20.0167 18.0024C20.6111 17.7547 21 17.161 21 16.5015V7.58363ZM11.3248 20.9999V10.8911L3 7.58378V16.5015C3 17.161 3.3889 17.7547 3.98326 18.0024L10.732 20.8158C10.925 20.8962 11.1235 20.9576 11.3248 20.9999ZM3.56945 6.32183L11.9998 9.67112L15.5251 8.27057L6.9369 4.83627L3.98326 6.06755C3.83077 6.13112 3.6918 6.21746 3.56945 6.32183Z" fill="#262627"/>
</svg>
