<svg width="14" height="20" viewBox="0 0 14 20" fill="none" xmlns="http://www.w3.org/2000/svg">
<path d="M0.75 0C0.335786 0 0 0.335786 0 0.75V12.2505C0 13.4932 1.00736 14.5005 2.25 14.5005H4.49976V17.5C4.49976 18.8807 5.61904 20 6.99976 20C8.38047 20 9.49976 18.8807 9.49976 17.5V14.5005H11.75C12.9926 14.5005 14 13.4932 14 12.2505V0.75C14 0.335786 13.6642 0 13.25 0H0.75ZM1.5 9.0003V1.5H7.49976V3.25154C7.49976 3.66576 7.83554 4.00154 8.24976 4.00154C8.66397 4.00154 8.99976 3.66576 8.99976 3.25154V1.5H9.99976V4.25112C9.99976 4.66534 10.3355 5.00112 10.7498 5.00112C11.164 5.00112 11.4998 4.66534 11.4998 4.25112V1.5H12.5V9.0003H1.5ZM1.5 12.2505V10.5003H12.5V12.2505C12.5 12.6647 12.1642 13.0005 11.75 13.0005H8.74976C8.33554 13.0005 7.99976 13.3363 7.99976 13.7505V17.5C7.99976 18.0523 7.55204 18.5 6.99976 18.5C6.44747 18.5 5.99976 18.0523 5.99976 17.5V13.7505C5.99976 13.3363 5.66397 13.0005 5.24976 13.0005H2.25C1.83579 13.0005 1.5 12.6647 1.5 12.2505Z" fill="#262627"/>
</svg>
