<svg width="20" height="20" viewBox="0 0 20 20" fill="none" xmlns="http://www.w3.org/2000/svg">
<path d="M14.5 9C17.5376 9 20 11.4624 20 14.5C20 17.5376 17.5376 20 14.5 20C11.4624 20 9 17.5376 9 14.5C9 11.4624 11.4624 9 14.5 9ZM12.0238 12.0241C11.8285 12.2194 11.8285 12.536 12.0238 12.7312L13.793 14.501L12.0264 16.2675C11.8311 16.4628 11.8311 16.7793 12.0264 16.9746C12.2217 17.1699 12.5382 17.1699 12.7335 16.9746L14.5 15.208L16.2694 16.9768C16.4647 17.1721 16.7812 17.1721 16.9765 16.9768C17.1718 16.7816 17.1718 16.465 16.9765 16.2697L15.208 14.501L16.9793 12.7313C17.1745 12.536 17.1745 12.2194 16.9793 12.0242C16.784 11.8289 16.4674 11.8289 16.2722 12.0242L14.501 13.794L12.7309 12.0241C12.5356 11.8289 12.2191 11.8289 12.0238 12.0241ZM18 5.5L18.0012 9.02259C16.9907 8.3753 15.7892 8 14.5 8C10.9101 8 8 10.9101 8 14.5C8 15.7892 8.3753 16.9907 9.02259 18.0012L3.25 18C1.45507 18 0 16.5449 0 14.75V5.5H18ZM14.75 0C16.5449 0 18 1.45507 18 3.25V4H0V3.25C0 1.45507 1.45507 0 3.25 0H14.75Z" fill="#262627"/>
</svg>
