<svg width="24" height="24" viewBox="0 0 24 24" fill="none" xmlns="http://www.w3.org/2000/svg">
<path fill-rule="evenodd" clip-rule="evenodd" d="M8.08389 14.005L15.9163 14.005C15.9329 14.005 15.9495 14 15.9632 13.9908C15.9769 13.9816 15.9876 13.9685 15.9938 13.9532C16.0001 13.9379 16.0016 13.9211 15.9983 13.9049C15.9949 13.8887 15.9868 13.8739 15.975 13.8624L12.0537 10.024C12.0537 10.024 12.0536 10.0239 12.0537 10.024C12.038 10.0087 12.0168 9.99999 11.9949 10C11.9729 10 11.9519 10.0086 11.9362 10.0239L8.02517 13.8614C8.0133 13.873 8.00509 13.888 8.00173 13.9043C7.99837 13.9206 7.99993 13.9375 8.00622 13.9529C8.01252 13.9683 8.02325 13.9815 8.03705 13.9907C8.05086 14 8.06727 14.005 8.08389 14.005ZM11.2359 9.31011C11.4383 9.11154 11.7105 9.00021 11.9941 9.00001C12.2777 8.9998 12.5501 9.11074 12.7529 9.30903L16.6744 13.1476C16.8282 13.2982 16.9338 13.4911 16.9775 13.7019C17.0211 13.9127 17.001 14.1318 16.9197 14.3311C16.8383 14.5304 16.6995 14.701 16.5207 14.821C16.342 14.941 16.1316 15.0051 15.9163 15.005L8.08389 15.005C7.86865 15.005 7.65828 14.9409 7.47958 14.8209C7.30089 14.7009 7.16198 14.5305 7.08055 14.3312C6.99912 14.132 6.97886 13.913 7.02236 13.7022C7.06587 13.4914 7.17115 13.2983 7.32481 13.1476L11.2359 9.31011Z" fill="#262627"/>
</svg>
