<svg width="24" height="24" viewBox="0 0 24 24" fill="none" xmlns="http://www.w3.org/2000/svg">
<path fill-rule="evenodd" clip-rule="evenodd" d="M15.9161 10H8.08368C8.06715 9.99999 8.05051 10.0049 8.03679 10.0141C8.02307 10.0233 8.01241 10.0364 8.00617 10.0517C7.99992 10.067 7.99838 10.0839 8.00173 10.1C8.00509 10.1162 8.01319 10.131 8.025 10.1426L11.9463 13.981C11.9463 13.981 11.9464 13.9811 11.9463 13.981C11.962 13.9963 11.9832 14.005 12.0051 14.005C12.0271 14.0049 12.0481 13.9964 12.0638 13.9811L15.9748 10.1436C15.9867 10.1319 15.9949 10.1169 15.9983 10.1007C16.0016 10.0844 16.0001 10.0675 15.9938 10.0521C15.9875 10.0367 15.9768 10.0235 15.9629 10.0142C15.9491 10.0049 15.9327 10 15.9161 10ZM12.7641 14.6948C12.5617 14.8934 12.2895 15.0048 12.0059 15.005C11.7223 15.0052 11.4499 14.8942 11.2471 14.6959L7.32564 10.8574C7.17177 10.7068 7.06625 10.5138 7.02255 10.303C6.97885 10.0922 6.99896 9.87318 7.08031 9.67387C7.16165 9.47455 7.30055 9.30399 7.47926 9.18397C7.65797 9.06395 7.8684 8.9999 8.08368 9H15.9161C16.1313 8.99997 16.3417 9.06403 16.5204 9.18402C16.6991 9.30401 16.838 9.47449 16.9195 9.67374C17.0009 9.87298 17.0211 10.092 16.9776 10.3028C16.9341 10.5136 16.8288 10.7066 16.6752 10.8574L12.7641 14.6948Z" fill="#262627"/>
</svg>
