<svg width="24" height="24" viewBox="0 0 24 24" fill="none" xmlns="http://www.w3.org/2000/svg">
<path d="M15.9161 9H8.08368C7.8684 8.9999 7.65797 9.06395 7.47926 9.18397C7.30055 9.30399 7.16165 9.47455 7.08031 9.67387C6.99896 9.87318 6.97885 10.0922 7.02255 10.303C7.06625 10.5138 7.17177 10.7068 7.32564 10.8574L11.2471 14.6959C11.4499 14.8942 11.7223 15.0052 12.0059 15.005C12.2895 15.0048 12.5617 14.8934 12.7641 14.6948L16.6752 10.8574C16.8288 10.7066 16.9341 10.5136 16.9776 10.3028C17.0211 10.092 17.0009 9.87298 16.9195 9.67374C16.838 9.47449 16.6991 9.30401 16.5204 9.18402C16.3417 9.06403 16.1313 8.99997 15.9161 9Z" fill="#262627"/>
</svg>
