<svg width="24" height="24" viewBox="0 0 24 24" fill="none" xmlns="http://www.w3.org/2000/svg">
<path fill-rule="evenodd" clip-rule="evenodd" d="M9.99756 8.08637V15.9188C9.99755 15.9353 10.0025 15.952 10.0117 15.9657C10.0209 15.9794 10.034 15.9901 10.0493 15.9963C10.0646 16.0026 10.0814 16.0041 10.0976 16.0007C10.1138 15.9974 10.1286 15.9893 10.1402 15.9775L13.9786 12.0561C13.9785 12.0562 13.9786 12.0561 13.9786 12.0561C13.9938 12.0404 14.0025 12.0192 14.0025 11.9973C14.0025 11.9754 13.9939 11.9544 13.9786 11.9387L10.1411 8.02764C10.1295 8.01577 10.1145 8.00756 10.0982 8.0042C10.0819 8.00084 10.065 8.0024 10.0496 8.0087C10.0342 8.01499 10.021 8.02572 10.0118 8.03953C10.0025 8.05333 9.99756 8.06974 9.99756 8.08637ZM14.6924 11.2383C14.891 11.4408 15.0023 11.713 15.0025 11.9966C15.0027 12.2802 14.8918 12.5526 14.6935 12.7553L10.8549 16.6768C10.7044 16.8307 10.5114 16.9362 10.3006 16.9799C10.0898 17.0236 9.87074 17.0035 9.67143 16.9222C9.47211 16.8408 9.30155 16.7019 9.18153 16.5232C9.0615 16.3445 8.99746 16.1341 8.99756 15.9188V8.08637C8.99753 7.87113 9.06159 7.66075 9.18158 7.48206C9.30157 7.30336 9.47205 7.16445 9.6713 7.08302C9.87054 7.00159 10.0895 6.98133 10.3003 7.02484C10.5111 7.06834 10.7042 7.17363 10.8549 7.32728L14.6924 11.2383Z" fill="#262627"/>
</svg>
