<svg width="24" height="24" viewBox="0 0 24 24" fill="none" xmlns="http://www.w3.org/2000/svg">
<path d="M16.6743 13.1432L12.7526 9.30914C12.55 9.1108 12.2776 8.9998 11.9939 9C11.7102 9.0002 11.438 9.11159 11.2356 9.31023L7.32468 13.1443C7.17108 13.2949 7.06583 13.4878 7.02235 13.6984C6.97887 13.909 6.99912 14.1277 7.08053 14.3267C7.16194 14.5258 7.30081 14.6961 7.47946 14.816C7.6581 14.9359 7.86843 15 8.08365 15H15.9163C16.1316 15 16.3421 14.9359 16.5208 14.8158C16.6995 14.6958 16.8384 14.5253 16.9197 14.3261C17.0011 14.1269 17.0211 13.908 16.9774 13.6973C16.9337 13.4866 16.8282 13.2937 16.6743 13.1432Z" fill="#262627"/>
</svg>
