<svg width="24" height="24" viewBox="0 0 24 24" fill="none" xmlns="http://www.w3.org/2000/svg">
<path fill-rule="evenodd" clip-rule="evenodd" d="M14.0024 15.9186V8.08615C14.0024 8.06962 13.9975 8.05299 13.9883 8.03927C13.9791 8.02555 13.966 8.01488 13.9507 8.00864C13.9354 8.00239 13.9186 8.00085 13.9024 8.0042C13.8862 8.00756 13.8714 8.01566 13.8598 8.02747L10.0214 11.9488C10.0215 11.9488 10.0214 11.9489 10.0214 11.9488C10.0062 11.9645 9.99747 11.9857 9.99749 12.0076C9.9975 12.0295 10.0061 12.0506 10.0214 12.0662L13.8589 15.9773C13.8705 15.9892 13.8855 15.9974 13.9018 16.0007C13.9181 16.0041 13.935 16.0025 13.9504 15.9962C13.9658 15.99 13.979 15.9792 13.9882 15.9654C13.9975 15.9516 14.0024 15.9352 14.0024 15.9186ZM9.30759 12.7666C9.10902 12.5641 8.99769 12.2919 8.99749 12.0083C8.99729 11.7247 9.10822 11.4524 9.30651 11.2496L13.1451 7.32811C13.2956 7.17424 13.4886 7.06872 13.6994 7.02502C13.9102 6.98132 14.1293 7.00143 14.3286 7.08278C14.5279 7.16412 14.6984 7.30302 14.8185 7.48173C14.9385 7.66045 15.0025 7.87087 15.0024 8.08615V15.9186C15.0025 16.1338 14.9384 16.3442 14.8184 16.5229C14.6984 16.7016 14.5279 16.8405 14.3287 16.9219C14.1295 17.0034 13.9105 17.0236 13.6997 16.9801C13.4889 16.9366 13.2958 16.8313 13.1451 16.6777L9.30759 12.7666Z" fill="#262627"/>
</svg>
