<svg width="24" height="24" viewBox="0 0 24 24" fill="none" xmlns="http://www.w3.org/2000/svg">
<path d="M10.8568 16.6743L14.6909 12.7526C14.8892 12.55 15.0002 12.2776 15 11.9939C14.9998 11.7102 14.8884 11.438 14.6898 11.2356L10.8557 7.32468C10.7051 7.17108 10.5122 7.06583 10.3016 7.02235C10.091 6.97887 9.8723 6.99912 9.67325 7.08053C9.47421 7.16194 9.30389 7.30081 9.18398 7.47946C9.06408 7.6581 9.00003 7.86843 9 8.08365V15.9163C9.00003 16.1316 9.06414 16.3421 9.18417 16.5208C9.3042 16.6995 9.4747 16.8384 9.67391 16.9197C9.87313 17.0011 10.092 17.0211 10.3027 16.9774C10.5134 16.9337 10.7063 16.8282 10.8568 16.6743Z" fill="#262627"/>
</svg>
