<svg width="24" height="24" viewBox="0 0 24 24" fill="none" xmlns="http://www.w3.org/2000/svg">
<path d="M13.1432 7.32572L9.30914 11.2474C9.1108 11.45 8.9998 11.7224 9 12.0061C9.0002 12.2898 9.11159 12.562 9.31023 12.7644L13.1443 16.6753C13.2949 16.8289 13.4878 16.9342 13.6984 16.9776C13.909 17.0211 14.1277 17.0009 14.3267 16.9195C14.5258 16.8381 14.6961 16.6992 14.816 16.5205C14.9359 16.3419 15 16.1316 15 15.9164V8.08373C15 7.86838 14.9359 7.65793 14.8158 7.4792C14.6958 7.30048 14.5253 7.1616 14.3261 7.08027C14.1269 6.99894 13.908 6.97885 13.6973 7.02257C13.4866 7.06628 13.2937 7.17182 13.1432 7.32572Z" fill="#262627"/>
</svg>
