<svg width="24" height="24" viewBox="0 0 24 24" fill="none" xmlns="http://www.w3.org/2000/svg">
<path d="M12 2.00024C10.0222 2.00024 8.08879 2.58673 6.4443 3.68555C4.79981 4.78436 3.51809 6.34615 2.76121 8.17341C2.00433 10.0007 1.8063 12.0113 2.19215 13.9511C2.578 15.891 3.53041 17.6728 4.92894 19.0713C6.32746 20.4698 8.10929 21.4222 10.0491 21.8081C11.9889 22.194 13.9996 21.9959 15.8268 21.239C17.6541 20.4822 19.2159 19.2004 20.3147 17.5559C21.4135 15.9115 22 13.9781 22 12.0002C22.0001 10.687 21.7414 9.38663 21.2389 8.17335C20.7364 6.96007 19.9998 5.85766 19.0712 4.92907C18.1426 4.00047 17.0402 3.26388 15.8269 2.76135C14.6136 2.25882 13.3132 2.0002 12 2.00024ZM16.139 10.1916L10.9582 16.2746C10.8897 16.3549 10.8048 16.4195 10.7093 16.4641C10.6137 16.5087 10.5097 16.5324 10.4042 16.5334H10.3986C10.2942 16.5336 10.191 16.5113 10.096 16.4682C10.0009 16.4251 9.91623 16.3621 9.84759 16.2834L7.29733 13.3869C7.2336 13.3146 7.18474 13.2304 7.15354 13.1391C7.12235 13.0479 7.10943 12.9514 7.11553 12.8551C7.12785 12.6608 7.21687 12.4793 7.36301 12.3505C7.50915 12.2218 7.70044 12.1564 7.8948 12.1687C8.08916 12.1811 8.27067 12.2701 8.39939 12.4162L10.3891 14.676L15.0198 9.23947C15.146 9.09105 15.3261 8.99886 15.5203 8.98319C15.7145 8.96752 15.907 9.02965 16.0555 9.15591C16.2039 9.28218 16.2961 9.46223 16.3117 9.65646C16.3274 9.85069 16.2653 10.0432 16.139 10.1916Z" fill="#18714C"/>
</svg>
