<svg width="24" height="24" viewBox="0 0 24 24" fill="none" xmlns="http://www.w3.org/2000/svg">
<path d="M9.19046 19.25C9.08376 19.2501 8.97826 19.2274 8.88099 19.1834C8.78372 19.1393 8.69693 19.075 8.62639 18.9946L3.18539 12.8073C3.05461 12.657 2.98853 12.4608 3.00163 12.2617C3.01474 12.0626 3.10595 11.8768 3.25527 11.7451C3.4046 11.6134 3.59986 11.5465 3.79824 11.5591C3.99662 11.5717 4.18193 11.6627 4.31356 11.8123L9.18068 17.3472L19.672 5.01618C19.801 4.86365 19.9851 4.76881 20.1837 4.75251C20.3823 4.73621 20.5793 4.7998 20.7312 4.92928C20.8832 5.05876 20.9777 5.24352 20.9939 5.44293C21.0101 5.64234 20.9468 5.84006 20.8178 5.99258L9.76336 18.9853C9.69314 19.0675 9.60621 19.1336 9.50841 19.1793C9.41061 19.2249 9.30422 19.249 9.19637 19.25H9.19046Z" fill="#262627"/>
</svg>
