<svg width="24" height="24" viewBox="0 0 24 24" fill="none" xmlns="http://www.w3.org/2000/svg">
<path d="M11.9908 16.25C11.7973 16.2503 11.6113 16.1749 11.4726 16.04L4.23004 9.04426C4.08682 8.9059 4.00417 8.71648 4.00015 8.51738C3.99614 8.31828 4.07108 8.12568 4.20861 7.98166C4.27638 7.91028 4.35764 7.85306 4.44768 7.81332C4.53773 7.77358 4.63477 7.75212 4.73317 7.75016C4.83158 7.74821 4.92939 7.76581 5.02094 7.80194C5.11249 7.83808 5.19596 7.89203 5.2665 7.96066L11.9918 14.4562L18.7336 7.95963C18.8044 7.89131 18.888 7.83766 18.9796 7.80179C19.0712 7.76592 19.1689 7.74853 19.2673 7.75062C19.3656 7.75272 19.4626 7.77425 19.5525 7.81399C19.6425 7.85373 19.7237 7.91088 19.7915 7.98215C19.9291 8.12629 20.0041 8.31908 19.9999 8.51832C19.9957 8.71757 19.9127 8.90703 19.7691 9.04524L12.509 16.041C12.3699 16.1751 12.1841 16.2501 11.9908 16.25Z" fill="#262627"/>
</svg>
