<svg width="14" height="20" viewBox="0 0 14 20" fill="none" xmlns="http://www.w3.org/2000/svg">
<path d="M7.54062 0.230168C7.39922 0.0831094 7.20401 0 7 0C6.79599 0 6.60078 0.0831094 6.45938 0.230168L0.209376 6.73017C-0.0777189 7.02875 -0.0684095 7.50353 0.230169 7.79062C0.528748 8.07772 1.00353 8.06841 1.29063 7.76983L7 1.83208L12.7094 7.76983C12.9965 8.06841 13.4713 8.07772 13.7698 7.79062C14.0684 7.50353 14.0777 7.02875 13.7906 6.73017L7.54062 0.230168ZM7.54062 19.7698C7.39922 19.9169 7.20401 20 7 20C6.79599 20 6.60078 19.9169 6.45938 19.7698L0.209376 13.2698C-0.0777189 12.9713 -0.0684095 12.4965 0.230169 12.2094C0.528748 11.9223 1.00353 11.9316 1.29063 12.2302L7 18.1679L12.7094 12.2302C12.9965 11.9316 13.4713 11.9223 13.7698 12.2094C14.0684 12.4965 14.0777 12.9713 13.7906 13.2698L7.54062 19.7698Z" fill="#262627"/>
</svg>
