<svg width="24" height="24" viewBox="0 0 24 24" fill="none" xmlns="http://www.w3.org/2000/svg">
<path d="M15.499 20C15.3977 20.0003 15.2974 19.9801 15.2042 19.9405C15.111 19.9009 15.0268 19.8428 14.9566 19.7697L7.96036 12.5084C7.82612 12.3694 7.7511 12.1837 7.7511 11.9904C7.7511 11.7972 7.82612 11.6115 7.96036 11.4725L14.9566 4.23018C15.0951 4.0868 15.2847 4.00408 15.4839 4.00015C15.6832 3.99621 15.8759 4.07137 16.0199 4.20918C16.0911 4.27698 16.1482 4.35821 16.1878 4.44818C16.2275 4.53815 16.2489 4.63508 16.2509 4.73338C16.2529 4.83168 16.2355 4.92941 16.1995 5.02092C16.1635 5.11243 16.1098 5.19591 16.0414 5.26655L9.54542 11.9911L16.0414 18.7342C16.143 18.8402 16.2112 18.9737 16.2374 19.1181C16.2636 19.2626 16.2468 19.4116 16.189 19.5465C16.1311 19.6814 16.0349 19.7964 15.9122 19.877C15.7895 19.9577 15.6458 20.0005 15.499 20Z" fill="#262627"/>
</svg>
