<svg width="24" height="24" viewBox="0 0 24 24" fill="none" xmlns="http://www.w3.org/2000/svg">
<path d="M11.4092 5.36569C11.0968 5.05327 11.0968 4.54673 11.4092 4.23431C11.7216 3.9219 12.2282 3.9219 12.5406 4.23431L19.7406 11.4343C20.053 11.7467 20.053 12.2533 19.7406 12.5657L12.5406 19.7657C12.2282 20.0781 11.7216 20.0781 11.4092 19.7657C11.0968 19.4533 11.0968 18.9467 11.4092 18.6343L18.0435 12L11.4092 5.36569ZM5.00922 5.36569C4.6968 5.05327 4.6968 4.54673 5.00922 4.23431C5.32164 3.9219 5.82817 3.9219 6.14059 4.23431L13.3406 11.4343C13.653 11.7467 13.653 12.2533 13.3406 12.5657L6.14059 19.7657C5.82817 20.0781 5.32164 20.0781 5.00922 19.7657C4.6968 19.4533 4.6968 18.9467 5.00922 18.6343L11.6435 12L5.00922 5.36569Z" fill="#262627"/>
</svg>
