<svg width="24" height="24" viewBox="0 0 24 24" fill="none" xmlns="http://www.w3.org/2000/svg">
<path d="M4.74827 16.2385C4.64729 16.2387 4.54733 16.2183 4.45453 16.1784C4.36173 16.1386 4.27804 16.0803 4.20861 16.0069C4.07108 15.8628 3.99614 15.6701 4.00015 15.4709C4.00417 15.2718 4.08681 15.0822 4.23004 14.9438L11.491 7.94751C11.6302 7.81329 11.8161 7.73838 12.0095 7.73856C12.2028 7.73875 12.3886 7.81402 12.5275 7.94851L19.7699 14.9447C19.9131 15.0831 19.9958 15.2726 19.9998 15.4717C20.0038 15.6708 19.9289 15.8634 19.7913 16.0074C19.7235 16.0786 19.6422 16.1357 19.5522 16.1754C19.4621 16.215 19.3651 16.2364 19.2668 16.2384C19.1684 16.2403 19.0707 16.2228 18.9791 16.1867C18.8876 16.1507 18.8041 16.0969 18.7335 16.0284L12.0082 9.53243L5.26548 16.0294C5.12681 16.1637 4.94129 16.2387 4.74827 16.2385Z" fill="#262627"/>
</svg>
