<svg width="20" height="14" viewBox="0 0 20 14" fill="none" xmlns="http://www.w3.org/2000/svg">
<path d="M19.7698 7.54062C19.9169 7.39922 20 7.20401 20 7C20 6.79599 19.9169 6.60078 19.7698 6.45938L13.2698 0.209376C12.9713 -0.0777189 12.4965 -0.0684095 12.2094 0.230169C11.9223 0.528748 11.9316 1.00353 12.2302 1.29063L18.1679 7L12.2302 12.7094C11.9316 12.9965 11.9223 13.4713 12.2094 13.7698C12.4965 14.0684 12.9713 14.0777 13.2698 13.7906L19.7698 7.54062ZM0.230169 7.54062C0.0831089 7.39922 0 7.20401 0 7C0 6.79599 0.0831089 6.60078 0.230169 6.45938L6.73017 0.209376C7.02875 -0.0777189 7.50353 -0.0684095 7.79062 0.230169C8.07772 0.528748 8.06841 1.00353 7.76983 1.29063L1.83208 7L7.76983 12.7094C8.06841 12.9965 8.07772 13.4713 7.79062 13.7698C7.50353 14.0684 7.02875 14.0777 6.73017 13.7906L0.230169 7.54062Z" fill="#262627"/>
</svg>
