<svg width="24" height="24" viewBox="0 0 24 24" fill="none" xmlns="http://www.w3.org/2000/svg">
<path d="M21.7698 12.5406C21.9169 12.3992 22 12.204 22 12C22 11.796 21.9169 11.6008 21.7698 11.4594L15.2698 5.20938C14.9713 4.92228 14.4965 4.93159 14.2094 5.23017C13.9223 5.52875 13.9316 6.00353 14.2302 6.29063L20.1679 12L14.2302 17.7094C13.9316 17.9965 13.9223 18.4713 14.2094 18.7698C14.4965 19.0684 14.9713 19.0777 15.2698 18.7906L21.7698 12.5406ZM2.23017 12.5406C2.08311 12.3992 2 12.204 2 12C2 11.796 2.08311 11.6008 2.23017 11.4594L8.73017 5.20938C9.02875 4.92228 9.50353 4.93159 9.79062 5.23017C10.0777 5.52875 10.0684 6.00353 9.76983 6.29063L3.83208 12L9.76983 17.7094C10.0684 17.9965 10.0777 18.4713 9.79062 18.7698C9.50353 19.0684 9.02875 19.0777 8.73017 18.7906L2.23017 12.5406Z" fill="#262627"/>
</svg>
