<svg width="24" height="24" viewBox="0 0 24 24" fill="none" xmlns="http://www.w3.org/2000/svg">
<path d="M13.0303 18.6343C13.3232 18.9467 13.3232 19.4533 13.0303 19.7657C12.7374 20.0781 12.2626 20.0781 11.9697 19.7657L5.21967 12.5657C4.92678 12.2533 4.92678 11.7467 5.21967 11.4343L11.9697 4.23431C12.2626 3.9219 12.7374 3.9219 13.0303 4.23431C13.3232 4.54673 13.3232 5.05327 13.0303 5.36569L6.81066 12L13.0303 18.6343ZM19.0303 18.6343C19.3232 18.9467 19.3232 19.4533 19.0303 19.7657C18.7374 20.0781 18.2626 20.0781 17.9697 19.7657L11.2197 12.5657C10.9268 12.2533 10.9268 11.7467 11.2197 11.4343L17.9697 4.23431C18.2626 3.9219 18.7374 3.9219 19.0303 4.23431C19.3232 4.54673 19.3232 5.05327 19.0303 5.36568L12.8107 12L19.0303 18.6343Z" fill="#262627"/>
</svg>
