<svg width="20" height="20" viewBox="0 0 20 20" fill="none" xmlns="http://www.w3.org/2000/svg">
<path d="M14.2578 8.5C14.672 8.5 15.0078 8.16421 15.0078 7.75C15.0078 7.33579 14.672 7 14.2578 7L5.77047 7C5.35626 7 5.02047 7.33579 5.02047 7.75C5.02047 8.16421 5.35626 8.5 5.77047 8.5H14.2578ZM14.2578 13C14.672 13 15.0078 12.6642 15.0078 12.25C15.0078 11.8358 14.672 11.5 14.2578 11.5H5.77047C5.35626 11.5 5.02047 11.8358 5.02047 12.25C5.02047 12.6642 5.35626 13 5.77047 13H14.2578ZM20 10C20 4.47715 15.5228 2.41411e-07 10 0C4.47715 -2.41411e-07 2.41411e-07 4.47715 0 10C-2.41411e-07 15.5228 4.47715 20 10 20C15.5228 20 20 15.5228 20 10ZM10 1.5C14.6944 1.5 18.5 5.30558 18.5 10C18.5 14.6944 14.6944 18.5 10 18.5C5.30558 18.5 1.5 14.6944 1.5 10C1.5 5.30558 5.30558 1.5 10 1.5Z" fill="#262627"/>
</svg>
