<svg width="20" height="20" viewBox="0 0 20 20" fill="none" xmlns="http://www.w3.org/2000/svg">
<path d="M16.6154 17.4993L18.9331 19.8169C19.1771 20.061 19.5729 20.061 19.8169 19.8169C20.061 19.5729 20.061 19.1771 19.8169 18.9331L1.06694 0.183058C0.822864 -0.0610194 0.427136 -0.0610194 0.183058 0.183058C-0.0610194 0.427136 -0.0610194 0.822864 0.183058 1.06694L2.50073 3.38461C0.944387 5.14755 0 7.46349 0 10C0 15.5228 4.47715 20 10 20C12.5365 20 14.8525 19.0556 16.6154 17.4993ZM20 10C20 12.0838 19.3626 14.0188 18.2722 15.6205L4.37947 1.7278C5.98124 0.637373 7.91619 0 10 0C15.5228 0 20 4.47715 20 10Z" fill="#262627"/>
</svg>
