<svg width="24" height="24" viewBox="0 0 24 24" fill="none" xmlns="http://www.w3.org/2000/svg">
<path d="M12 2C10.0222 2 8.08879 2.58649 6.4443 3.6853C4.79981 4.78412 3.51809 6.3459 2.76121 8.17317C2.00433 10.0004 1.8063 12.0111 2.19215 13.9509C2.578 15.8907 3.53041 17.6725 4.92894 19.0711C6.32746 20.4696 8.10929 21.422 10.0491 21.8079C11.9889 22.1937 13.9996 21.9957 15.8268 21.2388C17.6541 20.4819 19.2159 19.2002 20.3147 17.5557C21.4135 15.9112 22 13.9778 22 12C21.9999 9.34786 20.9463 6.80436 19.071 4.92901C17.1956 3.05366 14.6521 2.00007 12 2ZM11.2499 7.75781C11.2499 7.5589 11.3289 7.36813 11.4696 7.22748C11.6102 7.08683 11.801 7.00781 11.9999 7.00781C12.1988 7.00781 12.3896 7.08683 12.5302 7.22748C12.6709 7.36813 12.7499 7.5589 12.7499 7.75781V13.001C12.7499 13.1999 12.6709 13.3907 12.5302 13.5313C12.3896 13.672 12.1988 13.751 11.9999 13.751C11.801 13.751 11.6102 13.672 11.4696 13.5313C11.3289 13.3907 11.2499 13.1999 11.2499 13.001V7.75781ZM12 16.9932C11.8191 16.9932 11.6423 16.9395 11.4919 16.8391C11.3416 16.7386 11.2243 16.5958 11.1551 16.4287C11.0859 16.2616 11.0677 16.0778 11.103 15.9004C11.1382 15.723 11.2253 15.56 11.3531 15.4321C11.481 15.3042 11.6439 15.217 11.8213 15.1817C11.9987 15.1463 12.1826 15.1644 12.3497 15.2335C12.5168 15.3027 12.6597 15.4198 12.7602 15.5702C12.8608 15.7205 12.9145 15.8973 12.9146 16.0782C12.9145 16.3208 12.8182 16.5534 12.6467 16.725C12.4752 16.8966 12.2426 16.993 12 16.9932Z" fill="#98332F"/>
</svg>
