<svg width="20" height="20" viewBox="0 0 20 20" fill="none" xmlns="http://www.w3.org/2000/svg">
<path d="M10 -0.00012207C8.02219 -0.00012207 6.08879 0.586368 4.4443 1.68518C2.79981 2.784 1.51809 4.34578 0.761209 6.17304C0.00433284 8.00031 -0.193701 10.011 0.192152 11.9508C0.578004 13.8906 1.53041 15.6724 2.92894 17.0709C4.32746 18.4695 6.10929 19.4219 8.0491 19.8077C9.98891 20.1936 11.9996 19.9956 13.8268 19.2387C15.6541 18.4818 17.2159 17.2001 18.3147 15.5556C19.4135 13.9111 20 11.9777 20 9.99988C19.9999 7.34773 18.9463 4.80424 17.071 2.92889C15.1956 1.05354 12.6521 -5.31173e-05 10 -0.00012207ZM9.24988 5.75769C9.24988 5.55878 9.3289 5.36801 9.46955 5.22736C9.61021 5.08671 9.80097 5.00769 9.99988 5.00769C10.1988 5.00769 10.3896 5.08671 10.5302 5.22736C10.6709 5.36801 10.7499 5.55878 10.7499 5.75769V11.0009C10.7499 11.1998 10.6709 11.3905 10.5302 11.5312C10.3896 11.6718 10.1988 11.7509 9.99988 11.7509C9.80097 11.7509 9.61021 11.6718 9.46955 11.5312C9.3289 11.3905 9.24988 11.1998 9.24988 11.0009V5.75769ZM10 14.993C9.81914 14.993 9.64234 14.9394 9.49195 14.839C9.34155 14.7385 9.22433 14.5957 9.1551 14.4286C9.08586 14.2615 9.06772 14.0776 9.10297 13.9002C9.13823 13.7228 9.22529 13.5599 9.35314 13.432C9.481 13.304 9.64392 13.2169 9.8213 13.1816C9.99868 13.1462 10.1826 13.1643 10.3497 13.2334C10.5168 13.3026 10.6597 13.4197 10.7602 13.5701C10.8608 13.7204 10.9145 13.8972 10.9146 14.078C10.9145 14.3206 10.8182 14.5533 10.6467 14.7249C10.4752 14.8964 10.2426 14.9929 10 14.993Z" fill="#98332F"/>
</svg>
