<svg width="24" height="24" viewBox="0 0 24 24" fill="none" xmlns="http://www.w3.org/2000/svg">
<path d="M18.6154 19.4993L20.9331 21.8169C21.1771 22.061 21.5729 22.061 21.8169 21.8169C22.061 21.5729 22.061 21.1771 21.8169 20.9331L3.06694 2.18306C2.82286 1.93898 2.42714 1.93898 2.18306 2.18306C1.93898 2.42714 1.93898 2.82286 2.18306 3.06694L4.50073 5.38461C2.94439 7.14755 2 9.46349 2 12C2 17.5228 6.47715 22 12 22C14.5365 22 16.8525 21.0556 18.6154 19.4993ZM22 12C22 14.0838 21.3626 16.0188 20.2722 17.6205L6.37947 3.7278C7.98124 2.63737 9.91619 2 12 2C17.5228 2 22 6.47715 22 12Z" fill="#262627"/>
</svg>
