<svg width="20" height="20" viewBox="0 0 20 20" fill="none" xmlns="http://www.w3.org/2000/svg">
<path d="M20 10C20 4.47715 15.5228 2.41411e-07 10 0C4.47715 -2.41411e-07 2.41411e-07 4.47715 0 10C-2.41411e-07 15.5228 4.47715 20 10 20C15.5228 20 20 15.5228 20 10ZM14.2522 8.5H5.75277C5.33856 8.5 5.00277 8.16421 5.00277 7.75C5.00277 7.33579 5.33856 7 5.75277 7L14.2522 7C14.6664 7 15.0022 7.33579 15.0022 7.75C15.0022 8.16421 14.6664 8.5 14.2522 8.5ZM14.2522 13H5.75277C5.33856 13 5.00277 12.6642 5.00277 12.25C5.00277 11.8358 5.33856 11.5 5.75277 11.5H14.2522C14.6664 11.5 15.0022 11.8358 15.0022 12.25C15.0022 12.6642 14.6664 13 14.2522 13Z" fill="#262627"/>
</svg>
