<svg width="24" height="24" viewBox="0 0 24 24" fill="none" xmlns="http://www.w3.org/2000/svg">
<path d="M12 1.99976C10.0222 1.99976 8.08879 2.58625 6.4443 3.68506C4.79981 4.78387 3.51809 6.34566 2.76121 8.17292C2.00433 10.0002 1.8063 12.0108 2.19215 13.9507C2.578 15.8905 3.53041 17.6723 4.92894 19.0708C6.32746 20.4693 8.10929 21.4218 10.0491 21.8076C11.9889 22.1935 13.9996 21.9954 15.8268 21.2386C17.6541 20.4817 19.2159 19.2 20.3147 17.5555C21.4135 15.911 22 13.9776 22 11.9998C21.9999 9.34761 20.9463 6.80412 19.071 4.92877C17.1956 3.05342 14.6521 1.99983 12 1.99976ZM12.7496 16.2429C12.7496 16.4418 12.6706 16.6326 12.5299 16.7733C12.3893 16.9139 12.1985 16.9929 11.9996 16.9929C11.8007 16.9929 11.6099 16.9139 11.4693 16.7733C11.3286 16.6326 11.2496 16.4418 11.2496 16.2429V10.9998C11.2496 10.8008 11.3286 10.6101 11.4693 10.4694C11.6099 10.3288 11.8007 10.2498 11.9996 10.2498C12.1985 10.2498 12.3893 10.3288 12.5299 10.4694C12.6706 10.6101 12.7496 10.8008 12.7496 10.9998V16.2429ZM12 8.83668C11.8191 8.83668 11.6423 8.78305 11.492 8.68258C11.3416 8.58211 11.2243 8.4393 11.1551 8.27221C11.0859 8.10513 11.0677 7.92126 11.103 7.74387C11.1382 7.56648 11.2253 7.40352 11.3532 7.2756C11.481 7.14768 11.6439 7.06054 11.8213 7.0252C11.9987 6.98986 12.1826 7.00791 12.3497 7.07706C12.5168 7.14621 12.6597 7.26336 12.7602 7.4137C12.8608 7.56404 12.9145 7.74081 12.9146 7.92168C12.9145 8.16426 12.8182 8.3969 12.6467 8.56847C12.4752 8.74005 12.2426 8.83651 12 8.83668Z" fill="#105EBC"/>
</svg>
