<svg width="20" height="20" viewBox="0 0 20 20" fill="none" xmlns="http://www.w3.org/2000/svg">
<path d="M10 -0.000244141C8.02219 -0.000244141 6.08879 0.586246 4.4443 1.68506C2.79981 2.78387 1.51809 4.34566 0.761209 6.17292C0.00433284 8.00018 -0.193701 10.0108 0.192152 11.9507C0.578004 13.8905 1.53041 15.6723 2.92894 17.0708C4.32746 18.4693 6.10929 19.4218 8.0491 19.8076C9.98891 20.1935 11.9996 19.9954 13.8268 19.2386C15.6541 18.4817 17.2159 17.2 18.3147 15.5555C19.4135 13.911 20 11.9776 20 9.99976C19.9999 7.34761 18.9463 4.80412 17.071 2.92877C15.1956 1.05342 12.6521 -0.000172536 10 -0.000244141ZM10.7496 14.2429C10.7496 14.4418 10.6706 14.6326 10.5299 14.7733C10.3893 14.9139 10.1985 14.9929 9.99961 14.9929C9.8007 14.9929 9.60994 14.9139 9.46929 14.7733C9.32863 14.6326 9.24961 14.4418 9.24961 14.2429V8.99976C9.24961 8.80084 9.32863 8.61008 9.46929 8.46943C9.60994 8.32877 9.8007 8.24976 9.99961 8.24976C10.1985 8.24976 10.3893 8.32877 10.5299 8.46943C10.6706 8.61008 10.7496 8.80084 10.7496 8.99976V14.2429ZM10 6.83668C9.81914 6.83668 9.64234 6.78305 9.49195 6.68258C9.34157 6.58211 9.22435 6.4393 9.15511 6.27221C9.08588 6.10513 9.06774 5.92126 9.10299 5.74387C9.13825 5.56648 9.2253 5.40352 9.35316 5.2756C9.48102 5.14768 9.64393 5.06054 9.82131 5.0252C9.99868 4.98986 10.1826 5.00791 10.3497 5.07706C10.5168 5.14621 10.6597 5.26336 10.7602 5.4137C10.8608 5.56404 10.9145 5.74081 10.9146 5.92168C10.9145 6.16426 10.8182 6.3969 10.6467 6.56847C10.4752 6.74005 10.2426 6.83651 10 6.83668Z" fill="#105EBC"/>
</svg>
