<svg width="24" height="24" viewBox="0 0 24 24" fill="none" xmlns="http://www.w3.org/2000/svg">
<path d="M11.7717 3.74349C14.1132 1.39991 17.9121 1.39991 20.2553 3.74305C22.5384 6.02612 22.5969 9.69133 20.4309 12.0453L20.2428 12.2426L11.4427 21.0408L11.4062 21.0711C9.94492 22.3879 7.69092 22.3431 6.28355 20.9357C4.96453 19.6167 4.84241 17.554 5.9172 16.0973C5.94054 16.052 5.96879 16.0082 6.002 15.9671L6.05556 15.9074L6.14247 15.8197L6.28355 15.6718L6.28647 15.6747L13.7222 8.22038C13.9881 7.95376 14.4047 7.929 14.6986 8.14646L14.7829 8.21897C15.0495 8.48488 15.0742 8.90151 14.8568 9.19541L14.7843 9.27963L7.18966 16.8927C6.47202 17.7683 6.5219 19.0626 7.3393 19.88C8.16836 20.7091 9.48801 20.7485 10.3638 19.9984L19.1965 11.168C20.952 9.41031 20.952 6.56107 19.1946 4.80371C17.4922 3.10127 14.765 3.04807 12.9986 4.64411L12.8307 4.80371L12.8181 4.81802L3.28179 14.3543C2.9889 14.6472 2.51403 14.6472 2.22113 14.3543C1.95487 14.0881 1.93066 13.6714 2.14852 13.3778L2.22113 13.2937L11.77 3.74305L11.7717 3.74349Z" fill="#262627"/>
</svg>
