<svg width="22" height="22" viewBox="0 0 22 22" fill="none" xmlns="http://www.w3.org/2000/svg">
<path d="M5.5 11C8.53757 11 11 13.4624 11 16.5C11 19.5376 8.53757 22 5.5 22C2.46243 22 0 19.5376 0 16.5C0 13.4624 2.46243 11 5.5 11ZM12 0C17.523 0 22 4.478 22 10C22 15.522 17.523 20 12 20C11.6652 20 11.3342 19.9835 11.0079 19.9514C11.3225 19.452 11.5697 18.9075 11.7389 18.3297L12 18.333C16.595 18.333 20.333 14.595 20.333 10C20.333 5.405 16.595 1.667 12 1.667C7.405 1.667 3.667 5.405 3.667 10L3.67104 10.2614C3.09237 10.4303 2.54782 10.6776 2.04884 10.9909C2.01645 10.6657 2 10.3347 2 10C2 4.478 6.477 0 12 0ZM2.71569 13.5886L2.64645 13.6464L2.58859 13.7157C2.47047 13.8862 2.47047 14.1138 2.58859 14.2843L2.64645 14.3536L4.793 16.5L2.64645 18.6464L2.58859 18.7157C2.47047 18.8862 2.47047 19.1138 2.58859 19.2843L2.64645 19.3536L2.71569 19.4114C2.8862 19.5295 3.1138 19.5295 3.28431 19.4114L3.35355 19.3536L5.5 17.207L7.64645 19.3536L7.71569 19.4114C7.8862 19.5295 8.1138 19.5295 8.28431 19.4114L8.35355 19.3536L8.41141 19.2843C8.52953 19.1138 8.52953 18.8862 8.41141 18.7157L8.35355 18.6464L6.207 16.5L8.35355 14.3536L8.41141 14.2843C8.52953 14.1138 8.52953 13.8862 8.41141 13.7157L8.35355 13.6464L8.28431 13.5886C8.1138 13.4705 7.8862 13.4705 7.71569 13.5886L7.64645 13.6464L5.5 15.793L3.35355 13.6464L3.28431 13.5886C3.13815 13.4873 2.95007 13.4729 2.79193 13.5452L2.71569 13.5886ZM11.25 4C11.6295 4 11.9435 4.28233 11.9931 4.64827L12 4.75V10H15.25C15.664 10 16 10.336 16 10.75C16 11.1295 15.7177 11.4435 15.3517 11.4931L15.25 11.5H11.25C10.8705 11.5 10.5565 11.2177 10.5069 10.8517L10.5 10.75V4.75C10.5 4.336 10.836 4 11.25 4Z" fill="#262627"/>
</svg>
