<svg width="24" height="24" viewBox="0 0 24 24" fill="none" xmlns="http://www.w3.org/2000/svg">
<path d="M13.0511 12.0001L19.7821 5.26865C19.8511 5.1996 19.9059 5.11764 19.9432 5.02744C19.9805 4.93724 19.9997 4.84057 19.9996 4.74296C19.9996 4.64535 19.9803 4.5487 19.9429 4.45853C19.9055 4.36836 19.8508 4.28644 19.7817 4.21745C19.7127 4.14845 19.6307 4.09373 19.5405 4.05641C19.4503 4.0191 19.3536 3.99991 19.256 3.99995C19.1584 3.99999 19.0618 4.01925 18.9716 4.05664C18.8814 4.09404 18.7995 4.14882 18.7305 4.21787L11.9998 10.9483L5.26945 4.21787C5.20051 4.14854 5.11858 4.09349 5.02834 4.05588C4.9381 4.01826 4.84132 3.99882 4.74356 3.99866C4.64579 3.9985 4.54895 4.01763 4.45859 4.05495C4.36822 4.09227 4.28611 4.14705 4.21695 4.21616C4.14779 4.28526 4.09294 4.36733 4.05555 4.45766C4.01815 4.54799 3.99894 4.64481 3.99902 4.74258C3.9991 4.84035 4.01847 4.93714 4.05601 5.02741C4.09355 5.11768 4.14853 5.19966 4.21781 5.26865L10.9486 12.0001L4.21781 18.7306C4.14853 18.7996 4.09355 18.8815 4.05601 18.9718C4.01847 19.0621 3.9991 19.1589 3.99902 19.2566C3.99894 19.3544 4.01815 19.4512 4.05555 19.5416C4.09294 19.6319 4.14779 19.714 4.21695 19.7831C4.28611 19.8522 4.36822 19.9069 4.45859 19.9443C4.54895 19.9816 4.64579 20.0007 4.74356 20.0006C4.84132 20.0004 4.9381 19.981 5.02834 19.9433C5.11858 19.9057 5.20051 19.8507 5.26945 19.7813L11.9998 13.0509L18.7305 19.7823C18.7995 19.8514 18.8814 19.9062 18.9716 19.9436C19.0618 19.9809 19.1584 20.0002 19.256 20.0002C19.3536 20.0003 19.4503 19.9811 19.5405 19.9438C19.6307 19.9065 19.7127 19.8517 19.7817 19.7827C19.8508 19.7138 19.9055 19.6318 19.9429 19.5417C19.9803 19.4515 19.9996 19.3548 19.9996 19.2572C19.9997 19.1596 19.9805 19.063 19.9432 18.9728C19.9059 18.8826 19.8511 18.8006 19.7821 18.7315L13.0511 12.0001Z" fill="#262627"/>
</svg>
