<svg width="24" height="24" viewBox="0 0 24 24" fill="none" xmlns="http://www.w3.org/2000/svg">
<path d="M3.83885 5.8575C6.77986 1.94189 12.8685 0.802507 17.2028 3.49738C21.4826 6.15839 23.0566 11.2745 21.3037 16.0747C19.6485 20.6073 15.2873 22.4032 12.144 20.1231C10.9666 19.269 10.5101 18.1984 10.2895 16.4593L10.1841 15.4714L10.1387 15.074C10.016 14.1399 9.82762 13.7214 9.43435 13.5022C8.89876 13.2037 8.54213 13.1967 7.83887 13.4693L7.48775 13.6149L7.30902 13.6928C6.29524 14.1331 5.62085 14.2878 4.76786 14.1091L4.56761 14.0619L4.40407 14.0153C1.61511 13.1511 1.20202 9.36814 3.83885 5.8575ZM4.82307 12.5739L4.94598 12.6104L5.07993 12.6412C5.519 12.7282 5.89425 12.6557 6.51695 12.3994L7.11912 12.1421C8.32126 11.6492 9.10436 11.601 10.1646 12.192C11.0822 12.7035 11.4399 13.4896 11.6223 14.8517L11.6755 15.3108L11.7297 15.8425L11.7768 16.2649C11.9489 17.6262 12.2617 18.3555 13.0248 18.9089C15.3001 20.5594 18.5592 19.2173 19.8947 15.5602C21.411 11.408 20.0688 7.04568 16.4107 4.77123C12.7365 2.48676 7.5123 3.46439 5.03822 6.75834C2.96343 9.52068 3.21791 12.0379 4.82307 12.5739ZM16.0476 10.5796C15.8689 9.91274 16.2646 9.22732 16.9314 9.04865C17.5983 8.86997 18.2837 9.2657 18.4624 9.93253C18.6411 10.5994 18.2453 11.2848 17.5785 11.4635C16.9117 11.6421 16.2262 11.2464 16.0476 10.5796ZM16.5421 14.0682C16.3635 13.4014 16.7592 12.716 17.426 12.5373C18.0929 12.3586 18.7783 12.7544 18.957 13.4212C19.1356 14.088 18.7399 14.7734 18.0731 14.9521C17.4062 15.1308 16.7208 14.7351 16.5421 14.0682ZM14.0691 7.57689C13.8904 6.91006 14.2861 6.22464 14.9529 6.04596C15.6198 5.86728 16.3052 6.26301 16.4839 6.92984C16.6625 7.59668 16.2668 8.2821 15.6 8.46078C14.9331 8.63945 14.2477 8.24372 14.0691 7.57689ZM14.0406 16.5753C13.8619 15.9084 14.2576 15.223 14.9245 15.0443C15.5913 14.8657 16.2767 15.2614 16.4554 15.9282C16.6341 16.5951 16.2383 17.2805 15.5715 17.4592C14.9047 17.6378 14.2192 17.2421 14.0406 16.5753ZM10.5436 6.6053C10.365 5.93847 10.7607 5.25305 11.4275 5.07437C12.0944 4.89569 12.7798 5.29142 12.9585 5.95825C13.1371 6.62508 12.7414 7.31051 12.0746 7.48918C11.4077 7.66786 10.7223 7.27213 10.5436 6.6053Z" fill="#262627"/>
</svg>
