<svg width="20" height="20" viewBox="0 0 20 20" fill="none" xmlns="http://www.w3.org/2000/svg">
<path d="M1.83885 3.8575C4.77986 -0.0581081 10.8685 -1.19749 15.2028 1.49738C19.4826 4.15839 21.0566 9.27447 19.3037 14.0747C17.6485 18.6073 13.2873 20.4032 10.144 18.1231C8.96655 17.269 8.5101 16.1984 8.28947 14.4593L8.18409 13.4714L8.13867 13.074C8.01605 12.1399 7.82762 11.7214 7.43435 11.5022C6.89876 11.2037 6.54213 11.1967 5.83887 11.4693L5.48775 11.6149L5.30902 11.6928C4.29524 12.1331 3.62085 12.2878 2.76786 12.1091L2.56761 12.0619L2.40407 12.0153C-0.384892 11.1511 -0.797981 7.36814 1.83885 3.8575ZM2.82307 10.5739L2.94598 10.6104L3.07993 10.6412C3.519 10.7282 3.89425 10.6557 4.51695 10.3994L5.11912 10.1421C6.32126 9.64922 7.10436 9.60103 8.16464 10.192C9.08223 10.7035 9.43987 11.4896 9.62228 12.8517L9.67548 13.3108L9.72968 13.8425L9.77682 14.2649C9.9489 15.6262 10.2617 16.3555 11.0248 16.9089C13.3001 18.5594 16.5592 17.2173 17.8947 13.5602C19.411 9.40802 18.0688 5.04568 14.4107 2.77123C10.7365 0.486764 5.5123 1.46439 3.03822 4.75834C0.963432 7.52068 1.21791 10.0379 2.82307 10.5739ZM14.0476 8.57958C13.8689 7.91274 14.2646 7.22732 14.9314 7.04865C15.5983 6.86997 16.2837 7.2657 16.4624 7.93253C16.6411 8.59936 16.2453 9.28478 15.5785 9.46346C14.9117 9.64214 14.2262 9.24641 14.0476 8.57958ZM14.5421 12.0682C14.3635 11.4014 14.7592 10.716 15.426 10.5373C16.0929 10.3586 16.7783 10.7544 16.957 11.4212C17.1356 12.088 16.7399 12.7734 16.0731 12.9521C15.4062 13.1308 14.7208 12.7351 14.5421 12.0682ZM12.0691 5.57689C11.8904 4.91006 12.2861 4.22464 12.9529 4.04596C13.6198 3.86728 14.3052 4.26301 14.4839 4.92984C14.6625 5.59668 14.2668 6.2821 13.6 6.46078C12.9331 6.63945 12.2477 6.24372 12.0691 5.57689ZM12.0406 14.5753C11.8619 13.9084 12.2576 13.223 12.9245 13.0443C13.5913 12.8657 14.2767 13.2614 14.4554 13.9282C14.6341 14.5951 14.2383 15.2805 13.5715 15.4592C12.9047 15.6378 12.2192 15.2421 12.0406 14.5753ZM8.54365 4.6053C8.36497 3.93847 8.7607 3.25305 9.42753 3.07437C10.0944 2.89569 10.7798 3.29142 10.9585 3.95825C11.1371 4.62508 10.7414 5.31051 10.0746 5.48918C9.40774 5.66786 8.72232 5.27213 8.54365 4.6053Z" fill="#262627"/>
</svg>
