<svg width="20" height="21" viewBox="0 0 20 21" fill="none" xmlns="http://www.w3.org/2000/svg">
<path d="M6.99994 0.75C6.99994 0.335786 7.33573 0 7.74994 0C8.16416 0 8.49994 0.335786 8.49994 0.75V2.01536C8.95062 2.0556 9.39025 2.24821 9.73522 2.59318L13.2708 6.12871C14.0518 6.90976 14.0518 8.17609 13.2708 8.95714L9.02812 13.1998C8.24707 13.9808 6.98074 13.9808 6.19969 13.1998L2.66416 9.66424C1.88311 8.8832 1.88311 7.61687 2.66416 6.83582L6.9068 2.59318C6.93713 2.56284 6.9682 2.53368 6.99994 2.5057V0.75ZM6.99994 5.25V4.62135L4.11052 7.51077H12.3555C12.348 7.39373 12.2995 7.27882 12.2101 7.18937L8.67456 3.65384C8.62326 3.60254 8.56359 3.56471 8.49994 3.54037V5.25C8.49994 5.66421 8.16416 6 7.74994 6C7.33573 6 6.99994 5.66421 6.99994 5.25ZM4.132 9.01077L7.26035 12.1391C7.45561 12.3344 7.77219 12.3344 7.96746 12.1391L11.0958 9.01077H4.132ZM4.58573 13H2.5C1.11929 13 0 14.1193 0 15.5V18.5C0 19.8807 1.11929 21 2.5 21H17.5C18.8807 21 20 19.8807 20 18.5V15.5C20 14.285 19.1333 13.2725 17.9844 13.0469C17.9945 13.1543 18 13.2638 18 13.3749C18 13.7762 17.9349 14.1734 17.8115 14.5495C18.2113 14.6804 18.5 15.0565 18.5 15.5V18.5C18.5 19.0523 18.0523 19.5 17.5 19.5H2.5C1.94772 19.5 1.5 19.0523 1.5 18.5V15.5C1.5 14.9477 1.94772 14.5 2.5 14.5H6.3345C6.02991 14.3564 5.74449 14.1588 5.49269 13.907L4.58573 13ZM12 13.375C12 12.8816 12.1541 12.4027 12.3418 11.9938C12.5325 11.5784 12.7798 11.1881 13.0158 10.8595C13.2531 10.5289 13.4888 10.247 13.6647 10.0481C13.7502 9.95145 13.9062 9.78669 13.9642 9.72544L13.9697 9.71967C14.2626 9.42678 14.7374 9.42678 15.0303 9.71967L15.3353 10.0481C15.5112 10.247 15.7469 10.5289 15.9842 10.8595C16.2202 11.1881 16.4675 11.5784 16.6582 11.9938C16.8459 12.4027 17 12.8816 17 13.375C17 14.7654 15.9711 16 14.5 16C13.0289 16 12 14.7654 12 13.375ZM14.7658 11.7343C14.676 11.6092 14.5858 11.4916 14.5 11.3844C14.4142 11.4916 14.324 11.6092 14.2342 11.7343C14.0327 12.015 13.8425 12.32 13.7051 12.6195C13.5647 12.9253 13.5 13.1808 13.5 13.375C13.5 14.0663 13.9809 14.5 14.5 14.5C15.0191 14.5 15.5 14.0663 15.5 13.375C15.5 13.1808 15.4353 12.9253 15.2949 12.6195C15.1575 12.32 14.9673 12.015 14.7658 11.7343Z" fill="#262627"/>
</svg>
