<svg width="24" height="24" viewBox="0 0 24 24" fill="none" xmlns="http://www.w3.org/2000/svg">
<path d="M18.2217 1.95857H8.29281C7.83077 1.96082 7.38831 2.14537 7.06162 2.47211C6.73493 2.79884 6.55044 3.24134 6.54827 3.70337V17.5722C6.5488 18.0348 6.73276 18.4782 7.0598 18.8053C7.38684 19.1324 7.83027 19.3164 8.29281 19.317H18.2217C18.451 19.3175 18.6781 19.2728 18.89 19.1853C19.1019 19.0978 19.2945 18.9693 19.4566 18.8072C19.6187 18.645 19.7472 18.4525 19.8346 18.2405C19.9221 18.0286 19.9668 17.8015 19.9663 17.5722V3.70337C19.9658 3.24081 19.7818 2.79734 19.4548 2.47024C19.1277 2.14313 18.6843 1.95912 18.2217 1.95857ZM18.4709 17.5722C18.4712 17.605 18.465 17.6376 18.4526 17.668C18.4402 17.6983 18.4218 17.7259 18.3986 17.7491C18.3754 17.7723 18.3478 17.7907 18.3174 17.8031C18.2871 17.8155 18.2545 17.8218 18.2217 17.8215H8.29281C8.25999 17.8218 8.22745 17.8155 8.19708 17.8031C8.16671 17.7907 8.13911 17.7723 8.11591 17.7491C8.09271 17.7259 8.07436 17.6983 8.06195 17.668C8.04953 17.6376 8.04329 17.605 8.04359 17.5722V3.70337C8.04463 3.6376 8.07122 3.5748 8.11773 3.52828C8.16424 3.48176 8.22703 3.45516 8.29281 3.45411H18.2217C18.2875 3.45516 18.3503 3.48176 18.3968 3.52828C18.4433 3.5748 18.4699 3.6376 18.4709 3.70337V17.5722Z" fill="#262627"/>
<path d="M16.1482 20.463H8.16324C7.44685 20.4624 6.75997 20.1776 6.25343 19.671C5.74689 19.1644 5.46211 18.4775 5.46161 17.7611V4.00228C5.04667 4.0578 4.66611 4.26241 4.39095 4.57791C4.11579 4.89342 3.96484 5.29827 3.96626 5.7169V17.7611C3.96788 18.8738 4.41057 19.9404 5.1973 20.7272C5.98402 21.514 7.0506 21.9568 8.16326 21.9586H16.1483C16.5679 21.9579 16.973 21.8049 17.2884 21.5281C17.6037 21.2512 17.8079 20.8693 17.8629 20.4533H16.198C16.1826 20.4611 16.1654 20.4645 16.1482 20.463Z" fill="#262627"/>
</svg>
