<svg width="24" height="24" viewBox="0 0 24 24" fill="none" xmlns="http://www.w3.org/2000/svg">
<path d="M7.53205 4.3422V3.74268C7.52977 3.54485 7.44958 3.35589 7.30888 3.2168C7.16817 3.07772 6.97831 2.99971 6.78046 2.99971C6.58261 2.99971 6.39275 3.07772 6.25204 3.2168C6.11134 3.35589 6.03115 3.54485 6.02887 3.74268V4.33253C5.21882 4.43639 4.47123 4.82226 3.91735 5.42241C3.36346 6.02256 3.03868 6.79863 3 7.6144V9.06871C3.03887 9.88432 3.36375 10.6602 3.91762 11.2601C4.47149 11.8601 5.21897 12.2458 6.02888 12.3496V18.0595C5.6182 17.9733 5.24692 17.7553 4.97152 17.4387C4.69612 17.122 4.53167 16.7241 4.50318 16.3055V14.2893C4.5009 14.0915 4.42071 13.9026 4.28001 13.7635C4.1393 13.6244 3.94944 13.5464 3.75159 13.5464C3.55374 13.5464 3.36388 13.6244 3.22317 13.7635C3.08247 13.9026 3.00228 14.0915 3 14.2893V16.3055C3.03868 17.1212 3.36347 17.8973 3.91735 18.4974C4.47124 19.0976 5.21883 19.4835 6.02888 19.5873V20.2574C6.03116 20.4553 6.11135 20.6442 6.25205 20.7833C6.39276 20.9224 6.58262 21.0004 6.78047 21.0004C6.97832 21.0004 7.16818 20.9224 7.30889 20.7833C7.44959 20.6442 7.52978 20.4553 7.53206 20.2574V19.5777C8.33042 19.4628 9.06377 19.0732 9.60589 18.476C10.148 17.8787 10.465 17.1112 10.5022 16.3055V14.2768C10.4648 13.4711 10.1478 12.7036 9.60571 12.1064C9.06363 11.5092 8.33036 11.1196 7.53206 11.0046V5.87483C7.93054 5.96965 8.28809 6.18981 8.55215 6.50293C8.81621 6.81606 8.97286 7.20563 8.99906 7.6144V8.9459C9.00134 9.14373 9.08153 9.33269 9.22223 9.47178C9.36294 9.61087 9.5528 9.68887 9.75065 9.68887C9.9485 9.68887 10.1384 9.61087 10.2791 9.47178C10.4198 9.33269 10.5 9.14373 10.5022 8.9459V7.6144C10.465 6.80867 10.148 6.04113 9.6059 5.44388C9.06378 4.84664 8.33042 4.45706 7.53205 4.3422ZM4.50318 9.06871V7.6144C4.53167 7.19573 4.69612 6.79782 4.97152 6.4812C5.24692 6.16458 5.6182 5.94657 6.02888 5.86033V10.8228C5.61827 10.7364 5.24707 10.5184 4.9717 10.2018C4.69632 9.88516 4.53182 9.48733 4.50318 9.06871ZM8.99902 14.2768V16.3055C8.97282 16.7142 8.81617 17.1038 8.55211 17.4169C8.28805 17.73 7.9305 17.9502 7.53202 18.045V12.5372C7.9305 12.632 8.28805 12.8522 8.55211 13.1653C8.81617 13.4784 8.97282 13.868 8.99902 14.2768Z" fill="#262627"/>
<path d="M20.2484 19.3379C18.8941 19.3203 17.602 18.7663 16.6555 17.7974C15.7091 16.8285 15.1855 15.5238 15.1996 14.1694V13.9577H17.8263C17.9245 13.9588 18.022 13.9404 18.1131 13.9036C18.2042 13.8668 18.2871 13.8123 18.357 13.7432C18.4269 13.6742 18.4824 13.5919 18.5202 13.5012C18.5581 13.4106 18.5776 13.3133 18.5776 13.215C18.5776 13.1168 18.5581 13.0195 18.5202 12.9288C18.4824 12.8382 18.4269 12.7559 18.357 12.6868C18.2871 12.6178 18.2042 12.5633 18.1131 12.5264C18.022 12.4896 17.9245 12.4713 17.8263 12.4724H15.1996V11.3527H17.8263C17.9246 11.3539 18.0221 11.3355 18.1133 11.2988C18.2044 11.262 18.2874 11.2075 18.3573 11.1384C18.4272 11.0693 18.4827 10.987 18.5206 10.8963C18.5585 10.8056 18.578 10.7083 18.578 10.61C18.578 10.5118 18.5585 10.4144 18.5206 10.3237C18.4827 10.2331 18.4272 10.1508 18.3573 10.0817C18.2874 10.0126 18.2044 9.95812 18.1133 9.92133C18.0221 9.88455 17.9246 9.86622 17.8263 9.86742H15.1996V9.65372C15.1855 8.29934 15.7091 6.99463 16.6555 6.02574C17.602 5.05685 18.8941 4.50287 20.2484 4.48531C20.3467 4.48645 20.4442 4.46808 20.5353 4.43127C20.6264 4.39447 20.7092 4.33995 20.7791 4.27087C20.849 4.2018 20.9045 4.11955 20.9423 4.02888C20.9802 3.93821 20.9997 3.84094 20.9997 3.74268C20.9997 3.64443 20.9802 3.54715 20.9423 3.45648C20.9045 3.36581 20.849 3.28356 20.7791 3.21449C20.7092 3.14542 20.6264 3.0909 20.5353 3.05409C20.4442 3.01728 20.3467 2.99891 20.2484 3.00005C18.4979 3.01559 16.825 3.72483 15.5967 4.97218C14.3684 6.21954 13.685 7.90316 13.6965 9.65372V9.86742H12.6826C12.5843 9.86622 12.4868 9.88455 12.3956 9.92133C12.3045 9.95812 12.2215 10.0126 12.1516 10.0817C12.0817 10.1508 12.0262 10.2331 11.9883 10.3237C11.9504 10.4144 11.9309 10.5118 11.9309 10.61C11.9309 10.7083 11.9504 10.8056 11.9883 10.8963C12.0262 10.987 12.0817 11.0693 12.1516 11.1384C12.2215 11.2075 12.3045 11.262 12.3956 11.2988C12.4868 11.3355 12.5843 11.3539 12.6826 11.3527H13.6965V12.4724H12.6826C12.5843 12.4713 12.4868 12.4896 12.3957 12.5264C12.3046 12.5633 12.2218 12.6178 12.1519 12.6868C12.082 12.7559 12.0265 12.8382 11.9887 12.9288C11.9508 13.0195 11.9313 13.1168 11.9313 13.215C11.9313 13.3133 11.9508 13.4106 11.9887 13.5012C12.0265 13.5919 12.082 13.6742 12.1519 13.7432C12.2218 13.8123 12.3046 13.8668 12.3957 13.9036C12.4868 13.9404 12.5843 13.9588 12.6826 13.9577H13.6965V14.1694C13.685 15.92 14.3684 17.6036 15.5967 18.851C16.825 20.0983 18.4979 20.8076 20.2485 20.8231C20.3467 20.8243 20.4443 20.806 20.5354 20.7692C20.6266 20.7324 20.7095 20.6779 20.7794 20.6088C20.8494 20.5397 20.9049 20.4575 20.9428 20.3668C20.9807 20.2761 21.0002 20.1788 21.0002 20.0805C21.0002 19.9822 20.9807 19.8849 20.9428 19.7942C20.9049 19.7035 20.8494 19.6212 20.7794 19.5521C20.7095 19.4831 20.6266 19.4285 20.5354 19.3918C20.4443 19.355 20.3467 19.3367 20.2484 19.3379Z" fill="#262627"/>
</svg>
