<svg width="18" height="18" viewBox="0 0 18 18" fill="none" xmlns="http://www.w3.org/2000/svg">
<path d="M4.53205 1.3422V0.742681C4.52977 0.544848 4.44958 0.355893 4.30888 0.216804C4.16817 0.0777152 3.97831 -0.000289917 3.78046 -0.000289917C3.58261 -0.000289917 3.39275 0.0777152 3.25204 0.216804C3.11134 0.355893 3.03115 0.544848 3.02887 0.742681V1.33253C2.21882 1.43639 1.47123 1.82226 0.917349 2.42241C0.363463 3.02256 0.0386761 3.79863 0 4.6144V6.06871C0.0388691 6.88432 0.363747 7.66018 0.91762 8.26014C1.47149 8.86009 2.21897 9.24582 3.02888 9.34961V15.0595C2.6182 14.9733 2.24692 14.7553 1.97152 14.4387C1.69612 14.122 1.53167 13.7241 1.50318 13.3055V11.2893C1.5009 11.0915 1.42071 10.9026 1.28001 10.7635C1.1393 10.6244 0.949436 10.5464 0.75159 10.5464C0.553744 10.5464 0.363877 10.6244 0.223174 10.7635C0.0824719 10.9026 0.00228199 11.0915 0 11.2893V13.3055C0.0386765 14.1212 0.363465 14.8973 0.917352 15.4974C1.47124 16.0976 2.21883 16.4835 3.02888 16.5873V17.2574C3.03116 17.4553 3.11135 17.6442 3.25205 17.7833C3.39276 17.9224 3.58262 18.0004 3.78047 18.0004C3.97832 18.0004 4.16818 17.9224 4.30889 17.7833C4.44959 17.6442 4.52978 17.4553 4.53206 17.2574V16.5777C5.33042 16.4628 6.06377 16.0732 6.60589 15.476C7.148 14.8787 7.46496 14.1112 7.50221 13.3055V11.2768C7.46481 10.4711 7.14779 9.70364 6.60571 9.10642C6.06363 8.50921 5.33036 8.11959 4.53206 8.00457V2.87483C4.93054 2.96965 5.28809 3.18981 5.55215 3.50293C5.81621 3.81606 5.97286 4.20563 5.99906 4.6144V5.9459C6.00134 6.14373 6.08153 6.33269 6.22223 6.47178C6.36294 6.61087 6.5528 6.68887 6.75065 6.68887C6.9485 6.68887 7.13836 6.61087 7.27907 6.47178C7.41977 6.33269 7.49996 6.14373 7.50224 5.9459V4.6144C7.46499 3.80867 7.14802 3.04113 6.6059 2.44388C6.06378 1.84664 5.33042 1.45706 4.53205 1.3422ZM1.50318 6.06871V4.6144C1.53167 4.19573 1.69612 3.79782 1.97152 3.4812C2.24692 3.16458 2.6182 2.94657 3.02888 2.86033V7.82278C2.61827 7.7364 2.24707 7.51835 1.9717 7.20176C1.69632 6.88516 1.53182 6.48733 1.50318 6.06871ZM5.99902 11.2768V13.3055C5.97282 13.7142 5.81617 14.1038 5.55211 14.4169C5.28805 14.73 4.9305 14.9502 4.53202 15.045V9.5372C4.9305 9.63202 5.28805 9.85217 5.55211 10.1653C5.81617 10.4784 5.97282 10.868 5.99902 11.2768Z" fill="#262627"/>
<path d="M17.2484 16.3379C15.8941 16.3203 14.602 15.7663 13.6555 14.7974C12.7091 13.8285 12.1855 12.5238 12.1996 11.1694V10.9577H14.8263C14.9245 10.9588 15.022 10.9404 15.1131 10.9036C15.2042 10.8668 15.2871 10.8123 15.357 10.7432C15.4269 10.6742 15.4824 10.5919 15.5202 10.5012C15.5581 10.4106 15.5776 10.3133 15.5776 10.215C15.5776 10.1168 15.5581 10.0195 15.5202 9.92884C15.4824 9.83817 15.4269 9.75592 15.357 9.68685C15.2871 9.61777 15.2042 9.56325 15.1131 9.52645C15.022 9.48964 14.9245 9.47127 14.8263 9.47241H12.1996V8.35267H14.8263C14.9246 8.35387 15.0221 8.33554 15.1133 8.29876C15.2044 8.26197 15.2874 8.20746 15.3573 8.13839C15.4272 8.06931 15.4827 7.98704 15.5206 7.89634C15.5585 7.80565 15.578 7.70834 15.578 7.61005C15.578 7.51175 15.5585 7.41444 15.5206 7.32375C15.4827 7.23305 15.4272 7.15078 15.3573 7.08171C15.2874 7.01263 15.2044 6.95812 15.1133 6.92133C15.0221 6.88455 14.9246 6.86622 14.8263 6.86742H12.1996V6.65372C12.1855 5.29934 12.7091 3.99463 13.6555 3.02574C14.602 2.05685 15.8941 1.50287 17.2484 1.48531C17.3467 1.48645 17.4442 1.46808 17.5353 1.43127C17.6264 1.39447 17.7092 1.33995 17.7791 1.27087C17.849 1.2018 17.9045 1.11955 17.9423 1.02888C17.9802 0.938214 17.9997 0.840936 17.9997 0.74268C17.9997 0.644425 17.9802 0.547146 17.9423 0.45648C17.9045 0.365813 17.849 0.283561 17.7791 0.214488C17.7092 0.145415 17.6264 0.0908954 17.5353 0.0540861C17.4442 0.0172769 17.3467 -0.00108963 17.2484 5.04809e-05C15.4979 0.0155893 13.825 0.724827 12.5967 1.97218C11.3684 3.21954 10.685 4.90316 10.6965 6.65372V6.86742H9.68259C9.58431 6.86622 9.48676 6.88455 9.39561 6.92133C9.30447 6.95812 9.22153 7.01263 9.1516 7.08171C9.08168 7.15078 9.02616 7.23305 8.98827 7.32375C8.95038 7.41444 8.93087 7.51175 8.93087 7.61005C8.93087 7.70834 8.95038 7.80565 8.98827 7.89634C9.02616 7.98704 9.08168 8.06931 9.1516 8.13839C9.22153 8.20746 9.30447 8.26197 9.39561 8.29876C9.48676 8.33554 9.58431 8.35387 9.68259 8.35267H10.6965V9.47241H9.68259C9.58434 9.47127 9.48684 9.48964 9.39574 9.52645C9.30464 9.56325 9.22175 9.61777 9.15187 9.68685C9.082 9.75592 9.02652 9.83817 8.98865 9.92884C8.95079 10.0195 8.93129 10.1168 8.93129 10.215C8.93129 10.3133 8.95079 10.4106 8.98865 10.5012C9.02652 10.5919 9.082 10.6742 9.15187 10.7432C9.22175 10.8123 9.30464 10.8668 9.39574 10.9036C9.48684 10.9404 9.58434 10.9588 9.68259 10.9577H10.6965V11.1694C10.685 12.92 11.3684 14.6036 12.5967 15.851C13.825 17.0983 15.4979 17.8076 17.2485 17.8231C17.3467 17.8243 17.4443 17.806 17.5354 17.7692C17.6266 17.7324 17.7095 17.6779 17.7794 17.6088C17.8494 17.5397 17.9049 17.4575 17.9428 17.3668C17.9807 17.2761 18.0002 17.1788 18.0002 17.0805C18.0002 16.9822 17.9807 16.8849 17.9428 16.7942C17.9049 16.7035 17.8494 16.6212 17.7794 16.5521C17.7095 16.4831 17.6266 16.4285 17.5354 16.3918C17.4443 16.355 17.3467 16.3367 17.2484 16.3379Z" fill="#262627"/>
</svg>
