<svg width="24" height="24" viewBox="0 0 24 24" fill="none" xmlns="http://www.w3.org/2000/svg">
<path d="M18.6884 3C17.4106 3 16.3748 4.00695 16.3748 5.24908V18.7509C16.3748 19.9931 17.4106 21 18.6884 21C19.9661 21 21.002 19.9931 21.002 18.7509V5.24908C21.002 4.00695 19.9661 3 18.6884 3ZM12.002 7C10.7242 7 9.68837 8.00695 9.68837 9.24908V18.7509C9.68837 19.9931 10.7242 21 12.002 21C13.2797 21 14.3155 19.9931 14.3155 18.7509V9.24908C14.3155 8.00695 13.2797 7 12.002 7ZM5.31554 11C4.03778 11 3.00195 12.0069 3.00195 13.2491V18.7509C3.00195 19.9931 4.03778 21 5.31554 21C6.5933 21 7.62912 19.9931 7.62912 18.7509V13.2491C7.62912 12.0069 6.5933 11 5.31554 11ZM18.6884 4.5C19.1139 4.5 19.4589 4.83538 19.4589 5.24908V18.7509C19.4589 19.1646 19.1139 19.5 18.6884 19.5C18.2628 19.5 17.9178 19.1646 17.9178 18.7509V5.24908C17.9178 4.83538 18.2628 4.5 18.6884 4.5ZM12.002 8.5C12.4275 8.5 12.7725 8.83537 12.7725 9.24908V18.7509C12.7725 19.1646 12.4275 19.5 12.002 19.5C11.5764 19.5 11.2314 19.1646 11.2314 18.7509V9.24908C11.2314 8.83537 11.5764 8.5 12.002 8.5ZM5.31554 12.5C5.74111 12.5 6.0861 12.8354 6.0861 13.2491V18.7509C6.0861 19.1646 5.74111 19.5 5.31554 19.5C4.88997 19.5 4.54497 19.1646 4.54497 18.7509V13.2491C4.54497 12.8354 4.88997 12.5 5.31554 12.5Z" fill="#262627"/>
</svg>
