<svg width="20" height="18" viewBox="0 0 20 18" fill="none" xmlns="http://www.w3.org/2000/svg">
<path d="M17 1.5C16.1716 1.5 15.5 2.17157 15.5 3C15.5 3.82843 16.1716 4.5 17 4.5C17.8284 4.5 18.5 3.82843 18.5 3C18.5 2.17157 17.8284 1.5 17 1.5ZM14 3C14 1.34315 15.3431 0 17 0C18.6569 0 20 1.34315 20 3C20 4.65685 18.6569 6 17 6C16.8382 6 16.6794 5.98719 16.5246 5.96254L14.4865 9.32094C14.8107 9.80008 15 10.3779 15 11C15 12.6569 13.6569 14 12 14C11.0971 14 10.2874 13.6012 9.73745 12.9701L5.99584 14.8406C5.9986 14.8934 6 14.9465 6 15C6 16.6569 4.65685 18 3 18C1.34315 18 0 16.6569 0 15C0 13.3431 1.34315 12 3 12C4.06616 12 5.00242 12.5562 5.5345 13.3942L9.06599 11.6287C9.02275 11.426 9 11.2156 9 11C9 9.34315 10.3431 8 12 8C12.4823 8 12.938 8.1138 13.3417 8.31602L15.1395 5.35358C14.4454 4.80411 14 3.95406 14 3ZM12 9.5C11.1716 9.5 10.5 10.1716 10.5 11C10.5 11.8284 11.1716 12.5 12 12.5C12.8284 12.5 13.5 11.8284 13.5 11C13.5 10.1716 12.8284 9.5 12 9.5ZM3 13.5C2.17157 13.5 1.5 14.1716 1.5 15C1.5 15.8284 2.17157 16.5 3 16.5C3.82843 16.5 4.5 15.8284 4.5 15C4.5 14.1716 3.82843 13.5 3 13.5Z" fill="#262627"/>
</svg>
