<svg width="18" height="20" viewBox="0 0 18 20" fill="none" xmlns="http://www.w3.org/2000/svg">
<path d="M2.25 1.5C1.83579 1.5 1.5 1.83579 1.5 2.25V17.75C1.5 18.1642 1.83579 18.5 2.25 18.5H6.0293C5.92216 19.0483 6.03754 19.5732 6.30075 20H2.25C1.00736 20 0 18.9926 0 17.75V2.25C0 1.00736 1.00736 0 2.25 0H8.33579C8.79992 0 9.24503 0.184374 9.57322 0.512563L15.4874 6.42678C15.8156 6.75497 16 7.20009 16 7.66421V8H15.8698C15.7592 7.99447 15.6484 7.99447 15.5378 8H10C8.89543 8 8 7.10457 8 6V1.5H2.25ZM9.5 2.56066V6C9.5 6.27614 9.72386 6.5 10 6.5H13.4393L9.5 2.56066ZM15.7133 9H15.7154C16.3 9.00027 16.8845 9.22342 17.3305 9.66946C18.2231 10.5621 18.2231 12.0093 17.3305 12.9019L11.4281 18.8043C11.084 19.1485 10.6528 19.3926 10.1806 19.5106L8.34992 19.9683C7.55378 20.1674 6.83264 19.4462 7.03168 18.6501L7.48935 16.8194C7.60739 16.3472 7.85153 15.916 8.19566 15.5719L14.0981 9.66946C14.5441 9.22342 15.1287 9.00027 15.7133 9Z" fill="#262627"/>
</svg>
