<svg width="16" height="20" viewBox="0 0 16 20" fill="none" xmlns="http://www.w3.org/2000/svg">
<path d="M14.5 18C14.5 18.275 14.276 18.5 14 18.5H2C1.724 18.5 1.5 18.275 1.5 18V2C1.5 1.725 1.724 1.5 2 1.5H8V6C8 7.104 8.896 8 10 8H14.5V18ZM9.5 2.621L13.378 6.5H10C9.724 6.5 9.5 6.275 9.5 6V2.621ZM15.414 6.414L9.585 0.586C9.559 0.56 9.527 0.54 9.5 0.516C9.429 0.452 9.359 0.389 9.281 0.336C9.241 0.309 9.195 0.291 9.153 0.268C9.082 0.228 9.012 0.184 8.937 0.152C8.74 0.0699999 8.528 0.0289999 8.313 0.0139999C8.266 0.0109999 8.22 0 8.172 0H8.171H8H2C0.896 0 0 0.896 0 2V18C0 19.104 0.896 20 2 20H14C15.104 20 16 19.104 16 18V8V7.828C16 7.298 15.789 6.789 15.414 6.414Z" fill="#262627"/>
</svg>
