<svg width="15" height="20" viewBox="0 0 15 20" fill="none" xmlns="http://www.w3.org/2000/svg">
<path d="M14.2498 18.5C14.664 18.4999 15 18.8356 15 19.2498C15 19.664 14.6644 19.9999 14.2502 20L1.25022 20.0038C0.836003 20.0039 0.5 19.6682 0.5 19.254C0.5 18.8398 0.83557 18.5039 1.24978 18.5038L14.2498 18.5ZM7.64823 0.0117905L7.75 0.00494385C8.1297 0.00494385 8.44349 0.287098 8.49315 0.653173L8.5 0.754944L8.499 14.4399L12.2208 10.7196C12.4871 10.4534 12.9038 10.4292 13.1974 10.6471L13.2815 10.7197C13.5477 10.986 13.5719 11.4027 13.354 11.6963L13.2814 11.7804L8.28372 16.777C8.01757 17.0431 7.60119 17.0674 7.3076 16.8498L7.22348 16.7773L2.22003 11.7807C1.92694 11.488 1.92661 11.0131 2.21931 10.72C2.48539 10.4536 2.90204 10.4291 3.1958 10.6467L3.27997 10.7193L6.999 14.4329L7 0.754944C7 0.375248 7.28215 0.0614529 7.64823 0.0117905L7.75 0.00494385L7.64823 0.0117905Z" fill="#262627"/>
</svg>
