<svg width="20" height="20" viewBox="0 0 20 20" fill="none" xmlns="http://www.w3.org/2000/svg">
<path d="M0 3.25C0 1.45507 1.45507 0 3.25 0H13.75C15.5449 0 17 1.45507 17 3.25V8.00723C16.9173 8.00243 16.8339 8 16.75 8H15.5V3.25C15.5 2.2835 14.7165 1.5 13.75 1.5H3.25C2.2835 1.5 1.5 2.2835 1.5 3.25V14.75C1.5 15.7165 2.2835 16.5 3.25 16.5H4V16.75C4 17.185 4.06536 17.6048 4.1868 18H3.25C1.45508 18 0 16.5449 0 14.75V3.25ZM4.75 3C4.33579 3 4 3.33579 4 3.75C4 4.16421 4.33579 4.5 4.75 4.5H12.25C12.6642 4.5 13 4.16421 13 3.75C13 3.33579 12.6642 3 12.25 3H4.75ZM6 6.25C6 5.83579 6.33579 5.5 6.75 5.5H12.25C12.6642 5.5 13 5.83579 13 6.25C13 6.66421 12.6642 7 12.25 7H6.75C6.33579 7 6 6.66421 6 6.25ZM5 12.25C5 10.4551 6.45507 9 8.25 9H16.75C18.5449 9 20 10.4551 20 12.25V16.75C20 18.5449 18.5449 20 16.75 20H8.25C6.45507 20 5 18.5449 5 16.75V12.25ZM8.25 10.5C7.74571 10.5 7.29124 10.7133 6.9719 11.0546L12.5001 14.6084L18.0281 11.0546C17.7088 10.7133 17.2543 10.5 16.75 10.5H8.25ZM6.5 16.75C6.5 17.7165 7.2835 18.5 8.25 18.5H16.75C17.7165 18.5 18.5 17.7165 18.5 16.75V12.5345L12.9056 16.1309C12.6586 16.2897 12.3415 16.2897 12.0945 16.1309L6.5 12.5345V16.75Z" fill="#262627"/>
</svg>
