<svg width="20" height="20" viewBox="0 0 20 20" fill="none" xmlns="http://www.w3.org/2000/svg">
<path d="M0 3C0 1.34315 1.34315 0 3 0H14C15.6569 0 17 1.34315 17 3V8H8C5.79086 8 4 9.79086 4 12V17C4 17.3453 4.04375 17.6804 4.12602 18H3C1.34315 18 0 16.6569 0 15V3ZM3.75 2C3.33579 2 3 2.33579 3 2.75C3 3.16421 3.33579 3.5 3.75 3.5H13.25C13.6642 3.5 14 3.16421 14 2.75C14 2.33579 13.6642 2 13.25 2H3.75ZM5.75 5C5.33579 5 5 5.33579 5 5.75C5 6.16421 5.33579 6.5 5.75 6.5H13.25C13.6642 6.5 14 6.16421 14 5.75C14 5.33579 13.6642 5 13.25 5H5.75ZM5.54838 10.2705C6.0916 9.5019 6.98719 9 8 9H17C18.0128 9 18.9084 9.50191 19.4516 10.2706L12.5 14.6153L5.54838 10.2705ZM5.01426 11.7056C5.00483 11.8025 5 11.9007 5 12V17C5 18.6569 6.34315 20 8 20H17C18.6569 20 20 18.6569 20 17V12C20 11.9007 19.9952 11.8025 19.9857 11.7056L12.8975 16.1358C12.6543 16.2878 12.3457 16.2878 12.1025 16.1358L5.01426 11.7056Z" fill="#262627"/>
</svg>
