<svg width="20" height="20" viewBox="0 0 20 20" fill="none" xmlns="http://www.w3.org/2000/svg">
<path d="M10 0.00463867C15.5228 0.00463867 20 4.48179 20 10.0046C20 15.5275 15.5228 20.0046 10 20.0046C4.47715 20.0046 0 15.5275 0 10.0046C0 4.48179 4.47715 0.00463867 10 0.00463867ZM10 1.50464C5.30558 1.50464 1.5 5.31022 1.5 10.0046C1.5 14.6991 5.30558 18.5046 10 18.5046C14.6944 18.5046 18.5 14.6991 18.5 10.0046C18.5 5.31022 14.6944 1.50464 10 1.50464ZM10 11.498C11.6312 11.498 13.1604 12.1529 14.281 13.2935C14.5714 13.5889 14.5672 14.0638 14.2717 14.3541C13.9763 14.6444 13.5014 14.6402 13.2111 14.3448C12.3696 13.4884 11.2247 12.998 10 12.998C8.77261 12.998 7.62535 13.4906 6.78348 14.3503C6.49367 14.6462 6.01882 14.6512 5.72287 14.3614C5.42693 14.0716 5.42195 13.5967 5.71175 13.3008C6.83296 12.1558 8.36516 11.498 10 11.498ZM5.16435 4.78149C5.39958 4.48745 5.81102 4.41738 6.1269 4.60148L6.21852 4.66436L8.71852 6.66436C9.04197 6.92312 9.09441 7.39509 8.83565 7.71854C8.68757 7.90364 8.46965 7.99999 8.2497 8.00004C8.24974 8.69043 7.69041 9.24975 7.00045 9.24975C6.31048 9.24975 5.75116 8.69043 5.75116 8.00046C5.75116 7.47429 6.07645 7.02409 6.5369 6.84L5.28148 5.83567C4.95803 5.57691 4.90559 5.10494 5.16435 4.78149ZM11.2825 6.66447L13.7813 4.66447C14.1047 4.40564 14.5767 4.45797 14.8355 4.78136C15.0708 5.07535 15.049 5.49214 14.8001 5.75996L14.7187 5.83556L13.4632 6.83969C13.9241 7.02358 14.2497 7.47399 14.2497 8.00046C14.2497 8.69043 13.6904 9.24975 13.0004 9.24975C12.3536 9.24975 11.8216 8.75816 11.7576 8.12819L11.7512 7.99843C11.5317 8.00004 11.3137 7.90374 11.1656 7.71867C10.9303 7.42468 10.9522 7.00789 11.2011 6.74007L11.2825 6.66447L13.7813 4.66447L11.2825 6.66447Z" fill="#262627"/>
</svg>
