<svg width="20" height="20" viewBox="0 0 20 20" fill="none" xmlns="http://www.w3.org/2000/svg">
<path d="M7.00051 6.75122C7.69047 6.75122 8.2498 7.31055 8.2498 8.00051C8.2498 8.69047 7.69047 9.2498 7.00051 9.2498C6.31055 9.2498 5.75122 8.69047 5.75122 8.00051C5.75122 7.31055 6.31055 6.75122 7.00051 6.75122ZM13.0005 6.75122C13.6905 6.75122 14.2498 7.31055 14.2498 8.00051C14.2498 8.69047 13.6905 9.2498 13.0005 9.2498C12.3105 9.2498 11.7512 8.69047 11.7512 8.00051C11.7512 7.31055 12.3105 6.75122 13.0005 6.75122ZM6.25 13C5.83579 13 5.5 13.3358 5.5 13.75C5.5 14.1642 5.83579 14.5 6.25 14.5H13.75C14.1642 14.5 14.5 14.1642 14.5 13.75C14.5 13.3358 14.1642 13 13.75 13H6.25ZM0 10C0 4.47715 4.47715 0 10 0C15.5228 0 20 4.47715 20 10C20 15.5228 15.5228 20 10 20C4.47715 20 0 15.5228 0 10ZM10 1.5C5.30558 1.5 1.5 5.30558 1.5 10C1.5 14.6944 5.30558 18.5 10 18.5C14.6944 18.5 18.5 14.6944 18.5 10C18.5 5.30558 14.6944 1.5 10 1.5Z" fill="#262627"/>
</svg>
