<svg width="24" height="24" viewBox="0 0 24 24" fill="none" xmlns="http://www.w3.org/2000/svg">
<path d="M12.0001 1.99896C17.5238 1.99896 22.0016 6.47681 22.0016 12.0005C22.0016 17.5242 17.5238 22.0021 12.0001 22.0021C6.47638 22.0021 1.99854 17.5242 1.99854 12.0005C1.99854 6.47681 6.47638 1.99896 12.0001 1.99896ZM8.46183 14.7838C8.20548 14.4585 7.73391 14.4025 7.40855 14.6589C7.08319 14.9152 7.02725 15.3868 7.2836 15.7122C8.4142 17.1471 10.1374 18.0021 12.0001 18.0021C13.8602 18.0021 15.5814 17.1494 16.7122 15.7177C16.9689 15.3927 16.9135 14.921 16.5884 14.6643C16.2634 14.4076 15.7918 14.4629 15.535 14.788C14.6858 15.8633 13.3963 16.5021 12.0001 16.5021C10.602 16.5021 9.31096 15.8616 8.46183 14.7838ZM9.00053 8.75115C8.31057 8.75115 7.75124 9.31048 7.75124 10.0004C7.75124 10.6904 8.31057 11.2497 9.00053 11.2497C9.6905 11.2497 10.2498 10.6904 10.2498 10.0004C10.2498 9.31048 9.6905 8.75115 9.00053 8.75115ZM15.0005 8.75115C14.3106 8.75115 13.7512 9.31048 13.7512 10.0004C13.7512 10.6904 14.3106 11.2497 15.0005 11.2497C15.6905 11.2497 16.2498 10.6904 16.2498 10.0004C16.2498 9.31048 15.6905 8.75115 15.0005 8.75115Z" fill="#262627"/>
</svg>
