<svg width="20" height="20" viewBox="0 0 20 20" fill="none" xmlns="http://www.w3.org/2000/svg">
<path d="M10 0.00463867C15.5228 0.00463867 20 4.48179 20 10.0046C20 15.5275 15.5228 20.0046 10 20.0046C4.47715 20.0046 0 15.5275 0 10.0046C0 4.48179 4.47715 0.00463867 10 0.00463867ZM10 11.498C8.36516 11.498 6.83296 12.1558 5.71175 13.3008C5.42195 13.5967 5.42693 14.0716 5.72287 14.3614C6.01882 14.6512 6.49367 14.6462 6.78348 14.3503C7.62535 13.4906 8.77261 12.998 10 12.998C11.2247 12.998 12.3696 13.4884 13.2111 14.3448C13.5014 14.6402 13.9763 14.6444 14.2717 14.3541C14.5672 14.0638 14.5714 13.5889 14.281 13.2935C13.1604 12.1529 11.6312 11.498 10 11.498ZM6.21852 4.66436L6.1269 4.60148C5.81102 4.41738 5.39958 4.48745 5.16435 4.78149C4.92911 5.07554 4.95107 5.49232 5.20002 5.76008L5.28148 5.83567L6.53789 6.8396C6.07692 7.02344 5.75116 7.47391 5.75116 8.00046C5.75116 8.69043 6.31048 9.24975 7.00045 9.24975C7.69041 9.24975 8.24974 8.69043 8.2497 8.00004C8.46965 7.99999 8.68757 7.90364 8.83565 7.71854C9.07089 7.42449 9.04893 7.00771 8.79998 6.73995L8.71852 6.66436L6.21852 4.66436L6.1269 4.60148L6.21852 4.66436ZM14.8355 4.78136C14.6002 4.48737 14.1888 4.41739 13.873 4.60156L13.7813 4.66447L11.2825 6.66447L11.2011 6.74007C10.9522 7.00789 10.9303 7.42468 11.1656 7.71867C11.2891 7.8729 11.461 7.96547 11.6419 7.99112L11.7512 7.99844C11.7512 8.69042 12.3105 9.24975 13.0004 9.24975C13.6904 9.24975 14.2497 8.69043 14.2497 8.00046C14.2497 7.51786 13.9761 7.09918 13.5755 6.8911L13.4632 6.83969L14.7187 5.83556L14.8001 5.75996C15.049 5.49214 15.0708 5.07535 14.8355 4.78136Z" fill="#262627"/>
</svg>
