<svg width="24" height="24" viewBox="0 0 24 24" fill="none" xmlns="http://www.w3.org/2000/svg">
<path d="M12 2.00464C17.5228 2.00464 22 6.48179 22 12.0046C22 17.5275 17.5228 22.0046 12 22.0046C6.47715 22.0046 2 17.5275 2 12.0046C2 6.48179 6.47715 2.00464 12 2.00464ZM12 13.498C10.3652 13.498 8.83296 14.1558 7.71175 15.3008C7.42195 15.5967 7.42693 16.0716 7.72287 16.3614C8.01882 16.6512 8.49367 16.6462 8.78348 16.3503C9.62535 15.4906 10.7726 14.998 12 14.998C13.2247 14.998 14.3696 15.4884 15.2111 16.3448C15.5014 16.6402 15.9763 16.6444 16.2717 16.3541C16.5672 16.0638 16.5714 15.5889 16.281 15.2935C15.1604 14.1529 13.6312 13.498 12 13.498ZM8.21852 6.66436L8.1269 6.60148C7.81102 6.41738 7.39958 6.48745 7.16435 6.78149C6.92911 7.07554 6.95107 7.49232 7.20002 7.76008L7.28148 7.83567L8.53789 8.8396C8.07692 9.02344 7.75116 9.47391 7.75116 10.0005C7.75116 10.6904 8.31048 11.2498 9.00045 11.2498C9.69041 11.2498 10.2497 10.6904 10.2497 10C10.4696 9.99999 10.6876 9.90364 10.8357 9.71854C11.0709 9.42449 11.0489 9.00771 10.8 8.73995L10.7185 8.66436L8.21852 6.66436L8.1269 6.60148L8.21852 6.66436ZM16.8355 6.78136C16.6002 6.48737 16.1888 6.41739 15.873 6.60156L15.7813 6.66447L13.2825 8.66447L13.2011 8.74007C12.9522 9.00789 12.9303 9.42468 13.1656 9.71867C13.2891 9.8729 13.461 9.96547 13.6419 9.99112L13.7512 9.99844C13.7512 10.6904 14.3105 11.2498 15.0004 11.2498C15.6904 11.2498 16.2497 10.6904 16.2497 10.0005C16.2497 9.51786 15.9761 9.09918 15.5755 8.8911L15.4632 8.83969L16.7187 7.83556L16.8001 7.75996C17.049 7.49214 17.0708 7.07535 16.8355 6.78136Z" fill="#262627"/>
</svg>
