<svg width="20" height="20" viewBox="0 0 20 20" fill="none" xmlns="http://www.w3.org/2000/svg">
<path d="M10 0C4.47715 0 0 4.47715 0 10C0 15.5228 4.47715 20 10 20C15.5228 20 20 15.5228 20 10C20 4.47715 15.5228 0 10 0ZM12.492 7.35982C12.4314 7.76957 12.05 8.05257 11.6403 7.99192C11.2305 7.93126 10.9475 7.54993 11.0082 7.14018C11.1696 6.0495 12.1313 5.25 13.2501 5.25C14.3689 5.25 15.3306 6.0495 15.492 7.14018C15.5527 7.54993 15.2697 7.93126 14.8599 7.99192C14.4502 8.05257 14.0688 7.76957 14.0082 7.35982C13.9604 7.03719 13.6586 6.75 13.2501 6.75C12.8416 6.75 12.5398 7.03719 12.492 7.35982ZM10 16C6.85757 16 4.76263 13.6375 4.5 10.75H15.5C15.2373 13.6375 13.1424 16 10 16ZM6.7501 6.75C6.34157 6.75 6.03977 7.03719 5.99202 7.35982C5.93136 7.76957 5.55003 8.05257 5.14028 7.99192C4.73053 7.93126 4.44753 7.54993 4.50818 7.14018C4.66963 6.0495 5.63128 5.25 6.7501 5.25C7.86892 5.25 8.83057 6.0495 8.99202 7.14018C9.05267 7.54993 8.76967 7.93126 8.35992 7.99192C7.95017 8.05257 7.56884 7.76957 7.50818 7.35982C7.46043 7.03719 7.15863 6.75 6.7501 6.75Z" fill="#262627"/>
</svg>
