<svg width="20" height="20" viewBox="0 0 20 20" fill="none" xmlns="http://www.w3.org/2000/svg">
<path d="M4.74927 10C4.53852 10 4.33749 10.0887 4.19539 10.2443C4.05329 10.4 3.98323 10.6082 4.00237 10.8181C4.28259 13.8916 6.55224 16.5 10 16.5C13.4478 16.5 15.7174 13.8916 15.9977 10.8181C16.0168 10.6082 15.9468 10.4 15.8047 10.2443C15.6626 10.0887 15.4616 10 15.2508 10H4.74927ZM10 15C7.74286 15 6.12852 13.5205 5.63237 11.5H14.3677C13.8715 13.5205 12.2571 15 10 15ZM13.2501 6.75C12.8416 6.75 12.5398 7.03719 12.492 7.35982C12.4314 7.76957 12.05 8.05257 11.6403 7.99192C11.2305 7.93126 10.9475 7.54993 11.0082 7.14018C11.1696 6.0495 12.1313 5.25 13.2501 5.25C14.3689 5.25 15.3306 6.0495 15.492 7.14018C15.5527 7.54993 15.2697 7.93126 14.8599 7.99192C14.4502 8.05257 14.0688 7.76957 14.0082 7.35982C13.9604 7.03719 13.6586 6.75 13.2501 6.75ZM5.99202 7.35982C6.03977 7.03719 6.34157 6.75 6.7501 6.75C7.15863 6.75 7.46043 7.03719 7.50818 7.35982C7.56884 7.76957 7.95017 8.05257 8.35992 7.99192C8.76967 7.93126 9.05267 7.54993 8.99202 7.14018C8.83057 6.0495 7.86892 5.25 6.7501 5.25C5.63128 5.25 4.66963 6.0495 4.50818 7.14018C4.44753 7.54993 4.73053 7.93126 5.14028 7.99192C5.55003 8.05257 5.93136 7.76957 5.99202 7.35982ZM10 0C4.47715 0 0 4.47715 0 10C0 15.5228 4.47715 20 10 20C15.5228 20 20 15.5228 20 10C20 4.47715 15.5228 0 10 0ZM1.5 10C1.5 5.30558 5.30558 1.5 10 1.5C14.6944 1.5 18.5 5.30558 18.5 10C18.5 14.6944 14.6944 18.5 10 18.5C5.30558 18.5 1.5 14.6944 1.5 10Z" fill="#262627"/>
</svg>
