<svg width="24" height="24" viewBox="0 0 24 24" fill="none" xmlns="http://www.w3.org/2000/svg">
<path d="M12.0001 1.99896C17.5238 1.99896 22.0016 6.47681 22.0016 12.0005C22.0016 17.5242 17.5238 22.0021 12.0001 22.0021C6.47638 22.0021 1.99854 17.5242 1.99854 12.0005C1.99854 6.47681 6.47638 1.99896 12.0001 1.99896ZM12.0001 3.49896C7.30481 3.49896 3.49854 7.30524 3.49854 12.0005C3.49854 16.6958 7.30481 20.5021 12.0001 20.5021C16.6954 20.5021 20.5016 16.6958 20.5016 12.0005C20.5016 7.30524 16.6954 3.49896 12.0001 3.49896ZM12.0001 13.498C13.6313 13.498 15.1605 14.1529 16.2811 15.2934C16.5714 15.5889 16.5673 16.0637 16.2718 16.3541C15.9764 16.6444 15.5015 16.6402 15.2112 16.3447C14.3697 15.4884 13.2248 14.998 12.0001 14.998C10.7727 14.998 9.62544 15.4905 8.78356 16.3503C8.49376 16.6462 8.01891 16.6512 7.72296 16.3614C7.42701 16.0716 7.42203 15.5967 7.71184 15.3008C8.83305 14.1558 10.3652 13.498 12.0001 13.498ZM9.00053 8.75115C9.6905 8.75115 10.2498 9.31048 10.2498 10.0004C10.2498 10.6904 9.6905 11.2497 9.00053 11.2497C8.31057 11.2497 7.75124 10.6904 7.75124 10.0004C7.75124 9.31048 8.31057 8.75115 9.00053 8.75115ZM15.0005 8.75115C15.6905 8.75115 16.2498 9.31048 16.2498 10.0004C16.2498 10.6904 15.6905 11.2497 15.0005 11.2497C14.3106 11.2497 13.7512 10.6904 13.7512 10.0004C13.7512 9.31048 14.3106 8.75115 15.0005 8.75115Z" fill="#262627"/>
</svg>
