<svg width="20" height="20" viewBox="0 0 20 20" fill="none" xmlns="http://www.w3.org/2000/svg">
<path d="M10.0001 -0.0010376C15.5238 -0.0010376 20.0016 4.47681 20.0016 10.0005C20.0016 15.5242 15.5238 20.0021 10.0001 20.0021C4.47638 20.0021 -0.00146484 15.5242 -0.00146484 10.0005C-0.00146484 4.47681 4.47638 -0.0010376 10.0001 -0.0010376ZM10.0001 1.49896C5.30481 1.49896 1.49854 5.30524 1.49854 10.0005C1.49854 14.6958 5.30481 18.5021 10.0001 18.5021C14.6954 18.5021 18.5016 14.6958 18.5016 10.0005C18.5016 5.30524 14.6954 1.49896 10.0001 1.49896ZM6.46183 12.7838C7.31096 13.8616 8.60198 14.5021 10.0001 14.5021C11.3963 14.5021 12.6858 13.8633 13.535 12.788C13.7918 12.4629 14.2634 12.4076 14.5884 12.6643C14.9135 12.921 14.9689 13.3927 14.7122 13.7177C13.5814 15.1494 11.8602 16.0021 10.0001 16.0021C8.13743 16.0021 6.4142 15.1471 5.2836 13.7122C5.02725 13.3868 5.08319 12.9152 5.40855 12.6589C5.73391 12.4025 6.20548 12.4585 6.46183 12.7838ZM7.00053 6.75115C7.6905 6.75115 8.24982 7.31048 8.24982 8.00044C8.24982 8.69041 7.6905 9.24973 7.00053 9.24973C6.31057 9.24973 5.75124 8.69041 5.75124 8.00044C5.75124 7.31048 6.31057 6.75115 7.00053 6.75115ZM13.0005 6.75115C13.6905 6.75115 14.2498 7.31048 14.2498 8.00044C14.2498 8.69041 13.6905 9.24973 13.0005 9.24973C12.3106 9.24973 11.7512 8.69041 11.7512 8.00044C11.7512 7.31048 12.3106 6.75115 13.0005 6.75115Z" fill="#262627"/>
</svg>
