<svg width="24" height="24" viewBox="0 0 24 24" fill="none" xmlns="http://www.w3.org/2000/svg">
<path d="M12 2.00464C17.5228 2.00464 22 6.48179 22 12.0046C22 17.5275 17.5228 22.0046 12 22.0046C6.47715 22.0046 2 17.5275 2 12.0046C2 6.48179 6.47715 2.00464 12 2.00464ZM12 3.50464C7.30558 3.50464 3.5 7.31022 3.5 12.0046C3.5 16.6991 7.30558 20.5046 12 20.5046C16.6944 20.5046 20.5 16.6991 20.5 12.0046C20.5 7.31022 16.6944 3.50464 12 3.50464ZM12 13.498C13.6312 13.498 15.1604 14.1529 16.281 15.2935C16.5714 15.5889 16.5672 16.0638 16.2717 16.3541C15.9763 16.6444 15.5014 16.6402 15.2111 16.3448C14.3696 15.4884 13.2247 14.998 12 14.998C10.7726 14.998 9.62535 15.4906 8.78348 16.3503C8.49367 16.6462 8.01882 16.6512 7.72287 16.3614C7.42693 16.0716 7.42195 15.5967 7.71175 15.3008C8.83296 14.1558 10.3652 13.498 12 13.498ZM7.16435 6.78149C7.39958 6.48745 7.81102 6.41738 8.1269 6.60148L8.21852 6.66436L10.7185 8.66436C11.042 8.92312 11.0944 9.39509 10.8357 9.71854C10.6876 9.90364 10.4696 9.99999 10.2497 10C10.2497 10.6904 9.69041 11.2498 9.00045 11.2498C8.31048 11.2498 7.75116 10.6904 7.75116 10.0005C7.75116 9.47429 8.07645 9.02409 8.5369 8.84L7.28148 7.83567C6.95803 7.57691 6.90559 7.10494 7.16435 6.78149ZM13.2825 8.66447L15.7813 6.66447C16.1047 6.40564 16.5767 6.45797 16.8355 6.78136C17.0708 7.07535 17.049 7.49214 16.8001 7.75996L16.7187 7.83556L15.4632 8.83969C15.9241 9.02358 16.2497 9.47399 16.2497 10.0005C16.2497 10.6904 15.6904 11.2498 15.0004 11.2498C14.3536 11.2498 13.8216 10.7582 13.7576 10.1282L13.7512 9.99843C13.5317 10 13.3137 9.90374 13.1656 9.71867C12.9303 9.42468 12.9522 9.00789 13.2011 8.74007L13.2825 8.66447L15.7813 6.66447L13.2825 8.66447Z" fill="#262627"/>
</svg>
