<svg width="20" height="20" viewBox="0 0 20 20" fill="none" xmlns="http://www.w3.org/2000/svg">
<path d="M10.0001 -0.0010376C15.5238 -0.0010376 20.0016 4.47681 20.0016 10.0005C20.0016 15.5242 15.5238 20.0021 10.0001 20.0021C4.47638 20.0021 -0.00146484 15.5242 -0.00146484 10.0005C-0.00146484 4.47681 4.47638 -0.0010376 10.0001 -0.0010376ZM10.0001 1.49896C5.30481 1.49896 1.49854 5.30524 1.49854 10.0005C1.49854 14.6958 5.30481 18.5021 10.0001 18.5021C14.6954 18.5021 18.5016 14.6958 18.5016 10.0005C18.5016 5.30524 14.6954 1.49896 10.0001 1.49896ZM10.0001 11.498C11.6313 11.498 13.1605 12.1529 14.2811 13.2934C14.5714 13.5889 14.5673 14.0637 14.2718 14.3541C13.9764 14.6444 13.5015 14.6402 13.2112 14.3447C12.3697 13.4884 11.2248 12.998 10.0001 12.998C8.7727 12.998 7.62544 13.4905 6.78356 14.3503C6.49376 14.6462 6.01891 14.6512 5.72296 14.3614C5.42701 14.0716 5.42203 13.5967 5.71184 13.3008C6.83305 12.1558 8.36524 11.498 10.0001 11.498ZM7.00053 6.75115C7.6905 6.75115 8.24982 7.31048 8.24982 8.00044C8.24982 8.69041 7.6905 9.24973 7.00053 9.24973C6.31057 9.24973 5.75124 8.69041 5.75124 8.00044C5.75124 7.31048 6.31057 6.75115 7.00053 6.75115ZM13.0005 6.75115C13.6905 6.75115 14.2498 7.31048 14.2498 8.00044C14.2498 8.69041 13.6905 9.24973 13.0005 9.24973C12.3106 9.24973 11.7512 8.69041 11.7512 8.00044C11.7512 7.31048 12.3106 6.75115 13.0005 6.75115Z" fill="#262627"/>
</svg>
