<svg width="20" height="20" viewBox="0 0 20 20" fill="none" xmlns="http://www.w3.org/2000/svg">
<path d="M10.0001 -0.0010376C15.5238 -0.0010376 20.0016 4.47681 20.0016 10.0005C20.0016 15.5242 15.5238 20.0021 10.0001 20.0021C4.47638 20.0021 -0.00146484 15.5242 -0.00146484 10.0005C-0.00146484 4.47681 4.47638 -0.0010376 10.0001 -0.0010376ZM6.46183 12.7838C6.20548 12.4585 5.73391 12.4025 5.40855 12.6589C5.08319 12.9152 5.02725 13.3868 5.2836 13.7122C6.4142 15.1471 8.13743 16.0021 10.0001 16.0021C11.8602 16.0021 13.5814 15.1494 14.7122 13.7177C14.9689 13.3927 14.9135 12.921 14.5884 12.6643C14.2634 12.4076 13.7918 12.4629 13.535 12.788C12.6858 13.8633 11.3963 14.5021 10.0001 14.5021C8.60198 14.5021 7.31096 13.8616 6.46183 12.7838ZM7.00053 6.75115C6.31057 6.75115 5.75124 7.31048 5.75124 8.00044C5.75124 8.69041 6.31057 9.24973 7.00053 9.24973C7.6905 9.24973 8.24982 8.69041 8.24982 8.00044C8.24982 7.31048 7.6905 6.75115 7.00053 6.75115ZM13.0005 6.75115C12.3106 6.75115 11.7512 7.31048 11.7512 8.00044C11.7512 8.69041 12.3106 9.24973 13.0005 9.24973C13.6905 9.24973 14.2498 8.69041 14.2498 8.00044C14.2498 7.31048 13.6905 6.75115 13.0005 6.75115Z" fill="#262627"/>
</svg>
