<svg width="20" height="20" viewBox="0 0 20 20" fill="none" xmlns="http://www.w3.org/2000/svg">
<path d="M10 0C4.47715 0 0 4.47715 0 10C0 15.5228 4.47715 20 10 20C15.5228 20 20 15.5228 20 10C20 4.47715 15.5228 0 10 0ZM8.2498 8.00045C8.2498 8.69041 7.69047 9.24974 7.00051 9.24974C6.31055 9.24974 5.75122 8.69041 5.75122 8.00045C5.75122 7.31049 6.31055 6.75116 7.00051 6.75116C7.69047 6.75116 8.2498 7.31049 8.2498 8.00045ZM14.2498 8.00045C14.2498 8.69041 13.6905 9.24974 13.0005 9.24974C12.3105 9.24974 11.7512 8.69041 11.7512 8.00045C11.7512 7.31049 12.3105 6.75116 13.0005 6.75116C13.6905 6.75116 14.2498 7.31049 14.2498 8.00045ZM5.5 13.75C5.5 13.3358 5.83579 13 6.25 13H13.75C14.1642 13 14.5 13.3358 14.5 13.75C14.5 14.1642 14.1642 14.5 13.75 14.5H6.25C5.83579 14.5 5.5 14.1642 5.5 13.75Z" fill="#262627"/>
</svg>
