<svg width="20" height="20" viewBox="0 0 20 20" fill="none" xmlns="http://www.w3.org/2000/svg">
<path d="M10.0001 -0.0010376C15.5238 -0.0010376 20.0016 4.47681 20.0016 10.0005C20.0016 15.5242 15.5238 20.0021 10.0001 20.0021C4.47638 20.0021 -0.00146484 15.5242 -0.00146484 10.0005C-0.00146484 4.47681 4.47638 -0.0010376 10.0001 -0.0010376ZM10.0001 11.498C8.36524 11.498 6.83305 12.1558 5.71184 13.3008C5.42203 13.5967 5.42701 14.0716 5.72296 14.3614C6.01891 14.6512 6.49376 14.6462 6.78356 14.3503C7.62544 13.4905 8.7727 12.998 10.0001 12.998C11.2248 12.998 12.3697 13.4884 13.2112 14.3447C13.5015 14.6402 13.9764 14.6444 14.2718 14.3541C14.5673 14.0637 14.5714 13.5889 14.2811 13.2934C13.1605 12.1529 11.6313 11.498 10.0001 11.498ZM7.00053 6.75115C6.31057 6.75115 5.75124 7.31048 5.75124 8.00044C5.75124 8.69041 6.31057 9.24973 7.00053 9.24973C7.6905 9.24973 8.24982 8.69041 8.24982 8.00044C8.24982 7.31048 7.6905 6.75115 7.00053 6.75115ZM13.0005 6.75115C12.3106 6.75115 11.7512 7.31048 11.7512 8.00044C11.7512 8.69041 12.3106 9.24973 13.0005 9.24973C13.6905 9.24973 14.2498 8.69041 14.2498 8.00044C14.2498 7.31048 13.6905 6.75115 13.0005 6.75115Z" fill="#262627"/>
</svg>
