<svg width="24" height="24" viewBox="0 0 24 24" fill="none" xmlns="http://www.w3.org/2000/svg">
<path d="M12.0001 1.99896C17.5238 1.99896 22.0016 6.47681 22.0016 12.0005C22.0016 17.5242 17.5238 22.0021 12.0001 22.0021C6.47638 22.0021 1.99854 17.5242 1.99854 12.0005C1.99854 6.47681 6.47638 1.99896 12.0001 1.99896ZM12.0001 13.498C10.3652 13.498 8.83305 14.1558 7.71184 15.3008C7.42203 15.5967 7.42701 16.0716 7.72296 16.3614C8.01891 16.6512 8.49376 16.6462 8.78356 16.3503C9.62544 15.4905 10.7727 14.998 12.0001 14.998C13.2248 14.998 14.3697 15.4884 15.2112 16.3447C15.5015 16.6402 15.9764 16.6444 16.2718 16.3541C16.5673 16.0637 16.5714 15.5889 16.2811 15.2934C15.1605 14.1529 13.6313 13.498 12.0001 13.498ZM9.00053 8.75115C8.31057 8.75115 7.75124 9.31048 7.75124 10.0004C7.75124 10.6904 8.31057 11.2497 9.00053 11.2497C9.6905 11.2497 10.2498 10.6904 10.2498 10.0004C10.2498 9.31048 9.6905 8.75115 9.00053 8.75115ZM15.0005 8.75115C14.3106 8.75115 13.7512 9.31048 13.7512 10.0004C13.7512 10.6904 14.3106 11.2497 15.0005 11.2497C15.6905 11.2497 16.2498 10.6904 16.2498 10.0004C16.2498 9.31048 15.6905 8.75115 15.0005 8.75115Z" fill="#262627"/>
</svg>
