<svg width="20" height="20" viewBox="0 0 20 20" fill="none" xmlns="http://www.w3.org/2000/svg">
<path d="M1.28034 0.219675C0.987445 -0.0732209 0.512571 -0.0732257 0.219675 0.219665C-0.0732209 0.512555 -0.0732257 0.987429 0.219665 1.28032L4.93924 6H1.75C1.33579 6 1 6.33579 1 6.75C1 7.16421 1.33579 7.5 1.75 7.5H6.43921L11.4391 12.5H1.75C1.33579 12.5 1 12.8358 1 13.25C1 13.6642 1.33579 14 1.75 14H12.9391L18.7194 19.7805C19.0123 20.0734 19.4872 20.0734 19.7801 19.7805C20.073 19.4876 20.073 19.0127 19.7801 18.7198L1.28034 0.219675ZM18.25 12.5H15.6817L17.1817 14H18.25C18.6642 14 19 13.6642 19 13.25C19 12.8358 18.6642 12.5 18.25 12.5ZM9.18187 6L10.6818 7.5H18.25C18.6642 7.5 19 7.16421 19 6.75C19 6.33579 18.6642 6 18.25 6H9.18187Z" fill="#262627"/>
</svg>
