<svg width="24" height="24" viewBox="0 0 24 24" fill="none" xmlns="http://www.w3.org/2000/svg">
<path d="M15.8697 2.66881L20.8382 7.63733C21.7169 8.51601 21.7169 9.94063 20.8382 10.8193L12.1564 19.4998L18.2543 19.5C18.634 19.5 18.9478 19.7821 18.9975 20.1482L19.0043 20.25C19.0043 20.6297 18.7222 20.9435 18.3561 20.9931L18.2543 21L9.84431 21.0012C9.2281 21.0349 8.6007 20.8163 8.12998 20.3456L3.16145 15.3771C2.28277 14.4984 2.28277 13.0738 3.16145 12.1951L12.6877 2.66881C13.5664 1.79013 14.991 1.79013 15.8697 2.66881ZM5.70844 11.7678L4.22211 13.2557C3.92922 13.5486 3.92922 14.0235 4.22211 14.3164L9.19064 19.2849C9.33708 19.4314 9.52903 19.5046 9.72097 19.5046L9.74985 19.5L9.78834 19.5016C9.95725 19.4864 10.122 19.4142 10.2513 19.2849L11.7374 17.7978L5.70844 11.7678ZM13.7484 3.72947L6.76944 10.7068L12.7984 16.7368L19.7776 9.75865C20.0705 9.46576 20.0705 8.99089 19.7776 8.69799L14.8091 3.72947C14.5162 3.43657 14.0413 3.43657 13.7484 3.72947Z" fill="#262627"/>
</svg>
