<svg width="20" height="19" viewBox="0 0 20 19" fill="none" xmlns="http://www.w3.org/2000/svg">
<path d="M13.8697 0.668806L18.8382 5.63733C19.7169 6.51601 19.7169 7.94063 18.8382 8.81931L10.1564 17.4998L16.2543 17.5C16.634 17.5 16.9478 17.7821 16.9975 18.1482L17.0043 18.25C17.0043 18.6297 16.7222 18.9435 16.3561 18.9931L16.2543 19L7.84431 19.0012C7.2281 19.0349 6.6007 18.8163 6.12998 18.3456L1.16145 13.3771C0.282771 12.4984 0.282771 11.0738 1.16145 10.1951L10.6877 0.668806C11.5664 -0.209874 12.991 -0.209874 13.8697 0.668806ZM3.70844 9.7678L2.22211 11.2557C1.92922 11.5486 1.92922 12.0235 2.22211 12.3164L7.19064 17.2849C7.33708 17.4314 7.52903 17.5046 7.72097 17.5046L7.74985 17.5L7.78834 17.5016C7.95725 17.4864 8.122 17.4142 8.2513 17.2849L9.73744 15.7978L3.70844 9.7678ZM11.7484 1.72947L4.76944 8.7068L10.7984 14.7368L17.7776 7.75865C18.0705 7.46576 18.0705 6.99089 17.7776 6.69799L12.8091 1.72947C12.5162 1.43657 12.0413 1.43657 11.7484 1.72947Z" fill="#262627"/>
</svg>
