<svg width="24" height="24" viewBox="0 0 24 24" fill="none" xmlns="http://www.w3.org/2000/svg">
<path d="M12 1.99989C10.0222 1.99989 8.08879 2.58638 6.4443 3.6852C4.79981 4.78401 3.51809 6.3458 2.76121 8.17306C2.00433 10.0003 1.8063 12.011 2.19215 13.9508C2.578 15.8906 3.53041 17.6724 4.92894 19.071C6.32746 20.4695 8.10929 21.4219 10.0491 21.8077C11.9889 22.1936 13.9996 21.9956 15.8268 21.2387C17.6541 20.4818 19.2159 19.2001 20.3147 17.5556C21.4135 15.9111 22 13.9777 22 11.9999C21.9999 9.34775 20.9463 6.80425 19.071 4.9289C17.1956 3.05355 14.6521 1.99996 12 1.99989ZM11.2499 7.7577C11.2499 7.55879 11.3289 7.36803 11.4696 7.22737C11.6102 7.08672 11.801 7.0077 11.9999 7.0077C12.1988 7.0077 12.3896 7.08672 12.5302 7.22737C12.6709 7.36803 12.7499 7.55879 12.7499 7.7577V13.0009C12.7499 13.1998 12.6709 13.3906 12.5302 13.5312C12.3896 13.6719 12.1988 13.7509 11.9999 13.7509C11.801 13.7509 11.6102 13.6719 11.4696 13.5312C11.3289 13.3906 11.2499 13.1998 11.2499 13.0009V7.7577ZM12 16.9931C11.8191 16.9931 11.6423 16.9394 11.4919 16.839C11.3416 16.7385 11.2243 16.5957 11.1551 16.4286C11.0859 16.2615 11.0677 16.0776 11.103 15.9002C11.1382 15.7229 11.2253 15.5599 11.3531 15.432C11.481 15.304 11.6439 15.2169 11.8213 15.1816C11.9987 15.1462 12.1826 15.1643 12.3497 15.2334C12.5168 15.3026 12.6597 15.4197 12.7602 15.5701C12.8608 15.7204 12.9145 15.8972 12.9146 16.0781C12.9145 16.3207 12.8182 16.5533 12.6467 16.7249C12.4752 16.8965 12.2426 16.9929 12 16.9931Z" fill="#98332F"/>
</svg>
