<svg width="24" height="24" viewBox="0 0 24 24" fill="none" xmlns="http://www.w3.org/2000/svg">
<path d="M12 2.00001C10.0222 2.00001 8.08879 2.5865 6.4443 3.68531C4.79981 4.78413 3.51809 6.34591 2.76121 8.17317C2.00433 10.0004 1.8063 12.0111 2.19215 13.9509C2.578 15.8907 3.53041 17.6726 4.92894 19.0711C6.32746 20.4696 8.10929 21.422 10.0491 21.8079C11.9889 22.1937 13.9996 21.9957 15.8268 21.2388C17.6541 20.4819 19.2159 19.2002 20.3147 17.5557C21.4135 15.9112 22 13.9778 22 12C22.0001 10.6868 21.7414 9.38639 21.2389 8.17311C20.7364 6.95982 19.9998 5.85741 19.0712 4.92881C18.1426 4.00021 17.0402 3.26362 15.8269 2.76109C14.6136 2.25857 13.3132 1.99995 12 2.00001ZM12 20.5C10.3189 20.5 8.67548 20.0015 7.27766 19.0675C5.87984 18.1335 4.79037 16.806 4.14703 15.2528C3.50368 13.6996 3.33536 11.9906 3.66333 10.3417C3.9913 8.6929 4.80085 7.17835 5.9896 5.9896C7.17834 4.80085 8.6929 3.99131 10.3417 3.66333C11.9906 3.33536 13.6996 3.50369 15.2528 4.14703C16.806 4.79038 18.1335 5.87984 19.0675 7.27766C20.0015 8.67548 20.5 10.3189 20.5 12C20.4974 14.2535 19.601 16.414 18.0075 18.0075C16.414 19.601 14.2535 20.4974 12 20.5Z" fill="#262627"/>
<path d="M11.9999 13.7705C12.1988 13.7705 12.3896 13.6914 12.5302 13.5508C12.6708 13.4101 12.7499 13.2194 12.7499 13.0205V7.77736C12.7499 7.57845 12.6709 7.38768 12.5303 7.24703C12.3896 7.10638 12.1988 7.02736 11.9999 7.02736C11.801 7.02736 11.6102 7.10638 11.4696 7.24703C11.3289 7.38768 11.2499 7.57845 11.2499 7.77736V13.0205C11.25 13.2194 11.329 13.4101 11.4697 13.5508C11.6103 13.6914 11.801 13.7705 11.9999 13.7705Z" fill="#262627"/>
<path d="M11.9999 15.1836C11.8191 15.1836 11.6423 15.2372 11.4919 15.3377C11.3415 15.4382 11.2243 15.581 11.155 15.7481C11.0858 15.9152 11.0677 16.099 11.1029 16.2764C11.1382 16.4538 11.2252 16.6168 11.3531 16.7447C11.4809 16.8726 11.6439 16.9597 11.8212 16.9951C11.9986 17.0304 12.1825 17.0124 12.3496 16.9432C12.5167 16.8741 12.6596 16.7569 12.7601 16.6066C12.8607 16.4562 12.9144 16.2795 12.9145 16.0986C12.9145 15.856 12.8181 15.6233 12.6466 15.4518C12.4751 15.2802 12.2425 15.1837 11.9999 15.1836Z" fill="#262627"/>
</svg>
