<svg width="24" height="24" viewBox="0 0 24 24" fill="none" xmlns="http://www.w3.org/2000/svg">
<path d="M12.0006 8.65553C14.2724 8.65553 16.114 10.5235 16.114 12.8278C16.114 15.132 14.2724 17 12.0006 17C9.72887 17 7.88725 15.132 7.88725 12.8278C7.88725 10.5235 9.72887 8.65553 12.0006 8.65553ZM12.0006 10.2201C10.5808 10.2201 9.42977 11.3876 9.42977 12.8278C9.42977 14.2679 10.5808 15.4354 12.0006 15.4354C13.4205 15.4354 14.5715 14.2679 14.5715 12.8278C14.5715 11.3876 13.4205 10.2201 12.0006 10.2201ZM12.0006 5C16.7449 5 20.8404 8.28564 21.9767 12.8901C22.0802 13.3092 21.8291 13.734 21.4158 13.8389C21.0026 13.9439 20.5838 13.6891 20.4804 13.27C19.5149 9.35786 16.0331 6.56459 12.0006 6.56459C7.96636 6.56459 4.48353 9.36026 3.51972 13.2747C3.41651 13.6939 2.99783 13.9489 2.58457 13.8442C2.17131 13.7395 1.91996 13.3148 2.02316 12.8956C3.15752 8.28847 7.25428 5 12.0006 5Z" fill="#262627"/>
</svg>
