<svg width="24" height="24" viewBox="0 0 24 24" fill="none" xmlns="http://www.w3.org/2000/svg">
<path d="M14.8581 12.1578C15.4179 12.7312 15.7347 13.4258 15.9642 14.3864L16.0637 14.8425L16.2427 15.7889C16.3318 16.2337 16.4006 16.4807 16.497 16.6966C16.7977 17.3704 17.3271 18.0609 18.0924 18.7626C18.3978 19.0425 18.4184 19.5169 18.1385 19.8222C17.8586 20.1276 17.3842 20.1482 17.0788 19.8683C16.1715 19.0365 15.5185 18.1848 15.1272 17.3079C14.9783 16.9743 14.8877 16.6574 14.7807 16.128L14.5704 15.0274L14.5576 14.9672C14.377 14.1182 14.1537 13.5835 13.7848 13.2057C13.0721 12.4758 11.4282 12.6687 10.9882 13.3644C10.4264 14.2527 10.2831 15.7603 10.7292 17.28C11.0739 18.4541 11.5312 19.6096 12.1016 20.7467C12.2873 21.1169 12.1377 21.5676 11.7674 21.7533C11.3972 21.9391 10.9465 21.7895 10.7608 21.4192C10.1505 20.2026 9.66012 18.9636 9.28992 17.7025C8.72844 15.7898 8.914 13.8378 9.72047 12.5626C10.6735 11.0557 13.4624 10.7284 14.8581 12.1578ZM12.4924 14.4731C12.9064 14.4594 13.2532 14.7838 13.267 15.1978C13.3184 16.745 13.8217 18.2407 14.711 19.5019L14.9075 19.7685L15.2077 20.1585C15.4603 20.4868 15.399 20.9577 15.0708 21.2103C14.7724 21.44 14.3561 21.4102 14.0931 21.1563L14.019 21.0734L13.7188 20.6834C12.5157 19.1203 11.8333 17.2191 11.7678 15.2477C11.754 14.8337 12.0785 14.4869 12.4924 14.4731ZM8.78313 9.39052C10.895 7.82691 13.6574 7.91177 15.5156 9.10619C16.4456 9.70393 17.1498 10.4009 17.618 11.1996C17.8275 11.5569 17.7076 12.0164 17.3503 12.2259C16.993 12.4354 16.5335 12.3155 16.324 11.9582C15.9823 11.3754 15.446 10.8446 14.7046 10.368C13.3421 9.49222 11.2532 9.42805 9.67571 10.5961C8.03713 11.8093 7.34727 13.8873 7.55271 16.0779C7.66777 17.3048 8.0375 18.5452 8.66591 19.8018C8.85118 20.1722 8.70104 20.6228 8.33057 20.808C7.9601 20.9933 7.50958 20.8431 7.32431 20.4727C6.61523 19.0548 6.19221 17.6356 6.05926 16.218C5.80895 13.5488 6.66999 10.9551 8.78313 9.39052ZM17.9629 13.6916C18.3766 13.6703 18.7291 13.9884 18.7504 14.402C18.7815 15.0051 18.9305 15.4982 19.1919 15.8949C19.4114 16.228 19.6064 16.4204 19.7553 16.4946L19.8162 16.5193C20.2127 16.6391 20.437 17.0577 20.3171 17.4542C20.1972 17.8507 19.7786 18.0749 19.3821 17.9551C18.8356 17.7898 18.3655 17.367 17.9393 16.7202C17.5237 16.0895 17.2966 15.338 17.2524 14.4791C17.2311 14.0654 17.5492 13.7128 17.9629 13.6916ZM10.5107 6.10211C10.6807 6.47983 10.5124 6.92385 10.1346 7.09386C8.29447 7.9221 6.94045 9.10239 6.05097 10.6425C4.93773 12.5701 4.63745 14.8235 4.88668 16.7226C4.94058 17.1333 4.65134 17.5099 4.24065 17.5638C3.82996 17.6177 3.45333 17.3285 3.39944 16.9178C3.11063 14.7171 3.45409 12.1398 4.75204 9.89236C5.80385 8.07113 7.40004 6.67974 9.519 5.72602C9.89671 5.55601 10.3407 5.7244 10.5107 6.10211ZM12.8544 5.31502C14.6843 5.35252 16.5059 6.19338 18.3131 7.80138C20.136 9.4233 21.2346 11.628 21.6075 14.3816C21.663 14.792 21.3754 15.1699 20.9649 15.2254C20.5544 15.281 20.1766 14.9933 20.121 14.5829C19.7944 12.1713 18.8599 10.2956 17.3161 8.92203C15.7566 7.53453 14.2611 6.84416 12.8237 6.8147C12.4096 6.80622 12.0807 6.46362 12.0892 6.04949C12.0977 5.63537 12.4403 5.30653 12.8544 5.31502ZM5.98293 5.32942C6.25842 5.63874 6.23099 6.11282 5.92167 6.38831C5.65355 6.62711 5.37219 6.91215 5.07841 7.24332C4.80207 7.55483 4.51899 7.95921 4.2321 8.45591C4.02493 8.81459 3.56621 8.93741 3.20753 8.73024C2.84885 8.52307 2.72602 8.06435 2.93319 7.70567C3.26766 7.1266 3.60772 6.64085 3.9563 6.2479C4.28745 5.87461 4.60977 5.54807 4.92404 5.26816C5.23336 4.99267 5.70744 5.0201 5.98293 5.32942ZM12.5685 2.36349C14.7612 2.4662 16.5977 3.0657 18.0982 4.22441C18.4261 4.47758 18.4866 4.94857 18.2334 5.27642C17.9803 5.60426 17.5093 5.6648 17.1814 5.41164C15.9361 4.45001 14.3959 3.95074 12.4983 3.86185C10.5951 3.7727 9.03668 4.14593 7.78368 4.84088C7.39971 5.05384 6.96885 4.94727 6.75207 4.59432C6.53529 4.24136 6.63272 3.77795 6.99864 3.56271C8.53436 2.65937 10.3813 2.26104 12.5685 2.36349Z" fill="#262627"/>
</svg>
