<svg width="20" height="20" viewBox="0 0 20 20" fill="none" xmlns="http://www.w3.org/2000/svg">
<path d="M12.8581 10.1578C13.4179 10.7312 13.7347 11.4258 13.9642 12.3864L14.0637 12.8425L14.2427 13.7889C14.3318 14.2337 14.4006 14.4807 14.497 14.6966C14.7977 15.3704 15.3271 16.0609 16.0924 16.7626C16.3978 17.0425 16.4184 17.5169 16.1385 17.8222C15.8586 18.1276 15.3842 18.1482 15.0788 17.8683C14.1715 17.0365 13.5185 16.1848 13.1272 15.3079C12.9783 14.9743 12.8877 14.6574 12.7807 14.128L12.5704 13.0274L12.5576 12.9672C12.377 12.1182 12.1537 11.5835 11.7848 11.2057C11.0721 10.4758 9.42817 10.6687 8.98821 11.3644C8.4264 12.2527 8.28308 13.7603 8.72919 15.28C9.07387 16.4541 9.5312 17.6096 10.1016 18.7467C10.2873 19.1169 10.1377 19.5676 9.76744 19.7533C9.3972 19.9391 8.9465 19.7895 8.76079 19.4192C8.15054 18.2026 7.66012 16.9636 7.28992 15.7025C6.72844 13.7898 6.914 11.8378 7.72047 10.5626C8.67353 9.05565 11.4624 8.72839 12.8581 10.1578ZM10.4924 12.4731C10.9064 12.4594 11.2532 12.7838 11.267 13.1978C11.3184 14.745 11.8217 16.2407 12.711 17.5019L12.9075 17.7685L13.2077 18.1585C13.4603 18.4868 13.399 18.9577 13.0708 19.2103C12.7724 19.44 12.3561 19.4102 12.0931 19.1563L12.019 19.0734L11.7188 18.6834C10.5157 17.1203 9.83333 15.2191 9.76777 13.2477C9.75401 12.8337 10.0785 12.4869 10.4924 12.4731ZM6.78313 7.39052C8.89497 5.82691 11.6574 5.91177 13.5156 7.10619C14.4456 7.70393 15.1498 8.40094 15.618 9.19956C15.8275 9.55689 15.7076 10.0164 15.3503 10.2259C14.993 10.4354 14.5335 10.3155 14.324 9.95819C13.9823 9.3754 13.446 8.84457 12.7046 8.36801C11.3421 7.49222 9.25322 7.42805 7.67571 8.59605C6.03713 9.80926 5.34727 11.8873 5.55271 14.0779C5.66777 15.3048 6.0375 16.5452 6.66591 17.8018C6.85118 18.1722 6.70104 18.6228 6.33057 18.808C5.9601 18.9933 5.50958 18.8431 5.32431 18.4727C4.61523 17.0548 4.19221 15.6356 4.05926 14.218C3.80895 11.5488 4.66999 8.9551 6.78313 7.39052ZM15.9629 11.6916C16.3766 11.6703 16.7291 11.9884 16.7504 12.402C16.7815 13.0051 16.9305 13.4982 17.1919 13.8949C17.4114 14.228 17.6064 14.4204 17.7553 14.4946L17.8162 14.5193C18.2127 14.6391 18.437 15.0577 18.3171 15.4542C18.1972 15.8507 17.7786 16.0749 17.3821 15.9551C16.8356 15.7898 16.3655 15.367 15.9393 14.7202C15.5237 14.0895 15.2966 13.338 15.2524 12.4791C15.2311 12.0654 15.5492 11.7128 15.9629 11.6916ZM8.51074 4.10211C8.68075 4.47983 8.51236 4.92385 8.13465 5.09386C6.29447 5.9221 4.94045 7.10239 4.05097 8.64253C2.93773 10.5701 2.63745 12.8235 2.88668 14.7226C2.94058 15.1333 2.65134 15.5099 2.24065 15.5638C1.82996 15.6177 1.45333 15.3285 1.39944 14.9178C1.11063 12.7171 1.45409 10.1398 2.75204 7.89236C3.80385 6.07113 5.40004 4.67974 7.519 3.72602C7.89671 3.55601 8.34073 3.7244 8.51074 4.10211ZM10.8544 3.31502C12.6843 3.35252 14.5059 4.19338 16.3131 5.80138C18.136 7.4233 19.2346 9.62798 19.6075 12.3816C19.663 12.792 19.3754 13.1699 18.9649 13.2254C18.5544 13.281 18.1766 12.9933 18.121 12.5829C17.7944 10.1713 16.8599 8.29561 15.3161 6.92203C13.7566 5.53453 12.2611 4.84416 10.8237 4.8147C10.4096 4.80622 10.0807 4.46362 10.0892 4.04949C10.0977 3.63537 10.4403 3.30653 10.8544 3.31502ZM3.98293 3.32942C4.25842 3.63874 4.23099 4.11282 3.92167 4.38831C3.65355 4.62711 3.37219 4.91215 3.07841 5.24332C2.80207 5.55483 2.51899 5.95921 2.2321 6.45591C2.02493 6.81459 1.56621 6.93741 1.20753 6.73024C0.848846 6.52307 0.726022 6.06435 0.933193 5.70567C1.26766 5.1266 1.60772 4.64085 1.9563 4.2479C2.28745 3.87461 2.60977 3.54807 2.92404 3.26816C3.23336 2.99267 3.70744 3.0201 3.98293 3.32942ZM10.5685 0.363493C12.7612 0.466202 14.5977 1.0657 16.0982 2.22441C16.4261 2.47758 16.4866 2.94857 16.2334 3.27642C15.9803 3.60426 15.5093 3.6648 15.1814 3.41164C13.9361 2.45001 12.3959 1.95074 10.4983 1.86185C8.59513 1.7727 7.03668 2.14593 5.78368 2.84088C5.39971 3.05384 4.96885 2.94727 4.75207 2.59432C4.53529 2.24136 4.63272 1.77795 4.99864 1.56271C6.53436 0.659367 8.38133 0.261043 10.5685 0.363493Z" fill="#262627"/>
</svg>
