<svg width="18" height="19" viewBox="0 0 18 19" fill="none" xmlns="http://www.w3.org/2000/svg">
<path d="M0 0.747559C0 0.333345 0.335786 -0.00244141 0.75 -0.00244141H17.2541C17.8722 -0.00244141 18.225 0.703206 17.8541 1.19762L13.6898 6.74878L17.8541 12.2999C18.225 12.7944 17.8722 13.5 17.2541 13.5L1.5 13.4996V18.2494C1.5 18.6291 1.21785 18.9429 0.851771 18.9925L0.75 18.9994C0.370304 18.9994 0.0565091 18.7172 0.00684667 18.3512L0 18.2494V0.747559ZM15.7539 1.49756H1.5V12H15.7539L12.1522 7.19885C11.9522 6.93215 11.9522 6.56541 12.1522 6.29872L15.7539 1.49756Z" fill="#262627"/>
</svg>
