<svg width="24" height="24" viewBox="0 0 24 24" fill="none" xmlns="http://www.w3.org/2000/svg">
<path d="M3 3.74756C3 3.33335 3.33579 2.99756 3.75 2.99756H20.2541C20.8722 2.99756 21.225 3.70321 20.8541 4.19762L16.6898 9.74878L20.8541 15.2999C21.225 15.7944 20.8722 16.5 20.2541 16.5L4.5 16.4996V21.2494C4.5 21.6291 4.21785 21.9429 3.85177 21.9925L3.75 21.9994C3.3703 21.9994 3.05651 21.7172 3.00685 21.3512L3 21.2494V3.74756ZM18.7539 4.49756H4.5V15H18.7539L15.1522 10.1988C14.9522 9.93215 14.9522 9.56541 15.1522 9.29872L18.7539 4.49756Z" fill="#262627"/>
</svg>
