<svg width="16" height="18" viewBox="0 0 16 18" fill="none" xmlns="http://www.w3.org/2000/svg">
<path d="M4 1.5H4.99998V7.73821C4.99998 8.11316 4.90628 8.48216 4.72739 8.81168L1.14269 15.415C0.50968 16.5811 1.35388 17.9999 2.68068 17.9999H13.3193C14.6461 17.9999 15.4903 16.5811 14.8573 15.415L11.2726 8.81168C11.0937 8.48216 11 8.11316 11 7.73821V1.5H12C12.4142 1.5 12.75 1.16421 12.75 0.75C12.75 0.335786 12.4142 0 12 0H4C3.58579 0 3.25 0.335786 3.25 0.75C3.25 1.16421 3.58579 1.5 4 1.5ZM6.49998 7.73821V1.5H9.49998V7.73821C9.49998 8.36312 9.65614 8.97812 9.95428 9.52732L10.7537 11H5.24621L6.04567 9.52732C6.34381 8.97812 6.49998 8.36312 6.49998 7.73821ZM4.43192 12.5H11.568L13.539 16.1307C13.6294 16.2973 13.5088 16.4999 13.3193 16.4999H2.68068C2.49114 16.4999 2.37054 16.2973 2.46097 16.1307L4.43192 12.5Z" fill="#262627"/>
</svg>
