<svg width="20" height="16" viewBox="0 0 20 16" fill="none" xmlns="http://www.w3.org/2000/svg">
<path d="M5.96917e-05 2.24922C0.00048807 1.00689 1.00772 0 2.25006 0H6.20558C6.73112 0 7.24008 0.183964 7.64417 0.519977L10.0252 2.49988H15.7505C16.9931 2.49988 18.0005 3.50724 18.0005 4.74988V5.50195H4.42154C3.38876 5.50195 2.4886 6.20506 2.23851 7.2071L0.316483 14.9079C0.315487 14.9118 0.359434 14.7356 0.316483 14.9079C0.112947 14.5694 -0.00405203 14.173 -0.00390611 13.7492L5.96917e-05 2.24922ZM1.74496 15.3789C1.66621 15.6945 1.90488 16 2.23008 16H16.4698C17.2727 16 17.9727 15.4535 18.1675 14.6745L19.9307 7.62325C20.0096 7.30767 19.7709 7.00195 19.4456 7.00195H4.42154C4.07728 7.00195 3.77723 7.23632 3.69386 7.57034L1.74496 15.3789Z" fill="#262627"/>
</svg>
