<svg width="20" height="16" viewBox="0 0 20 16" fill="none" xmlns="http://www.w3.org/2000/svg">
<path d="M18.0005 5.50198V4.74988C18.0005 3.50724 16.9931 2.49988 15.7505 2.49988H10.0252L7.64417 0.519977C7.24008 0.183963 6.73112 0 6.20558 0H2.25006C1.00772 0 0.000488071 1.00689 5.96922e-05 2.24922L-0.00390611 13.7492C-0.00433442 14.9922 1.00315 16 2.24609 16H2.27245C2.27656 16 2.28068 16 2.2848 16H16.4698C17.2728 16 17.9727 15.4536 18.1675 14.6746L19.9174 7.67651C20.1936 6.57198 19.3582 5.50198 18.2197 5.50198H18.0005ZM2.25006 1.5H6.20558C6.38076 1.5 6.55041 1.56132 6.68511 1.67333L9.27455 3.82655C9.40924 3.93855 9.5789 3.99988 9.75408 3.99988H15.7505C16.1647 3.99988 16.5005 4.33566 16.5005 4.74988V5.50198H4.42434C3.39184 5.50198 2.49186 6.20471 2.24149 7.20639L1.49732 10.1837L1.50006 2.24974C1.5002 1.83563 1.83595 1.5 2.25006 1.5ZM3.69672 7.57012C3.78018 7.23623 4.08017 7.00198 4.42434 7.00198H18.2197C18.3823 7.00198 18.5017 7.15484 18.4622 7.31263L16.7123 14.3107C16.6845 14.422 16.5845 14.5 16.4698 14.5H2.2848C2.12216 14.5 2.00282 14.3472 2.04226 14.1894L3.69672 7.57012Z" fill="#262627"/>
</svg>
