<svg width="18" height="18" viewBox="0 0 18 18" fill="none" xmlns="http://www.w3.org/2000/svg">
<path d="M5.5 0.75C5.5 0.335786 5.16421 0 4.75 0C4.33579 0 4 0.335786 4 0.75V3.25C4 3.66421 3.66421 4 3.25 4H0.75C0.335786 4 0 4.33579 0 4.75C0 5.16421 0.335786 5.5 0.75 5.5H3.25C4.49264 5.5 5.5 4.49264 5.5 3.25V0.75ZM5.5 17.25C5.5 17.6642 5.16421 18 4.75 18C4.33579 18 4 17.6642 4 17.25V14.75C4 14.3358 3.66421 14 3.25 14H0.75C0.335786 14 0 13.6642 0 13.25C0 12.8358 0.335786 12.5 0.75 12.5H3.25C4.49264 12.5 5.5 13.5074 5.5 14.75V17.25ZM13.25 0C12.8358 0 12.5 0.335786 12.5 0.75V3.25C12.5 4.49264 13.5074 5.5 14.75 5.5H17.25C17.6642 5.5 18 5.16421 18 4.75C18 4.33579 17.6642 4 17.25 4H14.75C14.3358 4 14 3.66421 14 3.25V0.75C14 0.335786 13.6642 0 13.25 0ZM12.5 17.25C12.5 17.6642 12.8358 18 13.25 18C13.6642 18 14 17.6642 14 17.25V14.75C14 14.3358 14.3358 14 14.75 14H17.25C17.6642 14 18 13.6642 18 13.25C18 12.8358 17.6642 12.5 17.25 12.5H14.75C13.5074 12.5 12.5 13.5074 12.5 14.75V17.25Z" fill="#262627"/>
</svg>
