<svg width="18" height="18" viewBox="0 0 18 18" fill="none" xmlns="http://www.w3.org/2000/svg">
<path d="M1.5 2.75C1.5 2.05964 2.05964 1.5 2.75 1.5H4.75C5.16421 1.5 5.5 1.16421 5.5 0.75C5.5 0.335786 5.16421 0 4.75 0H2.75C1.23122 0 0 1.23122 0 2.75V4.75C0 5.16421 0.335786 5.5 0.75 5.5C1.16421 5.5 1.5 5.16421 1.5 4.75V2.75ZM1.5 15.25C1.5 15.9404 2.05964 16.5 2.75 16.5H4.75C5.16421 16.5 5.5 16.8358 5.5 17.25C5.5 17.6642 5.16421 18 4.75 18H2.75C1.23122 18 0 16.7688 0 15.25V13.25C0 12.8358 0.335786 12.5 0.75 12.5C1.16421 12.5 1.5 12.8358 1.5 13.25V15.25ZM15.25 1.5C15.9404 1.5 16.5 2.05964 16.5 2.75V4.75C16.5 5.16421 16.8358 5.5 17.25 5.5C17.6642 5.5 18 5.16421 18 4.75V2.75C18 1.23122 16.7688 0 15.25 0H13.25C12.8358 0 12.5 0.335786 12.5 0.75C12.5 1.16421 12.8358 1.5 13.25 1.5H15.25ZM16.5 15.25C16.5 15.9404 15.9404 16.5 15.25 16.5H13.25C12.8358 16.5 12.5 16.8358 12.5 17.25C12.5 17.6642 12.8358 18 13.25 18H15.25C16.7688 18 18 16.7688 18 15.25V13.25C18 12.8358 17.6642 12.5 17.25 12.5C16.8358 12.5 16.5 12.8358 16.5 13.25V15.25Z" fill="#262627"/>
</svg>
