<svg width="20" height="18" viewBox="0 0 20 18" fill="none" xmlns="http://www.w3.org/2000/svg">
<path d="M16.75 0.500549C18.5449 0.500549 20 1.95562 20 3.75055V14.2531C20 16.0481 18.5449 17.5031 16.75 17.5031H3.25C1.45507 17.5031 0 16.0481 0 14.2531V3.75055C0 1.95562 1.45507 0.500549 3.25 0.500549H16.75ZM16.75 2.00055H3.25C2.2835 2.00055 1.5 2.78405 1.5 3.75055V14.2531C1.5 15.2196 2.2835 16.0031 3.25 16.0031H16.75C17.7165 16.0031 18.5 15.2196 18.5 14.2531V3.75055C18.5 2.78405 17.7165 2.00055 16.75 2.00055ZM6.0146 5.87194C6.6115 5.87194 7.03353 5.95327 7.51677 6.18533C7.82793 6.33476 7.95904 6.70814 7.80962 7.01929C7.66019 7.33045 7.28682 7.46157 6.97566 7.31214C6.67583 7.16816 6.43601 7.12194 6.0146 7.12194C5.14789 7.12194 4.51104 7.91831 4.51104 8.99431C4.51104 10.0713 5.14873 10.8703 6.0146 10.8703C6.44322 10.8703 6.80607 10.6904 6.99484 10.3695L7.001 10.3545V9.62055L6.62522 9.6212C6.31142 9.6212 6.05164 9.38994 6.007 9.08856L6.00022 8.9962C6.00022 8.6824 6.23148 8.42262 6.53286 8.37798L6.62522 8.3712H7.62682C7.94062 8.3712 8.2004 8.60246 8.24504 8.90384L8.25182 8.9962L8.25049 10.5439L8.24413 10.5992L8.22297 10.6891L8.20247 10.7442C7.82607 11.6343 6.96156 12.1203 6.0146 12.1203C4.38858 12.1203 3.26104 10.7076 3.26104 8.99431C3.26104 7.28166 4.38839 5.87194 6.0146 5.87194ZM10.6289 5.99394C10.9427 5.99394 11.2025 6.2252 11.2472 6.52658L11.2539 6.61894V11.3811C11.2539 11.7262 10.9741 12.0061 10.6289 12.0061C10.3151 12.0061 10.0554 11.7748 10.0107 11.4734L10.0039 11.3811V6.61894C10.0039 6.27376 10.2838 5.99394 10.6289 5.99394ZM13.6248 5.99394L15.6222 6.00084C15.9673 6.00203 16.2462 6.28282 16.245 6.628C16.2439 6.94179 16.0118 7.20078 15.7102 7.24438L15.6178 7.25084L14.247 7.24555V8.99955L15.37 9.00041C15.6838 9.00041 15.9436 9.23167 15.9882 9.53305L15.995 9.62541C15.995 9.93921 15.7637 10.199 15.4624 10.2436L15.37 10.2504L14.247 10.2495L14.2476 11.365C14.2476 11.6788 14.0163 11.9386 13.715 11.9832L13.6226 11.99C13.3088 11.99 13.049 11.7587 13.0044 11.4573L12.9976 11.365V6.61678C12.9987 6.30299 13.2308 6.044 13.5324 6.0004L13.6248 5.99394Z" fill="#262627"/>
</svg>
