<svg width="24" height="24" viewBox="0 0 24 24" fill="none" xmlns="http://www.w3.org/2000/svg">
<path d="M18.75 3.50055C20.5449 3.50055 22 4.95562 22 6.75055V17.2531C22 19.0481 20.5449 20.5031 18.75 20.5031H5.25C3.45507 20.5031 2 19.0481 2 17.2531V6.75055C2 4.95562 3.45507 3.50055 5.25 3.50055H18.75ZM18.75 5.00055H5.25C4.2835 5.00055 3.5 5.78405 3.5 6.75055V17.2531C3.5 18.2196 4.2835 19.0031 5.25 19.0031H18.75C19.7165 19.0031 20.5 18.2196 20.5 17.2531V6.75055C20.5 5.78405 19.7165 5.00055 18.75 5.00055ZM8.0146 8.87194C8.6115 8.87194 9.03353 8.95327 9.51677 9.18533C9.82793 9.33476 9.95904 9.70814 9.80962 10.0193C9.66019 10.3305 9.28682 10.4616 8.97566 10.3121C8.67583 10.1682 8.43601 10.1219 8.0146 10.1219C7.14789 10.1219 6.51104 10.9183 6.51104 11.9943C6.51104 13.0713 7.14873 13.8703 8.0146 13.8703C8.44322 13.8703 8.80607 13.6904 8.99484 13.3695L9.001 13.3545V12.6205L8.62522 12.6212C8.31142 12.6212 8.05164 12.3899 8.007 12.0886L8.00022 11.9962C8.00022 11.6824 8.23148 11.4226 8.53286 11.378L8.62522 11.3712H9.62682C9.94062 11.3712 10.2004 11.6025 10.245 11.9038L10.2518 11.9962L10.2505 13.5439L10.2441 13.5992L10.223 13.6891L10.2025 13.7442C9.82607 14.6343 8.96156 15.1203 8.0146 15.1203C6.38858 15.1203 5.26104 13.7076 5.26104 11.9943C5.26104 10.2817 6.38839 8.87194 8.0146 8.87194ZM12.6289 8.99394C12.9427 8.99394 13.2025 9.2252 13.2472 9.52658L13.2539 9.61894V14.3811C13.2539 14.7262 12.9741 15.0061 12.6289 15.0061C12.3151 15.0061 12.0554 14.7748 12.0107 14.4734L12.0039 14.3811V9.61894C12.0039 9.27376 12.2838 8.99394 12.6289 8.99394ZM15.6248 8.99394L17.6222 9.00084C17.9673 9.00203 18.2462 9.28282 18.245 9.628C18.2439 9.94179 18.0118 10.2008 17.7102 10.2444L17.6178 10.2508L16.247 10.2455V11.9995L17.37 12.0004C17.6838 12.0004 17.9436 12.2317 17.9882 12.533L17.995 12.6254C17.995 12.9392 17.7637 13.199 17.4624 13.2436L17.37 13.2504L16.247 13.2495L16.2476 14.365C16.2476 14.6788 16.0163 14.9386 15.715 14.9832L15.6226 14.99C15.3088 14.99 15.049 14.7587 15.0044 14.4573L14.9976 14.365V9.61678C14.9987 9.30299 15.2308 9.044 15.5324 9.0004L15.6248 8.99394Z" fill="#262627"/>
</svg>
