<svg width="20" height="20" viewBox="0 0 20 20" fill="none" xmlns="http://www.w3.org/2000/svg">
<path d="M10 6.48106e-09C8.02219 6.48106e-09 6.08879 0.58649 4.4443 1.6853C2.79981 2.78412 1.51809 4.3459 0.761209 6.17317C0.00433284 8.00043 -0.193701 10.0111 0.192152 11.9509C0.578004 13.8907 1.53041 15.6725 2.92894 17.0711C4.32746 18.4696 6.10929 19.422 8.0491 19.8079C9.98891 20.1937 11.9996 19.9957 13.8268 19.2388C15.6541 18.4819 17.2159 17.2002 18.3147 15.5557C19.4135 13.9112 20 11.9778 20 10C20.0001 8.68677 19.7414 7.38639 19.2389 6.17311C18.7364 4.95983 17.9998 3.85742 17.0712 2.92883C16.1426 2.00023 15.0402 1.26364 13.8269 0.761108C12.6136 0.258578 11.3132 -4.72724e-05 10 6.48106e-09ZM14.3722 7.96973H18.2446C18.5851 9.30183 18.5851 10.6982 18.2446 12.0303H14.3722C14.431 11.3789 14.462 10.7002 14.462 10C14.462 9.2998 14.431 8.6211 14.3722 7.96973ZM17.7224 6.46973H14.1747C13.9524 4.83912 13.3855 3.2745 12.5118 1.87989C13.6535 2.23707 14.7073 2.83025 15.605 3.62096C16.5026 4.41167 17.2241 5.38225 17.7224 6.46973ZM9.96106 18.25C8.92945 18.25 7.81166 16.3721 7.27918 13.5303H12.6439C12.1115 16.3721 10.9934 18.25 9.96106 18.25ZM7.06556 12.0303C6.92623 10.6803 6.92623 9.31966 7.06556 7.96973H12.8576C12.9265 8.6443 12.9613 9.32192 12.9621 10C12.9614 10.6781 12.9265 11.3557 12.8576 12.0303H7.06556ZM9.96106 1.75C10.9933 1.75 12.1113 3.627 12.6439 6.46973H7.27918C7.81166 3.62696 8.92957 1.75 9.96106 1.75ZM7.38453 1.916C6.52741 3.30313 5.97009 4.85429 5.74842 6.46973H2.27759C2.76876 5.39953 3.47601 4.44251 4.35489 3.65884C5.23376 2.87517 6.26526 2.28178 7.38453 1.916ZM5.55091 12.0303H1.75538C1.41488 10.6982 1.41488 9.30183 1.75538 7.96973H5.55091C5.49207 8.6211 5.46106 9.29981 5.46106 10C5.46106 10.7002 5.49207 11.3789 5.55091 12.0303ZM2.27759 13.5303H5.74842C5.97001 15.1457 6.52729 16.6969 7.38442 18.084C6.26518 17.7182 5.2337 17.1248 4.35484 16.3411C3.47599 15.5575 2.76875 14.6005 2.27759 13.5303ZM12.512 18.1201C13.3856 16.7255 13.9524 15.1609 14.1747 13.5303H17.7224C17.2241 14.6178 16.5027 15.5883 15.6051 16.379C14.7074 17.1697 13.6536 17.7629 12.512 18.1201Z" fill="#262627"/>
</svg>
