<svg width="24" height="24" viewBox="0 0 24 24" fill="none" xmlns="http://www.w3.org/2000/svg">
<path d="M9.59641 4.42602C9.36327 4.18407 9.0663 4.01935 8.74293 3.95258C8.41962 3.88581 8.08445 3.92013 7.77992 4.05108C7.47533 4.18202 7.21498 4.40378 7.03185 4.68827C6.84871 4.97281 6.75098 5.30727 6.75098 5.64946C6.75098 5.99165 6.84871 6.32611 7.03185 6.61066C7.21498 6.89514 7.47533 7.1169 7.77992 7.24785C8.08445 7.37879 8.41962 7.41305 8.74293 7.34634C9.0663 7.27957 9.36327 7.11485 9.59641 6.8729C9.75129 6.71223 9.87414 6.52153 9.95792 6.31161C10.0418 6.10169 10.0849 5.87666 10.0849 5.64946C10.0849 5.4222 10.0418 5.19723 9.95792 4.98731C9.87414 4.77739 9.75129 4.58663 9.59641 4.42602Z" fill="#262627"/>
<path d="M6.75098 11.808C6.75098 12.7635 7.49725 13.5381 8.41782 13.5381C9.33839 13.5381 10.0847 12.7635 10.0847 11.808C10.0847 10.8525 9.33839 10.0779 8.41782 10.0779C7.49725 10.0779 6.75098 10.8525 6.75098 11.808Z" fill="#262627"/>
<path d="M8.41782 19.7596C7.49725 19.7596 6.75098 18.985 6.75098 18.0295C6.75098 17.074 7.49725 16.2994 8.41782 16.2994C9.33839 16.2994 10.0847 17.074 10.0847 18.0295C10.0847 18.985 9.33839 19.7596 8.41782 19.7596Z" fill="#262627"/>
<path d="M16.2625 4.58572C16.0294 4.34378 15.7324 4.17906 15.409 4.11229C15.0857 4.04552 14.7505 4.07984 14.446 4.21078C14.1414 4.34172 13.8811 4.56349 13.6979 4.84797C13.5148 5.13252 13.4171 5.46698 13.4171 5.80917C13.4171 6.15136 13.5148 6.48582 13.6979 6.77036C13.8811 7.05485 14.1414 7.27661 14.446 7.40755C14.7505 7.5385 15.0857 7.57276 15.409 7.50605C15.7324 7.43928 16.0294 7.27456 16.2625 7.03261C16.4174 6.87194 16.5402 6.68123 16.624 6.47131C16.7078 6.26139 16.751 6.03637 16.751 5.80917C16.751 5.58191 16.7078 5.35694 16.624 5.14702C16.5402 4.9371 16.4174 4.74634 16.2625 4.58572Z" fill="#262627"/>
<path d="M13.4171 11.9677C13.4171 12.9232 14.1633 13.6978 15.0839 13.6978C16.0045 13.6978 16.7508 12.9232 16.7508 11.9677C16.7508 11.0122 16.0045 10.2376 15.0839 10.2376C14.1633 10.2376 13.4171 11.0122 13.4171 11.9677Z" fill="#262627"/>
<path d="M15.0839 19.9193C14.1633 19.9193 13.4171 19.1447 13.4171 18.1892C13.4171 17.2337 14.1633 16.4591 15.0839 16.4591C16.0045 16.4591 16.7508 17.2337 16.7508 18.1892C16.7508 19.1447 16.0045 19.9193 15.0839 19.9193Z" fill="#262627"/>
</svg>
