<svg width="11" height="17" viewBox="0 0 11 17" fill="none" xmlns="http://www.w3.org/2000/svg">
<path d="M3.59641 1.42602C3.36327 1.18407 3.0663 1.01935 2.74293 0.952581C2.41962 0.88581 2.08445 0.920132 1.77992 1.05108C1.47533 1.18202 1.21498 1.40378 1.03185 1.68827C0.848708 1.97281 0.750977 2.30727 0.750977 2.64946C0.750977 2.99165 0.848708 3.32611 1.03185 3.61066C1.21498 3.89514 1.47533 4.1169 1.77992 4.24785C2.08445 4.37879 2.41962 4.41305 2.74293 4.34634C3.0663 4.27957 3.36327 4.11485 3.59641 3.8729C3.75129 3.71223 3.87414 3.52153 3.95792 3.31161C4.04175 3.10169 4.08489 2.87666 4.08489 2.64946C4.08489 2.4222 4.04175 2.19723 3.95792 1.98731C3.87414 1.77739 3.75129 1.58663 3.59641 1.42602Z" fill="#262627"/>
<path d="M0.750977 8.80801C0.750977 9.76353 1.49725 10.5381 2.41782 10.5381C3.33839 10.5381 4.08472 9.76353 4.08472 8.80801C4.08472 7.8525 3.33839 7.0779 2.41782 7.0779C1.49725 7.0779 0.750977 7.8525 0.750977 8.80801Z" fill="#262627"/>
<path d="M2.41782 16.7596C1.49725 16.7596 0.750977 15.985 0.750977 15.0295C0.750977 14.074 1.49725 13.2994 2.41782 13.2994C3.33839 13.2994 4.08472 14.074 4.08472 15.0295C4.08472 15.985 3.33839 16.7596 2.41782 16.7596Z" fill="#262627"/>
<path d="M10.2625 1.58572C10.0294 1.34378 9.73238 1.17906 9.40902 1.11229C9.08571 1.04552 8.75054 1.07984 8.446 1.21078C8.14141 1.34172 7.88107 1.56349 7.69793 1.84797C7.51479 2.13252 7.41706 2.46698 7.41706 2.80917C7.41706 3.15136 7.51479 3.48582 7.69793 3.77036C7.88107 4.05485 8.14141 4.27661 8.446 4.40755C8.75054 4.5385 9.08571 4.57276 9.40902 4.50605C9.73238 4.43928 10.0294 4.27456 10.2625 4.03261C10.4174 3.87194 10.5402 3.68123 10.624 3.47131C10.7078 3.26139 10.751 3.03637 10.751 2.80917C10.751 2.58191 10.7078 2.35694 10.624 2.14702C10.5402 1.9371 10.4174 1.74634 10.2625 1.58572Z" fill="#262627"/>
<path d="M7.41706 8.96772C7.41706 9.92323 8.16333 10.6978 9.0839 10.6978C10.0045 10.6978 10.7508 9.92323 10.7508 8.96772C10.7508 8.0122 10.0045 7.2376 9.0839 7.2376C8.16333 7.2376 7.41706 8.0122 7.41706 8.96772Z" fill="#262627"/>
<path d="M9.0839 16.9193C8.16333 16.9193 7.41706 16.1447 7.41706 15.1892C7.41706 14.2337 8.16333 13.4591 9.0839 13.4591C10.0045 13.4591 10.7508 14.2337 10.7508 15.1892C10.7508 16.1447 10.0045 16.9193 9.0839 16.9193Z" fill="#262627"/>
</svg>
