<svg width="24" height="24" viewBox="0 0 24 24" fill="none" xmlns="http://www.w3.org/2000/svg">
<path d="M2.75037 17.5514H21.2504C21.6646 17.5514 22.0004 17.8757 22.0004 18.2757C22.0004 18.6424 21.7182 18.9454 21.3521 18.9934L21.2504 19H2.75037C2.33616 19 2.00037 18.6757 2.00037 18.2757C2.00037 17.909 2.28252 17.606 2.6486 17.558L2.75037 17.5514H21.2504H2.75037ZM2.75037 11.277H21.2504C21.6646 11.277 22.0004 11.6013 22.0004 12.0013C22.0004 12.368 21.7182 12.6711 21.3521 12.719L21.2504 12.7256H2.75037C2.33616 12.7256 2.00037 12.4014 2.00037 12.0013C2.00037 11.6347 2.28252 11.3316 2.6486 11.2837L2.75037 11.277H21.2504H2.75037ZM2.74951 5H21.2495C21.6637 5 21.9995 5.32428 21.9995 5.7243C21.9995 6.09098 21.7174 6.39403 21.3513 6.44199L21.2495 6.4486H2.74951C2.3353 6.4486 1.99951 6.12432 1.99951 5.7243C1.99951 5.35761 2.28167 5.05457 2.64774 5.00661L2.74951 5H21.2495H2.74951Z" fill="#262627"/>
</svg>
