<svg width="20" height="15" viewBox="0 0 20 15" fill="none" xmlns="http://www.w3.org/2000/svg">
<path d="M0.750371 12.9968H19.2504C19.6646 12.9968 20.0004 13.3325 20.0004 13.7468C20.0004 14.1265 19.7182 14.4403 19.3521 14.4899L19.2504 14.4968H0.750371C0.336157 14.4968 0.000370979 14.161 0.000370979 13.7468C0.000370979 13.3671 0.282525 13.0533 0.6486 13.0036L0.750371 12.9968H19.2504H0.750371ZM0.750371 6.49977H19.2504C19.6646 6.49977 20.0004 6.83555 20.0004 7.24977C20.0004 7.62946 19.7182 7.94326 19.3521 7.99292L19.2504 7.99977H0.750371C0.336157 7.99977 0.000370979 7.66398 0.000370979 7.24977C0.000370979 6.87007 0.282525 6.55628 0.6486 6.50661L0.750371 6.49977H19.2504H0.750371ZM0.749512 0H19.2495C19.6637 0 19.9995 0.335786 19.9995 0.75C19.9995 1.1297 19.7174 1.44349 19.3513 1.49315L19.2495 1.5H0.749512C0.335298 1.5 -0.000488281 1.16421 -0.000488281 0.75C-0.000488281 0.370304 0.281666 0.0565088 0.647741 0.00684643L0.749512 0H19.2495H0.749512Z" fill="#262627"/>
</svg>
