<svg width="24" height="24" viewBox="0 0 24 24" fill="none" xmlns="http://www.w3.org/2000/svg">
<path d="M10.9869 2.88941C11.0639 2.48242 10.7964 2.09007 10.3894 2.01308C9.98238 1.9361 9.59003 2.20362 9.51305 2.61062L8.49396 7.99803L3.74965 8.00024C3.33544 8.00044 2.99981 8.33638 3 8.75059C3.00019 9.16481 3.33614 9.50044 3.75035 9.50024L8.2102 9.49816L7.26445 14.4979L2.74965 14.5C2.33544 14.5002 1.99981 14.8361 2 15.2503C2.00019 15.6646 2.33614 16.0002 2.75035 16L6.98068 15.998L6.01302 21.1136C5.93603 21.5206 6.20356 21.9129 6.61055 21.9899C7.01755 22.0669 7.4099 21.7994 7.48688 21.3924L8.50742 15.9973L13.9814 15.9948L13.0131 21.1136C12.9361 21.5206 13.2036 21.9129 13.6106 21.9899C14.0176 22.0669 14.41 21.7994 14.4869 21.3924L15.5081 15.994L20.2503 15.9918C20.6646 15.9916 21.0002 15.6557 21 15.2415C20.9998 14.8273 20.6639 14.4916 20.2496 14.4918L15.7919 14.4939L16.7376 9.49417L21.2503 9.49207C21.6646 9.49187 22.0002 9.15593 22 8.74172C21.9998 8.3275 21.6639 7.99187 21.2496 7.99207L17.0214 7.99404L17.987 2.88941C18.064 2.48242 17.7964 2.09007 17.3894 2.01308C16.9824 1.9361 16.5901 2.20362 16.5131 2.61062L15.4946 7.99476L10.0207 7.99731L10.9869 2.88941ZM9.73693 9.49745L15.2109 9.49489L14.2651 14.4946L8.79118 14.4972L9.73693 9.49745Z" fill="#262627"/>
</svg>
