<svg width="20" height="20" viewBox="0 0 20 20" fill="none" xmlns="http://www.w3.org/2000/svg">
<path d="M8.98691 0.889412C9.0639 0.482416 8.79637 0.0900698 8.38938 0.0130824C7.98238 -0.063905 7.59003 0.20362 7.51305 0.610616L6.49396 5.99803L1.74965 6.00024C1.33544 6.00044 0.999807 6.33638 1 6.75059C1.00019 7.16481 1.33614 7.50044 1.75035 7.50024L6.2102 7.49816L5.26445 12.4979L0.74965 12.5C0.335436 12.5002 -0.000193421 12.8361 8.36311e-08 13.2503C0.000193672 13.6646 0.336137 14.0002 0.75035 14L4.98068 13.998L4.01302 19.1136C3.93603 19.5206 4.20356 19.9129 4.61055 19.9899C5.01755 20.0669 5.4099 19.7994 5.48688 19.3924L6.50742 13.9973L11.9814 13.9948L11.0131 19.1136C10.9361 19.5206 11.2036 19.9129 11.6106 19.9899C12.0176 20.0669 12.41 19.7994 12.4869 19.3924L13.5081 13.994L18.2503 13.9918C18.6646 13.9916 19.0002 13.6557 19 13.2415C18.9998 12.8273 18.6639 12.4916 18.2496 12.4918L13.7919 12.4939L14.7376 7.49417L19.2503 7.49207C19.6646 7.49187 20.0002 7.15593 20 6.74172C19.9998 6.3275 19.6639 5.99187 19.2496 5.99207L15.0214 5.99404L15.987 0.889412C16.064 0.482416 15.7964 0.0900698 15.3894 0.0130824C14.9824 -0.063905 14.5901 0.20362 14.5131 0.610616L13.4946 5.99476L8.0207 5.99731L8.98691 0.889412ZM7.73693 7.49745L13.2109 7.49489L12.2651 12.4946L6.79118 12.4972L7.73693 7.49745Z" fill="#262627"/>
</svg>
