<svg width="24" height="24" viewBox="0 0 24 24" fill="none" xmlns="http://www.w3.org/2000/svg">
<path d="M4.51179 10.7628C4.2674 11.0076 4.10098 11.3194 4.03357 11.6588C3.96615 11.9982 4.00077 12.3501 4.13304 12.6698C4.26531 12.9896 4.4893 13.2629 4.77668 13.4551C5.06406 13.6474 5.40192 13.75 5.74755 13.75C6.09318 13.75 6.43104 13.6474 6.71842 13.4551C7.0058 13.2629 7.22979 12.9896 7.36206 12.6698C7.49433 12.3501 7.52895 11.9982 7.46153 11.6588C7.39412 11.3194 7.22769 11.0076 6.98331 10.7628C6.82107 10.6002 6.62843 10.4713 6.41639 10.3833C6.20435 10.2953 5.97708 10.25 5.74755 10.25C5.51802 10.25 5.29075 10.2953 5.07871 10.3833C4.86667 10.4713 4.67403 10.6002 4.51179 10.7628Z" fill="#262627"/>
<path d="M11.9682 13.75C12.9333 13.75 13.7157 12.9666 13.7157 12.0001C13.7157 11.0337 12.9333 10.2502 11.9682 10.2502C11.003 10.2502 10.2206 11.0337 10.2206 12.0001C10.2206 12.9666 11.003 13.75 11.9682 13.75Z" fill="#262627"/>
<path d="M18.2525 13.75C19.2176 13.75 20 12.9666 20 12.0001C20 11.0337 19.2176 10.2502 18.2525 10.2502C17.2873 10.2502 16.5049 11.0337 16.5049 12.0001C16.5049 12.9666 17.2873 13.75 18.2525 13.75Z" fill="#262627"/>
</svg>
