<svg width="18" height="18" viewBox="0 0 18 18" fill="none" xmlns="http://www.w3.org/2000/svg">
<path d="M14.75 0C16.5449 0 18 1.45507 18 3.25V14.75C18 16.5449 16.5449 18 14.75 18H3.25C1.45507 18 0 16.5449 0 14.75V3.25C0 1.45507 1.45507 0 3.25 0H14.75ZM15.3305 16.4014L9.52467 10.7148C9.25962 10.4553 8.85013 10.4316 8.55879 10.644L8.4752 10.7148L2.66845 16.4011C2.8504 16.4651 3.04613 16.5 3.25 16.5H14.75C14.9535 16.5 15.1489 16.4653 15.3305 16.4014L9.52467 10.7148L15.3305 16.4014ZM14.75 1.5H3.25C2.2835 1.5 1.5 2.2835 1.5 3.25V14.75C1.5 14.9584 1.53643 15.1583 1.60326 15.3437L7.42578 9.64299C8.25887 8.82729 9.56746 8.7885 10.4458 9.52658L10.5742 9.64312L16.3964 15.3447C16.4634 15.159 16.5 14.9588 16.5 14.75V3.25C16.5 2.2835 15.7165 1.5 14.75 1.5ZM12.2521 3.5C13.4959 3.5 14.5042 4.50831 14.5042 5.75212C14.5042 6.99592 13.4959 8.00423 12.2521 8.00423C11.0083 8.00423 10 6.99592 10 5.75212C10 4.50831 11.0083 3.5 12.2521 3.5ZM12.2521 5C11.8367 5 11.5 5.33673 11.5 5.75212C11.5 6.1675 11.8367 6.50423 12.2521 6.50423C12.6675 6.50423 13.0042 6.1675 13.0042 5.75212C13.0042 5.33673 12.6675 5 12.2521 5Z" fill="#262627"/>
</svg>
