<svg width="24" height="24" viewBox="0 0 24 24" fill="none" xmlns="http://www.w3.org/2000/svg">
<path d="M12 1.99982C10.0222 1.99982 8.08879 2.58631 6.4443 3.68512C4.79981 4.78393 3.51809 6.34572 2.76121 8.17298C2.00433 10.0002 1.8063 12.0109 2.19215 13.9507C2.578 15.8905 3.53041 17.6724 4.92894 19.0709C6.32746 20.4694 8.10929 21.4218 10.0491 21.8077C11.9889 22.1935 13.9996 21.9955 15.8268 21.2386C17.6541 20.4817 19.2159 19.2 20.3147 17.5555C21.4135 15.911 22 13.9776 22 11.9998C21.9999 9.34767 20.9463 6.80418 19.071 4.92883C17.1956 3.05348 14.6521 1.99989 12 1.99982ZM12.7496 16.243C12.7496 16.4419 12.6706 16.6327 12.5299 16.7733C12.3893 16.914 12.1985 16.993 11.9996 16.993C11.8007 16.993 11.6099 16.914 11.4693 16.7733C11.3286 16.6327 11.2496 16.4419 11.2496 16.243V10.9998C11.2496 10.8009 11.3286 10.6101 11.4693 10.4695C11.6099 10.3288 11.8007 10.2498 11.9996 10.2498C12.1985 10.2498 12.3893 10.3288 12.5299 10.4695C12.6706 10.6101 12.7496 10.8009 12.7496 10.9998V16.243ZM12 8.83674C11.8191 8.83674 11.6423 8.78311 11.492 8.68264C11.3416 8.58217 11.2243 8.43936 11.1551 8.27227C11.0859 8.10519 11.0677 7.92133 11.103 7.74393C11.1382 7.56654 11.2253 7.40358 11.3532 7.27566C11.481 7.14774 11.6439 7.0606 11.8213 7.02526C11.9987 6.98993 12.1826 7.00797 12.3497 7.07712C12.5168 7.14627 12.6597 7.26343 12.7602 7.41376C12.8608 7.5641 12.9145 7.74088 12.9146 7.92174C12.9145 8.16432 12.8182 8.39696 12.6467 8.56853C12.4752 8.74011 12.2426 8.83657 12 8.83674Z" fill="#105EBC"/>
</svg>
