<svg width="24" height="24" viewBox="0 0 24 24" fill="none" xmlns="http://www.w3.org/2000/svg">
<path d="M12 2C10.0222 2 8.08879 2.58649 6.4443 3.6853C4.79981 4.78412 3.51809 6.34591 2.76121 8.17317C2.00433 10.0004 1.8063 12.0111 2.19215 13.9509C2.578 15.8907 3.53041 17.6725 4.92894 19.0711C6.32746 20.4696 8.10929 21.422 10.0491 21.8079C11.9889 22.1937 13.9996 21.9957 15.8268 21.2388C17.6541 20.4819 19.2159 19.2002 20.3147 17.5557C21.4135 15.9112 22 13.9778 22 12C21.9999 9.34786 20.9463 6.80436 19.071 4.92901C17.1956 3.05366 14.6521 2.00007 12 2ZM12 20.5C10.3189 20.5 8.67548 20.0015 7.27766 19.0675C5.87984 18.1335 4.79037 16.806 4.14703 15.2528C3.50368 13.6996 3.33536 11.9906 3.66333 10.3417C3.9913 8.69289 4.80085 7.17834 5.9896 5.98959C7.17834 4.80085 8.6929 3.9913 10.3417 3.66333C11.9906 3.33535 13.6996 3.50368 15.2528 4.14702C16.806 4.79037 18.1335 5.87983 19.0675 7.27765C20.0015 8.67547 20.5 10.3189 20.5 12C20.4974 14.2535 19.601 16.414 18.0075 18.0075C16.414 19.601 14.2535 20.4974 12 20.5Z" fill="#262627"/>
<path d="M11.9692 10.2373C11.7703 10.2374 11.5796 10.3164 11.4389 10.457C11.2983 10.5977 11.2192 10.7884 11.2192 10.9873V16.2305C11.2192 16.4294 11.2982 16.6201 11.4389 16.7608C11.5795 16.9015 11.7703 16.9805 11.9692 16.9805C12.1681 16.9805 12.3589 16.9015 12.4995 16.7608C12.6402 16.6201 12.7192 16.4294 12.7192 16.2305V10.9873C12.7191 10.7884 12.6401 10.5977 12.4995 10.457C12.3588 10.3164 12.1681 10.2374 11.9692 10.2373Z" fill="#262627"/>
<path d="M11.969 6.99512C11.7881 6.99512 11.6113 7.04877 11.4609 7.14928C11.3104 7.2498 11.1932 7.39266 11.124 7.5598C11.0548 7.72694 11.0367 7.91085 11.0721 8.08827C11.1074 8.26569 11.1945 8.42865 11.3225 8.55653C11.4504 8.68441 11.6134 8.77147 11.7909 8.80671C11.9683 8.84194 12.1522 8.82376 12.3193 8.75446C12.4864 8.68517 12.6292 8.56787 12.7297 8.41741C12.8301 8.26695 12.8837 8.09008 12.8836 7.90918C12.8835 7.78911 12.8599 7.67022 12.8139 7.5593C12.7679 7.44838 12.7005 7.3476 12.6156 7.26272C12.5307 7.17784 12.4299 7.11052 12.3189 7.06461C12.208 7.01869 12.0891 6.99508 11.969 6.99512Z" fill="#262627"/>
</svg>
