<svg width="20" height="20" viewBox="0 0 20 20" fill="none" xmlns="http://www.w3.org/2000/svg">
<path d="M17 2.49146C17 3.87217 15.8807 4.99146 14.5 4.99146C14.3246 4.99146 14.1533 4.97338 13.9881 4.939L12.7084 7.05636C13.5025 7.78736 14 8.83558 14 10C14 10.0194 13.9999 10.0388 13.9996 10.0582L15.296 10.319C15.7176 9.53385 16.5465 9 17.5 9C18.8807 9 20 10.1193 20 11.5C20 12.8807 18.8807 14 17.5 14C16.2184 14 15.162 13.0356 15.017 11.7929L13.698 11.5275C13.3532 12.3613 12.7347 13.0531 11.9544 13.4908L12.4495 15.0026C12.4663 15.0023 12.4831 15.0021 12.5 15.0021C13.8807 15.0021 15 16.1214 15 17.5021C15 18.8828 13.8807 20.0021 12.5 20.0021C11.1193 20.0021 10 18.8828 10 17.5021C10 16.6718 10.4048 15.936 11.0279 15.4813L10.5313 13.965C10.3575 13.9881 10.1801 14 10 14C8.67902 14 7.50761 13.3597 6.77921 12.3725L4.98453 13.2203C4.99475 13.3122 5 13.4055 5 13.5C5 14.8807 3.88071 16 2.5 16C1.11929 16 0 14.8807 0 13.5C0 12.1193 1.11929 11 2.5 11C3.24769 11 3.91872 11.3282 4.37685 11.8485L6.13113 11.0197C6.04557 10.6941 6 10.3524 6 10C6 9.03239 6.34357 8.14503 6.91537 7.45325L5.92362 6.32385C5.63789 6.43751 5.32624 6.5 5 6.5C3.61929 6.5 2.5 5.38071 2.5 4C2.5 2.61929 3.61929 1.5 5 1.5C6.38071 1.5 7.5 2.61929 7.5 4C7.5 4.5084 7.34825 4.98135 7.08756 5.37603L8.07044 6.49533C8.6426 6.17965 9.30032 6 10 6C10.5054 6 10.9889 6.09373 11.4341 6.26477L12.6793 4.20462C12.2581 3.75716 12 3.15445 12 2.49146C12 1.11074 13.1193 -0.00854492 14.5 -0.00854492C15.8807 -0.00854492 17 1.11074 17 2.49146ZM15.5 2.49146C15.5 1.93917 15.0523 1.49146 14.5 1.49146C13.9477 1.49146 13.5 1.93917 13.5 2.49146C13.5 3.04374 13.9477 3.49146 14.5 3.49146C15.0523 3.49146 15.5 3.04374 15.5 2.49146ZM5 5C5.55228 5 6 4.55228 6 4C6 3.44772 5.55228 3 5 3C4.44772 3 4 3.44772 4 4C4 4.55228 4.44772 5 5 5ZM10 12.5C11.3807 12.5 12.5 11.3807 12.5 10C12.5 8.61929 11.3807 7.5 10 7.5C8.61929 7.5 7.5 8.61929 7.5 10C7.5 11.3807 8.61929 12.5 10 12.5ZM3.5 13.5C3.5 12.9477 3.05228 12.5 2.5 12.5C1.94772 12.5 1.5 12.9477 1.5 13.5C1.5 14.0523 1.94772 14.5 2.5 14.5C3.05228 14.5 3.5 14.0523 3.5 13.5ZM13.5 17.5021C13.5 16.9499 13.0523 16.5021 12.5 16.5021C11.9477 16.5021 11.5 16.9499 11.5 17.5021C11.5 18.0544 11.9477 18.5021 12.5 18.5021C13.0523 18.5021 13.5 18.0544 13.5 17.5021ZM17.5 12.5C18.0523 12.5 18.5 12.0523 18.5 11.5C18.5 10.9477 18.0523 10.5 17.5 10.5C16.9477 10.5 16.5 10.9477 16.5 11.5C16.5 12.0523 16.9477 12.5 17.5 12.5Z" fill="#262627"/>
</svg>
