<svg width="20" height="14" viewBox="0 0 20 14" fill="none" xmlns="http://www.w3.org/2000/svg">
<path d="M12.9977 0C16.8637 0 19.9977 3.13401 19.9977 7C19.9977 10.7855 16.9929 13.8691 13.2384 13.9959L12.9977 14H7.00195C3.13596 14 0.00195312 10.866 0.00195312 7C0.00195312 3.21455 3.00674 0.130901 6.7613 0.00405884L7.00195 0H12.9977ZM12.9977 1.5H7.00195C3.96439 1.5 1.50195 3.96243 1.50195 7C1.50195 9.96348 3.84573 12.3795 6.78075 12.4956L7.00195 12.5H12.9977C16.0353 12.5 18.4977 10.0376 18.4977 7C18.4977 4.03652 16.1539 1.62046 13.2189 1.50437L12.9977 1.5ZM5.99984 4C6.41405 4 6.74984 4.33579 6.74984 4.75L6.74895 6.248L8.24984 6.24875C8.66405 6.24875 8.99984 6.58453 8.99984 6.99875C8.99984 7.41296 8.66405 7.74875 8.24984 7.74875L6.74895 7.748L6.74984 9.25C6.74984 9.66421 6.41405 10 5.99984 10C5.58562 10 5.24984 9.66421 5.24984 9.25L5.24895 7.748L3.74984 7.74875C3.33562 7.74875 2.99984 7.41296 2.99984 6.99875C2.99984 6.58453 3.33562 6.24875 3.74984 6.24875L5.24895 6.248L5.24984 4.75C5.24984 4.33579 5.58562 4 5.99984 4ZM12.7498 7.5C13.4402 7.5 13.9998 8.05964 13.9998 8.75C13.9998 9.44036 13.4402 10 12.7498 10C12.0595 10 11.4998 9.44036 11.4998 8.75C11.4998 8.05964 12.0595 7.5 12.7498 7.5ZM14.7498 4C15.4402 4 15.9998 4.55964 15.9998 5.25C15.9998 5.94036 15.4402 6.5 14.7498 6.5C14.0595 6.5 13.4998 5.94036 13.4998 5.25C13.4998 4.55964 14.0595 4 14.7498 4Z" fill="#262627"/>
</svg>
