<svg width="24" height="24" viewBox="0 0 24 24" fill="none" xmlns="http://www.w3.org/2000/svg">
<path d="M9.34045 6.3725L9.38917 6.47684L14.9493 20.9768C15.0972 21.3626 14.9104 21.7976 14.532 21.9485C14.1852 22.0867 13.7978 21.9382 13.6217 21.6153L13.5791 21.523L12.1461 17.7859L5.05932 17.7861L4.96527 17.7801L3.4185 21.54C3.26139 21.922 2.83032 22.1018 2.45568 21.9416C2.11227 21.7947 1.93548 21.4132 2.02941 21.0564L2.06182 20.9599L8.02575 6.45989C8.26631 5.87504 9.04862 5.85019 9.34045 6.3725ZM18.7457 2.00317C19.1254 2.00317 19.4392 2.28533 19.4888 2.6514L19.4957 2.75317L19.4954 7.49917L21.2457 7.49994C21.6254 7.49994 21.9392 7.7821 21.9888 8.14817L21.9957 8.24994C21.9957 8.62964 21.7135 8.94343 21.3475 8.9931L21.2457 8.99994L19.4954 8.99917L19.4957 16.2499C19.4957 16.6296 19.2135 16.9434 18.8475 16.9931L18.7457 16.9999C18.366 16.9999 18.0522 16.7178 18.0025 16.3517L17.9957 16.2499V2.75317C17.9957 2.33896 18.3315 2.00317 18.7457 2.00317ZM8.81111 8.74732L5.64895 16.2859H11.7589L8.81111 8.74732ZM10.7477 2.00317H16.2455C16.6252 2.00317 16.939 2.28533 16.9887 2.6514L16.9955 2.75317V5.75687C16.9955 8.10146 15.0949 10.0021 12.7503 10.0021C12.3361 10.0021 12.0003 9.66633 12.0003 9.25212C12.0003 8.83791 12.3361 8.50212 12.7503 8.50212C14.2103 8.50212 15.4041 7.36239 15.4905 5.9241L15.4955 5.75687V3.50317H10.7477C10.3335 3.50317 9.99775 3.16739 9.99775 2.75317C9.99775 2.37348 10.2799 2.05968 10.646 2.01002L10.7477 2.00317H16.2455H10.7477Z" fill="#262627"/>
</svg>
