<svg width="20" height="20" viewBox="0 0 20 20" fill="none" xmlns="http://www.w3.org/2000/svg">
<path d="M7.34045 4.3725L7.38917 4.47684L12.9493 18.9768C13.0972 19.3626 12.9104 19.7976 12.532 19.9485C12.1852 20.0867 11.7978 19.9382 11.6217 19.6153L11.5791 19.523L10.1461 15.7859L3.05932 15.7861L2.96527 15.7801L1.4185 19.54C1.26139 19.922 0.830322 20.1018 0.455685 19.9416C0.112268 19.7947 -0.0645234 19.4132 0.0294123 19.0564L0.0618215 18.9599L6.02575 4.45989C6.26631 3.87504 7.04862 3.85019 7.34045 4.3725ZM16.7457 0.00317383C17.1254 0.00317383 17.4392 0.285328 17.4888 0.651403L17.4957 0.753174L17.4954 5.49917L19.2457 5.49994C19.6254 5.49994 19.9392 5.7821 19.9888 6.14817L19.9957 6.24994C19.9957 6.62964 19.7135 6.94343 19.3475 6.9931L19.2457 6.99994L17.4954 6.99917L17.4957 14.2499C17.4957 14.6296 17.2135 14.9434 16.8475 14.9931L16.7457 14.9999C16.366 14.9999 16.0522 14.7178 16.0025 14.3517L15.9957 14.2499V0.753174C15.9957 0.33896 16.3315 0.00317383 16.7457 0.00317383ZM6.81111 6.74732L3.64895 14.2859H9.75895L6.81111 6.74732ZM8.74775 0.00317383H14.2455C14.6252 0.00317383 14.939 0.285328 14.9887 0.651403L14.9955 0.753174V3.75687C14.9955 6.10146 13.0949 8.00212 10.7503 8.00212C10.3361 8.00212 10.0003 7.66633 10.0003 7.25212C10.0003 6.83791 10.3361 6.50212 10.7503 6.50212C12.2103 6.50212 13.4041 5.36239 13.4905 3.9241L13.4955 3.75687V1.50317H8.74775C8.33354 1.50317 7.99775 1.16739 7.99775 0.753174C7.99775 0.373478 8.2799 0.0596829 8.64598 0.0100205L8.74775 0.00317383H14.2455H8.74775Z" fill="#262627"/>
</svg>
