<svg width="24" height="24" viewBox="0 0 24 24" fill="none" xmlns="http://www.w3.org/2000/svg">
<g clip-path="url(#clip0_1396_85)">
<path d="M20.0259 12.1919C19.8775 12.4294 19.6809 12.633 19.4488 12.7896L13.3989 16.8733C12.5537 17.4438 11.4468 17.4438 10.6016 16.8733L4.55167 12.7896C3.79068 12.276 3.49558 11.3304 3.77253 10.5L10.6135 15.0596C11.4008 15.5844 12.4115 15.6172 13.2267 15.158L13.387 15.0596L20.2273 10.4995C20.409 11.0457 20.3548 11.6657 20.0259 12.1919ZM20.2273 13.7495C20.409 14.2957 20.3548 14.9157 20.0259 15.4419C19.8775 15.6794 19.6809 15.883 19.4488 16.0396L13.3989 20.1233C12.5537 20.6938 11.4468 20.6938 10.6016 20.1233L4.55167 16.0396C3.79068 15.526 3.49558 14.5804 3.77253 13.75L10.6135 18.3096C11.4008 18.8344 12.4115 18.8672 13.2267 18.408L13.387 18.3096L20.2273 13.7495ZM13.387 3.42451L19.7522 7.66796C20.2117 7.97432 20.3359 8.59518 20.0295 9.05471C19.9563 9.16457 19.862 9.25883 19.7522 9.33206L13.387 13.5755C12.5472 14.1353 11.4532 14.1353 10.6135 13.5755L4.24832 9.33206C3.78879 9.02571 3.66462 8.40484 3.97097 7.94531C4.0442 7.83546 4.13847 7.7412 4.24832 7.66796L10.6135 3.42451C11.4532 2.86468 12.5472 2.86468 13.387 3.42451ZM11.561 4.60624L11.4455 4.67259L5.70524 8.50001L11.4455 12.3274C11.7441 12.5265 12.1231 12.5486 12.4395 12.3938L12.5549 12.3274L18.2942 8.50001L12.5549 4.67259C12.2564 4.47354 11.8774 4.45142 11.561 4.60624Z" fill="#262627"/>
</g>
<defs>
<clipPath id="clip0_1396_85">
<rect width="24" height="24" fill="white"/>
</clipPath>
</defs>
</svg>
