<svg width="18" height="18" viewBox="0 0 18 18" fill="none" xmlns="http://www.w3.org/2000/svg">
<path d="M17.0259 9.19194C16.8775 9.42937 16.6809 9.63299 16.4488 9.78964L10.3989 13.8733C9.55373 14.4438 8.44675 14.4438 7.60156 13.8733L1.55167 9.78964C0.790678 9.27597 0.495578 8.33037 0.772534 7.50001L7.61349 12.0596C8.40076 12.5844 9.41149 12.6172 10.2267 12.158L10.387 12.0596L17.2273 7.49951C17.409 8.04567 17.3548 8.66571 17.0259 9.19194ZM17.2273 10.7495C17.409 11.2957 17.3548 11.9157 17.0259 12.4419C16.8775 12.6794 16.6809 12.883 16.4488 13.0396L10.3989 17.1233C9.55373 17.6938 8.44675 17.6938 7.60156 17.1233L1.55167 13.0396C0.790678 12.526 0.495578 11.5804 0.772534 10.75L7.61349 15.3096C8.40076 15.8344 9.41149 15.8672 10.2267 15.408L10.387 15.3096L17.2273 10.7495ZM10.387 0.424513L16.7522 4.66796C17.2117 4.97432 17.3359 5.59518 17.0295 6.05471C16.9563 6.16457 16.862 6.25883 16.7522 6.33206L10.387 10.5755C9.54724 11.1353 8.45324 11.1353 7.61349 10.5755L1.24832 6.33206C0.788789 6.02571 0.664615 5.40484 0.970968 4.94531C1.0442 4.83546 1.13847 4.7412 1.24832 4.66796L7.61349 0.424513C8.45324 -0.135319 9.54724 -0.135319 10.387 0.424513ZM8.561 1.60624L8.44554 1.67259L2.70524 5.50001L8.44554 9.32744C8.74412 9.52649 9.12305 9.5486 9.43949 9.39379L9.55494 9.32744L15.2942 5.50001L9.55494 1.67259C9.25636 1.47354 8.87743 1.45142 8.561 1.60624Z" fill="#262627"/>
</svg>
