<svg width="20" height="16" viewBox="0 0 20 16" fill="none" xmlns="http://www.w3.org/2000/svg">
<path d="M3.25 0H16.75C18.483 0 19.8992 1.35645 19.9949 3.06558L20 3.25V12.75C20 14.483 18.6435 15.8992 16.9344 15.9949L16.75 16H3.25C1.51697 16 0.100754 14.6435 0.00514483 12.9344L0 12.75V3.25C0 1.51697 1.35645 0.100754 3.06558 0.0051446L3.25 0H16.75H3.25ZM18.5 5.373L10.3493 9.66369C10.1619 9.76233 9.94313 9.77642 9.74676 9.70596L9.65069 9.66369L1.5 5.374V12.75C1.5 13.6682 2.20711 14.4212 3.10647 14.4942L3.25 14.5H16.75C17.6682 14.5 18.4212 13.7929 18.4942 12.8935L18.5 12.75V5.373ZM16.75 1.5H3.25C2.33183 1.5 1.57881 2.20711 1.5058 3.10647L1.5 3.25V3.679L10 8.15246L18.5 3.678V3.25C18.5 2.33183 17.7929 1.57881 16.8935 1.5058L16.75 1.5Z" fill="#262627"/>
</svg>
