<svg width="20" height="18" viewBox="0 0 20 18" fill="none" xmlns="http://www.w3.org/2000/svg">
<path d="M1.10008 5.16928L9.61669 0.105348C9.81918 -0.0150498 10.0642 -0.0322494 10.2789 0.053749L10.3833 0.105348L18.8999 5.16928C19.5333 5.54587 19.9389 6.2064 19.9937 6.93419L20 7.10324V14.75C20 16.483 18.6435 17.8992 16.9344 17.9949L16.75 18H3.25C1.51697 18 0.100754 16.6435 0.00514483 14.9344L0 14.75V7.10324C0 6.36638 0.360424 5.68012 0.958019 5.26113L1.10008 5.16928L9.61669 0.105348L1.10008 5.16928ZM18.5 7.91L10.3469 12.1649C10.1658 12.2595 9.95566 12.2752 9.76485 12.2122L9.65308 12.1649L1.5 7.91V14.75C1.5 15.6682 2.20711 16.4212 3.10647 16.4942L3.25 16.5H16.75C17.6682 16.5 18.4212 15.7929 18.4942 14.8935L18.5 14.75V7.91ZM10 1.62256L1.908 6.433L10 10.6541L18.09 6.432L10 1.62256Z" fill="#262627"/>
</svg>
