<svg width="21" height="19" viewBox="0 0 21 19" fill="none" xmlns="http://www.w3.org/2000/svg">
<path d="M21 5.5C21 8.53757 18.5376 11 15.5 11C12.4624 11 10 8.53757 10 5.5C10 2.46243 12.4624 0 15.5 0C18.5376 0 21 2.46243 21 5.5ZM18.8536 3.14645C18.6583 2.95118 18.3417 2.95118 18.1464 3.14645L14.5 6.79289L12.8536 5.14645C12.6583 4.95118 12.3417 4.95118 12.1464 5.14645C11.9512 5.34171 11.9512 5.65829 12.1464 5.85355L14.1464 7.85355C14.3417 8.04882 14.6583 8.04882 14.8536 7.85355L18.8536 3.85355C19.0488 3.65829 19.0488 3.34171 18.8536 3.14645ZM18.5 15.75V11.2678C19.051 10.9806 19.5557 10.6168 20 10.1904V15.75C20 17.483 18.6435 18.8992 16.9344 18.9949L16.75 19H3.25C1.51697 19 0.100754 17.6435 0.00514483 15.9344L0 15.75V6.25C0 4.51697 1.35645 3.10075 3.06558 3.00514L3.25 3H9.49816C9.30042 3.47417 9.15724 3.97679 9.07645 4.5H3.25C2.33183 4.5 1.57881 5.20711 1.5058 6.10647L1.5 6.25V6.679L10 11.1525L11.3052 10.4654C11.7437 10.8363 12.232 11.1501 12.7587 11.3954L10.3493 12.6637C10.1619 12.7623 9.94313 12.7764 9.74676 12.706L9.65069 12.6637L1.5 8.374V15.75C1.5 16.6682 2.20711 17.4212 3.10647 17.4942L3.25 17.5H16.75C17.6682 17.5 18.4212 16.7929 18.4942 15.8935L18.5 15.75Z" fill="#262627"/>
</svg>
