<svg width="21" height="19" viewBox="0 0 21 19" fill="none" xmlns="http://www.w3.org/2000/svg">
<path d="M21 5.5C21 8.53757 18.5376 11 15.5 11C12.4624 11 10 8.53757 10 5.5C10 2.46243 12.4624 0 15.5 0C18.5376 0 21 2.46243 21 5.5ZM18.8536 3.14645C18.6583 2.95118 18.3417 2.95118 18.1464 3.14645L14.5 6.79289L12.8536 5.14645C12.6583 4.95118 12.3417 4.95118 12.1464 5.14645C11.9512 5.34171 11.9512 5.65829 12.1464 5.85355L14.1464 7.85355C14.3417 8.04882 14.6583 8.04882 14.8536 7.85355L18.8536 3.85355C19.0488 3.65829 19.0488 3.34171 18.8536 3.14645ZM15.5 12C17.2465 12 18.8321 11.3112 20 10.1904V15.75C20 17.483 18.6435 18.8992 16.9344 18.9949L16.75 19H3.25C1.51697 19 0.100754 17.6435 0.00514483 15.9344L0 15.75V7.608L9.65199 12.6644C9.86995 12.7785 10.13 12.7785 10.348 12.6644L12.7649 11.3983C13.5963 11.7844 14.523 12 15.5 12ZM3.25 3H9.49816C9.17723 3.76959 9 4.6141 9 5.5C9 7.49255 9.89656 9.27569 11.3083 10.468L10 11.1533L0.0161917 5.92355C0.173861 4.34271 1.46432 3.09545 3.06409 3.00523L3.25 3Z" fill="#262627"/>
</svg>
