<svg width="24" height="24" viewBox="0 0 24 24" fill="none" xmlns="http://www.w3.org/2000/svg">
<path d="M8.751 20.256L8.797 20.423C8.94042 20.8801 9.22602 21.2795 9.61221 21.563C9.9984 21.8465 10.465 21.9993 10.9441 21.9992H13.0549L13.229 21.9923C13.7063 21.9555 14.1594 21.7674 14.5223 21.4553C14.8853 21.1432 15.1392 20.7234 15.2471 20.257L15.5381 18.9992H8.46094L8.751 20.256Z" fill="#553EB7"/>
<path d="M12 2.00109C11.0479 2.00104 10.1051 2.18852 9.22548 2.55285C8.34584 2.91718 7.54659 3.45121 6.87335 4.12444C6.20012 4.79768 5.66609 5.59694 5.30176 6.47657C4.93743 7.35621 4.74994 8.29899 4.75 9.25109C4.77783 10.3639 5.03843 11.4586 5.51501 12.4645C5.99159 13.4705 6.67359 14.3655 7.51709 15.0919C7.55239 15.1254 7.57705 15.1685 7.58801 15.2159L8.11401 17.4991H15.886L16.4141 15.2159C16.4246 15.1683 16.4493 15.1251 16.485 15.0919C17.3279 14.3651 18.0093 13.47 18.4855 12.4641C18.9617 11.4581 19.2221 10.3637 19.25 9.25109C19.2501 8.29899 19.0626 7.3562 18.6983 6.47656C18.3339 5.59692 17.7999 4.79766 17.1267 4.12442C16.4534 3.45118 15.6542 2.91715 14.7745 2.55283C13.8949 2.18851 12.9521 2.00103 12 2.00109Z" fill="#553EB7"/>
</svg>
