<svg width="21" height="18" viewBox="0 0 21 18" fill="none" xmlns="http://www.w3.org/2000/svg">
<path d="M7.25 0C7.66421 0 8 0.335786 8 0.75C8 1.12656 7.72249 1.4383 7.36083 1.49187L7.25 1.5H5C3.067 1.5 1.5 3.067 1.5 5C1.5 6.86396 2.95707 8.3876 4.79435 8.49406L5 8.5H7.25C7.66421 8.5 8 8.83579 8 9.25C8 9.62656 7.72249 9.9383 7.36083 9.99187L7.25 10H5C2.23858 10 0 7.76142 0 5C0 2.32226 2.10496 0.136151 4.75045 0.00611925L5 0H7.25ZM15 0C17.7614 0 20 2.23858 20 5C20 5.83806 19.7938 6.62796 19.4294 7.32174C19.0316 7.01938 18.5978 6.76182 18.1357 6.55658C18.3689 6.08773 18.5 5.55918 18.5 5C18.5 3.13604 17.0429 1.6124 15.2057 1.50594L15 1.5H12.75C12.3358 1.5 12 1.16421 12 0.75C12 0.373442 12.2775 0.0617003 12.6392 0.00813198L12.75 0H15ZM5 4.25H15C15.4142 4.25 15.75 4.58579 15.75 5C15.75 5.3797 15.4678 5.69349 15.1018 5.74315L15 5.75H5C4.58579 5.75 4.25 5.41421 4.25 5C4.25 4.6203 4.53215 4.30651 4.89823 4.25685L5 4.25ZM21 12.5C21 15.5376 18.5376 18 15.5 18C12.4624 18 10 15.5376 10 12.5C10 9.46243 12.4624 7 15.5 7C18.5376 7 21 9.46243 21 12.5ZM13.8536 10.1464C13.6583 9.95118 13.3417 9.95118 13.1464 10.1464C12.9512 10.3417 12.9512 10.6583 13.1464 10.8536L14.7929 12.5L13.1464 14.1464C12.9512 14.3417 12.9512 14.6583 13.1464 14.8536C13.3417 15.0488 13.6583 15.0488 13.8536 14.8536L15.5 13.2071L17.1464 14.8536C17.3417 15.0488 17.6583 15.0488 17.8536 14.8536C18.0488 14.6583 18.0488 14.3417 17.8536 14.1464L16.2071 12.5L17.8536 10.8536C18.0488 10.6583 18.0488 10.3417 17.8536 10.1464C17.6583 9.95118 17.3417 9.95118 17.1464 10.1464L15.5 11.7929L13.8536 10.1464Z" fill="#262627"/>
</svg>
