<svg width="20" height="10" viewBox="0 0 20 10" fill="none" xmlns="http://www.w3.org/2000/svg">
<path d="M7.25 0C7.66421 0 8 0.335786 8 0.75C8 1.12656 7.72249 1.4383 7.36083 1.49187L7.25 1.5H5C3.067 1.5 1.5 3.067 1.5 5C1.5 6.86396 2.95707 8.3876 4.79435 8.49406L5 8.5H7.25C7.66421 8.5 8 8.83579 8 9.25C8 9.62656 7.72249 9.9383 7.36083 9.99187L7.25 10H5C2.23858 10 0 7.76142 0 5C0 2.32226 2.10496 0.136152 4.75045 0.00611925L5 0H7.25ZM15 0C17.7614 0 20 2.23858 20 5C20 7.67774 17.895 9.86385 15.2495 9.99388L15 10H12.75C12.3358 10 12 9.66421 12 9.25C12 8.87344 12.2775 8.5617 12.6392 8.50813L12.75 8.5H15C16.933 8.5 18.5 6.933 18.5 5C18.5 3.13604 17.0429 1.6124 15.2057 1.50594L15 1.5H12.75C12.3358 1.5 12 1.16421 12 0.75C12 0.373442 12.2775 0.0617003 12.6392 0.00813198L12.75 0H15ZM5 4.25H15C15.4142 4.25 15.75 4.58579 15.75 5C15.75 5.3797 15.4678 5.69349 15.1018 5.74315L15 5.75H5C4.58579 5.75 4.25 5.41421 4.25 5C4.25 4.6203 4.53215 4.30651 4.89823 4.25685L5 4.25H15H5Z" fill="#262627"/>
</svg>
