<svg width="16" height="20" viewBox="0 0 16 20" fill="none" xmlns="http://www.w3.org/2000/svg">
<path d="M8 0.000976562C9.70842 0.000976562 11.2111 1.08214 11.7713 2.66739C11.9553 3.18813 11.6823 3.75943 11.1616 3.94342C10.678 4.11428 10.1509 3.89111 9.93074 3.44143L9.88554 3.33371C9.60568 2.54168 8.85415 2.00098 8 2.00098C6.94618 2.00098 6.08283 2.81643 6.00652 3.85075L6.00104 3.99994L6.001 5.99898L13.75 5.99994C14.9409 5.99994 15.9156 6.9251 15.9948 8.09589L16 8.24994V17.7462C16 18.9371 15.0748 19.9119 13.904 19.991L13.75 19.9962H2.25C1.05914 19.9962 0.0843551 19.0711 0.00519085 17.9003L0 17.7462V8.24994C0 7.05908 0.925161 6.0843 2.09595 6.00513L2.25 5.99994L4.001 5.99898L4.00104 3.99994C4.00104 1.79137 5.79143 0.000976562 8 0.000976562ZM8 11.4995C7.17234 11.4995 6.50139 12.1704 6.50139 12.9981C6.50139 13.8257 7.17234 14.4967 8 14.4967C8.82766 14.4967 9.49861 13.8257 9.49861 12.9981C9.49861 12.1704 8.82766 11.4995 8 11.4995Z" fill="#262627"/>
</svg>
