<svg width="16" height="20" viewBox="0 0 16 20" fill="none" xmlns="http://www.w3.org/2000/svg">
<path d="M8 0.00427246C9.87526 0.00427246 11.3342 1.21056 11.9276 3.00725C12.0575 3.40057 11.844 3.82473 11.4507 3.95464C11.0574 4.08455 10.6332 3.87102 10.5033 3.47771C10.1018 2.26198 9.18537 1.50427 8 1.50427C6.59275 1.50427 5.57976 2.46215 5.50392 4.05574L5.49935 4.25001L5.499 5.99927L13.75 6.00001C14.9409 6.00001 15.9156 6.92517 15.9948 8.09596L16 8.25001V17.7463C16 18.9371 15.0748 19.9119 13.904 19.9911L13.75 19.9963H2.25C1.05914 19.9963 0.0843551 19.0711 0.00519085 17.9003L0 17.7463V8.25001C0 7.05914 0.925161 6.08436 2.09595 6.0052L2.25 6.00001L3.999 5.99927L3.99935 4.25001C3.99935 1.71154 5.70837 0.00427246 8 0.00427246ZM13.75 7.50001H2.25C1.8703 7.50001 1.55651 7.78216 1.50685 8.14824L1.5 8.25001V17.7463C1.5 18.126 1.78215 18.4398 2.14823 18.4894L2.25 18.4963H13.75C14.1297 18.4963 14.4435 18.2141 14.4932 17.8481L14.5 17.7463V8.25001C14.5 7.87031 14.2178 7.55652 13.8518 7.50685L13.75 7.50001ZM8 11.4995C8.82766 11.4995 9.49861 12.1705 9.49861 12.9981C9.49861 13.8258 8.82766 14.4968 8 14.4968C7.17234 14.4968 6.50139 13.8258 6.50139 12.9981C6.50139 12.1705 7.17234 11.4995 8 11.4995Z" fill="#262627"/>
</svg>
