<svg width="16" height="20" viewBox="0 0 16 20" fill="none" xmlns="http://www.w3.org/2000/svg">
<path d="M8 0C10.2091 0 12 1.79086 12 4V6H14.5C15.3284 6 16 6.67157 16 7.5V18.5C16 19.3284 15.3284 20 14.5 20H1.5C0.671573 20 0 19.3284 0 18.5V7.5C0 6.67157 0.671573 6 1.5 6H4V4C4 1.79086 5.79086 0 8 0ZM8.00012 11.5C7.1717 11.5 6.50012 12.1716 6.50012 13C6.50012 13.8284 7.1717 14.5 8.00012 14.5C8.82855 14.5 9.50012 13.8284 9.50012 13C9.50012 12.1716 8.82855 11.5 8.00012 11.5ZM8 2C6.89543 2 6 2.89543 6 4V6H10V4C10 2.89543 9.10457 2 8 2Z" fill="#262627"/>
</svg>
