<svg width="24" height="24" viewBox="0 0 24 24" fill="none" xmlns="http://www.w3.org/2000/svg">
<path d="M12.748 3.0013L20.3018 3.00181L20.402 3.01573L20.5009 3.04332L20.562 3.06926C20.641 3.10415 20.7149 3.15468 20.7798 3.21961L20.8206 3.26365L20.8811 3.34513L20.9183 3.41015L20.957 3.50047L20.9761 3.56459L20.9897 3.62854L20.999 3.72173L20.9996 11.2552C20.9996 11.6694 20.6638 12.0052 20.2496 12.0052C19.8699 12.0052 19.5561 11.723 19.5064 11.357L19.4996 11.2552L19.499 5.5593L5.55905 19.5043L11.2496 19.5052C11.6293 19.5052 11.9431 19.7873 11.9927 20.1534L11.9996 20.2552C11.9996 20.6349 11.7174 20.9487 11.3513 20.9983L11.2496 21.0052L3.71372 21.0044L3.68473 21.0016C3.61867 20.9969 3.55596 20.9831 3.49668 20.962L3.40655 20.9231L3.38936 20.9126C3.18516 20.8022 3.03871 20.5992 3.00529 20.3598L2.99805 20.2552V12.7513C2.99805 12.3371 3.33383 12.0013 3.74805 12.0013C4.12774 12.0013 4.44154 12.2835 4.4912 12.6495L4.49805 12.7513V18.4433L18.438 4.5003L12.748 4.5013C12.3684 4.5013 12.0546 4.21914 12.0049 3.85307L11.998 3.7513C11.998 3.3716 12.2802 3.05781 12.6463 3.00814L12.748 3.0013Z" fill="#262627"/>
</svg>
