<svg width="24" height="24" viewBox="0 0 24 24" fill="none" xmlns="http://www.w3.org/2000/svg">
<path d="M2 6.78261C2 6.35039 2.35349 6 2.78955 6H6.21869C7.2657 6 8.26983 6.41227 9.01018 7.1461L12.1155 10.2241C12.7571 10.8601 13.6274 11.2174 14.5348 11.2174H19.3048L15.3904 7.33589C15.0821 7.03021 15.0822 6.53469 15.3906 6.22912C15.699 5.92355 16.1989 5.92364 16.5072 6.22933L21.7689 11.4467C22.0771 11.7523 22.0771 12.2477 21.7689 12.5533L16.5072 17.7707C16.1989 18.0764 15.699 18.0765 15.3906 17.7709C15.0822 17.4653 15.0821 16.9698 15.3904 16.6641L19.3048 12.7826H14.5984C13.6605 12.7826 12.7638 13.1642 12.1178 13.8382L9.29632 16.7821C8.55101 17.5597 7.51632 18 6.4342 18H2.78955C2.3535 18 2 17.6496 2 17.2174C2 16.7852 2.3535 16.4348 2.78955 16.4348H6.4342C7.08347 16.4348 7.70428 16.1706 8.15147 15.704L10.973 12.7601C11.2442 12.4772 11.5456 12.2295 11.87 12.0202C11.557 11.8248 11.2646 11.5942 10.9989 11.3309L7.89359 8.25288C7.44938 7.81258 6.8469 7.56522 6.21869 7.56522H2.78955C2.35349 7.56522 2 7.21483 2 6.78261Z" fill="#262627"/>
</svg>
