<svg width="20" height="12" viewBox="0 0 20 12" fill="none" xmlns="http://www.w3.org/2000/svg">
<path d="M0 0.782609C0 0.350386 0.353495 0 0.789552 0H4.21869C5.2657 0 6.26983 0.412266 7.01018 1.1461L10.1155 4.2241C10.7571 4.8601 11.6274 5.21739 12.5348 5.21739H17.3048L13.3904 1.33589C13.0821 1.03021 13.0822 0.534686 13.3906 0.229116C13.699 -0.0764538 14.1989 -0.07636 14.5072 0.229326L19.7689 5.44672C20.0771 5.75232 20.0771 6.24768 19.7689 6.55328L14.5072 11.7707C14.1989 12.0764 13.699 12.0765 13.3906 11.7709C13.0822 11.4653 13.0821 10.9698 13.3904 10.6641L17.3048 6.78261H12.5984C11.6605 6.78261 10.7638 7.1642 10.1178 7.83815L7.29632 10.7821C6.55101 11.5597 5.51632 12 4.4342 12H0.789552C0.353495 12 0 11.6496 0 11.2174C0 10.7852 0.353495 10.4348 0.789552 10.4348H4.4342C5.08347 10.4348 5.70428 10.1706 6.15147 9.70402L8.973 6.76011C9.24417 6.47718 9.54558 6.22951 9.86997 6.02018C9.55703 5.82484 9.26456 5.59421 8.99889 5.33088L5.89359 2.25288C5.44938 1.81258 4.8469 1.56522 4.21869 1.56522H0.789552C0.353495 1.56522 0 1.21483 0 0.782609Z" fill="#262627"/>
</svg>
