<svg width="21" height="18" viewBox="0 0 21 18" fill="none" xmlns="http://www.w3.org/2000/svg">
<path d="M7.56158 0C3.41944 0 0.0615759 3.35786 0.0615759 7.5C0.0615759 8.63288 0.313246 9.70882 0.76423 10.6734C0.510198 11.6714 0.226379 12.7842 0.0399904 13.5147C-0.193033 14.428 0.629398 15.2588 1.54374 15.039C2.29396 14.8587 3.44699 14.5819 4.47447 14.337C5.41678 14.7631 6.46241 15 7.56158 15C11.7037 15 15.0616 11.6421 15.0616 7.5C15.0616 3.35786 11.7037 0 7.56158 0ZM1.56158 7.5C1.56158 4.18629 4.24787 1.5 7.56158 1.5C10.8753 1.5 13.5616 4.18629 13.5616 7.5C13.5616 10.8137 10.8753 13.5 7.56158 13.5C6.60084 13.5 5.69487 13.2748 4.89161 12.8749L4.6482 12.7537L4.38368 12.8167C3.46095 13.0363 2.39489 13.2919 1.59592 13.4838C1.79467 12.7047 2.05784 11.6724 2.28601 10.7757L2.35619 10.4998L2.22568 10.2468C1.80145 9.42463 1.56158 8.49142 1.56158 7.5ZM12.5616 18.0001C10.5922 18.0001 8.80012 17.241 7.46191 15.9995C7.49511 15.9999 7.52835 16.0001 7.56163 16.0001C8.2796 16.0001 8.97677 15.911 9.64272 15.7434C10.5067 16.2254 11.5021 16.5001 12.5616 16.5001C13.5223 16.5001 14.4283 16.2748 15.2316 15.8749L15.475 15.7537L15.7395 15.8167C16.6611 16.0361 17.7046 16.2625 18.4787 16.4262C18.3037 15.6757 18.065 14.6711 17.8372 13.7757L17.767 13.4999L17.8975 13.2469C18.3217 12.4247 18.5616 11.4915 18.5616 10.5001C18.5616 8.38535 17.4676 6.52617 15.8146 5.45761C15.6363 4.73435 15.3653 4.04756 15.015 3.41052C17.9523 4.42684 20.0616 7.21712 20.0616 10.5001C20.0616 11.6332 19.8098 12.7094 19.3586 13.6741C19.6117 14.6821 19.8679 15.774 20.0304 16.4773C20.2348 17.3623 19.4554 18.1633 18.563 17.9768C17.8358 17.8248 16.6933 17.581 15.6495 17.3367C14.707 17.763 13.6611 18.0001 12.5616 18.0001Z" fill="#262627"/>
</svg>
