<svg width="24" height="24" viewBox="0 0 24 24" fill="none" xmlns="http://www.w3.org/2000/svg">
<path d="M20.802 3.19767C21.0415 3.43731 21.0633 3.81235 20.8674 4.07665L20.8021 4.15238L15.2009 9.7544L20.3249 9.75525C20.6667 9.75525 20.9491 10.0092 20.9938 10.3387L21 10.4303C21 10.7721 20.746 11.0546 20.4165 11.0993L20.3249 11.1054L13.5288 11.1033L13.5154 11.1022C13.4539 11.0975 13.395 11.0844 13.3396 11.064L13.2515 11.0231C13.067 10.9239 12.9345 10.7408 12.9042 10.5248L12.8977 10.4303V3.67603C12.8977 3.3032 13.1999 3.00095 13.5727 3.00095C13.9145 3.00095 14.197 3.25492 14.2417 3.58443L14.2478 3.67603L14.2477 8.79849L19.848 3.19778C20.1114 2.93412 20.5385 2.93407 20.802 3.19767ZM11.1032 13.5783V20.3326C11.1032 20.7055 10.801 21.0077 10.4281 21.0077C10.0864 21.0077 9.80391 20.7537 9.75921 20.4242L9.75305 20.3326L9.7526 15.2063L4.15249 20.8014C3.88889 21.065 3.46145 21.0651 3.19778 20.8015C2.95809 20.5618 2.93625 20.1868 3.13232 19.9225L3.19767 19.8468L8.79669 14.2531L3.67596 14.2534C3.33419 14.2534 3.05174 13.9994 3.00704 13.6699L3.00088 13.5783C3.00088 13.2055 3.30312 12.9032 3.67596 12.9032L10.4756 12.9049L10.5419 12.9128L10.6296 12.9338L10.6771 12.9506L10.7548 12.9873L10.8344 13.0391C10.8847 13.0771 10.9295 13.1219 10.9674 13.1722L11.0276 13.2676L11.0642 13.3517L11.0835 13.4156L11.0936 13.4648L11.0992 13.5168L11.0997 13.5093L11.1032 13.5783Z" fill="#262627"/>
</svg>
