<svg width="18" height="18" viewBox="0 0 18 18" fill="none" xmlns="http://www.w3.org/2000/svg">
<path d="M17.802 0.197671C18.0415 0.437311 18.0633 0.81235 17.8674 1.07665L17.8021 1.15238L12.2009 6.7544L17.3249 6.75525C17.6667 6.75525 17.9491 7.00922 17.9938 7.33873L18 7.43033C18 7.7721 17.746 8.05455 17.4165 8.09925L17.3249 8.10541L10.5288 8.10328L10.5154 8.10215C10.4539 8.09751 10.395 8.08435 10.3396 8.06402L10.2515 8.02309C10.067 7.92394 9.93447 7.74079 9.90422 7.52478L9.89767 7.43033V0.676032C9.89767 0.303196 10.1999 0.000952058 10.5727 0.000952058C10.9145 0.000952058 11.197 0.254921 11.2417 0.584428L11.2478 0.676032L11.2477 5.79849L16.848 0.197782C17.1114 -0.0658838 17.5385 -0.0659337 17.802 0.197671ZM8.10321 10.5783V17.3326C8.10321 17.7055 7.80097 18.0077 7.42813 18.0077C7.08636 18.0077 6.80391 17.7537 6.75921 17.4242L6.75305 17.3326L6.7526 12.2063L1.15249 17.8014C0.888885 18.065 0.461448 18.0651 0.197782 17.8015C-0.0419141 17.5618 -0.0637461 17.1868 0.132315 16.9225L0.197671 16.8468L5.79669 11.2531L0.675956 11.2534C0.334189 11.2534 0.0517402 10.9994 0.00703868 10.6699L0.000875949 10.5783C0.000875949 10.2055 0.30312 9.90324 0.675956 9.90324L7.47561 9.9049L7.54185 9.91278L7.62956 9.93381L7.67711 9.95065L7.75481 9.98735L7.83441 10.0391C7.88473 10.0771 7.92952 10.1219 7.96743 10.1722L8.02762 10.2676L8.06421 10.3517L8.08346 10.4156L8.09365 10.4648L8.09916 10.5168L8.09969 10.5093L8.10321 10.5783Z" fill="#262627"/>
</svg>
