<svg width="19" height="20" viewBox="0 0 19 20" fill="none" xmlns="http://www.w3.org/2000/svg">
<path d="M14 10C16.7614 10 19 7.76142 19 5C19 2.23858 16.7614 0 14 0C11.2386 0 9 2.23858 9 5C9 5.90641 9.24119 6.75648 9.66288 7.48955L6.94912 9.29762C6.21788 8.50004 5.16734 8 4 8C1.79086 8 0 9.79086 0 12C0 14.2091 1.79086 16 4 16C5.29598 16 6.44801 15.3837 7.17897 14.4281L11.066 16.3714C11.0227 16.5741 11 16.7844 11 17C11 18.6569 12.3431 20 14 20C15.6569 20 17 18.6569 17 17C17 15.3431 15.6569 14 14 14C13.0971 14 12.2874 14.3989 11.7374 15.03L7.85057 13.0869C7.94792 12.7413 8 12.3767 8 12C8 11.4977 7.90743 11.0171 7.73841 10.5742L10.601 8.66698C11.493 9.49424 12.6874 10 14 10ZM14 8.5C12.067 8.5 10.5 6.933 10.5 5C10.5 3.067 12.067 1.5 14 1.5C15.933 1.5 17.5 3.067 17.5 5C17.5 6.933 15.933 8.5 14 8.5ZM4 14.5C2.61929 14.5 1.5 13.3807 1.5 12C1.5 10.6193 2.61929 9.5 4 9.5C5.38071 9.5 6.5 10.6193 6.5 12C6.5 13.3807 5.38071 14.5 4 14.5ZM15.5 17C15.5 17.8284 14.8284 18.5 14 18.5C13.1716 18.5 12.5 17.8284 12.5 17C12.5 16.1716 13.1716 15.5 14 15.5C14.8284 15.5 15.5 16.1716 15.5 17Z" fill="#262627"/>
</svg>
