<svg width="24" height="24" viewBox="0 0 24 24" fill="none" xmlns="http://www.w3.org/2000/svg">
<path d="M6.75 22C6.33579 22 6 21.6642 6 21.25C6 20.8703 6.28215 20.5565 6.64823 20.5069L6.75 20.5L8.499 20.4996V18.0016L4.25 18.0018C3.05914 18.0018 2.08436 17.0767 2.00519 15.9059L2 15.7518V5.24957C2 4.05871 2.92516 3.08393 4.09595 3.00476L4.25 2.99957H19.7488C20.9397 2.99957 21.9145 3.92473 21.9936 5.09552L21.9988 5.24957V15.7518C21.9988 16.9427 21.0737 17.9175 19.9029 17.9967L19.7488 18.0018L15.499 18.0016V20.4996L17.25 20.5C17.6642 20.5 18 20.8358 18 21.25C18 21.6297 17.7178 21.9435 17.3518 21.9932L17.25 22H6.75ZM13.998 18.0016H9.998L9.999 20.5H13.999L13.998 18.0016ZM19.7488 4.49957H4.25C3.8703 4.49957 3.55651 4.78173 3.50685 5.1478L3.5 5.24957V15.7518C3.5 16.1315 3.78215 16.4453 4.14823 16.495L4.25 16.5018H19.7488C20.1285 16.5018 20.4423 16.2197 20.492 15.8536L20.4988 15.7518V5.24957C20.4988 4.86988 20.2167 4.55608 19.8506 4.50642L19.7488 4.49957Z" fill="#262627"/>
</svg>
