<svg width="20" height="19" viewBox="0 0 20 19" fill="none" xmlns="http://www.w3.org/2000/svg">
<path d="M4.75 19C4.33579 19 4 18.6642 4 18.25C4 17.8703 4.28215 17.5565 4.64823 17.5069L4.75 17.5L6.499 17.4996V15.0016L2.25 15.0018C1.05914 15.0018 0.0843551 14.0767 0.00519085 12.9059L0 12.7518V2.24957C0 1.05871 0.925161 0.0839279 2.09595 0.0047636L2.25 -0.000427246H17.7488C18.9397 -0.000427246 19.9145 0.924734 19.9936 2.09552L19.9988 2.24957V12.7518C19.9988 13.9427 19.0737 14.9175 17.9029 14.9967L17.7488 15.0018L13.499 15.0016V17.4996L15.25 17.5C15.6642 17.5 16 17.8358 16 18.25C16 18.6297 15.7178 18.9435 15.3518 18.9932L15.25 19H4.75ZM11.998 15.0016H7.998L7.999 17.5H11.999L11.998 15.0016ZM17.7488 1.49957H2.25C1.8703 1.49957 1.55651 1.78173 1.50685 2.1478L1.5 2.24957V12.7518C1.5 13.1315 1.78215 13.4453 2.14823 13.495L2.25 13.5018H17.7488C18.1285 13.5018 18.4423 13.2197 18.492 12.8536L18.4988 12.7518V2.24957C18.4988 1.86988 18.2167 1.55608 17.8506 1.50642L17.7488 1.49957Z" fill="#262627"/>
</svg>
