<svg width="24" height="24" viewBox="0 0 24 24" fill="none" xmlns="http://www.w3.org/2000/svg">
<path d="M20.2774 12.2758C20.0937 12.2758 19.9175 12.3488 19.7877 12.4788C19.6578 12.6087 19.5849 12.7849 19.5849 12.9686V18.4301C19.5834 18.7364 19.4605 19.0296 19.243 19.2454C19.0255 19.4612 18.7313 19.5818 18.425 19.5809H5.505C5.19992 19.5806 4.90741 19.4593 4.69175 19.2435C4.47608 19.0277 4.35489 18.7351 4.3548 18.4301V5.50399C4.35468 5.19876 4.47578 4.90597 4.69146 4.68999C4.90714 4.474 5.19977 4.35251 5.505 4.3522H10.9635C11.1468 4.35151 11.3223 4.2782 11.4517 4.14835C11.5811 4.01849 11.6537 3.84266 11.6537 3.65937C11.6537 3.47607 11.5811 3.30024 11.4517 3.17039C11.3223 3.04053 11.1468 2.96723 10.9635 2.96653H5.505C4.83257 2.96761 4.18803 3.23537 3.71277 3.71107C3.23751 4.18677 2.97036 4.83156 2.96991 5.50399V18.4301C2.97056 19.1023 3.2378 19.7469 3.71302 20.2224C4.18824 20.6979 4.83265 20.9655 5.50491 20.9665H18.4249C19.0985 20.9669 19.7448 20.7 20.2219 20.2245C20.699 19.749 20.968 19.1037 20.9698 18.4301V12.9686C20.9699 12.7849 20.8969 12.6087 20.7671 12.4788C20.6372 12.3489 20.4611 12.2758 20.2774 12.2758Z" fill="#262627"/>
<path d="M13.7958 10.8373C13.9796 10.8374 14.1558 10.7645 14.2858 10.6347L19.5739 5.34448V9.40167C19.5736 9.49269 19.5912 9.58288 19.6258 9.66707C19.6604 9.75126 19.7113 9.82779 19.7755 9.89227C19.8397 9.95675 19.9161 10.0079 20.0001 10.0428C20.0842 10.0777 20.1743 10.0957 20.2653 10.0957C20.3564 10.0957 20.4465 10.0777 20.5305 10.0428C20.6146 10.0079 20.6909 9.95675 20.7552 9.89227C20.8194 9.82779 20.8703 9.75126 20.9049 9.66707C20.9395 9.58288 20.9571 9.49269 20.9567 9.40167V3.72689C20.9686 3.63061 20.9595 3.53291 20.9302 3.44043C20.901 3.34795 20.8521 3.26286 20.7871 3.19092C20.722 3.11898 20.6422 3.06188 20.5531 3.0235C20.464 2.98512 20.3677 2.96636 20.2707 2.96849L20.2654 2.96649H14.446C14.2627 2.96719 14.0872 3.04049 13.9578 3.17035C13.8284 3.3002 13.7558 3.47603 13.7558 3.65933C13.7558 3.84262 13.8284 4.01845 13.9578 4.14831C14.0872 4.27816 14.2627 4.35147 14.446 4.35216H18.6049L13.3059 9.65513C13.2092 9.75206 13.1434 9.87547 13.1168 10.0098C13.0902 10.1441 13.1039 10.2832 13.1564 10.4097C13.2088 10.5362 13.2975 10.6443 13.4113 10.7204C13.5251 10.7965 13.6589 10.8371 13.7958 10.8373Z" fill="#262627"/>
</svg>
