<svg width="17" height="20" viewBox="0 0 17 20" fill="none" xmlns="http://www.w3.org/2000/svg">
<path d="M16.6977 0.148287C16.8879 0.289806 17 0.512927 17 0.750006V14.25C17 14.2767 16.9986 14.303 16.9959 14.329C16.9986 14.3856 17 14.4427 17 14.5C17 16.433 15.433 18 13.5 18C11.567 18 10 16.433 10 14.5C10 12.567 11.567 11 13.5 11C14.2436 11 14.9331 11.2319 15.5 11.6273V5.75803L7 8.30803V16.25C7 16.2766 6.99861 16.303 6.99589 16.3289C6.99862 16.3856 7 16.4426 7 16.5C7 18.433 5.433 20 3.5 20C1.567 20 0 18.433 0 16.5C0 14.567 1.567 13 3.5 13C4.24362 13 4.93308 13.2319 5.5 13.6273V3.75001C5.5 3.4188 5.71725 3.12681 6.03449 3.03164L16.0345 0.0316365C16.2616 -0.0364877 16.5075 0.00676659 16.6977 0.148287ZM7 6.74198L15.5 4.19198V1.75803L7 4.30803V6.74198ZM3.5 14.5C2.39543 14.5 1.5 15.3954 1.5 16.5C1.5 17.6046 2.39543 18.5 3.5 18.5C4.60457 18.5 5.5 17.6046 5.5 16.5C5.5 15.3954 4.60457 14.5 3.5 14.5ZM11.5 14.5C11.5 15.6046 12.3954 16.5 13.5 16.5C14.6046 16.5 15.5 15.6046 15.5 14.5C15.5 13.3954 14.6046 12.5 13.5 12.5C12.3954 12.5 11.5 13.3954 11.5 14.5Z" fill="#262627"/>
</svg>
