<svg width="20" height="20" viewBox="0 0 20 20" fill="none" xmlns="http://www.w3.org/2000/svg">
<path d="M16.8978 10.2294C16.7447 10.2294 16.5979 10.2903 16.4897 10.3986C16.3815 10.5068 16.3207 10.6537 16.3207 10.8068V15.358C16.3195 15.6133 16.2171 15.8576 16.0358 16.0374C15.8546 16.2172 15.6094 16.3178 15.3542 16.317H4.58749C4.33326 16.3168 4.0895 16.2157 3.90978 16.0358C3.73005 15.856 3.62906 15.6122 3.62899 15.358V4.58626C3.62889 4.3319 3.7298 4.08791 3.90954 3.90793C4.08928 3.72794 4.33313 3.62669 4.58749 3.62644H9.13623C9.28898 3.62586 9.43527 3.56477 9.54307 3.45656C9.65088 3.34835 9.7114 3.20182 9.7114 3.04908C9.7114 2.89633 9.65088 2.74981 9.54307 2.64159C9.43527 2.53338 9.28898 2.47229 9.13623 2.47171H4.58749C4.02713 2.47261 3.49001 2.69574 3.09396 3.09216C2.69792 3.48858 2.47529 4.02591 2.47491 4.58626V15.358C2.47546 15.9182 2.69816 16.4553 3.09418 16.8516C3.49019 17.2478 4.0272 17.4708 4.58741 17.4717H15.3541C15.9154 17.472 16.454 17.2496 16.8515 16.8534C17.2491 16.4571 17.4733 15.9193 17.4748 15.358V10.8068C17.4749 10.6537 17.4141 10.5069 17.3059 10.3986C17.1977 10.2903 17.0509 10.2295 16.8978 10.2294Z" fill="#262627"/>
<path d="M11.4965 9.03065C11.6496 9.03073 11.7965 8.97001 11.9049 8.86184L16.3116 4.45334V7.83433C16.3113 7.91018 16.326 7.98534 16.3548 8.05549C16.3837 8.12565 16.426 8.18943 16.4796 8.24316C16.5331 8.2969 16.5967 8.33953 16.6668 8.36863C16.7368 8.39772 16.8119 8.4127 16.8878 8.4127C16.9636 8.4127 17.0387 8.39772 17.1088 8.36863C17.1788 8.33953 17.2424 8.2969 17.296 8.24316C17.3495 8.18943 17.3919 8.12565 17.4207 8.05549C17.4495 7.98534 17.4642 7.91018 17.4639 7.83433V3.10535C17.4738 3.02511 17.4663 2.9437 17.4419 2.86663C17.4175 2.78956 17.3768 2.71865 17.3225 2.6587C17.2683 2.59875 17.2018 2.55117 17.1276 2.51919C17.0533 2.48721 16.9731 2.47157 16.8923 2.47335L16.8878 2.47168H12.0383C11.8856 2.47226 11.7393 2.53334 11.6315 2.64156C11.5237 2.74977 11.4631 2.89629 11.4631 3.04904C11.4631 3.20179 11.5237 3.34831 11.6315 3.45653C11.7393 3.56474 11.8856 3.62582 12.0383 3.6264H15.5041L11.0882 8.04555C11.0076 8.12632 10.9528 8.22916 10.9306 8.34108C10.9085 8.45299 10.9199 8.56897 10.9636 8.67436C11.0073 8.77976 11.0812 8.86985 11.1761 8.93326C11.2709 8.99667 11.3824 9.03056 11.4965 9.03065Z" fill="#262627"/>
</svg>
