<svg width="24" height="24" viewBox="0 0 24 24" fill="none" xmlns="http://www.w3.org/2000/svg">
<path d="M14.754 10.2222C15.7205 10.2222 16.504 10.9187 16.504 11.7778V15.9991C16.504 18.2087 14.4888 20 12.003 20C9.51712 20 7.50193 18.2087 7.50193 15.9991V11.7778C7.50193 10.9187 8.28543 10.2222 9.25193 10.2222H14.754ZM7.13128 10.2214C6.78183 10.5972 6.55636 11.0674 6.51057 11.5826L6.50193 11.7778V15.9991C6.50193 16.7516 6.69319 17.4645 7.03487 18.1013C6.70577 18.1805 6.35899 18.2222 6.00124 18.2222C3.79142 18.2222 2 16.6299 2 14.6656V11.7778C2 10.9616 2.70711 10.2923 3.60647 10.2274L3.75 10.2222L7.13128 10.2214ZM16.8747 10.2214L20.25 10.2222C21.2165 10.2222 22 10.9187 22 11.7778V14.6667C22 16.6303 20.2091 18.2222 18 18.2222C17.6436 18.2222 17.298 18.1808 16.9691 18.103C17.2697 17.5449 17.4538 16.9291 17.4951 16.2795L17.504 15.9991V11.7778C17.504 11.1864 17.2678 10.6441 16.8747 10.2214ZM12 4C13.6569 4 15 5.19391 15 6.66667C15 8.13943 13.6569 9.33333 12 9.33333C10.3431 9.33333 9 8.13943 9 6.66667C9 5.19391 10.3431 4 12 4ZM18.5 4.88889C19.8807 4.88889 21 5.88381 21 7.11111C21 8.33841 19.8807 9.33333 18.5 9.33333C17.1193 9.33333 16 8.33841 16 7.11111C16 5.88381 17.1193 4.88889 18.5 4.88889ZM5.5 4.88889C6.88071 4.88889 8 5.88381 8 7.11111C8 8.33841 6.88071 9.33333 5.5 9.33333C4.11929 9.33333 3 8.33841 3 7.11111C3 5.88381 4.11929 4.88889 5.5 4.88889Z" fill="#262627"/>
</svg>
