<svg width="20" height="16" viewBox="0 0 20 16" fill="none" xmlns="http://www.w3.org/2000/svg">
<path d="M12.754 6.22222C13.7205 6.22222 14.504 6.91867 14.504 7.77778V11.9991C14.504 14.2087 12.4888 16 10.003 16C7.51712 16 5.50193 14.2087 5.50193 11.9991V7.77778C5.50193 6.91867 6.28543 6.22222 7.25193 6.22222H12.754ZM5.13128 6.22139C4.78183 6.59718 4.55636 7.06741 4.51057 7.58258L4.50193 7.77778V11.9991C4.50193 12.7516 4.69319 13.4645 5.03487 14.1013C4.70577 14.1805 4.35899 14.2222 4.00124 14.2222C1.79142 14.2222 0 12.6299 0 10.6656V7.77778C0 6.96162 0.70711 6.29227 1.60647 6.22738L1.75 6.22222L5.13128 6.22139ZM14.8747 6.22139L18.25 6.22222C19.2165 6.22222 20 6.91867 20 7.77778V10.6667C20 12.6303 18.2091 14.2222 16 14.2222C15.6436 14.2222 15.298 14.1808 14.9691 14.103C15.2697 13.5449 15.4538 12.9291 15.4951 12.2795L15.504 11.9991V7.77778C15.504 7.18644 15.2678 6.64415 14.8747 6.22139ZM10 0C11.6569 0 13 1.19391 13 2.66667C13 4.13943 11.6569 5.33333 10 5.33333C8.34315 5.33333 7 4.13943 7 2.66667C7 1.19391 8.34315 0 10 0ZM16.5 0.888889C17.8807 0.888889 19 1.88381 19 3.11111C19 4.33841 17.8807 5.33333 16.5 5.33333C15.1193 5.33333 14 4.33841 14 3.11111C14 1.88381 15.1193 0.888889 16.5 0.888889ZM3.5 0.888889C4.88071 0.888889 6 1.88381 6 3.11111C6 4.33841 4.88071 5.33333 3.5 5.33333C2.11929 5.33333 1 4.33841 1 3.11111C1 1.88381 2.11929 0.888889 3.5 0.888889Z" fill="#262627"/>
</svg>
