<svg width="20" height="20" viewBox="0 0 20 20" fill="none" xmlns="http://www.w3.org/2000/svg">
<path d="M14.761 9.52101C17.6544 9.52101 20 11.8666 20 14.76C20 17.6534 17.6544 19.999 14.761 19.999C11.8676 19.999 9.52204 17.6534 9.52204 14.76C9.52204 11.8666 11.8676 9.52101 14.761 9.52101ZM9.54325 11.4254C9.26063 11.8667 9.03246 12.3463 8.86823 12.8546L2.14322 12.8548C1.74866 12.8548 1.42881 13.1747 1.42881 13.5692V14.4335C1.42881 15.058 1.70123 15.6515 2.17481 16.0587C3.37319 17.089 5.17922 17.6186 7.61696 17.6186C8.18738 17.6186 8.72328 17.5896 9.22498 17.532C9.46208 18.0084 9.76099 18.4501 10.1099 18.8469C9.34574 18.981 8.51422 19.0474 7.61696 19.0474C4.86459 19.0474 2.73203 18.422 1.24333 17.1421C0.454034 16.4635 0 15.4744 0 14.4335V13.5692C0 12.3856 0.959552 11.426 2.14322 11.426L9.54325 11.4254ZM17.9132 12.6189L12.62 17.9121C13.2302 18.3274 13.9673 18.5702 14.761 18.5702C16.8653 18.5702 18.5712 16.8643 18.5712 14.76C18.5712 13.9662 18.3285 13.2291 17.9132 12.6189ZM14.761 10.9498C12.6567 10.9498 10.9509 12.6557 10.9509 14.76C10.9509 15.5538 11.1936 16.2908 11.6089 16.901L16.9021 11.6078C16.2919 11.1926 15.5548 10.9498 14.761 10.9498ZM7.61696 0C10.2473 0 12.3797 2.13234 12.3797 4.76271C12.3797 7.39308 10.2473 9.52542 7.61696 9.52542C4.98659 9.52542 2.85425 7.39308 2.85425 4.76271C2.85425 2.13234 4.98659 0 7.61696 0ZM7.61696 1.42881C5.7757 1.42881 4.28306 2.92145 4.28306 4.76271C4.28306 6.60397 5.7757 8.0966 7.61696 8.0966C9.45822 8.0966 10.9509 6.60397 10.9509 4.76271C10.9509 2.92145 9.45822 1.42881 7.61696 1.42881Z" fill="#262627"/>
</svg>
