<svg width="16" height="20" viewBox="0 0 16 20" fill="none" xmlns="http://www.w3.org/2000/svg">
<path d="M13.7541 11.9999C14.9961 11.9999 16.0029 13.0068 16.0029 14.2488V15.1673C16.0029 15.7406 15.8237 16.2997 15.4903 16.7662C13.9445 18.9294 11.4202 20.0011 7.99988 20.0011C4.57891 20.0011 2.05595 18.9289 0.513786 16.7646C0.181823 16.2987 0.00341797 15.7409 0.00341797 15.1688V14.2488C0.00341797 13.0068 1.01027 11.9999 2.25229 11.9999H13.7541ZM7.99988 0.00463867C10.7613 0.00463867 12.9999 2.24321 12.9999 5.00464C12.9999 7.76606 10.7613 10.0046 7.99988 10.0046C5.23845 10.0046 2.99988 7.76606 2.99988 5.00464C2.99988 2.24321 5.23845 0.00463867 7.99988 0.00463867Z" fill="#262627"/>
</svg>
