<svg width="20" height="20" viewBox="0 0 20 20" fill="none" xmlns="http://www.w3.org/2000/svg">
<path d="M14.761 9.5215C17.6544 9.5215 20 11.8672 20 14.7608C20 17.6543 17.6544 20 14.761 20C11.8676 20 9.52204 17.6543 9.52204 14.7608C9.52204 11.8672 11.8676 9.5215 14.761 9.5215ZM9.54356 11.4255C8.92699 12.3882 8.5695 13.5327 8.5695 14.7608C8.5695 16.3265 9.15067 17.7566 10.1091 18.8469C9.34573 18.982 8.51422 19.0484 7.61696 19.0484C4.86459 19.0484 2.73203 18.423 1.24333 17.143C0.454034 16.4644 0 15.4752 0 14.4342V13.5699C0 12.3862 0.959552 11.4266 2.14322 11.4266L9.54356 11.4255ZM17.9132 12.6196L12.62 17.9131C13.2302 18.3284 13.9673 18.5711 14.761 18.5711C16.8653 18.5711 18.5712 16.8652 18.5712 14.7608C18.5712 13.9669 18.3285 13.2298 17.9132 12.6196ZM14.761 10.9504C12.6567 10.9504 10.9509 12.6563 10.9509 14.7608C10.9509 15.5546 11.1936 16.2917 11.6089 16.9019L16.9021 11.6084C16.2919 11.1931 15.5548 10.9504 14.761 10.9504ZM7.61696 0C10.2473 0 12.3797 2.13245 12.3797 4.76295C12.3797 7.39346 10.2473 9.52591 7.61696 9.52591C4.98659 9.52591 2.85425 7.39346 2.85425 4.76295C2.85425 2.13245 4.98659 0 7.61696 0Z" fill="#262627"/>
</svg>
