<svg width="24" height="24" viewBox="0 0 24 24" fill="none" xmlns="http://www.w3.org/2000/svg">
<path d="M8 11.5294C10.2091 11.5294 12 9.8439 12 7.76471C12 5.68552 10.2091 4 8 4C5.79086 4 4 5.68552 4 7.76471C4 9.8439 5.79086 11.5294 8 11.5294ZM17 11.5294C18.6569 11.5294 20 10.2653 20 8.70588C20 7.14649 18.6569 5.88235 17 5.88235C15.3431 5.88235 14 7.14649 14 8.70588C14 10.2653 15.3431 11.5294 17 11.5294ZM4.25 13.4118C3.00736 13.4118 2 14.3599 2 15.5294V15.7647C2 15.7647 2 20 8 20C14 20 14 15.7647 14 15.7647V15.5294C14 14.3599 12.9926 13.4118 11.75 13.4118H4.25ZM17.0002 18.5882C15.829 18.5882 14.9321 18.4178 14.2453 18.1568C14.5873 17.6157 14.7719 17.0957 14.8724 16.6904C14.9328 16.4468 14.9645 16.2378 14.9813 16.0802C14.9897 16.0012 14.9944 15.9341 14.997 15.8811C14.9983 15.8546 14.9991 15.8315 14.9996 15.812L15.0001 15.7856L15.0002 15.7744L15.0002 15.7694L15.0002 15.767C15.0002 15.7639 15.0002 15.7647 15.0002 15.7647V15.5294C15.0002 14.7086 14.6567 13.9634 14.0977 13.414C14.1316 13.4125 14.1658 13.4118 14.2002 13.4118H19.8002C21.0152 13.4118 22.0002 14.3388 22.0002 15.4824C22.0002 15.4824 22.0002 18.5882 17.0002 18.5882Z" fill="#262627"/>
</svg>
