<svg width="24" height="24" viewBox="0 0 24 24" fill="none" xmlns="http://www.w3.org/2000/svg">
<path d="M10.5695 16.76C10.5695 15.5322 10.9269 14.3879 11.5432 13.4254L4.14215 13.426C2.95907 13.426 2 14.3851 2 15.5682V16.4445C2 16.9894 2.16994 17.5208 2.48615 17.9645C3.95512 20.0262 6.35834 21.0474 9.61696 21.0474C10.5041 21.0474 11.3279 20.9718 12.0857 20.8192C11.1412 19.7324 10.5695 18.3129 10.5695 16.76ZM14.3797 6.76271C14.3797 4.13234 12.2473 2 9.61696 2C6.98659 2 4.85425 4.13234 4.85425 6.76271C4.85425 9.39308 6.98659 11.5254 9.61696 11.5254C12.2473 11.5254 14.3797 9.39308 14.3797 6.76271ZM22 16.76C22 13.8666 19.6544 11.521 16.761 11.521C13.8676 11.521 11.522 13.8666 11.522 16.76C11.522 19.6534 13.8676 21.999 16.761 21.999C19.6544 21.999 22 19.6534 22 16.76ZM16.6754 13.4337L16.761 13.4261L16.8466 13.4337C17.041 13.469 17.1943 13.6223 17.2296 13.8167L17.2373 13.9023L17.2363 16.2837H19.6224L19.708 16.2914C19.9024 16.3267 20.0557 16.48 20.091 16.6744L20.0986 16.76L20.091 16.8456C20.0557 17.04 19.9024 17.1933 19.708 17.2286L19.6224 17.2362H17.2363L17.2373 19.6176L17.2296 19.7032C17.1943 19.8976 17.041 20.0509 16.8466 20.0862L16.761 20.0939L16.6754 20.0862C16.481 20.0509 16.3277 19.8976 16.2924 19.7032L16.2848 19.6176L16.2838 17.2362H13.9071L13.8215 17.2286C13.6271 17.1933 13.4738 17.04 13.4385 16.8456L13.4308 16.76L13.4385 16.6744C13.4738 16.48 13.6271 16.3267 13.8215 16.2914L13.9071 16.2837H16.2838L16.2848 13.9023L16.2924 13.8167C16.3277 13.6223 16.481 13.469 16.6754 13.4337Z" fill="#262627"/>
</svg>
