<svg width="20" height="20" viewBox="0 0 20 20" fill="none" xmlns="http://www.w3.org/2000/svg">
<path d="M8.5695 14.76C8.5695 13.5322 8.92686 12.3879 9.54325 11.4254L2.14215 11.426C0.959073 11.426 0 12.3851 0 13.5682V14.4445C0 14.9894 0.169938 15.5208 0.486147 15.9645C1.95512 18.0262 4.35834 19.0474 7.61696 19.0474C8.50408 19.0474 9.32792 18.9718 10.0857 18.8192C9.14124 17.7324 8.5695 16.3129 8.5695 14.76ZM12.3797 4.76271C12.3797 2.13234 10.2473 0 7.61696 0C4.98659 0 2.85425 2.13234 2.85425 4.76271C2.85425 7.39308 4.98659 9.52541 7.61696 9.52541C10.2473 9.52541 12.3797 7.39308 12.3797 4.76271ZM20 14.76C20 11.8666 17.6544 9.521 14.761 9.521C11.8676 9.521 9.52204 11.8666 9.52204 14.76C9.52204 17.6534 11.8676 19.999 14.761 19.999C17.6544 19.999 20 17.6534 20 14.76ZM14.6754 11.4337L14.761 11.4261L14.8466 11.4337C15.041 11.469 15.1943 11.6223 15.2296 11.8167L15.2373 11.9023L15.2363 14.2837H17.6224L17.708 14.2914C17.9024 14.3267 18.0557 14.48 18.091 14.6744L18.0986 14.76L18.091 14.8456C18.0557 15.04 17.9024 15.1933 17.708 15.2286L17.6224 15.2362H15.2363L15.2373 17.6176L15.2296 17.7032C15.1943 17.8976 15.041 18.0509 14.8466 18.0862L14.761 18.0939L14.6754 18.0862C14.481 18.0509 14.3277 17.8976 14.2924 17.7032L14.2848 17.6176L14.2838 15.2362H11.9071L11.8215 15.2286C11.6271 15.1933 11.4738 15.04 11.4385 14.8456L11.4308 14.76L11.4385 14.6744C11.4738 14.48 11.6271 14.3267 11.8215 14.2914L11.9071 14.2837H14.2838L14.2848 11.9023L14.2924 11.8167C14.3277 11.6223 14.481 11.469 14.6754 11.4337Z" fill="#262627"/>
</svg>
