<svg width="20" height="16" viewBox="0 0 20 16" fill="none" xmlns="http://www.w3.org/2000/svg">
<path d="M6 7.52941C8.20914 7.52941 10 5.8439 10 3.76471C10 1.68552 8.20914 0 6 0C3.79086 0 2 1.68552 2 3.76471C2 5.8439 3.79086 7.52941 6 7.52941ZM15 7.52941C16.6569 7.52941 18 6.26527 18 4.70588C18 3.14649 16.6569 1.88235 15 1.88235C13.3431 1.88235 12 3.14649 12 4.70588C12 6.26527 13.3431 7.52941 15 7.52941ZM2.25 9.41177C1.00736 9.41177 0 10.3599 0 11.5294V11.7647C0 11.7647 0 16 6 16C12 16 12 11.7647 12 11.7647V11.5294C12 10.3599 10.9926 9.41177 9.75 9.41177H2.25ZM15.0002 14.5882C13.829 14.5882 12.9321 14.4178 12.2453 14.1568C12.5873 13.6157 12.7719 13.0957 12.8724 12.6904C12.9328 12.4468 12.9645 12.2378 12.9813 12.0802C12.9897 12.0012 12.9944 11.9341 12.997 11.8811C12.9983 11.8546 12.9991 11.8315 12.9996 11.812L13.0001 11.7856L13.0002 11.7744L13.0002 11.7694L13.0002 11.767C13.0002 11.7639 13.0002 11.7647 13.0002 11.7647V11.5294C13.0002 10.7086 12.6567 9.96336 12.0977 9.41397C12.1316 9.41251 12.1658 9.41177 12.2002 9.41177H17.8002C19.0152 9.41177 20.0002 10.3388 20.0002 11.4824C20.0002 11.4824 20.0002 14.5882 15.0002 14.5882Z" fill="#262627"/>
</svg>
