<svg width="24" height="24" viewBox="0 0 24 24" fill="none" xmlns="http://www.w3.org/2000/svg">
<path d="M16.761 11.5215C19.6544 11.5215 22 13.8672 22 16.7608C22 19.6543 19.6544 22 16.761 22C13.8676 22 11.522 19.6543 11.522 16.7608C11.522 13.8672 13.8676 11.5215 16.761 11.5215ZM11.5432 13.426C11.2606 13.8674 11.0325 14.3469 10.8682 14.8552L4.14215 14.8555C3.74818 14.8555 3.42881 15.1749 3.42881 15.5689V16.1192C3.42881 16.6294 3.61085 17.123 3.9422 17.511C5.13603 18.9091 7.00861 19.6195 9.61696 19.6195C10.1851 19.6195 10.7184 19.5858 11.2175 19.5187C11.451 19.9901 11.744 20.4269 12.0857 20.8202C11.328 20.9729 10.5041 21.0484 9.61696 21.0484C6.62039 21.0484 4.34762 20.1862 2.85565 18.4389C2.3034 17.7922 2 16.9696 2 16.1192V15.5689C2 14.3857 2.95907 13.4266 4.14215 13.4266L11.5432 13.426ZM16.761 13.4267L16.6754 13.4343C16.481 13.4696 16.3277 13.6229 16.2924 13.8174L16.2847 13.903L16.2838 16.2845H13.9071L13.8215 16.2921C13.6271 16.3274 13.4738 16.4807 13.4385 16.6751L13.4308 16.7608L13.4385 16.8464C13.4738 17.0408 13.6271 17.1941 13.8215 17.2294L13.9071 17.237H16.2838L16.2847 19.6185L16.2924 19.7041C16.3277 19.8985 16.481 20.0518 16.6754 20.0871L16.761 20.0948L16.8466 20.0871C17.041 20.0518 17.1943 19.8985 17.2296 19.7041L17.2373 19.6185L17.2363 17.237H19.6224L19.708 17.2294C19.9024 17.1941 20.0557 17.0408 20.091 16.8464L20.0986 16.7608L20.091 16.6751C20.0557 16.4807 19.9024 16.3274 19.708 16.2921L19.6224 16.2845H17.2363L17.2373 13.903L17.2296 13.8174C17.1943 13.6229 17.041 13.4696 16.8466 13.4343L16.761 13.4267ZM9.61696 2C12.2473 2 14.3797 4.13245 14.3797 6.76295C14.3797 9.39346 12.2473 11.5259 9.61696 11.5259C6.98659 11.5259 4.85425 9.39346 4.85425 6.76295C4.85425 4.13245 6.98659 2 9.61696 2ZM9.61696 3.42889C7.7757 3.42889 6.28306 4.9216 6.28306 6.76295C6.28306 8.60431 7.7757 10.097 9.61696 10.097C11.4582 10.097 12.9509 8.60431 12.9509 6.76295C12.9509 4.9216 11.4582 3.42889 9.61696 3.42889Z" fill="#262627"/>
</svg>
