<svg width="20" height="20" viewBox="0 0 20 20" fill="none" xmlns="http://www.w3.org/2000/svg">
<path d="M14.761 9.5215C17.6544 9.5215 20 11.8672 20 14.7608C20 17.6543 17.6544 20 14.761 20C11.8676 20 9.52204 17.6543 9.52204 14.7608C9.52204 11.8672 11.8676 9.5215 14.761 9.5215ZM9.54325 11.426C9.26063 11.8674 9.03246 12.3469 8.86823 12.8552L2.14215 12.8555C1.74818 12.8555 1.42881 13.1749 1.42881 13.5689V14.1192C1.42881 14.6294 1.61085 15.123 1.9422 15.511C3.13603 16.9091 5.00861 17.6195 7.61696 17.6195C8.18509 17.6195 8.71839 17.5858 9.21745 17.5187C9.45101 17.9901 9.74396 18.4269 10.0857 18.8202C9.32796 18.9729 8.50412 19.0484 7.61696 19.0484C4.62039 19.0484 2.34762 18.1862 0.855649 16.4389C0.303402 15.7922 0 14.9696 0 14.1192V13.5689C0 12.3857 0.959073 11.4266 2.14215 11.4266L9.54325 11.426ZM14.761 11.4267L14.6754 11.4343C14.481 11.4696 14.3277 11.6229 14.2924 11.8174L14.2847 11.903L14.2838 14.2845H11.9071L11.8215 14.2921C11.6271 14.3274 11.4738 14.4807 11.4385 14.6751L11.4308 14.7608L11.4385 14.8464C11.4738 15.0408 11.6271 15.1941 11.8215 15.2294L11.9071 15.237H14.2838L14.2847 17.6185L14.2924 17.7041C14.3277 17.8985 14.481 18.0518 14.6754 18.0871L14.761 18.0948L14.8466 18.0871C15.041 18.0518 15.1943 17.8985 15.2296 17.7041L15.2373 17.6185L15.2363 15.237H17.6224L17.708 15.2294C17.9024 15.1941 18.0557 15.0408 18.091 14.8464L18.0986 14.7608L18.091 14.6751C18.0557 14.4807 17.9024 14.3274 17.708 14.2921L17.6224 14.2845H15.2363L15.2373 11.903L15.2296 11.8174C15.1943 11.6229 15.041 11.4696 14.8466 11.4343L14.761 11.4267ZM7.61696 0C10.2473 0 12.3797 2.13245 12.3797 4.76295C12.3797 7.39346 10.2473 9.52591 7.61696 9.52591C4.98659 9.52591 2.85425 7.39346 2.85425 4.76295C2.85425 2.13245 4.98659 0 7.61696 0ZM7.61696 1.42889C5.7757 1.42889 4.28306 2.9216 4.28306 4.76295C4.28306 6.60431 5.7757 8.09702 7.61696 8.09702C9.45822 8.09702 10.9509 6.60431 10.9509 4.76295C10.9509 2.9216 9.45822 1.42889 7.61696 1.42889Z" fill="#262627"/>
</svg>
