<svg width="24" height="24" viewBox="0 0 24 24" fill="none" xmlns="http://www.w3.org/2000/svg">
<path d="M15.6291 3.76859L20.2314 8.37085C21.4972 9.63664 21.1509 11.7705 19.5498 12.5711L14.9045 14.8937C14.7373 14.9774 14.6094 15.1232 14.5483 15.2999L13.1757 19.2733C12.8882 20.1056 11.8287 20.3496 11.206 19.727L8.24529 16.7662L4.01162 21H3L3.00008 19.9885L7.23375 15.7547L4.27305 12.794C3.65042 12.1714 3.89448 11.1118 4.72675 10.8243L8.70007 9.45168C8.87683 9.39061 9.02265 9.26275 9.10628 9.09549L11.4289 4.4502C12.2295 2.84908 14.3634 2.50279 15.6291 3.76859ZM19.2199 9.38239L14.6176 4.78012C14.0422 4.20476 13.0723 4.36216 12.7084 5.08995L10.3858 9.73524C10.1349 10.237 9.69745 10.6206 9.16717 10.8038L5.55409 12.052L11.9481 18.4459L13.1962 14.8328C13.3794 14.3026 13.763 13.8651 14.2648 13.6142L18.9101 11.2916C19.6378 10.9277 19.7952 9.95775 19.2199 9.38239Z" fill="#262627"/>
</svg>
