<svg width="18" height="18" viewBox="0 0 18 18" fill="none" xmlns="http://www.w3.org/2000/svg">
<path d="M12.6291 0.768585L17.2314 5.37085C18.4972 6.63664 18.1509 8.77053 16.5498 9.57109L11.9045 11.8937C11.7373 11.9774 11.6094 12.1232 11.5483 12.2999L10.1757 16.2733C9.88823 17.1056 8.82866 17.3496 8.20603 16.727L5.24529 13.7662L1.01162 18H0L7.89537e-05 16.9885L4.23375 12.7547L1.27305 9.79399C0.650417 9.17136 0.894476 8.11179 1.72675 7.82428L5.70007 6.45168C5.87683 6.39061 6.02265 6.26275 6.10628 6.09549L8.4289 1.4502C9.22946 -0.150924 11.3634 -0.49721 12.6291 0.768585Z" fill="#262627"/>
</svg>
