<svg width="18" height="20" viewBox="0 0 18 20" fill="none" xmlns="http://www.w3.org/2000/svg">
<path d="M5.2042 2.82022C5.57962 2.64521 6.02584 2.80767 6.20085 3.1831C6.37586 3.55852 6.2134 4.00474 5.83797 4.17975C3.21382 5.40306 1.5 8.04132 1.5 10.9911C1.5 15.1384 4.85759 18.5 8.99894 18.5C13.1403 18.5 16.4979 15.1384 16.4979 10.9911C16.4979 8.04742 14.7912 5.41365 12.1753 4.18693C11.8002 4.01107 11.6388 3.56448 11.8147 3.18946C11.9905 2.81443 12.4371 2.65298 12.8121 2.82885C15.9502 4.30041 17.9979 7.46041 17.9979 10.9911C17.9979 15.9664 13.9691 20 8.99894 20C4.02876 20 0 15.9664 0 10.9911C0 7.45309 2.05623 4.28771 5.2042 2.82022ZM8.99894 0.49585C9.37864 0.49585 9.69243 0.778004 9.74209 1.14408L9.74894 1.24585V8.74578C9.74894 9.15999 9.41315 9.49578 8.99894 9.49578C8.61925 9.49578 8.30545 9.21363 8.25579 8.84755L8.24894 8.74578V1.24585C8.24894 0.831636 8.58473 0.49585 8.99894 0.49585Z" fill="#262627"/>
</svg>
