<svg width="17" height="20" viewBox="0 0 17 20" fill="none" xmlns="http://www.w3.org/2000/svg">
<path d="M9.99994 0.00427246C11.5976 0.00427246 12.9036 1.25319 12.9939 2.8233L12.9989 2.99904L15.2499 3.00004C16.1171 3.00004 16.8369 3.63076 16.9758 4.45862L16.9941 4.60667L16.9999 4.75022L16.999 8.50123L15.0014 8.50134C14.2578 8.50134 13.6352 9.04453 13.5214 9.74039L13.5062 9.87255L13.5014 10.0013C13.5014 10.7449 14.0446 11.3675 14.7404 11.4813L14.8726 11.4966L15.0014 11.5013L16.999 11.5012L16.9999 15.2527C16.9999 16.1708 16.2928 16.9238 15.3934 16.9969L15.2498 17.0027L12.9989 17.002L12.9948 17.1747C12.9105 18.6305 11.788 19.8078 10.3567 19.9774L10.1762 19.9933L9.99994 19.9984C8.40226 19.9984 7.09628 18.7495 7.00503 17.1779L6.99994 17.002L4.74994 17.0027C3.88277 17.0027 3.16292 16.3719 3.02411 15.5443L3.00574 15.3963L2.99994 15.2528L2.99894 13.001L2.83593 12.9963C1.38011 12.9119 0.202793 11.7894 0.0331979 10.3581L0.0172997 10.1776L0.012207 10.0013C0.012207 8.40366 1.26113 7.09768 2.83587 7.00644L2.99894 7.00104L2.99994 4.75004C2.99994 3.88287 3.63066 3.16302 4.45825 3.02421L4.60625 3.00584L4.74975 3.00004L6.99894 2.99904L7.00503 2.828C7.08938 1.37218 8.21184 0.194859 9.64319 0.0252633L9.82366 0.00936532L9.99994 0.00427246ZM9.99994 1.50427C9.22024 1.50427 8.57949 2.09916 8.5068 2.86042L8.49994 3.00501L8.49847 4.49908L4.74994 4.50004C4.63159 4.50004 4.53245 4.58227 4.50654 4.69283L4.49994 4.75022L4.49903 8.5012L3.01221 8.50134C2.18378 8.50134 1.51221 9.17292 1.51221 10.0013C1.51221 10.781 2.1071 11.4218 2.86769 11.4945L3.01213 11.5013L4.49902 11.5012L4.49994 15.2527C4.49994 15.371 4.58217 15.4701 4.69255 15.496L4.74984 15.5027L8.49848 15.5022L8.49994 16.9984C8.49994 17.8268 9.17151 18.4984 9.99994 18.4984C10.7796 18.4984 11.4204 17.9035 11.4931 17.1435L11.4999 16.9991L11.4985 15.5022L15.2499 15.5027C15.3683 15.5027 15.4674 15.4204 15.4933 15.3101L15.4999 15.2528L15.4989 13L14.9761 13.0009L14.7968 12.9944C13.2855 12.8923 12.0927 11.677 12.0068 10.1532L12.0018 9.97609L12.0083 9.7967C12.1105 8.28541 13.3258 7.09263 14.8269 7.00634L15.0014 7.00134L15.4989 7.00104L15.4999 4.75004C15.4999 4.65536 15.4473 4.57297 15.3696 4.53054L15.3071 4.50664L15.2497 4.50004L11.4985 4.49908L11.4999 3.00427C11.4999 2.17585 10.8284 1.50427 9.99994 1.50427Z" fill="#262627"/>
</svg>
