<svg width="24" height="24" viewBox="0 0 24 24" fill="none" xmlns="http://www.w3.org/2000/svg">
<path d="M12.9999 2.00427C14.5976 2.00427 15.9036 3.25319 15.9939 4.8233L15.9989 4.99904L18.2499 5.00004C19.1171 5.00004 19.8369 5.63076 19.9758 6.45862L19.9941 6.60667L19.9999 6.75022L19.999 10.5012L18.0014 10.5013C17.2578 10.5013 16.6352 11.0445 16.5214 11.7404L16.5062 11.8726L16.5014 12.0013C16.5014 12.7449 17.0446 13.3675 17.7404 13.4813L17.8726 13.4966L18.0014 13.5013L19.999 13.5012L19.9999 17.2527C19.9999 18.1708 19.2928 18.9238 18.3934 18.9969L18.2498 19.0027L15.9989 19.002L15.9948 19.1747C15.9105 20.6305 14.788 21.8078 13.3567 21.9774L13.1762 21.9933L12.9999 21.9984C11.4023 21.9984 10.0963 20.7495 10.005 19.1779L9.99994 19.002L7.74994 19.0027C6.88277 19.0027 6.16292 18.3719 6.02411 17.5443L6.00574 17.3963L5.99994 17.2528L5.99894 15.001L5.83593 14.9963C4.38011 14.9119 3.20279 13.7894 3.0332 12.3581L3.0173 12.1776L3.01221 12.0013C3.01221 10.4037 4.26113 9.09768 5.83587 9.00644L5.99894 9.00104L5.99994 6.75004C5.99994 5.88287 6.63066 5.16302 7.45825 5.02421L7.60625 5.00584L7.74975 5.00004L9.99894 4.99904L10.005 4.828C10.0894 3.37218 11.2118 2.19486 12.6432 2.02526L12.8237 2.00937L12.9999 2.00427ZM12.9999 3.50427C12.2202 3.50427 11.5795 4.09916 11.5068 4.86042L11.4999 5.00501L11.4985 6.49908L7.74994 6.50004C7.63159 6.50004 7.53245 6.58227 7.50654 6.69283L7.49994 6.75022L7.49903 10.5012L6.01221 10.5013C5.18378 10.5013 4.51221 11.1729 4.51221 12.0013C4.51221 12.781 5.1071 13.4218 5.86769 13.4945L6.01213 13.5013L7.49902 13.5012L7.49994 17.2527C7.49994 17.371 7.58217 17.4701 7.69255 17.496L7.74984 17.5027L11.4985 17.5022L11.4999 18.9984C11.4999 19.8268 12.1715 20.4984 12.9999 20.4984C13.7796 20.4984 14.4204 19.9035 14.4931 19.1435L14.4999 18.9991L14.4985 17.5022L18.2499 17.5027C18.3683 17.5027 18.4674 17.4204 18.4933 17.3101L18.4999 17.2528L18.4989 15L17.9761 15.0009L17.7968 14.9944C16.2855 14.8923 15.0927 13.677 15.0068 12.1532L15.0018 11.9761L15.0083 11.7967C15.1105 10.2854 16.3258 9.09263 17.8269 9.00634L18.0014 9.00134L18.4989 9.00104L18.4999 6.75004C18.4999 6.65536 18.4473 6.57297 18.3696 6.53054L18.3071 6.50664L18.2497 6.50004L14.4985 6.49908L14.4999 5.00427C14.4999 4.17585 13.8284 3.50427 12.9999 3.50427Z" fill="#262627"/>
</svg>
