<svg width="18" height="18" viewBox="0 0 18 18" fill="none" xmlns="http://www.w3.org/2000/svg">
<path d="M5 3H3V5H5V3ZM0 2.25C0 1.00736 1.00736 0 2.25 0H5.75C6.99264 0 8 1.00736 8 2.25V5.75C8 6.99264 6.99264 8 5.75 8H2.25C1.00736 8 0 6.99264 0 5.75V2.25ZM2.25 1.5C1.83579 1.5 1.5 1.83579 1.5 2.25V5.75C1.5 6.16421 1.83579 6.5 2.25 6.5H5.75C6.16421 6.5 6.5 6.16421 6.5 5.75V2.25C6.5 1.83579 6.16421 1.5 5.75 1.5H2.25ZM3 13H5V15H3V13ZM0 12.25C0 11.0074 1.00736 10 2.25 10H5.75C6.99264 10 8 11.0074 8 12.25V15.75C8 16.9926 6.99264 18 5.75 18H2.25C1.00736 18 0 16.9926 0 15.75V12.25ZM2.25 11.5C1.83579 11.5 1.5 11.8358 1.5 12.25V15.75C1.5 16.1642 1.83579 16.5 2.25 16.5H5.75C6.16421 16.5 6.5 16.1642 6.5 15.75V12.25C6.5 11.8358 6.16421 11.5 5.75 11.5H2.25ZM15 3H13V5H15V3ZM12.25 0C11.0074 0 10 1.00736 10 2.25V5.75C10 6.99264 11.0074 8 12.25 8H15.75C16.9926 8 18 6.99264 18 5.75V2.25C18 1.00736 16.9926 0 15.75 0H12.25ZM11.5 2.25C11.5 1.83579 11.8358 1.5 12.25 1.5H15.75C16.1642 1.5 16.5 1.83579 16.5 2.25V5.75C16.5 6.16421 16.1642 6.5 15.75 6.5H12.25C11.8358 6.5 11.5 6.16421 11.5 5.75V2.25ZM10 10H12.75V12.75H10V10ZM15.25 12.75H12.75V15.25H10V18H12.75V15.25H15.25V18H18V15.25H15.25V12.75ZM15.25 12.75V10H18V12.75H15.25Z" fill="#262627"/>
</svg>
