<svg width="18" height="18" viewBox="0 0 18 18" fill="none" xmlns="http://www.w3.org/2000/svg">
<path d="M0 2.25C0 1.00736 1.00736 0 2.25 0H11.75C12.9926 0 14 1.00736 14 2.25V11H18V14.75C18 16.5449 16.5449 18 14.75 18H3.25C1.45507 18 0 16.5449 0 14.75V2.25ZM14 16.5H14.75C15.7165 16.5 16.5 15.7165 16.5 14.75V12.5H14V16.5ZM3.5 4.75C3.5 5.16421 3.83579 5.5 4.25 5.5H9.75C10.1642 5.5 10.5 5.16421 10.5 4.75C10.5 4.33579 10.1642 4 9.75 4H4.25C3.83579 4 3.5 4.33579 3.5 4.75ZM4.25 8C3.83579 8 3.5 8.33579 3.5 8.75C3.5 9.16421 3.83579 9.5 4.25 9.5H9.75C10.1642 9.5 10.5 9.16421 10.5 8.75C10.5 8.33579 10.1642 8 9.75 8H4.25ZM3.5 12.75C3.5 13.1642 3.83579 13.5 4.25 13.5H7.25C7.66421 13.5 8 13.1642 8 12.75C8 12.3358 7.66421 12 7.25 12H4.25C3.83579 12 3.5 12.3358 3.5 12.75Z" fill="#262627"/>
</svg>
