<svg width="24" height="24" viewBox="0 0 24 24" fill="none" xmlns="http://www.w3.org/2000/svg">
<path d="M10.2441 6.07317H13.7563C13.7563 5.1033 12.9701 4.31707 12.0002 4.31707C11.0303 4.31707 10.2441 5.1033 10.2441 6.07317ZM8.92704 6.07317C8.92704 4.37591 10.3029 3 12.0002 3C13.6975 3 15.0734 4.37591 15.0734 6.07317H20.1222C20.4859 6.07317 20.7807 6.36801 20.7807 6.73171C20.7807 7.09541 20.4859 7.39024 20.1222 7.39024H18.964L17.9348 18.0245C17.7715 19.7122 16.3531 21 14.6575 21H9.34297C7.64732 21 6.22893 19.7122 6.0656 18.0245L5.03648 7.39024H3.87826C3.51456 7.39024 3.21973 7.09541 3.21973 6.73171C3.21973 6.36801 3.51456 6.07317 3.87826 6.07317H8.92704ZM10.6831 10.2439C10.6831 9.8802 10.3883 9.58537 10.0246 9.58537C9.6609 9.58537 9.36607 9.8802 9.36607 10.2439V16.8293C9.36607 17.193 9.6609 17.4878 10.0246 17.4878C10.3883 17.4878 10.6831 17.193 10.6831 16.8293V10.2439ZM13.9758 9.58537C14.3395 9.58537 14.6344 9.8802 14.6344 10.2439V16.8293C14.6344 17.193 14.3395 17.4878 13.9758 17.4878C13.6121 17.4878 13.3173 17.193 13.3173 16.8293V10.2439C13.3173 9.8802 13.6121 9.58537 13.9758 9.58537ZM7.37655 17.8976C7.47454 18.9103 8.32558 19.6829 9.34297 19.6829H14.6575C15.6748 19.6829 16.5259 18.9103 16.6239 17.8976L17.6407 7.39024H6.3597L7.37655 17.8976Z" fill="#262627"/>
</svg>
