<svg width="18" height="18" viewBox="0 0 18 18" fill="none" xmlns="http://www.w3.org/2000/svg">
<path d="M7.24412 3.07317H10.7563C10.7563 2.1033 9.97008 1.31707 9.00021 1.31707C8.03035 1.31707 7.24412 2.1033 7.24412 3.07317ZM5.92704 3.07317C5.92704 1.37591 7.30295 0 9.00021 0C10.6975 0 12.0734 1.37591 12.0734 3.07317H17.1222C17.4859 3.07317 17.7807 3.36801 17.7807 3.73171C17.7807 4.09541 17.4859 4.39024 17.1222 4.39024H15.964L14.9348 15.0245C14.7715 16.7122 13.3531 18 11.6575 18H6.34297C4.64732 18 3.22893 16.7122 3.0656 15.0245L2.03648 4.39024H0.878263C0.514563 4.39024 0.219727 4.09541 0.219727 3.73171C0.219727 3.36801 0.514563 3.07317 0.878263 3.07317H5.92704ZM7.68314 7.2439C7.68314 6.8802 7.3883 6.58537 7.0246 6.58537C6.6609 6.58537 6.36607 6.8802 6.36607 7.2439V13.8293C6.36607 14.193 6.6609 14.4878 7.0246 14.4878C7.3883 14.4878 7.68314 14.193 7.68314 13.8293V7.2439ZM10.9758 6.58537C11.3395 6.58537 11.6344 6.8802 11.6344 7.2439V13.8293C11.6344 14.193 11.3395 14.4878 10.9758 14.4878C10.6121 14.4878 10.3173 14.193 10.3173 13.8293V7.2439C10.3173 6.8802 10.6121 6.58537 10.9758 6.58537ZM4.37655 14.8976C4.47454 15.9103 5.32558 16.6829 6.34297 16.6829H11.6575C12.6748 16.6829 13.5259 15.9103 13.6239 14.8976L14.6407 4.39024H3.3597L4.37655 14.8976Z" fill="#262627"/>
</svg>
