<svg width="18" height="19" viewBox="0 0 18 19" fill="none" xmlns="http://www.w3.org/2000/svg">
<path d="M5.98489 3.00002C5.90135 3.00019 5.81821 3.00178 5.7355 3.00477C5.7297 3.00498 5.7239 3.0052 5.7181 3.00542C4.55763 3.05015 3.48324 3.36959 2.58643 3.88751C1.02356 4.79009 0 6.29543 0 8C0 9.70785 1.02751 11.2157 2.59546 12.1177C3.56274 12.6741 4.73571 13 6 13H6.5C6.81933 13 7.09204 12.8004 7.20023 12.5192C7.23238 12.4357 7.25 12.3449 7.25 12.25C7.25 11.8358 6.91421 11.5 6.5 11.5H6C5.03665 11.5 4.14401 11.2646 3.412 10.8636C2.25554 10.2302 1.5 9.18373 1.5 8C1.5 6.81627 2.25554 5.76979 3.41201 5.13637C4.08679 4.76678 4.89807 4.53782 5.7754 4.50428L6 4.5H12.939L11.2197 6.21967C11.2193 6.21999 11.219 6.22032 11.2187 6.22064C10.9268 6.51361 10.9271 6.98776 11.2197 7.28033C11.4859 7.5466 11.9026 7.5708 12.1962 7.35295L12.2803 7.28033C12.2803 7.28037 12.2804 7.2803 12.2803 7.28033L12.2812 7.27945L15.2803 4.28033C15.2863 4.27432 15.2922 4.26823 15.298 4.26208C15.5616 3.98033 15.5672 3.54487 15.3149 3.25657C15.3038 3.24398 15.2923 3.23167 15.2803 3.21967L12.2813 0.220642C12.2811 0.220455 12.2815 0.220828 12.2813 0.220642C12.2812 0.220504 12.2805 0.219808 12.2803 0.21967L12.1962 0.147052C11.9026 -0.0708028 11.4859 -0.0465966 11.2197 0.21967C10.9271 0.51224 10.9268 0.986386 11.2187 1.27936C11.219 1.27968 11.2193 1.28001 11.2197 1.28033L12.938 3H6C5.99496 3 5.98992 3.00001 5.98489 3.00002ZM0.611015 18.0673C0.372034 18.2056 0.290463 18.5115 0.42882 18.7505C0.518214 18.9049 0.683114 19 0.861533 19H17C17.5522 19 18 18.5523 18 18V8.86722C18 8.59108 17.7761 8.36722 17.5 8.36722C17.412 8.36722 17.3256 8.39043 17.2494 8.4345L0.611015 18.0673ZM4.58467 17.5L16.5 10.6017V17.5H4.58467Z" fill="#262627"/>
</svg>
