<svg width="18" height="18" viewBox="0 0 18 18" fill="none" xmlns="http://www.w3.org/2000/svg">
<path d="M9 0C4.02944 0 0 4.02944 0 9C0 12.0777 1.55928 14.865 4.0231 16.5009L2.25 16.5C1.83579 16.5 1.5 16.8358 1.5 17.25C1.5 17.6297 1.78215 17.9435 2.14823 17.9932L2.25 18H6.25C6.6297 18 6.94349 17.7178 6.99315 17.3518L7 17.25V13.25C7 12.8358 6.66421 12.5 6.25 12.5C5.8703 12.5 5.55651 12.7822 5.50685 13.1482L5.5 13.25L5.49903 15.635C3.07593 14.3557 1.5 11.8247 1.5 9C1.5 4.85786 4.85786 1.5 9 1.5C13.1421 1.5 16.5 4.85786 16.5 9C16.5 9.41421 16.8358 9.75 17.25 9.75C17.6642 9.75 18 9.41421 18 9C18 4.02944 13.9706 0 9 0ZM9 6.25C7.48122 6.25 6.25 7.48122 6.25 9C6.25 10.5188 7.48122 11.75 9 11.75C10.5188 11.75 11.75 10.5188 11.75 9C11.75 7.48122 10.5188 6.25 9 6.25ZM9 7.75C9.69036 7.75 10.25 8.30964 10.25 9C10.25 9.69036 9.69036 10.25 9 10.25C8.30964 10.25 7.75 9.69036 7.75 9C7.75 8.30964 8.30964 7.75 9 7.75Z" fill="#262627"/>
</svg>
