<svg width="18" height="19" viewBox="0 0 18 19" fill="none" xmlns="http://www.w3.org/2000/svg">
<path d="M12.0151 3.00002C12.0986 3.00019 12.1818 3.00178 12.2645 3.00477C12.2703 3.00498 12.2761 3.0052 12.2819 3.00542C13.4423 3.05015 14.5167 3.36959 15.4135 3.88751C16.9764 4.79009 18 6.29543 18 8C18 9.70785 16.9725 11.2157 15.4045 12.1177C14.4372 12.6741 13.2643 13 12 13H11.5C11.1806 13 10.9079 12.8004 10.7997 12.5192C10.7676 12.4357 10.75 12.3449 10.75 12.25C10.75 11.8358 11.0858 11.5 11.5 11.5H12C12.9633 11.5 13.856 11.2646 14.588 10.8636C15.7444 10.2302 16.5 9.18373 16.5 8C16.5 6.81627 15.7444 5.76979 14.588 5.13637C13.9132 4.76678 13.1019 4.53782 12.2246 4.50428L12 4.5H5.06097L6.78126 6.22064C7.07319 6.51361 7.07287 6.98776 6.7803 7.28033C6.51403 7.5466 6.09737 7.5708 5.80375 7.35295L5.71964 7.28033L5.71876 7.27945L2.71964 4.28033C2.71363 4.27432 2.70774 4.26823 2.70198 4.26208C2.43837 3.98033 2.43275 3.54487 2.6851 3.25657C2.69612 3.24398 2.70763 3.23167 2.71964 3.21967L5.71866 0.220642L5.71964 0.21967L5.80375 0.147052C6.09737 -0.0708028 6.51403 -0.0465966 6.7803 0.21967C7.07286 0.51224 7.07319 0.986386 6.78127 1.27936L5.06197 3H12C12.005 3 12.01 3.00001 12.0151 3.00002ZM17.389 18.0673C17.6279 18.2056 17.7095 18.5115 17.5711 18.7505C17.4818 18.9049 17.3169 19 17.1384 19H1C0.447716 19 0 18.5523 0 18V8.86722C0 8.59108 0.223858 8.36722 0.5 8.36722C0.587971 8.36722 0.674387 8.39043 0.750519 8.4345L17.389 18.0673ZM13.4153 17.5L1.5 10.6017V17.5H13.4153Z" fill="#262627"/>
</svg>
