<svg width="18" height="18" viewBox="0 0 18 18" fill="none" xmlns="http://www.w3.org/2000/svg">
<path d="M3.75 4.5C3.34494 4.5 3 4.18276 3 3.7777V3.7233C3 3.33021 3.30507 3.00189 3.69816 3.00012L3.75 3C9.9632 3 15 8.0368 15 14.25L14.9999 14.3018C14.9981 14.6949 14.6698 15 14.2767 15H14.2223C13.8172 15 13.5 14.6551 13.5 14.25C13.5 8.86522 9.13478 4.5 3.75 4.5Z" fill="#262627"/>
<path d="M10.294 15C10.6733 15 10.9952 14.7129 10.9995 14.3336C10.9998 14.3058 11 14.2779 11 14.25C11 10.2459 7.75406 7 3.75 7C3.72209 7 3.69422 7.00016 3.66639 7.00047C3.2871 7.00476 3 7.3267 3 7.70602V7.79638C3 8.19503 3.35135 8.5 3.75 8.5C6.92564 8.5 9.5 11.0744 9.5 14.25C9.5 14.6486 9.80497 15 10.2036 15H10.294Z" fill="#262627"/>
<path d="M6 13.5C6 14.3284 5.32843 15 4.5 15C3.67157 15 3 14.3284 3 13.5C3 12.6716 3.67157 12 4.5 12C5.32843 12 6 12.6716 6 13.5Z" fill="#262627"/>
<path d="M3.25 0C1.45507 0 0 1.45507 0 3.25V14.75C0 16.5449 1.45507 18 3.25 18H14.75C16.5449 18 18 16.5449 18 14.75V3.25C18 1.45507 16.5449 0 14.75 0H3.25ZM1.5 3.25C1.5 2.2835 2.2835 1.5 3.25 1.5H14.75C15.7165 1.5 16.5 2.2835 16.5 3.25V14.75C16.5 15.7165 15.7165 16.5 14.75 16.5H3.25C2.2835 16.5 1.5 15.7165 1.5 14.75V3.25Z" fill="#262627"/>
</svg>
