<svg width="20" height="20" viewBox="0 0 20 20" fill="none" xmlns="http://www.w3.org/2000/svg">
<path d="M19.25 10.5C19.6642 10.5 20 10.1642 20 9.75C20 9.33579 19.6642 9 19.25 9L0.75 9C0.335787 9 0 9.33579 0 9.75C0 10.1642 0.335787 10.5 0.75 10.5L19.25 10.5ZM18 2.25C18 1.00736 16.9926 0 15.75 0H4.25C3.00736 0 2 1.00736 2 2.25V8H3.5V2.25C3.5 1.83579 3.83578 1.5 4.25 1.5H15.75C16.1642 1.5 16.5 1.83579 16.5 2.25V8H18V2.25ZM3.5 17.25V11.5H2V17.25C2 18.4926 3.00736 19.5 4.25 19.5H15.75C16.9926 19.5 18 18.4926 18 17.25V11.5H16.5V17.25C16.5 17.6642 16.1642 18 15.75 18H4.25C3.83579 18 3.5 17.6642 3.5 17.25Z" fill="#262627"/>
</svg>
