<svg width="20" height="20" viewBox="0 0 20 20" fill="none" xmlns="http://www.w3.org/2000/svg">
<path d="M8.78782 1.10251C9.28302 0.0991331 10.7138 0.0991272 11.209 1.10251L13.567 5.88023L18.8395 6.64638C19.9468 6.80728 20.3889 8.16804 19.5877 8.94906L15.7724 12.668L16.6731 17.9192C16.8622 19.022 15.7047 19.863 14.7143 19.3424L9.99842 16.8631L5.28252 19.3424C4.29213 19.863 3.13459 19.0221 3.32374 17.9192L4.2244 12.668L0.409159 8.94906C-0.392086 8.16804 0.0500454 6.80728 1.15735 6.64638L6.42988 5.88023L8.78782 1.10251ZM9.99842 2.03891L7.74008 6.6148C7.54344 7.01324 7.16332 7.28941 6.72361 7.3533L1.67382 8.08708L5.32788 11.6489C5.64606 11.9591 5.79125 12.4059 5.71614 12.8438L4.85353 17.8732L9.37021 15.4987C9.76349 15.2919 10.2333 15.2919 10.6266 15.4987L15.1433 17.8732L14.2807 12.8438C14.2056 12.4059 14.3508 11.9591 14.6689 11.6489L18.323 8.08708L13.2732 7.3533C12.8335 7.28941 12.4534 7.01324 12.2568 6.6148L9.99842 2.03891Z" fill="#262627"/>
</svg>
