<svg width="20" height="20" viewBox="0 0 20 20" fill="none" xmlns="http://www.w3.org/2000/svg">
<path d="M9.99929 0.349976C9.5175 0.349673 9.03557 0.600519 8.78782 1.10251L6.42988 5.88023L1.15735 6.64638C0.0500454 6.80728 -0.392086 8.16804 0.409159 8.94906L4.2244 12.668L3.32374 17.9192C3.17402 18.7921 3.86803 19.501 4.65504 19.5004C4.86293 19.5006 5.07736 19.4513 5.28448 19.3424L9.99939 16.8636L14.7143 19.3424C15.7047 19.863 16.8622 19.022 16.6731 17.9192L15.7724 12.668L19.5877 8.94906C20.3889 8.16804 19.9468 6.80728 18.8395 6.64638L13.567 5.88023L11.209 1.10251C10.9617 0.601369 10.4803 0.350525 9.99929 0.349976ZM10 15.3436V2.04212L12.2568 6.6148C12.4534 7.01324 12.8335 7.28941 13.2732 7.3533L18.323 8.08708L14.6689 11.6489C14.3508 11.9591 14.2056 12.4059 14.2807 12.8438L15.1433 17.8732L10.6266 15.4987C10.4305 15.3955 10.2153 15.3439 10 15.3436Z" fill="#262627"/>
</svg>
