<svg width="24" height="24" viewBox="0 0 24 24" fill="none" xmlns="http://www.w3.org/2000/svg">
<path d="M15.0198 9.23971L10.389 14.6769L8.39938 12.4165C8.33563 12.3441 8.25825 12.285 8.17166 12.2426C8.08508 12.2001 7.99097 12.1751 7.89473 12.1691C7.79848 12.163 7.70198 12.1759 7.61074 12.2071C7.51949 12.2383 7.43528 12.2872 7.36292 12.351C7.29057 12.4147 7.23147 12.4921 7.18902 12.5787C7.14657 12.6653 7.12158 12.7594 7.1155 12.8556C7.10941 12.9519 7.12234 13.0484 7.15355 13.1396C7.18476 13.2308 7.23363 13.3151 7.29738 13.3874L9.8476 16.2839C9.91632 16.3624 10.001 16.4253 10.0961 16.4684C10.1911 16.5115 10.2943 16.5337 10.3986 16.5336H10.4043C10.5097 16.5325 10.6137 16.5089 10.7092 16.4644C10.8047 16.4198 10.8896 16.3554 10.9582 16.2753L16.139 10.1924C16.2648 10.044 16.3266 9.85164 16.3107 9.65768C16.2949 9.46372 16.2028 9.28395 16.0546 9.15781C15.9065 9.03166 15.7143 8.96944 15.5203 8.98479C15.3263 9.00015 15.1463 9.09183 15.0198 9.23971Z" fill="#262627"/>
<path d="M12 2C10.0222 2 8.08879 2.58649 6.4443 3.6853C4.79981 4.78412 3.51809 6.3459 2.76121 8.17317C2.00433 10.0004 1.8063 12.0111 2.19215 13.9509C2.578 15.8907 3.53041 17.6725 4.92894 19.0711C6.32746 20.4696 8.10929 21.422 10.0491 21.8079C11.9889 22.1937 13.9996 21.9957 15.8268 21.2388C17.6541 20.4819 19.2159 19.2002 20.3147 17.5557C21.4135 15.9112 22 13.9778 22 12C21.9999 9.34786 20.9463 6.80436 19.071 4.92901C17.1956 3.05366 14.6521 2.00007 12 2ZM12 20.5C10.3189 20.5 8.67548 20.0015 7.27766 19.0675C5.87984 18.1335 4.79037 16.806 4.14703 15.2528C3.50368 13.6996 3.33536 11.9906 3.66333 10.3417C3.9913 8.69289 4.80085 7.17834 5.9896 5.98959C7.17834 4.80085 8.6929 3.9913 10.3417 3.66333C11.9906 3.33535 13.6996 3.50368 15.2528 4.14702C16.806 4.79037 18.1335 5.87984 19.0675 7.27765C20.0015 8.67547 20.5 10.3189 20.5 12C20.4974 14.2535 19.601 16.414 18.0075 18.0075C16.414 19.601 14.2535 20.4974 12 20.5Z" fill="#262627"/>
</svg>
