<svg width="24" height="24" viewBox="0 0 24 24" fill="none" xmlns="http://www.w3.org/2000/svg">
<path d="M12 2.00031C10.0222 2.00031 8.08879 2.5868 6.4443 3.68562C4.79981 4.78443 3.51809 6.34622 2.76121 8.17348C2.00433 10.0007 1.8063 12.0114 2.19215 13.9512C2.578 15.891 3.53041 17.6729 4.92894 19.0714C6.32746 20.4699 8.10929 21.4223 10.0491 21.8082C11.9889 22.194 13.9996 21.996 15.8268 21.2391C17.6541 20.4822 19.2159 19.2005 20.3147 17.556C21.4135 15.9115 22 13.9781 22 12.0003C22.0001 10.6871 21.7414 9.3867 21.2389 8.17342C20.7364 6.96014 19.9998 5.85773 19.0712 4.92914C18.1426 4.00054 17.0402 3.26395 15.8269 2.76142C14.6136 2.25889 13.3132 2.00026 12 2.00031ZM16.139 10.1917L10.9582 16.2747C10.8897 16.3549 10.8048 16.4195 10.7093 16.4642C10.6137 16.5088 10.5097 16.5324 10.4042 16.5335H10.3986C10.2942 16.5336 10.191 16.5114 10.096 16.4683C10.0009 16.4251 9.91623 16.3621 9.84759 16.2835L7.29733 13.387C7.2336 13.3146 7.18474 13.2304 7.15354 13.1392C7.12235 13.0479 7.10943 12.9514 7.11553 12.8552C7.12785 12.6608 7.21687 12.4793 7.36301 12.3506C7.50915 12.2219 7.70044 12.1565 7.8948 12.1688C8.08916 12.1811 8.27067 12.2702 8.39939 12.4163L10.3891 14.6761L15.0198 9.23954C15.146 9.09112 15.3261 8.99893 15.5203 8.98326C15.7145 8.96759 15.907 9.02972 16.0555 9.15598C16.2039 9.28224 16.2961 9.4623 16.3117 9.65653C16.3274 9.85076 16.2653 10.0433 16.139 10.1917Z" fill="#18714C"/>
</svg>
