<svg width="24" height="24" viewBox="0 0 24 24" fill="none" xmlns="http://www.w3.org/2000/svg">
<path d="M14.9205 7.03866C14.7227 7.23639 14.5881 7.48833 14.5335 7.76261C14.4789 8.03688 14.5069 8.32118 14.6139 8.57955C14.721 8.83792 14.9022 9.05875 15.1347 9.21412C15.3672 9.36948 15.6406 9.45241 15.9202 9.45241C16.1999 9.45241 16.4733 9.36948 16.7058 9.21412C16.9383 9.05875 17.1195 8.83792 17.2265 8.57955C17.3336 8.32118 17.3616 8.03688 17.307 7.76261C17.2524 7.48833 17.1177 7.23639 16.92 7.03866C16.6548 6.77351 16.2952 6.62456 15.9202 6.62456C15.5453 6.62456 15.1856 6.77351 14.9205 7.03866Z" fill="#262627"/>
<path d="M20.9931 5.41988C20.9912 4.78077 20.7365 4.16838 20.2848 3.71632C19.833 3.26426 19.2208 3.00923 18.5816 3.00688L12.9529 3.00001H12.9511C12.634 2.99917 12.3199 3.06111 12.027 3.18225C11.734 3.30339 11.4679 3.48134 11.244 3.70583L3.70633 11.2432C3.25403 11.6964 3 12.3105 3 12.9508C3 13.5911 3.25403 14.2052 3.70633 14.6584L9.34084 20.2923C9.56508 20.5167 9.83134 20.6947 10.1244 20.8161C10.4175 20.9376 10.7316 21.0001 11.0488 21.0001C11.3661 21.0001 11.6802 20.9376 11.9733 20.8161C12.2663 20.6947 12.5326 20.5167 12.7568 20.2923L20.2925 12.7569C20.7449 12.3027 20.9993 11.6879 21 11.0468L20.9931 5.41988ZM19.2262 11.6908L11.6905 19.2262C11.6062 19.3105 11.5062 19.3774 11.3961 19.4231C11.286 19.4687 11.168 19.4922 11.0488 19.4922C10.9296 19.4922 10.8116 19.4687 10.7015 19.4231C10.5914 19.3774 10.4914 19.3105 10.4072 19.2262L4.77266 13.5923C4.68839 13.5081 4.62154 13.4081 4.57593 13.298C4.53032 13.188 4.50685 13.07 4.50685 12.9508C4.50685 12.8317 4.53032 12.7137 4.57593 12.6036C4.62154 12.4936 4.68839 12.3936 4.77266 12.3093L12.3084 4.77394C12.479 4.6038 12.7101 4.50816 12.9511 4.50794L18.5787 4.51481C18.8191 4.51527 19.0495 4.611 19.2194 4.78103C19.3893 4.95106 19.4848 5.18151 19.4851 5.42188L19.492 11.0489C19.4921 11.1681 19.4687 11.2862 19.4231 11.3963C19.3775 11.5065 19.3106 11.6066 19.2262 11.6908Z" fill="#262627"/>
</svg>
