<svg width="16" height="4" viewBox="0 0 16 4" fill="none" xmlns="http://www.w3.org/2000/svg">
<path d="M0.511787 0.762821C0.267405 1.00756 0.100983 1.31936 0.0335673 1.6588C-0.0338488 1.99824 0.0007682 2.35008 0.133041 2.66982C0.265314 2.98957 0.489302 3.26285 0.776681 3.45513C1.06406 3.6474 1.40192 3.75003 1.74755 3.75003C2.09318 3.75003 2.43104 3.6474 2.71842 3.45513C3.0058 3.26285 3.22979 2.98957 3.36206 2.66982C3.49433 2.35008 3.52895 1.99824 3.46153 1.6588C3.39412 1.31936 3.22769 1.00756 2.98331 0.762821C2.82107 0.600245 2.62843 0.471275 2.41639 0.383283C2.20435 0.29529 1.97708 0.25 1.74755 0.25C1.51802 0.25 1.29075 0.29529 1.07871 0.383283C0.866671 0.471275 0.674028 0.600245 0.511787 0.762821Z" fill="#262627"/>
<path d="M7.96818 3.75001C8.93333 3.75001 9.71573 2.96655 9.71573 2.00011C9.71573 1.03367 8.93333 0.25021 7.96818 0.25021C7.00304 0.25021 6.22063 1.03367 6.22063 2.00011C6.22063 2.96655 7.00304 3.75001 7.96818 3.75001Z" fill="#262627"/>
<path d="M14.2525 3.75001C15.2176 3.75001 16 2.96655 16 2.00011C16 1.03367 15.2176 0.25021 14.2525 0.25021C13.2873 0.25021 12.5049 1.03367 12.5049 2.00011C12.5049 2.96655 13.2873 3.75001 14.2525 3.75001Z" fill="#262627"/>
</svg>
