<svg width="4" height="16" viewBox="0 0 4 16" fill="none" xmlns="http://www.w3.org/2000/svg">
<path d="M3.23718 0.511787C2.99244 0.267405 2.68064 0.100983 2.3412 0.0335673C2.00176 -0.0338488 1.64992 0.0007682 1.33018 0.133041C1.01043 0.265314 0.737145 0.489302 0.544871 0.776681C0.352597 1.06406 0.249971 1.40192 0.249971 1.74755C0.249971 2.09318 0.352597 2.43104 0.544871 2.71842C0.737145 3.0058 1.01043 3.22979 1.33018 3.36206C1.64992 3.49433 2.00176 3.52895 2.3412 3.46153C2.68064 3.39412 2.99244 3.22769 3.23718 2.98331C3.39976 2.82107 3.52873 2.62843 3.61672 2.41639C3.70471 2.20435 3.75 1.97708 3.75 1.74755C3.75 1.51802 3.70471 1.29075 3.61672 1.07871C3.52873 0.866671 3.39976 0.674028 3.23718 0.511787Z" fill="#262627"/>
<path d="M0.24999 7.96818C0.24999 8.93333 1.03345 9.71573 1.99989 9.71573C2.96633 9.71573 3.74979 8.93333 3.74979 7.96818C3.74979 7.00304 2.96633 6.22063 1.99989 6.22063C1.03345 6.22063 0.24999 7.00304 0.24999 7.96818Z" fill="#262627"/>
<path d="M0.24999 14.2525C0.24999 15.2176 1.03345 16 1.99989 16C2.96633 16 3.74979 15.2176 3.74979 14.2525C3.74979 13.2873 2.96633 12.5049 1.99989 12.5049C1.03345 12.5049 0.24999 13.2873 0.24999 14.2525Z" fill="#262627"/>
</svg>
