<svg width="24" height="24" viewBox="0 0 24 24" fill="none" xmlns="http://www.w3.org/2000/svg">
<path d="M13.2372 4.51179C12.9924 4.2674 12.6806 4.10098 12.3412 4.03357C12.0018 3.96615 11.6499 4.00077 11.3302 4.13304C11.0104 4.26531 10.7371 4.4893 10.5449 4.77668C10.3526 5.06406 10.25 5.40192 10.25 5.74755C10.25 6.09318 10.3526 6.43104 10.5449 6.71842C10.7371 7.0058 11.0104 7.22979 11.3302 7.36206C11.6499 7.49433 12.0018 7.52895 12.3412 7.46153C12.6806 7.39412 12.9924 7.22769 13.2372 6.98331C13.3998 6.82107 13.5287 6.62843 13.6167 6.41639C13.7047 6.20435 13.75 5.97708 13.75 5.74755C13.75 5.51802 13.7047 5.29075 13.6167 5.07871C13.5287 4.86667 13.3998 4.67403 13.2372 4.51179Z" fill="#262627"/>
<path d="M10.25 11.9682C10.25 12.9333 11.0334 13.7157 11.9999 13.7157C12.9663 13.7157 13.7498 12.9333 13.7498 11.9682C13.7498 11.003 12.9663 10.2206 11.9999 10.2206C11.0334 10.2206 10.25 11.003 10.25 11.9682Z" fill="#262627"/>
<path d="M10.25 18.2525C10.25 19.2176 11.0334 20 11.9999 20C12.9663 20 13.7498 19.2176 13.7498 18.2525C13.7498 17.2873 12.9663 16.5049 11.9999 16.5049C11.0334 16.5049 10.25 17.2873 10.25 18.2525Z" fill="#262627"/>
</svg>
