<svg width="20" height="18" viewBox="0 0 20 18" fill="none" xmlns="http://www.w3.org/2000/svg">
<path fill-rule="evenodd" clip-rule="evenodd" d="M0.130702 16.5026L9.20492 0.506431C9.29245 0.352127 9.41929 0.223921 9.57245 0.134938C9.72561 0.0459543 9.8996 -0.000611625 10.0766 6.0661e-06C10.2536 0.000623758 10.4272 0.048403 10.5798 0.138453C10.7323 0.228504 10.8583 0.357591 10.9447 0.512503L19.8727 16.5087C19.9578 16.6611 20.0017 16.8333 20 17.008C19.9982 17.1828 19.951 17.354 19.8629 17.5048C19.7747 17.6555 19.6489 17.7806 19.4977 17.8674C19.3465 17.9543 19.1753 18 19.0011 18H0.998899C0.824088 18 0.652338 17.954 0.500811 17.8666C0.349283 17.7791 0.223284 17.6533 0.135402 17.5018C0.0475214 17.3502 0.000836008 17.1781 1.1124e-05 17.0028C-0.00081376 16.8275 0.0442507 16.655 0.130702 16.5026ZM9.45966 11.468C9.60015 11.6089 9.79068 11.6881 9.98935 11.6881C10.188 11.6881 10.3786 11.6089 10.519 11.468C10.6595 11.3271 10.7385 11.136 10.7385 10.9367V5.68344C10.7385 5.48415 10.6596 5.29302 10.5191 5.15209C10.3786 5.01117 10.188 4.932 9.98935 4.932C9.79066 4.932 9.6001 5.01117 9.4596 5.15209C9.31911 5.29302 9.24018 5.48415 9.24018 5.68344V10.9367C9.24023 11.136 9.31917 11.3271 9.45966 11.468ZM10.9025 14.0204C10.9025 14.5265 10.4935 14.9367 9.98903 14.9367C9.48453 14.9367 9.07555 14.5265 9.07555 14.0204C9.07555 13.5144 9.48453 13.1042 9.98903 13.1042C10.4935 13.1042 10.9025 13.5144 10.9025 14.0204Z" fill="#7E6030"/>
</svg>
