<svg width="24" height="24" viewBox="0 0 24 24" fill="none" xmlns="http://www.w3.org/2000/svg">
<path d="M12 2C10.0222 2 8.08879 2.58649 6.4443 3.6853C4.79981 4.78412 3.51809 6.3459 2.76121 8.17317C2.00433 10.0004 1.8063 12.0111 2.19215 13.9509C2.578 15.8907 3.53041 17.6725 4.92894 19.0711C6.32746 20.4696 8.10929 21.422 10.0491 21.8079C11.9889 22.1937 13.9996 21.9957 15.8268 21.2388C17.6541 20.4819 19.2159 19.2002 20.3147 17.5557C21.4135 15.9112 22 13.9778 22 12C22 9.34785 20.9464 6.80434 19.071 4.92899C17.1957 3.05363 14.6522 2.00005 12 2ZM12 20.5C10.3189 20.5 8.67548 20.0015 7.27766 19.0675C5.87984 18.1335 4.79037 16.806 4.14703 15.2528C3.50368 13.6996 3.33536 11.9906 3.66333 10.3417C3.9913 8.69289 4.80085 7.17834 5.9896 5.98959C7.17834 4.80085 8.6929 3.9913 10.3417 3.66333C11.9906 3.33535 13.6996 3.50368 15.2528 4.14702C16.806 4.79037 18.1335 5.87984 19.0675 7.27765C20.0015 8.67547 20.5 10.3189 20.5 12C20.4974 14.2535 19.601 16.414 18.0075 18.0075C16.414 19.601 14.2535 20.4974 12 20.5Z" fill="#262627"/>
<path d="M14.4699 8.46972L8.46985 14.4697C8.39999 14.5393 8.34454 14.622 8.30667 14.713C8.2688 14.8041 8.24926 14.9017 8.24917 15.0003C8.24907 15.0989 8.26842 15.1966 8.30611 15.2877C8.3438 15.3788 8.39909 15.4616 8.46881 15.5313C8.53853 15.601 8.62132 15.6563 8.71244 15.694C8.80356 15.7317 8.90121 15.751 8.99982 15.751C9.09842 15.7509 9.19604 15.7313 9.28708 15.6934C9.37813 15.6556 9.46081 15.6001 9.5304 15.5303L15.5304 9.53027C15.6706 9.38954 15.7492 9.19894 15.749 9.0003C15.7488 8.80167 15.6698 8.61122 15.5294 8.47076C15.3889 8.3303 15.1985 8.25131 14.9998 8.25111C14.8012 8.25092 14.6106 8.32954 14.4699 8.46972Z" fill="#262627"/>
</svg>
