<svg width="24" height="24" viewBox="0 0 24 24" fill="none" xmlns="http://www.w3.org/2000/svg">
<path d="M11.2564 8.63689V13.9362C11.2564 14.1372 11.3348 14.33 11.4742 14.4721C11.6137 14.6143 11.8029 14.6941 12.0001 14.6941C12.1974 14.6941 12.3866 14.6143 12.526 14.4721C12.6655 14.33 12.7439 14.1372 12.7439 13.9362V8.63689C12.7439 8.43589 12.6655 8.24311 12.526 8.10098C12.3866 7.95885 12.1974 7.879 12.0001 7.879C11.8029 7.879 11.6137 7.95885 11.4742 8.10098C11.3348 8.24311 11.2564 8.43589 11.2564 8.63689Z" fill="#262627"/>
<path d="M11.9999 16.1221C11.8205 16.1221 11.6451 16.1763 11.496 16.2778C11.3468 16.3794 11.2305 16.5237 11.1619 16.6926C11.0933 16.8615 11.0753 17.0474 11.1103 17.2267C11.1453 17.406 11.2318 17.5706 11.3586 17.6999C11.4855 17.8291 11.6472 17.9171 11.8231 17.9527C11.9991 17.9883 12.1814 17.97 12.3472 17.9C12.5129 17.8299 12.6545 17.7114 12.7541 17.5594C12.8537 17.4073 12.9068 17.2286 12.9067 17.0458C12.9067 16.9244 12.8832 16.8043 12.8376 16.6922C12.792 16.5801 12.7252 16.4783 12.641 16.3925C12.5568 16.3068 12.4569 16.2387 12.3469 16.1923C12.2369 16.1459 12.119 16.1221 11.9999 16.1221Z" fill="#262627"/>
<path d="M21.7548 18.2073L13.6464 3.92769C13.4876 3.64522 13.2583 3.41061 12.9818 3.24768C12.7052 3.08475 12.3913 2.99931 12.0718 3.00003H12.066C11.7478 2.99842 11.4348 3.08243 11.1586 3.24357C10.8825 3.40472 10.653 3.63729 10.4933 3.91779L2.25124 18.1974C2.08847 18.48 2.00181 18.8013 2.00003 19.129C1.99825 19.4567 2.0814 19.779 2.24109 20.0634C2.40078 20.3478 2.63134 20.5842 2.90945 20.7486C3.18755 20.9131 3.50335 20.9998 3.82489 21H20.1754C20.4959 20.9997 20.8107 20.9134 21.0882 20.7498C21.3656 20.5862 21.5959 20.3511 21.756 20.0681C21.916 19.7851 22.0002 19.4642 22 19.1375C21.9998 18.8109 21.9152 18.4901 21.7548 18.2073ZM20.3119 19.2198C20.2989 19.245 20.2792 19.2659 20.255 19.2802C20.2309 19.2945 20.2033 19.3016 20.1754 19.3007H3.82489C3.7971 19.3006 3.76984 19.2929 3.74583 19.2787C3.72183 19.2644 3.70192 19.2439 3.6881 19.2194C3.67428 19.1948 3.66703 19.167 3.66707 19.1386C3.66712 19.1103 3.67445 19.0825 3.68835 19.058L11.9304 4.77835C11.9437 4.75377 11.9634 4.7334 11.9873 4.71947C12.0112 4.70554 12.0384 4.6986 12.066 4.69941C12.0938 4.69855 12.1222 4.70556 12.1463 4.71967C12.1705 4.73379 12.1902 4.75444 12.2035 4.77934L20.3119 19.0579C20.3267 19.0823 20.3344 19.1103 20.3344 19.1389C20.3344 19.1674 20.3266 19.1955 20.3119 19.2198Z" fill="#262627"/>
</svg>
