<svg width="19" height="19" viewBox="0 0 19 19" fill="none" xmlns="http://www.w3.org/2000/svg">
<path d="M18.2772 10.2758C18.0935 10.2759 17.9174 10.3489 17.7875 10.4788C17.6576 10.6088 17.5847 10.785 17.5847 10.9687V16.4301C17.5833 16.7365 17.4603 17.0297 17.2428 17.2455C17.0254 17.4612 16.7312 17.5819 16.4248 17.5809H3.50482C3.19974 17.5807 2.90723 17.4593 2.69156 17.2435C2.47589 17.0278 2.3547 16.7352 2.35462 16.4301V3.50405C2.3545 3.19882 2.47559 2.90603 2.69128 2.69005C2.90696 2.47406 3.19958 2.35257 3.50482 2.35226H8.96331C9.1466 2.35157 9.32215 2.27826 9.45152 2.14841C9.58088 2.01855 9.65351 1.84272 9.65351 1.65943C9.65351 1.47613 9.58088 1.3003 9.45152 1.17045C9.32215 1.04059 9.1466 0.967289 8.96331 0.966593H3.50482C2.83239 0.967668 2.18784 1.23543 1.71259 1.71113C1.23733 2.18683 0.970173 2.83162 0.969727 3.50405V16.4301C0.970377 17.1024 1.23762 17.7469 1.71284 18.2224C2.18806 18.6979 2.83247 18.9655 3.50473 18.9666H16.4247C17.0983 18.967 17.7446 18.7001 18.2217 18.2246C18.6988 17.7491 18.9678 17.1037 18.9696 16.4301V10.9687C18.9697 10.785 18.8968 10.6088 18.7669 10.4789C18.6371 10.3489 18.4609 10.2759 18.2772 10.2758Z" fill="#262627"/>
<path d="M11.7957 8.83731C11.9794 8.83741 12.1556 8.76455 12.2857 8.63474L17.5737 3.34454V7.40173C17.5734 7.49275 17.591 7.58294 17.6256 7.66713C17.6602 7.75132 17.7111 7.82785 17.7753 7.89233C17.8396 7.95681 17.9159 8.00798 18 8.04289C18.084 8.0778 18.1741 8.09577 18.2652 8.09577C18.3562 8.09577 18.4463 8.0778 18.5303 8.04289C18.6144 8.00798 18.6907 7.95681 18.755 7.89233C18.8192 7.82785 18.8701 7.75132 18.9047 7.66713C18.9393 7.58294 18.9569 7.49275 18.9566 7.40173V1.72695C18.9684 1.63067 18.9593 1.53297 18.9301 1.4405C18.9008 1.34802 18.8519 1.26292 18.7869 1.19098C18.7218 1.11904 18.642 1.06194 18.5529 1.02356C18.4638 0.985184 18.3675 0.966423 18.2706 0.968553L18.2652 0.966553H12.4458C12.2625 0.967249 12.087 1.04055 11.9576 1.17041C11.8282 1.30026 11.7556 1.47609 11.7556 1.65939C11.7556 1.84268 11.8282 2.01851 11.9576 2.14837C12.087 2.27822 12.2625 2.35153 12.4458 2.35222H16.6047L11.3057 7.65519C11.209 7.75213 11.1432 7.87553 11.1166 8.00983C11.09 8.14413 11.1038 8.2833 11.1562 8.40977C11.2086 8.53625 11.2973 8.64435 11.4111 8.72045C11.525 8.79654 11.6587 8.83721 11.7957 8.83731Z" fill="#262627"/>
</svg>
