<svg width="24" height="24" viewBox="0 0 24 24" fill="none" xmlns="http://www.w3.org/2000/svg">
<path d="M20.2772 12.2758C20.0935 12.2759 19.9174 12.3489 19.7875 12.4788C19.6576 12.6088 19.5847 12.785 19.5847 12.9687V18.4301C19.5833 18.7365 19.4603 19.0297 19.2428 19.2455C19.0254 19.4612 18.7312 19.5819 18.4248 19.5809H5.50482C5.19974 19.5807 4.90723 19.4593 4.69156 19.2435C4.47589 19.0278 4.3547 18.7352 4.35462 18.4301V5.50405C4.3545 5.19882 4.47559 4.90603 4.69128 4.69005C4.90696 4.47406 5.19958 4.35257 5.50482 4.35226H10.9633C11.1466 4.35157 11.3222 4.27826 11.4515 4.14841C11.5809 4.01855 11.6535 3.84272 11.6535 3.65943C11.6535 3.47613 11.5809 3.3003 11.4515 3.17045C11.3222 3.04059 11.1466 2.96729 10.9633 2.96659H5.50482C4.83239 2.96767 4.18784 3.23543 3.71259 3.71113C3.23733 4.18683 2.97017 4.83162 2.96973 5.50405V18.4301C2.97038 19.1024 3.23762 19.7469 3.71284 20.2224C4.18806 20.6979 4.83247 20.9655 5.50473 20.9666H18.4247C19.0983 20.967 19.7446 20.7001 20.2217 20.2246C20.6988 19.7491 20.9678 19.1037 20.9696 18.4301V12.9687C20.9697 12.785 20.8968 12.6088 20.7669 12.4789C20.6371 12.3489 20.4609 12.2759 20.2772 12.2758Z" fill="#262627"/>
<path d="M13.7957 10.8373C13.9794 10.8374 14.1556 10.7646 14.2857 10.6347L19.5737 5.34454V9.40173C19.5734 9.49275 19.591 9.58294 19.6256 9.66713C19.6602 9.75132 19.7111 9.82785 19.7753 9.89233C19.8396 9.95681 19.9159 10.008 20 10.0429C20.084 10.0778 20.1741 10.0958 20.2652 10.0958C20.3562 10.0958 20.4463 10.0778 20.5303 10.0429C20.6144 10.008 20.6907 9.95681 20.755 9.89233C20.8192 9.82785 20.8701 9.75132 20.9047 9.66713C20.9393 9.58294 20.9569 9.49275 20.9566 9.40173V3.72695C20.9684 3.63067 20.9593 3.53297 20.9301 3.4405C20.9008 3.34802 20.8519 3.26292 20.7869 3.19098C20.7218 3.11904 20.642 3.06194 20.5529 3.02356C20.4638 2.98518 20.3675 2.96642 20.2706 2.96855L20.2652 2.96655H14.4458C14.2625 2.96725 14.087 3.04055 13.9576 3.17041C13.8282 3.30026 13.7556 3.47609 13.7556 3.65939C13.7556 3.84268 13.8282 4.01851 13.9576 4.14837C14.087 4.27822 14.2625 4.35153 14.4458 4.35222H18.6047L13.3057 9.65519C13.209 9.75213 13.1432 9.87553 13.1166 10.0098C13.09 10.1441 13.1038 10.2833 13.1562 10.4098C13.2086 10.5362 13.2973 10.6444 13.4111 10.7204C13.525 10.7965 13.6587 10.8372 13.7957 10.8373Z" fill="#262627"/>
</svg>
