<svg width="16" height="16" viewBox="0 0 16 16" fill="none" xmlns="http://www.w3.org/2000/svg">
<path d="M9.05107 8.00009L15.7821 1.26865C15.8511 1.1996 15.9059 1.11764 15.9432 1.02744C15.9805 0.93724 15.9997 0.840575 15.9996 0.742961C15.9996 0.645348 15.9803 0.548698 15.9429 0.45853C15.9055 0.368363 15.8508 0.286442 15.7817 0.217447C15.7127 0.148452 15.6307 0.0937327 15.5405 0.0564142C15.4503 0.0190956 15.3536 -9.16451e-05 15.256 -5.21791e-05C15.1584 -1.27131e-05 15.0618 0.0192525 14.9716 0.056644C14.8814 0.0940355 14.7995 0.148821 14.7305 0.217872L7.9998 6.94834L1.26945 0.217872C1.20051 0.148544 1.11858 0.0934948 1.02834 0.0558787C0.938097 0.0182625 0.841322 -0.00118237 0.743555 -0.00134179C0.645788 -0.0015012 0.54895 0.0176276 0.458587 0.0549493C0.368224 0.092271 0.286112 0.147052 0.216952 0.216156C0.147792 0.285259 0.0929435 0.367327 0.055548 0.45766C0.0181524 0.547992 -0.00105575 0.644814 -0.000976317 0.742581C-0.000896881 0.840348 0.0184686 0.937139 0.056011 1.02741C0.0935533 1.11768 0.148535 1.19966 0.217807 1.26865L6.94865 8.00009L0.217807 14.7306C0.148535 14.7996 0.0935533 14.8815 0.056011 14.9718C0.0184686 15.0621 -0.000896881 15.1589 -0.000976317 15.2566C-0.00105575 15.3544 0.0181524 15.4512 0.055548 15.5416C0.0929435 15.6319 0.147792 15.714 0.216952 15.7831C0.286112 15.8522 0.368224 15.9069 0.458587 15.9443C0.54895 15.9816 0.645788 16.0007 0.743555 16.0006C0.841322 16.0004 0.938097 15.981 1.02834 15.9433C1.11858 15.9057 1.20051 15.8507 1.26945 15.7813L7.9998 9.05088L14.7305 15.7823C14.7995 15.8514 14.8814 15.9062 14.9716 15.9436C15.0618 15.9809 15.1584 16.0002 15.256 16.0002C15.3536 16.0003 15.4503 15.9811 15.5405 15.9438C15.6307 15.9065 15.7127 15.8517 15.7817 15.7827C15.8508 15.7138 15.9055 15.6318 15.9429 15.5417C15.9803 15.4515 15.9996 15.3548 15.9996 15.2572C15.9997 15.1596 15.9805 15.063 15.9432 14.9728C15.9059 14.8826 15.8511 14.8006 15.7821 14.7315L9.05107 8.00009Z" fill="#262627"/>
</svg>
